<?xml version="1.0" encoding="UTF-8"?>
<svg xmlns="http://www.w3.org/2000/svg" xmlns:xlink="http://www.w3.org/1999/xlink" width="405.21pt" height="107.3pt" viewBox="0 0 405.21 107.3" version="1.2">
<defs>
<g>
<symbol overflow="visible" id="glyph0-0">
<path style="stroke:none;" d=""/>
</symbol>
<symbol overflow="visible" id="glyph0-1">
<path style="stroke:none;" d="M 3.484375 -3.15625 C 3.546875 -3.421875 3.78125 -4.390625 4.515625 -4.390625 C 4.578125 -4.390625 4.828125 -4.390625 5.046875 -4.25 C 4.75 -4.203125 4.546875 -3.9375 4.546875 -3.6875 C 4.546875 -3.515625 4.65625 -3.3125 4.9375 -3.3125 C 5.171875 -3.3125 5.5 -3.5 5.5 -3.921875 C 5.5 -4.46875 4.890625 -4.609375 4.53125 -4.609375 C 3.921875 -4.609375 3.5625 -4.0625 3.4375 -3.8125 C 3.171875 -4.515625 2.609375 -4.609375 2.3125 -4.609375 C 1.21875 -4.609375 0.625 -3.265625 0.625 -3 C 0.625 -2.90625 0.734375 -2.90625 0.75 -2.90625 C 0.828125 -2.90625 0.859375 -2.921875 0.890625 -3.015625 C 1.234375 -4.125 1.9375 -4.390625 2.28125 -4.390625 C 2.484375 -4.390625 2.84375 -4.296875 2.84375 -3.6875 C 2.84375 -3.359375 2.671875 -2.65625 2.28125 -1.203125 C 2.125 -0.546875 1.75 -0.109375 1.296875 -0.109375 C 1.234375 -0.109375 0.984375 -0.109375 0.765625 -0.25 C 1.03125 -0.296875 1.265625 -0.515625 1.265625 -0.8125 C 1.265625 -1.09375 1.03125 -1.171875 0.875 -1.171875 C 0.5625 -1.171875 0.296875 -0.90625 0.296875 -0.578125 C 0.296875 -0.09375 0.828125 0.109375 1.28125 0.109375 C 1.96875 0.109375 2.34375 -0.609375 2.375 -0.671875 C 2.5 -0.296875 2.875 0.109375 3.5 0.109375 C 4.578125 0.109375 5.171875 -1.234375 5.171875 -1.5 C 5.171875 -1.59375 5.078125 -1.59375 5.046875 -1.59375 C 4.953125 -1.59375 4.9375 -1.5625 4.921875 -1.484375 C 4.578125 -0.359375 3.859375 -0.109375 3.53125 -0.109375 C 3.125 -0.109375 2.953125 -0.453125 2.953125 -0.796875 C 2.953125 -1.03125 3.015625 -1.265625 3.125 -1.71875 Z M 3.484375 -3.15625 "/>
</symbol>
<symbol overflow="visible" id="glyph0-2">
<path style="stroke:none;" d="M 5.078125 -3.984375 C 5.109375 -4.125 5.109375 -4.140625 5.109375 -4.21875 C 5.109375 -4.40625 4.96875 -4.5 4.8125 -4.5 C 4.703125 -4.5 4.546875 -4.4375 4.453125 -4.28125 C 4.421875 -4.234375 4.34375 -3.90625 4.296875 -3.71875 C 4.234375 -3.4375 4.15625 -3.15625 4.09375 -2.875 L 3.625 -1 C 3.578125 -0.84375 3.125 -0.109375 2.4375 -0.109375 C 1.90625 -0.109375 1.796875 -0.578125 1.796875 -0.953125 C 1.796875 -1.4375 1.96875 -2.09375 2.328125 -3 C 2.5 -3.4375 2.53125 -3.546875 2.53125 -3.75 C 2.53125 -4.234375 2.203125 -4.609375 1.6875 -4.609375 C 0.6875 -4.609375 0.296875 -3.09375 0.296875 -3 C 0.296875 -2.90625 0.40625 -2.90625 0.421875 -2.90625 C 0.53125 -2.90625 0.546875 -2.921875 0.59375 -3.09375 C 0.875 -4.078125 1.296875 -4.390625 1.65625 -4.390625 C 1.734375 -4.390625 1.90625 -4.390625 1.90625 -4.046875 C 1.90625 -3.78125 1.8125 -3.515625 1.734375 -3.3125 C 1.3125 -2.21875 1.125 -1.625 1.125 -1.125 C 1.125 -0.203125 1.78125 0.109375 2.40625 0.109375 C 2.8125 0.109375 3.15625 -0.0625 3.453125 -0.359375 C 3.3125 0.1875 3.1875 0.703125 2.78125 1.25 C 2.5 1.609375 2.109375 1.90625 1.625 1.90625 C 1.484375 1.90625 1.015625 1.875 0.828125 1.46875 C 1 1.46875 1.140625 1.46875 1.28125 1.34375 C 1.390625 1.25 1.5 1.109375 1.5 0.921875 C 1.5 0.59375 1.203125 0.546875 1.109375 0.546875 C 0.859375 0.546875 0.515625 0.71875 0.515625 1.234375 C 0.515625 1.75 0.984375 2.140625 1.625 2.140625 C 2.703125 2.140625 3.78125 1.1875 4.078125 0.015625 Z M 5.078125 -3.984375 "/>
</symbol>
<symbol overflow="visible" id="glyph0-3">
<path style="stroke:none;" d="M 1.875 -1.203125 C 1.453125 -0.5 1.046875 -0.359375 0.578125 -0.328125 C 0.453125 -0.3125 0.359375 -0.3125 0.359375 -0.109375 C 0.359375 -0.046875 0.421875 0 0.5 0 C 0.78125 0 1.109375 -0.03125 1.40625 -0.03125 C 1.75 -0.03125 2.109375 0 2.4375 0 C 2.5 0 2.640625 0 2.640625 -0.203125 C 2.640625 -0.3125 2.546875 -0.328125 2.46875 -0.328125 C 2.234375 -0.34375 1.984375 -0.421875 1.984375 -0.6875 C 1.984375 -0.8125 2.046875 -0.921875 2.125 -1.078125 L 2.921875 -2.40625 L 5.546875 -2.40625 C 5.5625 -2.1875 5.703125 -0.765625 5.703125 -0.671875 C 5.703125 -0.359375 5.171875 -0.328125 4.953125 -0.328125 C 4.8125 -0.328125 4.703125 -0.328125 4.703125 -0.109375 C 4.703125 0 4.828125 0 4.859375 0 C 5.28125 0 5.734375 -0.03125 6.15625 -0.03125 C 6.421875 -0.03125 7.078125 0 7.34375 0 C 7.40625 0 7.53125 0 7.53125 -0.203125 C 7.53125 -0.328125 7.421875 -0.328125 7.28125 -0.328125 C 6.640625 -0.328125 6.640625 -0.390625 6.609375 -0.703125 L 5.96875 -7.21875 C 5.953125 -7.4375 5.953125 -7.46875 5.765625 -7.46875 C 5.609375 -7.46875 5.5625 -7.40625 5.5 -7.296875 Z M 3.125 -2.734375 L 5.171875 -6.171875 L 5.515625 -2.734375 Z M 3.125 -2.734375 "/>
</symbol>
<symbol overflow="visible" id="glyph0-4">
<path style="stroke:none;" d="M 2 -0.546875 C 2 -0.859375 1.75 -1.109375 1.453125 -1.109375 C 1.140625 -1.109375 0.890625 -0.859375 0.890625 -0.546875 C 0.890625 -0.25 1.140625 0 1.453125 0 C 1.75 0 2 -0.25 2 -0.546875 Z M 2 -0.546875 "/>
</symbol>
<symbol overflow="visible" id="glyph0-5">
<path style="stroke:none;" d="M 2.765625 -3.890625 L 3.953125 -3.890625 C 3.59375 -2.34375 3.5 -1.90625 3.5 -1.203125 C 3.5 -1.046875 3.5 -0.765625 3.59375 -0.40625 C 3.6875 0.046875 3.8125 0.109375 3.96875 0.109375 C 4.171875 0.109375 4.390625 -0.078125 4.390625 -0.28125 C 4.390625 -0.34375 4.390625 -0.359375 4.328125 -0.515625 C 4.03125 -1.265625 4.03125 -1.9375 4.03125 -2.234375 C 4.03125 -2.78125 4.109375 -3.34375 4.21875 -3.890625 L 5.40625 -3.890625 C 5.546875 -3.890625 5.921875 -3.890625 5.921875 -4.25 C 5.921875 -4.5 5.703125 -4.5 5.5 -4.5 L 2 -4.5 C 1.78125 -4.5 1.375 -4.5 0.921875 -4.015625 C 0.546875 -3.59375 0.28125 -3.125 0.28125 -3.0625 C 0.28125 -3.0625 0.28125 -2.96875 0.40625 -2.96875 C 0.484375 -2.96875 0.515625 -3 0.578125 -3.09375 C 1.078125 -3.890625 1.6875 -3.890625 1.90625 -3.890625 L 2.5 -3.890625 C 2.15625 -2.625 1.59375 -1.375 1.15625 -0.421875 C 1.078125 -0.265625 1.078125 -0.234375 1.078125 -0.171875 C 1.078125 0.03125 1.234375 0.109375 1.375 0.109375 C 1.6875 0.109375 1.78125 -0.171875 1.90625 -0.5625 C 2.046875 -1.046875 2.046875 -1.0625 2.1875 -1.59375 Z M 2.765625 -3.890625 "/>
</symbol>
<symbol overflow="visible" id="glyph0-6">
<path style="stroke:none;" d="M 1.671875 -0.8125 C 1.5625 -0.40625 1.546875 -0.328125 0.71875 -0.328125 C 0.546875 -0.328125 0.4375 -0.328125 0.4375 -0.109375 C 0.4375 0 0.53125 0 0.71875 0 L 4.453125 0 C 6.09375 0 7.328125 -1.234375 7.328125 -2.25 C 7.328125 -3 6.71875 -3.609375 5.703125 -3.71875 C 6.796875 -3.921875 7.890625 -4.703125 7.890625 -5.6875 C 7.890625 -6.453125 7.203125 -7.125 5.953125 -7.125 L 2.4375 -7.125 C 2.25 -7.125 2.140625 -7.125 2.140625 -6.921875 C 2.140625 -6.8125 2.234375 -6.8125 2.4375 -6.8125 C 2.453125 -6.8125 2.65625 -6.8125 2.828125 -6.78125 C 3.015625 -6.765625 3.109375 -6.75 3.109375 -6.625 C 3.109375 -6.578125 3.09375 -6.546875 3.0625 -6.421875 Z M 3.25 -3.8125 L 3.890625 -6.40625 C 3.984375 -6.78125 4.015625 -6.8125 4.453125 -6.8125 L 5.796875 -6.8125 C 6.71875 -6.8125 6.9375 -6.1875 6.9375 -5.734375 C 6.9375 -4.8125 6.046875 -3.8125 4.765625 -3.8125 Z M 2.78125 -0.328125 C 2.625 -0.328125 2.609375 -0.328125 2.546875 -0.328125 C 2.4375 -0.34375 2.40625 -0.359375 2.40625 -0.4375 C 2.40625 -0.46875 2.40625 -0.484375 2.46875 -0.671875 L 3.1875 -3.59375 L 5.15625 -3.59375 C 6.15625 -3.59375 6.359375 -2.8125 6.359375 -2.375 C 6.359375 -1.34375 5.421875 -0.328125 4.203125 -0.328125 Z M 2.78125 -0.328125 "/>
</symbol>
<symbol overflow="visible" id="glyph0-7">
<path style="stroke:none;" d="M 7.9375 -7.25 C 7.9375 -7.28125 7.90625 -7.359375 7.8125 -7.359375 C 7.78125 -7.359375 7.78125 -7.34375 7.65625 -7.234375 L 6.9375 -6.421875 C 6.84375 -6.578125 6.359375 -7.359375 5.203125 -7.359375 C 2.875 -7.359375 0.515625 -5.046875 0.515625 -2.625 C 0.515625 -0.90625 1.75 0.234375 3.34375 0.234375 C 4.265625 0.234375 5.046875 -0.1875 5.609375 -0.671875 C 6.578125 -1.53125 6.75 -2.46875 6.75 -2.5 C 6.75 -2.609375 6.65625 -2.609375 6.625 -2.609375 C 6.5625 -2.609375 6.515625 -2.59375 6.484375 -2.5 C 6.390625 -2.203125 6.15625 -1.46875 5.4375 -0.859375 C 4.71875 -0.265625 4.0625 -0.09375 3.515625 -0.09375 C 2.578125 -0.09375 1.46875 -0.640625 1.46875 -2.265625 C 1.46875 -2.859375 1.6875 -4.546875 2.734375 -5.765625 C 3.375 -6.515625 4.359375 -7.03125 5.28125 -7.03125 C 6.34375 -7.03125 6.96875 -6.234375 6.96875 -5.015625 C 6.96875 -4.609375 6.9375 -4.59375 6.9375 -4.484375 C 6.9375 -4.390625 7.046875 -4.390625 7.09375 -4.390625 C 7.21875 -4.390625 7.21875 -4.40625 7.28125 -4.59375 Z M 7.9375 -7.25 "/>
</symbol>
<symbol overflow="visible" id="glyph0-8">
<path style="stroke:none;" d="M 1.65625 -0.8125 C 1.5625 -0.40625 1.53125 -0.328125 0.703125 -0.328125 C 0.53125 -0.328125 0.421875 -0.328125 0.421875 -0.125 C 0.421875 0 0.515625 0 0.703125 0 L 4.171875 0 C 6.328125 0 8.390625 -2.203125 8.390625 -4.484375 C 8.390625 -5.953125 7.5 -7.125 5.9375 -7.125 L 2.4375 -7.125 C 2.234375 -7.125 2.125 -7.125 2.125 -6.9375 C 2.125 -6.8125 2.21875 -6.8125 2.421875 -6.8125 C 2.5625 -6.8125 2.75 -6.796875 2.875 -6.78125 C 3.03125 -6.765625 3.09375 -6.734375 3.09375 -6.625 C 3.09375 -6.578125 3.09375 -6.546875 3.0625 -6.421875 Z M 3.90625 -6.40625 C 4.015625 -6.78125 4.03125 -6.8125 4.484375 -6.8125 L 5.59375 -6.8125 C 6.625 -6.8125 7.484375 -6.25 7.484375 -4.875 C 7.484375 -4.359375 7.28125 -2.65625 6.390625 -1.5 C 6.078125 -1.109375 5.265625 -0.328125 3.984375 -0.328125 L 2.796875 -0.328125 C 2.65625 -0.328125 2.625 -0.328125 2.5625 -0.328125 C 2.46875 -0.34375 2.4375 -0.359375 2.4375 -0.4375 C 2.4375 -0.46875 2.4375 -0.484375 2.484375 -0.671875 Z M 3.90625 -6.40625 "/>
</symbol>
<symbol overflow="visible" id="glyph1-0">
<path style="stroke:none;" d=""/>
</symbol>
<symbol overflow="visible" id="glyph1-1">
<path style="stroke:none;" d="M 1.328125 -0.796875 L 2.4375 -1.875 C 4.0625 -3.3125 4.6875 -3.875 4.6875 -4.921875 C 4.6875 -6.109375 3.75 -6.953125 2.46875 -6.953125 C 1.296875 -6.953125 0.515625 -5.984375 0.515625 -5.0625 C 0.515625 -4.484375 1.046875 -4.484375 1.078125 -4.484375 C 1.25 -4.484375 1.625 -4.609375 1.625 -5.03125 C 1.625 -5.296875 1.4375 -5.578125 1.0625 -5.578125 C 0.984375 -5.578125 0.953125 -5.578125 0.921875 -5.5625 C 1.171875 -6.234375 1.734375 -6.625 2.34375 -6.625 C 3.28125 -6.625 3.734375 -5.78125 3.734375 -4.921875 C 3.734375 -4.09375 3.21875 -3.265625 2.640625 -2.625 L 0.640625 -0.390625 C 0.515625 -0.265625 0.515625 -0.25 0.515625 0 L 4.390625 0 L 4.6875 -1.8125 L 4.421875 -1.8125 C 4.375 -1.5 4.296875 -1.046875 4.203125 -0.890625 C 4.125 -0.796875 3.4375 -0.796875 3.203125 -0.796875 Z M 1.328125 -0.796875 "/>
</symbol>
<symbol overflow="visible" id="glyph2-0">
<path style="stroke:none;" d=""/>
</symbol>
<symbol overflow="visible" id="glyph2-1">
<path style="stroke:none;" d="M 2.15625 -2.515625 L 2.96875 -2.515625 C 2.875 -2.09375 2.71875 -1.46875 2.71875 -0.921875 C 2.71875 -0.640625 2.75 -0.453125 2.796875 -0.296875 C 2.90625 0.046875 3 0.0625 3.109375 0.0625 C 3.265625 0.0625 3.4375 -0.078125 3.4375 -0.25 C 3.4375 -0.296875 3.421875 -0.328125 3.375 -0.390625 C 3.25 -0.65625 3.125 -1.046875 3.125 -1.609375 C 3.125 -1.75 3.125 -2.015625 3.21875 -2.515625 L 4.078125 -2.515625 C 4.203125 -2.515625 4.265625 -2.515625 4.34375 -2.5625 C 4.4375 -2.640625 4.453125 -2.75 4.453125 -2.78125 C 4.453125 -2.984375 4.28125 -2.984375 4.15625 -2.984375 L 1.546875 -2.984375 C 1.265625 -2.984375 1.078125 -2.921875 0.765625 -2.625 C 0.578125 -2.46875 0.3125 -2.09375 0.3125 -2.03125 C 0.3125 -1.953125 0.40625 -1.953125 0.421875 -1.953125 C 0.5 -1.953125 0.515625 -1.96875 0.546875 -2.03125 C 0.90625 -2.515625 1.328125 -2.515625 1.484375 -2.515625 L 1.90625 -2.515625 C 1.703125 -1.75 1.328125 -0.9375 1.109375 -0.515625 C 1.078125 -0.421875 1 -0.28125 0.984375 -0.25 C 0.96875 -0.234375 0.96875 -0.203125 0.96875 -0.15625 C 0.96875 -0.046875 1.046875 0.0625 1.203125 0.0625 C 1.484375 0.0625 1.5625 -0.25 1.71875 -0.859375 Z M 2.15625 -2.515625 "/>
</symbol>
<symbol overflow="visible" id="glyph2-2">
<path style="stroke:none;" d="M 3.953125 -4.59375 C 3.953125 -4.609375 3.984375 -4.703125 3.984375 -4.703125 C 3.984375 -4.734375 3.953125 -4.796875 3.875 -4.796875 C 3.734375 -4.796875 3.15625 -4.75 2.984375 -4.734375 C 2.921875 -4.734375 2.828125 -4.71875 2.828125 -4.578125 C 2.828125 -4.484375 2.921875 -4.484375 3.015625 -4.484375 C 3.34375 -4.484375 3.34375 -4.4375 3.34375 -4.375 C 3.34375 -4.328125 3.328125 -4.28125 3.3125 -4.21875 L 2.921875 -2.640625 C 2.78125 -2.875 2.546875 -3.046875 2.203125 -3.046875 C 1.328125 -3.046875 0.421875 -2.078125 0.421875 -1.078125 C 0.421875 -0.40625 0.875 0.0625 1.46875 0.0625 C 1.84375 0.0625 2.171875 -0.140625 2.453125 -0.421875 C 2.578125 0 2.984375 0.0625 3.15625 0.0625 C 3.40625 0.0625 3.578125 -0.078125 3.703125 -0.296875 C 3.859375 -0.5625 3.953125 -0.96875 3.953125 -0.984375 C 3.953125 -1.078125 3.859375 -1.078125 3.84375 -1.078125 C 3.75 -1.078125 3.734375 -1.046875 3.6875 -0.859375 C 3.609375 -0.53125 3.46875 -0.125 3.1875 -0.125 C 3 -0.125 2.953125 -0.28125 2.953125 -0.46875 C 2.953125 -0.59375 2.96875 -0.65625 2.984375 -0.75 Z M 2.484375 -0.859375 C 2.421875 -0.671875 2.28125 -0.53125 2.125 -0.40625 C 2.0625 -0.34375 1.78125 -0.125 1.484375 -0.125 C 1.234375 -0.125 0.984375 -0.296875 0.984375 -0.796875 C 0.984375 -1.15625 1.1875 -1.921875 1.34375 -2.203125 C 1.65625 -2.75 2.015625 -2.859375 2.203125 -2.859375 C 2.6875 -2.859375 2.828125 -2.328125 2.828125 -2.25 C 2.828125 -2.234375 2.8125 -2.1875 2.796875 -2.15625 Z M 2.484375 -0.859375 "/>
</symbol>
<symbol overflow="visible" id="glyph3-0">
<path style="stroke:none;" d=""/>
</symbol>
<symbol overflow="visible" id="glyph3-1">
<path style="stroke:none;" d="M 3.5 -1.265625 L 3.265625 -1.265625 C 3.234375 -1.109375 3.171875 -0.703125 3.078125 -0.625 C 3.03125 -0.59375 2.484375 -0.59375 2.390625 -0.59375 L 1.125 -0.59375 C 1.84375 -1.234375 2.09375 -1.421875 2.5 -1.75 C 3.015625 -2.15625 3.5 -2.59375 3.5 -3.25 C 3.5 -4.078125 2.765625 -4.59375 1.875 -4.59375 C 1.015625 -4.59375 0.4375 -4 0.4375 -3.359375 C 0.4375 -3 0.734375 -2.96875 0.796875 -2.96875 C 0.96875 -2.96875 1.171875 -3.09375 1.171875 -3.34375 C 1.171875 -3.453125 1.125 -3.703125 0.765625 -3.703125 C 0.96875 -4.1875 1.453125 -4.34375 1.765625 -4.34375 C 2.46875 -4.34375 2.828125 -3.8125 2.828125 -3.25 C 2.828125 -2.640625 2.390625 -2.171875 2.171875 -1.921875 L 0.5 -0.265625 C 0.4375 -0.203125 0.4375 -0.1875 0.4375 0 L 3.28125 0 Z M 3.5 -1.265625 "/>
</symbol>
<symbol overflow="visible" id="glyph3-2">
<path style="stroke:none;" d="M 1.890625 -2.3125 C 2.421875 -2.3125 2.8125 -1.9375 2.8125 -1.203125 C 2.8125 -0.34375 2.3125 -0.078125 1.921875 -0.078125 C 1.640625 -0.078125 1.03125 -0.15625 0.734375 -0.5625 C 1.0625 -0.578125 1.140625 -0.8125 1.140625 -0.953125 C 1.140625 -1.171875 0.96875 -1.328125 0.765625 -1.328125 C 0.5625 -1.328125 0.375 -1.21875 0.375 -0.9375 C 0.375 -0.28125 1.09375 0.140625 1.9375 0.140625 C 2.890625 0.140625 3.5625 -0.5 3.5625 -1.203125 C 3.5625 -1.734375 3.109375 -2.28125 2.359375 -2.4375 C 3.078125 -2.703125 3.34375 -3.21875 3.34375 -3.640625 C 3.34375 -4.1875 2.71875 -4.59375 1.9375 -4.59375 C 1.171875 -4.59375 0.59375 -4.21875 0.59375 -3.671875 C 0.59375 -3.4375 0.734375 -3.296875 0.953125 -3.296875 C 1.15625 -3.296875 1.296875 -3.453125 1.296875 -3.65625 C 1.296875 -3.859375 1.15625 -4 0.953125 -4.015625 C 1.1875 -4.3125 1.671875 -4.390625 1.921875 -4.390625 C 2.234375 -4.390625 2.671875 -4.25 2.671875 -3.640625 C 2.671875 -3.34375 2.578125 -3.03125 2.390625 -2.8125 C 2.171875 -2.546875 1.96875 -2.546875 1.625 -2.515625 C 1.453125 -2.5 1.4375 -2.5 1.40625 -2.5 C 1.390625 -2.5 1.328125 -2.484375 1.328125 -2.40625 C 1.328125 -2.3125 1.390625 -2.3125 1.515625 -2.3125 Z M 1.890625 -2.3125 "/>
</symbol>
</g>
</defs>
<g id="surface1">
<path style="fill:none;stroke-width:0.3985;stroke-linecap:butt;stroke-linejoin:miter;stroke:rgb(0%,0%,0%);stroke-opacity:1;stroke-miterlimit:10;" d="M 0.000516076 -0.00115354 L 69.761263 -0.00115354 " transform="matrix(0.993519,0,0,-0.993519,18.237769,81.987135)"/>
<path style="fill:none;stroke-width:0.3985;stroke-linecap:round;stroke-linejoin:round;stroke:rgb(0%,0%,0%);stroke-opacity:1;stroke-miterlimit:10;" d="M -2.072794 2.38934 C -1.695348 0.958189 -0.850025 0.278 -0.000770513 -0.00115354 C -0.850025 -0.280307 -1.695348 -0.956565 -2.072794 -2.391647 " transform="matrix(0.993519,0,0,-0.993519,87.742953,81.987135)"/>
<g style="fill:rgb(0%,0%,0%);fill-opacity:1;">
  <use xlink:href="#glyph0-1" x="84.959492" y="90.153857"/>
</g>
<path style="fill:none;stroke-width:0.3985;stroke-linecap:butt;stroke-linejoin:miter;stroke:rgb(0%,0%,0%);stroke-opacity:1;stroke-miterlimit:10;" d="M 0.000516076 -12.755697 L 0.000516076 50.623846 " transform="matrix(0.993519,0,0,-0.993519,18.237769,81.987135)"/>
<path style="fill:none;stroke-width:0.3985;stroke-linecap:round;stroke-linejoin:round;stroke:rgb(0%,0%,0%);stroke-opacity:1;stroke-miterlimit:10;" d="M -2.072309 2.389978 C -1.694862 0.954895 -0.84954 0.278637 -0.000285135 -0.000516076 C -0.84954 -0.279669 -1.694862 -0.955927 -2.072309 -2.39101 " transform="matrix(0,-0.993519,-0.993519,0,18.237769,31.491904)"/>
<g style="fill:rgb(0%,0%,0%);fill-opacity:1;">
  <use xlink:href="#glyph0-2" x="15.49367" y="25.59105"/>
</g>
<path style="fill:none;stroke-width:0.3985;stroke-linecap:butt;stroke-linejoin:miter;stroke:rgb(0%,0%,0%);stroke-opacity:1;stroke-dasharray:2.98883,2.98883;stroke-miterlimit:10;" d="M 0.000516076 25.511865 L 20.03663 25.511865 L 20.03663 -0.00115354 " transform="matrix(0.993519,0,0,-0.993519,18.237769,81.987135)"/>
<g style="fill:rgb(0%,0%,0%);fill-opacity:1;">
  <use xlink:href="#glyph1-1" x="9.346771" y="60.001564"/>
</g>
<g style="fill:rgb(0%,0%,0%);fill-opacity:1;">
  <use xlink:href="#glyph2-1" x="35.705811" y="88.645696"/>
</g>
<path style="fill:none;stroke-width:0.42;stroke-linecap:butt;stroke-linejoin:miter;stroke:rgb(0%,0%,0%);stroke-opacity:1;stroke-miterlimit:10;" d="M -53.373772 -7.895613 L -48.466969 -7.895613 " transform="matrix(0.993519,0,0,-0.993519,88.734862,82.300094)"/>
<g style="fill:rgb(0%,0%,0%);fill-opacity:1;">
  <use xlink:href="#glyph3-1" x="36.171771" y="96.350432"/>
</g>
<path style="fill:none;stroke-width:0.3985;stroke-linecap:butt;stroke-linejoin:miter;stroke:rgb(0%,0%,0%);stroke-opacity:1;stroke-dasharray:2.98883,2.98883;stroke-miterlimit:10;" d="M 60.112789 51.024883 L 60.112789 -0.00115354 " transform="matrix(0.993519,0,0,-0.993519,18.237769,81.987135)"/>
<g style="fill:rgb(0%,0%,0%);fill-opacity:1;">
  <use xlink:href="#glyph3-2" x="73.546944" y="90.127032"/>
</g>
<g style="fill:rgb(0%,0%,0%);fill-opacity:1;">
  <use xlink:href="#glyph2-1" x="77.4932" y="90.127032"/>
</g>
<path style="fill:none;stroke-width:0.42;stroke-linecap:butt;stroke-linejoin:miter;stroke:rgb(0%,0%,0%);stroke-opacity:1;stroke-miterlimit:10;" d="M -53.37507 -7.89474 L -44.493284 -7.89474 " transform="matrix(0.993519,0,0,-0.993519,126.575995,83.78143)"/>
<g style="fill:rgb(0%,0%,0%);fill-opacity:1;">
  <use xlink:href="#glyph3-1" x="75.986032" y="97.831769"/>
</g>
<g style="fill:rgb(0%,0%,0%);fill-opacity:1;">
  <use xlink:href="#glyph0-3" x="12.876743" y="91.888541"/>
  <use xlink:href="#glyph0-4" x="20.700701" y="91.888541"/>
</g>
<g style="fill:rgb(0%,0%,0%);fill-opacity:1;">
  <use xlink:href="#glyph0-5" x="54.891647" y="90.153857"/>
</g>
<path style="fill:none;stroke-width:0.3985;stroke-linecap:butt;stroke-linejoin:miter;stroke:rgb(0%,0%,0%);stroke-opacity:1;stroke-miterlimit:10;" d="M 21.381283 25.511865 C 21.381283 26.254962 20.779727 26.856518 20.03663 26.856518 C 19.293532 26.856518 18.691977 26.254962 18.691977 25.511865 C 18.691977 24.768767 19.293532 24.167212 20.03663 24.167212 C 20.779727 24.167212 21.381283 24.768767 21.381283 25.511865 Z M 21.381283 25.511865 " transform="matrix(0.993519,0,0,-0.993519,18.237769,81.987135)"/>
<path style="fill:none;stroke-width:0.3985;stroke-linecap:butt;stroke-linejoin:miter;stroke:rgb(0%,0%,0%);stroke-opacity:1;stroke-miterlimit:10;" d="M 20.03663 25.511865 C 20.03663 25.511865 20.638185 25.488274 20.870157 25.456821 C 21.10213 25.425367 21.475644 25.354596 21.707616 25.291688 C 21.939589 25.232712 22.309172 25.110828 22.541144 25.020398 C 22.773116 24.929968 23.142699 24.760904 23.374671 24.642952 C 23.606644 24.521068 23.980158 24.304823 24.212131 24.155417 C 24.444103 24.009943 24.813686 23.746517 25.045658 23.569589 C 25.27763 23.392661 25.647213 23.085985 25.879186 22.881535 C 26.111158 22.677085 26.484673 22.327161 26.716645 22.095188 C 26.948617 21.863216 27.3182 21.470043 27.550172 21.210548 C 27.782145 20.954986 28.151728 20.522495 28.3837 20.23941 C 28.615672 19.956325 28.989187 19.484517 29.221159 19.181774 C 29.453131 18.875099 29.822714 18.367905 30.054687 18.041571 C 30.286659 17.711306 30.656242 17.168726 30.888214 16.822734 C 31.120186 16.47281 31.493701 15.898777 31.725673 15.533125 C 31.957646 15.163542 32.327229 14.558055 32.559201 14.176677 C 32.791173 13.791367 33.160756 13.158358 33.392728 12.757322 C 33.624701 12.356285 33.998215 11.699685 34.230188 11.282921 C 34.46216 10.870089 34.831743 10.193831 35.063715 9.765272 C 35.295687 9.336713 35.66527 8.640797 35.897243 8.204374 C 36.129215 7.76402 36.502729 7.052376 36.734702 6.604159 C 36.966674 6.159873 37.336257 5.432502 37.568229 4.980353 C 37.800202 4.524272 38.169784 3.792969 38.401757 3.332956 C 38.633729 2.872944 39.007244 2.133778 39.239216 1.669833 C 39.471188 1.20982 40.072743 0.00277819 40.072743 0.00277819 " transform="matrix(0.993519,0,0,-0.993519,18.237769,81.987135)"/>
<path style="fill:none;stroke-width:0.3985;stroke-linecap:butt;stroke-linejoin:miter;stroke:rgb(0%,0%,0%);stroke-opacity:1;stroke-miterlimit:10;" d="M 40.072743 -0.00115354 C 40.072743 -0.00115354 40.524893 0.903145 40.701821 1.253069 C 40.874817 1.599062 41.15397 2.1613 41.326966 2.511224 C 41.499963 2.861148 41.779116 3.427318 41.952112 3.781174 C 42.125108 4.138962 42.404261 4.709063 42.577258 5.070783 C 42.750254 5.432502 43.029407 6.01833 43.202403 6.387913 C 43.379331 6.757496 43.654553 7.35512 43.831481 7.736498 C 44.004477 8.113944 44.28363 8.731226 44.456626 9.1244 C 44.629623 9.517573 44.908776 10.154514 45.081772 10.563414 C 45.254768 10.968383 45.533921 11.636777 45.706918 12.061405 C 45.879914 12.486032 46.159067 13.181949 46.332063 13.630166 C 46.508991 14.078384 46.784212 14.809686 46.96114 15.285426 C 47.134137 15.757234 47.41329 16.535717 47.586286 17.038979 C 47.759282 17.542241 48.038435 18.371837 48.211432 18.914416 C 48.384428 19.453064 48.663581 20.345567 48.836577 20.927464 C 49.009574 21.50936 49.288727 22.480498 49.461723 23.113507 C 49.638651 23.746517 49.913872 24.804153 50.0908 25.50007 C 50.263797 26.195986 50.54295 27.363711 50.715946 28.134331 C 50.888942 28.908883 51.168095 30.202423 51.341092 31.071336 C 51.514088 31.936317 51.793241 33.39499 51.966237 34.381856 C 52.139233 35.364789 52.418387 37.027912 52.591383 38.160251 C 52.768311 39.292591 53.047464 41.215208 53.22046 42.536271 C 53.393456 43.857333 53.67261 46.114148 53.845606 47.690773 C 54.018602 49.263467 54.297755 51.972431 54.470751 53.891117 C 54.643748 55.813735 55.095897 61.530475 55.095897 61.530475 " transform="matrix(0.993519,0,0,-0.993519,18.237769,81.987135)"/>
<path style="fill:none;stroke-width:0.3985;stroke-linecap:butt;stroke-linejoin:miter;stroke:rgb(0%,0%,0%);stroke-opacity:1;stroke-miterlimit:10;" d="M 102.048658 -0.00115354 L 171.805473 -0.00115354 " transform="matrix(0.993519,0,0,-0.993519,18.237769,81.987135)"/>
<path style="fill:none;stroke-width:0.3985;stroke-linecap:round;stroke-linejoin:round;stroke:rgb(0%,0%,0%);stroke-opacity:1;stroke-miterlimit:10;" d="M -2.072502 2.38934 C -1.695056 0.958189 -0.849733 0.278 -0.000478621 -0.00115354 C -0.849733 -0.280307 -1.695056 -0.956565 -2.072502 -2.391647 " transform="matrix(0.993519,0,0,-0.993519,189.129382,81.987135)"/>
<g style="fill:rgb(0%,0%,0%);fill-opacity:1;">
  <use xlink:href="#glyph0-1" x="186.346069" y="90.153857"/>
</g>
<path style="fill:none;stroke-width:0.3985;stroke-linecap:butt;stroke-linejoin:miter;stroke:rgb(0%,0%,0%);stroke-opacity:1;stroke-miterlimit:10;" d="M 102.048658 -12.755697 L 102.048658 50.623846 " transform="matrix(0.993519,0,0,-0.993519,18.237769,81.987135)"/>
<path style="fill:none;stroke-width:0.3985;stroke-linecap:round;stroke-linejoin:round;stroke:rgb(0%,0%,0%);stroke-opacity:1;stroke-miterlimit:10;" d="M -2.072309 2.389686 C -1.694862 0.954603 -0.84954 0.278345 -0.000285135 -0.000807968 C -0.84954 -0.279961 -1.694862 -0.956219 -2.072309 -2.391302 " transform="matrix(0,-0.993519,-0.993519,0,119.624197,31.491904)"/>
<g style="fill:rgb(0%,0%,0%);fill-opacity:1;">
  <use xlink:href="#glyph0-2" x="116.879255" y="25.59105"/>
</g>
<path style="fill:none;stroke-width:0.3985;stroke-linecap:butt;stroke-linejoin:miter;stroke:rgb(0%,0%,0%);stroke-opacity:1;stroke-dasharray:2.98883,2.98883;stroke-miterlimit:10;" d="M 102.048658 25.511865 L 162.156999 25.511865 L 162.156999 -0.00115354 " transform="matrix(0.993519,0,0,-0.993519,18.237769,81.987135)"/>
<g style="fill:rgb(0%,0%,0%);fill-opacity:1;">
  <use xlink:href="#glyph1-1" x="110.733349" y="60.001564"/>
</g>
<g style="fill:rgb(0%,0%,0%);fill-opacity:1;">
  <use xlink:href="#glyph2-2" x="174.846093" y="90.47377"/>
  <use xlink:href="#glyph2-1" x="178.961681" y="90.47377"/>
</g>
<path style="fill:none;stroke-width:0.42;stroke-linecap:butt;stroke-linejoin:miter;stroke:rgb(0%,0%,0%);stroke-opacity:1;stroke-miterlimit:10;" d="M -53.373426 -7.895664 L -44.318644 -7.895664 " transform="matrix(0.993519,0,0,-0.993519,227.875144,84.128168)"/>
<g style="fill:rgb(0%,0%,0%);fill-opacity:1;">
  <use xlink:href="#glyph3-1" x="177.37261" y="98.178506"/>
</g>
<path style="fill:none;stroke-width:0.3985;stroke-linecap:butt;stroke-linejoin:miter;stroke:rgb(0%,0%,0%);stroke-opacity:1;stroke-dasharray:2.98883,2.98883;stroke-miterlimit:10;" d="M 122.084772 51.024883 L 122.084772 -0.00115354 " transform="matrix(0.993519,0,0,-0.993519,18.237769,81.987135)"/>
<g style="fill:rgb(0%,0%,0%);fill-opacity:1;">
  <use xlink:href="#glyph2-1" x="137.092389" y="88.645696"/>
</g>
<path style="fill:none;stroke-width:0.42;stroke-linecap:butt;stroke-linejoin:miter;stroke:rgb(0%,0%,0%);stroke-opacity:1;stroke-miterlimit:10;" d="M -53.37363 -7.895613 L -48.466827 -7.895613 " transform="matrix(0.993519,0,0,-0.993519,190.12144,82.300094)"/>
<g style="fill:rgb(0%,0%,0%);fill-opacity:1;">
  <use xlink:href="#glyph3-1" x="137.558349" y="96.350432"/>
</g>
<g style="fill:rgb(0%,0%,0%);fill-opacity:1;">
  <use xlink:href="#glyph0-6" x="113.957317" y="91.888541"/>
</g>
<g style="fill:rgb(0%,0%,0%);fill-opacity:1;">
  <use xlink:href="#glyph0-4" x="122.386328" y="91.888541"/>
</g>
<g style="fill:rgb(0%,0%,0%);fill-opacity:1;">
  <use xlink:href="#glyph0-5" x="156.278225" y="90.153857"/>
</g>
<path style="fill:none;stroke-width:0.3985;stroke-linecap:butt;stroke-linejoin:miter;stroke:rgb(0%,0%,0%);stroke-opacity:1;stroke-miterlimit:10;" d="M 163.505584 25.511865 C 163.505584 26.254962 162.900097 26.856518 162.156999 26.856518 C 161.417833 26.856518 160.812346 26.254962 160.812346 25.511865 C 160.812346 24.768767 161.417833 24.167212 162.156999 24.167212 C 162.900097 24.167212 163.505584 24.768767 163.505584 25.511865 Z M 163.505584 25.511865 " transform="matrix(0.993519,0,0,-0.993519,18.237769,81.987135)"/>
<path style="fill:none;stroke-width:0.3985;stroke-linecap:butt;stroke-linejoin:miter;stroke:rgb(0%,0%,0%);stroke-opacity:1;stroke-miterlimit:10;" d="M 127.0938 61.597315 C 127.0938 61.597315 127.545949 55.864847 127.718946 53.942229 C 127.895874 52.019612 128.171095 49.306716 128.348023 47.730091 C 128.521019 46.149534 128.800172 43.892719 128.973169 42.567725 C 129.146165 41.246662 129.425318 39.316181 129.598314 38.183842 C 129.771311 37.051503 130.050464 35.388379 130.22346 34.401514 C 130.400388 33.418581 130.675609 31.955976 130.852537 31.090995 C 131.025534 30.222082 131.304687 28.92461 131.477683 28.150058 C 131.650679 27.375507 131.929832 26.211713 132.102829 25.511865 C 132.275825 24.815948 132.554978 23.758312 132.727974 23.125303 C 132.904902 22.488362 133.180123 21.521155 133.357051 20.939259 C 133.530048 20.353431 133.809201 19.460927 133.982197 18.92228 C 134.155193 18.3797 134.434346 17.550105 134.607343 17.046843 C 134.780339 16.543581 135.059492 15.765098 135.232488 15.29329 C 135.409416 14.81755 135.684638 14.082316 135.861566 13.63803 C 136.034562 13.189812 136.313715 12.489964 136.486711 12.065336 C 136.659708 11.640709 136.938861 10.972315 137.111857 10.567346 C 137.284853 10.158446 137.564006 9.521505 137.737003 9.128332 C 137.913931 8.735158 138.193084 8.117876 138.36608 7.74043 C 138.539076 7.359051 138.818229 6.761428 138.991226 6.391845 C 139.164222 6.022262 139.443375 5.436434 139.616371 5.074714 C 139.789367 4.712995 140.068521 4.138962 140.241517 3.785106 C 140.418445 3.427318 140.697598 2.861148 140.870594 2.511224 C 141.04359 2.1613 141.322743 1.602994 141.49574 1.253069 C 141.668736 0.903145 142.120885 -0.00115354 142.120885 -0.00115354 " transform="matrix(0.993519,0,0,-0.993519,18.237769,81.987135)"/>
<path style="fill:none;stroke-width:0.3985;stroke-linecap:butt;stroke-linejoin:miter;stroke:rgb(0%,0%,0%);stroke-opacity:1;stroke-miterlimit:10;" d="M 142.120885 -0.00115354 C 142.120885 -0.00115354 142.726372 1.205889 142.958345 1.669833 C 143.186385 2.129846 143.5599 2.869012 143.791872 3.329025 C 144.023844 3.789038 144.393427 4.52034 144.6254 4.976421 C 144.857372 5.42857 145.230887 6.155941 145.462859 6.600227 C 145.690899 7.048445 146.064414 7.760088 146.296386 8.200442 C 146.528359 8.636865 146.897942 9.332782 147.129914 9.761341 C 147.361886 10.1899 147.735401 10.866158 147.967373 11.282921 C 148.195414 11.695753 148.568928 12.352353 148.800901 12.75339 C 149.032873 13.154427 149.402456 13.787436 149.634428 14.172746 C 149.8664 14.558055 150.239915 15.159611 150.471887 15.529194 C 150.699928 15.894845 151.073442 16.47281 151.305415 16.818802 C 151.537387 17.168726 151.90697 17.711306 152.138942 18.03764 C 152.370914 18.363973 152.744429 18.875099 152.97247 19.177842 C 153.204442 19.484517 153.577957 19.956325 153.809929 20.23941 C 154.041901 20.518563 154.411484 20.954986 154.643456 21.210548 C 154.875429 21.466111 155.248943 21.859284 155.476984 22.091257 C 155.708956 22.323229 156.082471 22.673153 156.314443 22.877603 C 156.546415 23.082054 156.915998 23.388729 157.147971 23.565657 C 157.379943 23.746517 157.753458 24.006011 157.981498 24.155417 C 158.21347 24.304823 158.586985 24.521068 158.818957 24.642952 C 159.05093 24.760904 159.420513 24.929968 159.652485 25.020398 C 159.884457 25.110828 160.257972 25.232712 160.486012 25.291688 C 160.717985 25.350664 161.091499 25.425367 161.323472 25.456821 C 161.555444 25.488274 162.156999 25.511865 162.156999 25.511865 " transform="matrix(0.993519,0,0,-0.993519,18.237769,81.987135)"/>
<path style="fill:none;stroke-width:0.3985;stroke-linecap:butt;stroke-linejoin:miter;stroke:rgb(0%,0%,0%);stroke-opacity:1;stroke-miterlimit:10;" d="M 204.0968 51.024883 L 273.853615 51.024883 " transform="matrix(0.993519,0,0,-0.993519,18.237769,81.987135)"/>
<path style="fill:none;stroke-width:0.3985;stroke-linecap:round;stroke-linejoin:round;stroke:rgb(0%,0%,0%);stroke-opacity:1;stroke-miterlimit:10;" d="M -2.07221 2.391467 C -1.694764 0.956385 -0.849441 0.280126 -0.000186729 0.000973271 C -0.849441 -0.27818 -1.694764 -0.954438 -2.07221 -2.389521 " transform="matrix(0.993519,0,0,-0.993519,290.515811,31.293936)"/>
<g style="fill:rgb(0%,0%,0%);fill-opacity:1;">
  <use xlink:href="#glyph0-1" x="287.732647" y="39.460569"/>
</g>
<path style="fill:none;stroke-width:0.3985;stroke-linecap:butt;stroke-linejoin:miter;stroke:rgb(0%,0%,0%);stroke-opacity:1;stroke-miterlimit:10;" d="M 204.0968 -0.00115354 L 204.0968 63.382322 " transform="matrix(0.993519,0,0,-0.993519,18.237769,81.987135)"/>
<path style="fill:none;stroke-width:0.3985;stroke-linecap:round;stroke-linejoin:round;stroke:rgb(0%,0%,0%);stroke-opacity:1;stroke-miterlimit:10;" d="M -2.073745 2.389394 C -1.692367 0.958243 -0.850976 0.278053 -0.0017218 -0.00109986 C -0.850976 -0.280253 -1.692367 -0.956511 -2.073745 -2.391594 " transform="matrix(0,-0.993519,-0.993519,0,221.010626,18.818602)"/>
<g style="fill:rgb(0%,0%,0%);fill-opacity:1;">
  <use xlink:href="#glyph0-2" x="218.265832" y="12.917728"/>
</g>
<path style="fill:none;stroke-width:0.3985;stroke-linecap:butt;stroke-linejoin:miter;stroke:rgb(0%,0%,0%);stroke-opacity:1;stroke-dasharray:2.98883,2.98883;stroke-miterlimit:10;" d="M 204.0968 25.511865 L 224.132914 25.511865 L 224.132914 51.024883 " transform="matrix(0.993519,0,0,-0.993519,18.237769,81.987135)"/>
<g style="fill:rgb(0%,0%,0%);fill-opacity:1;">
  <use xlink:href="#glyph1-1" x="212.119927" y="60.001564"/>
</g>
<g style="fill:rgb(0%,0%,0%);fill-opacity:1;">
  <use xlink:href="#glyph2-1" x="238.478967" y="19.914085"/>
</g>
<path style="fill:none;stroke-width:0.42;stroke-linecap:butt;stroke-linejoin:miter;stroke:rgb(0%,0%,0%);stroke-opacity:1;stroke-miterlimit:10;" d="M -53.373488 -7.896763 L -48.466685 -7.896763 " transform="matrix(0.993519,0,0,-0.993519,291.508018,13.568482)"/>
<g style="fill:rgb(0%,0%,0%);fill-opacity:1;">
  <use xlink:href="#glyph3-1" x="238.944927" y="27.618821"/>
</g>
<path style="fill:none;stroke-width:0.3985;stroke-linecap:butt;stroke-linejoin:miter;stroke:rgb(0%,0%,0%);stroke-opacity:1;stroke-dasharray:2.98883,2.98883;stroke-miterlimit:10;" d="M 264.205141 -0.00115354 L 264.205141 51.024883 " transform="matrix(0.993519,0,0,-0.993519,18.237769,81.987135)"/>
<g style="fill:rgb(0%,0%,0%);fill-opacity:1;">
  <use xlink:href="#glyph3-2" x="276.3201" y="19.914085"/>
</g>
<g style="fill:rgb(0%,0%,0%);fill-opacity:1;">
  <use xlink:href="#glyph2-1" x="280.266356" y="19.914085"/>
</g>
<path style="fill:none;stroke-width:0.42;stroke-linecap:butt;stroke-linejoin:miter;stroke:rgb(0%,0%,0%);stroke-opacity:1;stroke-miterlimit:10;" d="M -53.374786 -7.896763 L -44.493 -7.896763 " transform="matrix(0.993519,0,0,-0.993519,329.349151,13.568482)"/>
<g style="fill:rgb(0%,0%,0%);fill-opacity:1;">
  <use xlink:href="#glyph3-1" x="278.759188" y="27.618821"/>
</g>
<g style="fill:rgb(0%,0%,0%);fill-opacity:1;">
  <use xlink:href="#glyph0-7" x="215.750244" y="91.888541"/>
</g>
<g style="fill:rgb(0%,0%,0%);fill-opacity:1;">
  <use xlink:href="#glyph0-4" x="223.355131" y="91.888541"/>
</g>
<g style="fill:rgb(0%,0%,0%);fill-opacity:1;">
  <use xlink:href="#glyph0-5" x="257.664803" y="27.618821"/>
</g>
<path style="fill:none;stroke-width:0.3985;stroke-linecap:butt;stroke-linejoin:miter;stroke:rgb(0%,0%,0%);stroke-opacity:1;stroke-miterlimit:10;" d="M 225.477566 25.511865 C 225.477566 26.254962 224.876011 26.856518 224.132914 26.856518 C 223.389816 26.856518 222.788261 26.254962 222.788261 25.511865 C 222.788261 24.768767 223.389816 24.167212 224.132914 24.167212 C 224.876011 24.167212 225.477566 24.768767 225.477566 25.511865 Z M 225.477566 25.511865 " transform="matrix(0.993519,0,0,-0.993519,18.237769,81.987135)"/>
<path style="fill:none;stroke-width:0.3985;stroke-linecap:butt;stroke-linejoin:miter;stroke:rgb(0%,0%,0%);stroke-opacity:1;stroke-miterlimit:10;" d="M 224.132914 25.511865 C 224.132914 25.511865 224.734469 25.535455 224.966441 25.566909 C 225.198413 25.598363 225.571928 25.673066 225.8039 25.732042 C 226.031941 25.791018 226.405455 25.912902 226.637428 26.003332 C 226.8694 26.093761 227.238983 26.262826 227.470955 26.380778 C 227.702928 26.502662 228.076442 26.718907 228.308414 26.868313 C 228.536455 27.013787 228.90997 27.277213 229.141942 27.454141 C 229.373914 27.631069 229.743497 27.937744 229.975469 28.142195 C 230.207442 28.346645 230.580956 28.696569 230.812929 28.928541 C 231.040969 29.160514 231.414484 29.553687 231.646456 29.813181 C 231.878428 30.068744 232.248011 30.501235 232.479984 30.784319 C 232.711956 31.067404 233.085471 31.539212 233.317443 31.841956 C 233.545483 32.148631 233.918998 32.655825 234.15097 32.982158 C 234.382943 33.312424 234.752526 33.855003 234.984498 34.200996 C 235.21647 34.55092 235.589985 35.124953 235.818025 35.490604 C 236.049998 35.860187 236.423512 36.465674 236.655485 36.847052 C 236.887457 37.232362 237.25704 37.865371 237.489012 38.266408 C 237.720984 38.667445 238.094499 39.324045 238.32254 39.740808 C 238.554512 40.15364 238.928027 40.829898 239.159999 41.258457 C 239.391971 41.687016 239.761554 42.382933 239.993526 42.819356 C 240.225499 43.25971 240.599013 43.971353 240.827054 44.419571 C 241.059026 44.863857 241.432541 45.591228 241.664513 46.043377 C 241.896485 46.499458 242.266068 47.23076 242.498041 47.690773 C 242.730013 48.150786 243.103527 48.889952 243.331568 49.353897 C 243.56354 49.813909 244.169027 51.020952 244.169027 51.020952 " transform="matrix(0.993519,0,0,-0.993519,18.237769,81.987135)"/>
<path style="fill:none;stroke-width:0.3985;stroke-linecap:butt;stroke-linejoin:miter;stroke:rgb(0%,0%,0%);stroke-opacity:1;stroke-miterlimit:10;" d="M 244.169027 51.024883 C 244.169027 51.024883 244.621177 50.120585 244.794173 49.77066 C 244.971101 49.424668 245.246322 48.86243 245.42325 48.512506 C 245.596247 48.162581 245.8754 47.596412 246.048396 47.242556 C 246.221392 46.884768 246.500545 46.314667 246.673541 45.952947 C 246.846538 45.591228 247.125691 45.005399 247.298687 44.635816 C 247.471683 44.266233 247.750836 43.66861 247.923833 43.287232 C 248.100761 42.909785 248.375982 42.292503 248.55291 41.89933 C 248.725906 41.506157 249.005059 40.869216 249.178056 40.460315 C 249.351052 40.055347 249.630205 39.390884 249.803201 38.962325 C 249.976198 38.537698 250.255351 37.841781 250.428347 37.393563 C 250.601343 36.945346 250.880496 36.214043 251.053493 35.738304 C 251.230421 35.266496 251.505642 34.488012 251.68257 33.98475 C 251.855566 33.481489 252.134719 32.651893 252.307716 32.113245 C 252.480712 31.570666 252.759865 30.678163 252.932861 30.096266 C 253.105857 29.51437 253.38501 28.547163 253.558007 27.910222 C 253.731003 27.277213 254.010156 26.219577 254.187084 25.52366 C 254.36008 24.827743 254.639233 23.66395 254.81223 22.889399 C 254.985226 22.114847 255.264379 20.821307 255.437375 19.952394 C 255.610372 19.087412 255.889525 17.628739 256.062521 16.641874 C 256.235517 15.658941 256.51467 13.995818 256.687667 12.863478 C 256.864595 11.731139 257.139816 9.808521 257.316744 8.487459 C 257.48974 7.166397 257.768893 4.909582 257.94189 3.336888 C 258.114886 1.760263 258.394039 -0.948701 258.567035 -2.867387 C 258.740031 -4.790005 259.192181 -10.506745 259.192181 -10.506745 " transform="matrix(0.993519,0,0,-0.993519,18.237769,81.987135)"/>
<path style="fill:none;stroke-width:0.3985;stroke-linecap:butt;stroke-linejoin:miter;stroke:rgb(0%,0%,0%);stroke-opacity:1;stroke-miterlimit:10;" d="M 306.144942 51.024883 L 375.901757 51.024883 " transform="matrix(0.993519,0,0,-0.993519,18.237769,81.987135)"/>
<path style="fill:none;stroke-width:0.3985;stroke-linecap:round;stroke-linejoin:round;stroke:rgb(0%,0%,0%);stroke-opacity:1;stroke-miterlimit:10;" d="M -2.071938 2.391467 C -1.694492 0.956385 -0.849169 0.280126 0.0000851631 0.000973271 C -0.849169 -0.27818 -1.694492 -0.954438 -2.071938 -2.389521 " transform="matrix(0.993519,0,0,-0.993519,391.902259,31.293936)"/>
<g style="fill:rgb(0%,0%,0%);fill-opacity:1;">
  <use xlink:href="#glyph0-1" x="389.119225" y="39.460569"/>
</g>
<path style="fill:none;stroke-width:0.3985;stroke-linecap:butt;stroke-linejoin:miter;stroke:rgb(0%,0%,0%);stroke-opacity:1;stroke-miterlimit:10;" d="M 306.144942 -0.00115354 L 306.144942 63.382322 " transform="matrix(0.993519,0,0,-0.993519,18.237769,81.987135)"/>
<path style="fill:none;stroke-width:0.3985;stroke-linecap:round;stroke-linejoin:round;stroke:rgb(0%,0%,0%);stroke-opacity:1;stroke-miterlimit:10;" d="M -2.073745 2.389102 C -1.692367 0.957951 -0.850976 0.277761 -0.0017218 -0.00139175 C -0.850976 -0.280545 -1.692367 -0.956803 -2.073745 -2.391886 " transform="matrix(0,-0.993519,-0.993519,0,322.397055,18.818602)"/>
<g style="fill:rgb(0%,0%,0%);fill-opacity:1;">
  <use xlink:href="#glyph0-2" x="319.65241" y="12.917728"/>
</g>
<path style="fill:none;stroke-width:0.3985;stroke-linecap:butt;stroke-linejoin:miter;stroke:rgb(0%,0%,0%);stroke-opacity:1;stroke-dasharray:2.98883,2.98883;stroke-miterlimit:10;" d="M 306.144942 25.511865 L 366.253283 25.511865 L 366.253283 51.024883 " transform="matrix(0.993519,0,0,-0.993519,18.237769,81.987135)"/>
<g style="fill:rgb(0%,0%,0%);fill-opacity:1;">
  <use xlink:href="#glyph1-1" x="313.506505" y="60.001564"/>
</g>
<g style="fill:rgb(0%,0%,0%);fill-opacity:1;">
  <use xlink:href="#glyph2-2" x="377.619248" y="19.914085"/>
  <use xlink:href="#glyph2-1" x="381.734836" y="19.914085"/>
</g>
<path style="fill:none;stroke-width:0.42;stroke-linecap:butt;stroke-linejoin:miter;stroke:rgb(0%,0%,0%);stroke-opacity:1;stroke-miterlimit:10;" d="M -53.373142 -7.896763 L -44.31836 -7.896763 " transform="matrix(0.993519,0,0,-0.993519,430.648299,13.568482)"/>
<g style="fill:rgb(0%,0%,0%);fill-opacity:1;">
  <use xlink:href="#glyph3-1" x="380.145766" y="27.618821"/>
</g>
<path style="fill:none;stroke-width:0.3985;stroke-linecap:butt;stroke-linejoin:miter;stroke:rgb(0%,0%,0%);stroke-opacity:1;stroke-dasharray:2.98883,2.98883;stroke-miterlimit:10;" d="M 326.181055 -0.00115354 L 326.181055 51.024883 " transform="matrix(0.993519,0,0,-0.993519,18.237769,81.987135)"/>
<g style="fill:rgb(0%,0%,0%);fill-opacity:1;">
  <use xlink:href="#glyph2-1" x="339.864551" y="19.914085"/>
</g>
<path style="fill:none;stroke-width:0.42;stroke-linecap:butt;stroke-linejoin:miter;stroke:rgb(0%,0%,0%);stroke-opacity:1;stroke-miterlimit:10;" d="M -53.376278 -7.896763 L -48.465543 -7.896763 " transform="matrix(0.993519,0,0,-0.993519,392.893602,13.568482)"/>
<g style="fill:rgb(0%,0%,0%);fill-opacity:1;">
  <use xlink:href="#glyph3-1" x="340.330511" y="27.618821"/>
</g>
<g style="fill:rgb(0%,0%,0%);fill-opacity:1;">
  <use xlink:href="#glyph0-8" x="316.485073" y="91.888541"/>
</g>
<g style="fill:rgb(0%,0%,0%);fill-opacity:1;">
  <use xlink:href="#glyph0-4" x="325.393954" y="91.888541"/>
</g>
<g style="fill:rgb(0%,0%,0%);fill-opacity:1;">
  <use xlink:href="#glyph0-5" x="359.051381" y="27.618821"/>
</g>
<path style="fill:none;stroke-width:0.3985;stroke-linecap:butt;stroke-linejoin:miter;stroke:rgb(0%,0%,0%);stroke-opacity:1;stroke-miterlimit:10;" d="M 367.597936 25.511865 C 367.597936 26.254962 366.99638 26.856518 366.253283 26.856518 C 365.510185 26.856518 364.90863 26.254962 364.90863 25.511865 C 364.90863 24.768767 365.510185 24.167212 366.253283 24.167212 C 366.99638 24.167212 367.597936 24.768767 367.597936 25.511865 Z M 367.597936 25.511865 " transform="matrix(0.993519,0,0,-0.993519,18.237769,81.987135)"/>
<path style="fill:none;stroke-width:0.3985;stroke-linecap:butt;stroke-linejoin:miter;stroke:rgb(0%,0%,0%);stroke-opacity:1;stroke-miterlimit:10;" d="M 331.190084 -10.573585 C 331.190084 -10.573585 331.642233 -4.841117 331.815229 -2.9185 C 331.988226 -0.995882 332.267379 1.717014 332.440375 3.293639 C 332.617303 4.874196 332.892524 7.131011 333.069452 8.456005 C 333.242449 9.780999 333.521602 11.707549 333.694598 12.839888 C 333.867594 13.972227 334.146747 15.63535 334.319744 16.622216 C 334.49274 17.605149 334.771893 19.067754 334.944889 19.932735 C 335.121817 20.801648 335.40097 22.09912 335.573967 22.873672 C 335.746963 23.648223 336.026116 24.815948 336.199112 25.511865 C 336.372109 26.207782 336.651262 27.265418 336.824258 27.898427 C 336.997254 28.535368 337.276407 29.502574 337.449404 30.084471 C 337.626332 30.670299 337.905485 31.562803 338.078481 32.10145 C 338.251477 32.644029 338.53063 33.473625 338.703627 33.976887 C 338.876623 34.480149 339.155776 35.258632 339.328772 35.73044 C 339.501768 36.20618 339.780921 36.941414 339.957849 37.3857 C 340.130846 37.833918 340.409999 38.533766 340.582995 38.958393 C 340.755991 39.383021 341.035144 40.051415 341.208141 40.456384 C 341.381137 40.865284 341.66029 41.502225 341.833286 41.895398 C 342.006283 42.288572 342.285436 42.905854 342.462364 43.2833 C 342.63536 43.664678 342.914513 44.262302 343.087509 44.635816 C 343.260506 45.005399 343.539659 45.587296 343.712655 45.949015 C 343.885651 46.310735 344.164804 46.884768 344.337801 47.238624 C 344.514729 47.596412 344.78995 48.162581 344.966878 48.512506 C 345.139874 48.86243 345.419027 49.424668 345.592024 49.77066 C 345.76502 50.120585 346.217169 51.024883 346.217169 51.024883 " transform="matrix(0.993519,0,0,-0.993519,18.237769,81.987135)"/>
<path style="fill:none;stroke-width:0.3985;stroke-linecap:butt;stroke-linejoin:miter;stroke:rgb(0%,0%,0%);stroke-opacity:1;stroke-miterlimit:10;" d="M 346.217169 51.024883 C 346.217169 51.024883 346.822656 49.817841 347.050697 49.353897 C 347.282669 48.893884 347.656184 48.154718 347.888156 47.694705 C 348.120128 47.234692 348.489711 46.50339 348.721683 46.047309 C 348.953656 45.595159 349.323239 44.867789 349.555211 44.423503 C 349.787183 43.975285 350.160698 43.263641 350.39267 42.823287 C 350.624642 42.386865 350.994225 41.690948 351.226198 41.262389 C 351.45817 40.83383 351.827753 40.157572 352.059725 39.740808 C 352.291697 39.327976 352.665212 38.671377 352.897184 38.27034 C 353.129157 37.869303 353.49874 37.236294 353.730712 36.850984 C 353.962684 36.465674 354.332267 35.864119 354.564239 35.494536 C 354.796212 35.128885 355.169726 34.55092 355.401699 34.204928 C 355.633671 33.855003 356.003254 33.312424 356.235226 32.98609 C 356.467198 32.659756 356.836781 32.148631 357.068753 31.845887 C 357.300726 31.539212 357.67424 31.067404 357.906213 30.788251 C 358.138185 30.505166 358.507768 30.072676 358.73974 29.813181 C 358.971712 29.557619 359.341295 29.164445 359.573268 28.932473 C 359.80524 28.700501 360.178755 28.350576 360.410727 28.146126 C 360.642699 27.941676 361.012282 27.635001 361.244254 27.458073 C 361.476227 27.277213 361.84581 27.017719 362.077782 26.868313 C 362.309754 26.718907 362.683269 26.502662 362.915241 26.380778 C 363.147213 26.262826 363.516796 26.093761 363.748769 26.003332 C 363.980741 25.912902 364.350324 25.791018 364.582296 25.732042 C 364.814268 25.673066 365.187783 25.598363 365.419755 25.566909 C 365.651728 25.539387 366.253283 25.511865 366.253283 25.511865 " transform="matrix(0.993519,0,0,-0.993519,18.237769,81.987135)"/>
</g>
</svg>
