<?xml version="1.0" encoding="UTF-8"?>
<svg xmlns="http://www.w3.org/2000/svg" xmlns:xlink="http://www.w3.org/1999/xlink" width="194.58pt" height="118.06pt" viewBox="0 0 194.58 118.06" version="1.2">
<defs>
<g>
<symbol overflow="visible" id="glyph0-0">
<path style="stroke:none;" d=""/>
</symbol>
<symbol overflow="visible" id="glyph0-1">
<path style="stroke:none;" d="M 3.890625 -3.9375 C 3.703125 -4.328125 3.390625 -4.609375 2.921875 -4.609375 C 1.703125 -4.609375 0.421875 -3.078125 0.421875 -1.546875 C 0.421875 -0.578125 0.984375 0.109375 1.796875 0.109375 C 2.015625 0.109375 2.53125 0.078125 3.15625 -0.671875 C 3.234375 -0.234375 3.609375 0.109375 4.109375 0.109375 C 4.46875 0.109375 4.703125 -0.125 4.875 -0.453125 C 5.046875 -0.828125 5.1875 -1.46875 5.1875 -1.484375 C 5.1875 -1.59375 5.09375 -1.59375 5.0625 -1.59375 C 4.953125 -1.59375 4.953125 -1.546875 4.921875 -1.40625 C 4.734375 -0.734375 4.546875 -0.109375 4.125 -0.109375 C 3.84375 -0.109375 3.8125 -0.390625 3.8125 -0.59375 C 3.8125 -0.828125 3.828125 -0.90625 3.953125 -1.359375 C 4.0625 -1.796875 4.078125 -1.90625 4.171875 -2.296875 L 4.546875 -3.765625 C 4.625 -4.046875 4.625 -4.078125 4.625 -4.109375 C 4.625 -4.296875 4.5 -4.390625 4.328125 -4.390625 C 4.078125 -4.390625 3.921875 -4.171875 3.890625 -3.9375 Z M 3.203125 -1.234375 C 3.15625 -1.046875 3.15625 -1.03125 3 -0.859375 C 2.546875 -0.28125 2.109375 -0.109375 1.828125 -0.109375 C 1.296875 -0.109375 1.15625 -0.6875 1.15625 -1.09375 C 1.15625 -1.609375 1.484375 -2.890625 1.734375 -3.375 C 2.046875 -3.984375 2.515625 -4.375 2.9375 -4.375 C 3.609375 -4.375 3.765625 -3.515625 3.765625 -3.453125 C 3.765625 -3.390625 3.734375 -3.328125 3.734375 -3.28125 Z M 3.203125 -1.234375 "/>
</symbol>
<symbol overflow="visible" id="glyph0-2">
<path style="stroke:none;" d="M 2.484375 -7.125 C 2.484375 -7.125 2.484375 -7.234375 2.359375 -7.234375 C 2.109375 -7.234375 1.359375 -7.15625 1.078125 -7.125 C 1 -7.125 0.890625 -7.109375 0.890625 -6.921875 C 0.890625 -6.796875 0.984375 -6.796875 1.140625 -6.796875 C 1.640625 -6.796875 1.65625 -6.71875 1.65625 -6.625 C 1.65625 -6.546875 1.5625 -6.1875 1.515625 -5.96875 L 0.65625 -2.578125 C 0.53125 -2.046875 0.484375 -1.890625 0.484375 -1.515625 C 0.484375 -0.53125 1.046875 0.109375 1.8125 0.109375 C 3.046875 0.109375 4.328125 -1.4375 4.328125 -2.9375 C 4.328125 -3.890625 3.765625 -4.609375 2.9375 -4.609375 C 2.453125 -4.609375 2.03125 -4.296875 1.71875 -3.984375 Z M 1.515625 -3.171875 C 1.578125 -3.40625 1.578125 -3.421875 1.671875 -3.546875 C 2.171875 -4.21875 2.640625 -4.375 2.921875 -4.375 C 3.296875 -4.375 3.578125 -4.0625 3.578125 -3.390625 C 3.578125 -2.78125 3.234375 -1.578125 3.046875 -1.1875 C 2.703125 -0.484375 2.21875 -0.109375 1.8125 -0.109375 C 1.453125 -0.109375 1.109375 -0.390625 1.109375 -1.171875 C 1.109375 -1.359375 1.109375 -1.5625 1.28125 -2.21875 Z M 1.515625 -3.171875 "/>
</symbol>
<symbol overflow="visible" id="glyph0-3">
<path style="stroke:none;" d="M 1.859375 -1.203125 C 1.453125 -0.5 1.046875 -0.359375 0.578125 -0.328125 C 0.453125 -0.3125 0.359375 -0.3125 0.359375 -0.109375 C 0.359375 -0.046875 0.421875 0 0.5 0 C 0.78125 0 1.109375 -0.03125 1.390625 -0.03125 C 1.734375 -0.03125 2.109375 0 2.4375 0 C 2.5 0 2.640625 0 2.640625 -0.203125 C 2.640625 -0.3125 2.546875 -0.328125 2.46875 -0.328125 C 2.234375 -0.34375 1.984375 -0.421875 1.984375 -0.6875 C 1.984375 -0.8125 2.046875 -0.921875 2.125 -1.078125 L 2.921875 -2.40625 L 5.53125 -2.40625 C 5.5625 -2.1875 5.703125 -0.765625 5.703125 -0.671875 C 5.703125 -0.359375 5.15625 -0.328125 4.953125 -0.328125 C 4.796875 -0.328125 4.703125 -0.328125 4.703125 -0.109375 C 4.703125 0 4.828125 0 4.84375 0 C 5.28125 0 5.71875 -0.03125 6.15625 -0.03125 C 6.40625 -0.03125 7.0625 0 7.328125 0 C 7.390625 0 7.515625 0 7.515625 -0.203125 C 7.515625 -0.328125 7.40625 -0.328125 7.28125 -0.328125 C 6.625 -0.328125 6.625 -0.390625 6.59375 -0.703125 L 5.96875 -7.21875 C 5.9375 -7.421875 5.9375 -7.46875 5.765625 -7.46875 C 5.59375 -7.46875 5.5625 -7.390625 5.5 -7.28125 Z M 3.109375 -2.734375 L 5.171875 -6.171875 L 5.5 -2.734375 Z M 3.109375 -2.734375 "/>
</symbol>
<symbol overflow="visible" id="glyph0-4">
<path style="stroke:none;" d="M 1.671875 -0.8125 C 1.5625 -0.40625 1.546875 -0.328125 0.71875 -0.328125 C 0.546875 -0.328125 0.4375 -0.328125 0.4375 -0.109375 C 0.4375 0 0.53125 0 0.71875 0 L 4.4375 0 C 6.09375 0 7.3125 -1.234375 7.3125 -2.25 C 7.3125 -3 6.71875 -3.609375 5.703125 -3.71875 C 6.78125 -3.921875 7.875 -4.6875 7.875 -5.6875 C 7.875 -6.453125 7.1875 -7.125 5.9375 -7.125 L 2.4375 -7.125 C 2.234375 -7.125 2.140625 -7.125 2.140625 -6.90625 C 2.140625 -6.796875 2.234375 -6.796875 2.421875 -6.796875 C 2.453125 -6.796875 2.640625 -6.796875 2.828125 -6.78125 C 3.015625 -6.75 3.109375 -6.75 3.109375 -6.609375 C 3.109375 -6.5625 3.09375 -6.53125 3.0625 -6.40625 Z M 3.234375 -3.8125 L 3.890625 -6.40625 C 3.984375 -6.765625 4 -6.796875 4.453125 -6.796875 L 5.796875 -6.796875 C 6.71875 -6.796875 6.9375 -6.1875 6.9375 -5.71875 C 6.9375 -4.796875 6.03125 -3.8125 4.765625 -3.8125 Z M 2.765625 -0.328125 C 2.625 -0.328125 2.609375 -0.328125 2.546875 -0.328125 C 2.4375 -0.34375 2.40625 -0.359375 2.40625 -0.4375 C 2.40625 -0.46875 2.40625 -0.484375 2.453125 -0.671875 L 3.171875 -3.578125 L 5.15625 -3.578125 C 6.15625 -3.578125 6.34375 -2.8125 6.34375 -2.359375 C 6.34375 -1.328125 5.421875 -0.328125 4.1875 -0.328125 Z M 2.765625 -0.328125 "/>
</symbol>
</g>
<clipPath id="clip1">
  <path d="M 0.558594 0 L 183 0 L 183 107 L 0.558594 107 Z M 0.558594 0 "/>
</clipPath>
<clipPath id="clip2">
  <path d="M 0.558594 0 L 183 0 L 183 31 L 0.558594 31 Z M 0.558594 0 "/>
</clipPath>
<clipPath id="clip3">
  <path d="M 0.558594 75 L 183 75 L 183 107 L 0.558594 107 Z M 0.558594 75 "/>
</clipPath>
</defs>
<g id="surface1">
<g clip-path="url(#clip1)" clip-rule="nonzero">
<path style="fill:none;stroke-width:0.3985;stroke-linecap:butt;stroke-linejoin:miter;stroke:rgb(0%,0%,0%);stroke-opacity:1;stroke-miterlimit:10;" d="M -0.00103192 -0.000246622 L 153.071393 -0.000246622 L 172.714841 19.643201 L 172.714841 96.181382 L 19.642416 96.181382 L -0.00103192 76.533997 Z M -0.00103192 -0.000246622 " transform="matrix(0.992101,0,0,-0.992101,5.700243,100.558349)"/>
</g>
<g style="fill:rgb(0%,0%,0%);fill-opacity:1;">
  <use xlink:href="#glyph0-1" x="78.878593" y="108.713418"/>
</g>
<g style="fill:rgb(0%,0%,0%);fill-opacity:1;">
  <use xlink:href="#glyph0-2" x="180.721712" y="46.721005"/>
</g>
<g clip-path="url(#clip2)" clip-rule="nonzero">
<path style="fill:none;stroke-width:0.3985;stroke-linecap:butt;stroke-linejoin:miter;stroke:rgb(0%,0%,0%);stroke-opacity:1;stroke-miterlimit:10;" d="M -0.00103192 76.533997 L 153.071393 76.533997 L 172.714841 96.177445 " transform="matrix(0.992101,0,0,-0.992101,5.700243,100.558349)"/>
</g>
<path style="fill:none;stroke-width:0.3985;stroke-linecap:butt;stroke-linejoin:miter;stroke:rgb(0%,0%,0%);stroke-opacity:1;stroke-miterlimit:10;" d="M 153.071393 76.533997 L 153.071393 -0.000246622 " transform="matrix(0.992101,0,0,-0.992101,5.700243,100.558349)"/>
<g clip-path="url(#clip3)" clip-rule="nonzero">
<path style="fill:none;stroke-width:0.3985;stroke-linecap:butt;stroke-linejoin:miter;stroke:rgb(0%,0%,0%);stroke-opacity:1;stroke-dasharray:2.98883,2.98883;stroke-miterlimit:10;" d="M -0.00103192 -0.000246622 L 19.642416 19.643201 L 172.714841 19.643201 " transform="matrix(0.992101,0,0,-0.992101,5.700243,100.558349)"/>
</g>
<path style="fill:none;stroke-width:0.3985;stroke-linecap:butt;stroke-linejoin:miter;stroke:rgb(0%,0%,0%);stroke-opacity:1;stroke-dasharray:2.98883,2.98883;stroke-miterlimit:10;" d="M 19.642416 19.643201 L 19.642416 96.177445 " transform="matrix(0.992101,0,0,-0.992101,5.700243,100.558349)"/>
<path style="fill:none;stroke-width:0.3985;stroke-linecap:butt;stroke-linejoin:miter;stroke:rgb(0%,0%,0%);stroke-opacity:1;stroke-miterlimit:10;" d="M 12.374065 60.847588 C 12.374065 62.253222 11.232233 63.398992 9.822661 63.398992 C 8.413089 63.398992 7.271257 62.253222 7.271257 60.847588 C 7.271257 59.438016 8.413089 58.296184 9.822661 58.296184 C 11.232233 58.296184 12.374065 59.438016 12.374065 60.847588 Z M 12.374065 60.847588 " transform="matrix(0.992101,0,0,-0.992101,5.700243,100.558349)"/>
<g style="fill:rgb(0%,0%,0%);fill-opacity:1;">
  <use xlink:href="#glyph0-3" x="11.537764" y="50.981086"/>
</g>
<path style="fill:none;stroke-width:0.3985;stroke-linecap:butt;stroke-linejoin:miter;stroke:rgb(0%,0%,0%);stroke-opacity:1;stroke-miterlimit:10;" d="M 165.446489 60.847588 C 165.446489 62.253222 164.304657 63.398992 162.895086 63.398992 C 161.485514 63.398992 160.343682 62.253222 160.343682 60.847588 C 160.343682 59.438016 161.485514 58.296184 162.895086 58.296184 C 164.304657 58.296184 165.446489 59.438016 165.446489 60.847588 Z M 165.446489 60.847588 " transform="matrix(0.992101,0,0,-0.992101,5.700243,100.558349)"/>
<g style="fill:rgb(0%,0%,0%);fill-opacity:1;">
  <use xlink:href="#glyph0-4" x="163.095057" y="50.981086"/>
</g>
</g>
</svg>
