<?xml version="1.0" encoding="UTF-8"?>
<svg xmlns="http://www.w3.org/2000/svg" xmlns:xlink="http://www.w3.org/1999/xlink" width="221.69pt" height="128.27pt" viewBox="0 0 221.69 128.27" version="1.2">
<defs>
<g>
<symbol overflow="visible" id="glyph0-0">
<path style="stroke:none;" d=""/>
</symbol>
<symbol overflow="visible" id="glyph0-1">
<path style="stroke:none;" d="M 2.734375 -4.234375 C 2.734375 -5.816406 2.734375 -6.765625 2.734375 -7.078125 C 2.734375 -7.390625 2.71875 -7.84375 2.6875 -8.4375 L 3.671875 -7.984375 L 3.34375 -7.671875 L 3.34375 -4.234375 L 8.234375 -4.234375 L 8.921875 -4.859375 L 9.65625 -4 L 5.0625 -4 C 5.550781 -3.019531 6.222656 -2.226562 7.078125 -1.625 C 7.929688 -1.03125 8.890625 -0.664062 9.953125 -0.53125 L 9.953125 -0.359375 C 9.515625 -0.359375 9.1875 -0.171875 8.96875 0.203125 C 8.125 -0.0976562 7.320312 -0.585938 6.5625 -1.265625 C 5.800781 -1.941406 5.234375 -2.851562 4.859375 -4 L 3.34375 -4 L 3.34375 -0.125 C 4.15625 -0.476562 4.984375 -0.832031 5.828125 -1.1875 L 5.90625 -0.984375 C 4.5 -0.242188 3.550781 0.367188 3.0625 0.859375 L 2.53125 0.203125 C 2.664062 0.015625 2.734375 -0.1875 2.734375 -0.40625 L 2.734375 -4 L 1.796875 -4 C 1.441406 -4 1.113281 -3.957031 0.8125 -3.875 L 0.453125 -4.234375 Z M 7.296875 -8.3125 L 8.078125 -7.578125 L 7.546875 -7.375 C 6.046875 -6.070312 4.78125 -5.175781 3.75 -4.6875 L 3.671875 -4.859375 C 4.535156 -5.453125 5.273438 -6.046875 5.890625 -6.640625 C 6.503906 -7.242188 6.972656 -7.800781 7.296875 -8.3125 Z M 7.296875 -8.3125 "/>
</symbol>
<symbol overflow="visible" id="glyph0-2">
<path style="stroke:none;" d="M 4.15625 -3.296875 C 4.1875 -3.847656 4.203125 -4.472656 4.203125 -5.171875 L 3.140625 -5.171875 L 2.65625 -5.09375 L 2.328125 -5.421875 L 4.203125 -5.421875 C 4.203125 -5.828125 4.1875 -6.273438 4.15625 -6.765625 L 5.0625 -6.3125 L 4.734375 -6.109375 L 4.734375 -5.421875 L 7.015625 -5.421875 C 7.015625 -5.878906 7 -6.316406 6.96875 -6.734375 L 7.90625 -6.3125 L 7.546875 -6.078125 L 7.546875 -5.421875 L 8.3125 -5.421875 L 8.84375 -5.953125 L 9.625 -5.171875 L 7.546875 -5.171875 C 7.546875 -4.390625 7.554688 -3.875 7.578125 -3.625 L 7.015625 -3.390625 L 7.015625 -3.75 L 4.734375 -3.75 L 4.734375 -3.546875 Z M 7.953125 -2.453125 C 7.328125 -1.660156 6.796875 -1.070312 6.359375 -0.6875 C 7.234375 -0.144531 8.390625 0.148438 9.828125 0.203125 L 9.828125 0.359375 C 9.390625 0.441406 9.128906 0.617188 9.046875 0.890625 C 7.773438 0.648438 6.757812 0.234375 6 -0.359375 C 4.6875 0.367188 3.269531 0.828125 1.75 1.015625 L 1.71875 0.859375 C 3.15625 0.585938 4.457031 0.0546875 5.625 -0.734375 C 5.113281 -1.253906 4.640625 -1.894531 4.203125 -2.65625 L 3.796875 -2.65625 L 3.421875 -2.5625 L 3.09375 -2.890625 L 7.375 -2.890625 L 7.75 -3.265625 L 8.359375 -2.65625 Z M 4.40625 -2.65625 C 4.914062 -1.945312 5.429688 -1.398438 5.953125 -1.015625 C 6.492188 -1.535156 6.957031 -2.082031 7.34375 -2.65625 Z M 4.734375 -5.171875 L 4.734375 -4 L 7.015625 -4 L 7.015625 -5.171875 Z M 1.59375 -7.578125 L 2.28125 -7.171875 L 5.5 -7.171875 C 5.476562 -7.335938 5.414062 -7.515625 5.3125 -7.703125 C 5.21875 -7.890625 5.023438 -8.160156 4.734375 -8.515625 L 4.859375 -8.609375 C 5.484375 -8.328125 5.84375 -8.113281 5.9375 -7.96875 C 6.03125 -7.820312 6.078125 -7.734375 6.078125 -7.703125 C 6.078125 -7.546875 5.96875 -7.367188 5.75 -7.171875 L 8.40625 -7.171875 L 8.96875 -7.75 L 9.78125 -6.9375 L 2.25 -6.9375 C 2.269531 -5.300781 2.21875 -4.023438 2.09375 -3.109375 C 1.976562 -2.203125 1.78125 -1.421875 1.5 -0.765625 C 1.226562 -0.117188 0.890625 0.472656 0.484375 1.015625 L 0.359375 0.9375 C 0.910156 -0.0078125 1.257812 -1 1.40625 -2.03125 C 1.550781 -3.070312 1.628906 -4.128906 1.640625 -5.203125 C 1.660156 -6.273438 1.644531 -7.066406 1.59375 -7.578125 Z M 1.59375 -7.578125 "/>
</symbol>
<symbol overflow="visible" id="glyph0-3">
<path style="stroke:none;" d="M 4.640625 -2.6875 C 3.117188 -2.601562 2.113281 -2.550781 1.625 -2.53125 L 1.625 -2.6875 C 3.039062 -2.820312 4.128906 -2.9375 4.890625 -3.03125 C 5.648438 -3.132812 6.273438 -3.242188 6.765625 -3.359375 C 7.253906 -3.484375 7.609375 -3.613281 7.828125 -3.75 L 8.40625 -2.96875 C 8.050781 -3 7.613281 -2.988281 7.09375 -2.9375 C 6.570312 -2.851562 5.929688 -2.785156 5.171875 -2.734375 L 5.171875 -2 L 7.140625 -2.125 L 7.578125 -2.5625 L 8.359375 -1.953125 L 5.171875 -1.75 L 5.171875 -1.0625 L 7.828125 -1.21875 L 8.359375 -1.71875 L 9.140625 -1.0625 L 5.171875 -0.8125 L 5.171875 -0.125 C 5.171875 0.144531 5.320312 0.28125 5.625 0.28125 L 8.5625 0.28125 C 8.726562 0.3125 8.867188 0.265625 8.984375 0.140625 C 9.109375 0.015625 9.195312 -0.46875 9.25 -1.3125 L 9.421875 -1.3125 C 9.441406 -0.894531 9.46875 -0.5625 9.5 -0.3125 C 9.53125 -0.0703125 9.679688 0.0820312 9.953125 0.15625 C 9.835938 0.40625 9.691406 0.570312 9.515625 0.65625 C 9.335938 0.738281 9.140625 0.78125 8.921875 0.78125 L 5.375 0.78125 C 4.882812 0.78125 4.640625 0.5625 4.640625 0.125 L 4.640625 -0.78125 L 1.546875 -0.609375 L 1.140625 -0.484375 L 0.734375 -0.8125 L 4.640625 -1.015625 L 4.640625 -1.71875 L 2.203125 -1.59375 L 1.796875 -1.46875 L 1.390625 -1.796875 L 4.640625 -1.953125 Z M 0.8125 -7.34375 L 5.09375 -7.34375 C 5.09375 -7.613281 4.875 -8.003906 4.4375 -8.515625 L 4.5625 -8.609375 C 5 -8.390625 5.285156 -8.21875 5.421875 -8.09375 C 5.554688 -7.96875 5.625 -7.863281 5.625 -7.78125 C 5.625 -7.675781 5.539062 -7.53125 5.375 -7.34375 L 8.28125 -7.34375 L 8.84375 -7.90625 L 9.65625 -7.09375 L 2.15625 -7.09375 C 1.800781 -7.09375 1.476562 -7.050781 1.1875 -6.96875 Z M 2.609375 -4.484375 C 2.640625 -4.921875 2.65625 -5.316406 2.65625 -5.671875 C 2.65625 -6.023438 2.640625 -6.390625 2.609375 -6.765625 L 3.265625 -6.484375 L 7.09375 -6.484375 L 7.46875 -6.84375 L 8.03125 -6.3125 L 7.671875 -6.078125 C 7.671875 -5.585938 7.679688 -5.179688 7.703125 -4.859375 L 7.140625 -4.609375 L 7.140625 -4.96875 L 3.1875 -4.96875 L 3.1875 -4.734375 Z M 3.1875 -6.234375 L 3.1875 -5.21875 L 7.140625 -5.21875 L 7.140625 -6.234375 Z M 8.515625 -2.890625 L 9.015625 -3.875 L 1.515625 -3.875 C 1.535156 -3.550781 1.476562 -3.285156 1.34375 -3.078125 C 1.207031 -2.867188 1.035156 -2.796875 0.828125 -2.859375 C 0.628906 -2.929688 0.53125 -3.007812 0.53125 -3.09375 C 0.53125 -3.175781 0.597656 -3.273438 0.734375 -3.390625 C 1.003906 -3.597656 1.207031 -4.015625 1.34375 -4.640625 L 1.515625 -4.640625 L 1.515625 -4.125 L 8.890625 -4.125 L 9.34375 -4.5625 L 9.984375 -3.875 C 9.828125 -3.84375 9.664062 -3.769531 9.5 -3.65625 C 9.332031 -3.550781 9.046875 -3.269531 8.640625 -2.8125 Z M 8.515625 -2.890625 "/>
</symbol>
<symbol overflow="visible" id="glyph0-4">
<path style="stroke:none;" d="M 2.03125 -7.703125 C 2.851562 -7.109375 3.320312 -6.707031 3.4375 -6.5 C 3.5625 -6.300781 3.609375 -6.097656 3.578125 -5.890625 C 3.554688 -5.679688 3.488281 -5.523438 3.375 -5.421875 C 3.269531 -5.316406 3.191406 -5.265625 3.140625 -5.265625 C 3.023438 -5.265625 2.914062 -5.46875 2.8125 -5.875 C 2.644531 -6.414062 2.347656 -6.984375 1.921875 -7.578125 Z M 4.859375 -4.8125 L 4.859375 -7.25 C 4.859375 -7.6875 4.84375 -8.125 4.8125 -8.5625 L 5.953125 -8.109375 L 5.46875 -7.75 L 5.46875 -4.8125 L 5.90625 -4.8125 C 6.75 -5.894531 7.363281 -6.953125 7.75 -7.984375 L 8.6875 -7.25 L 8.234375 -7.09375 C 7.503906 -6.195312 6.828125 -5.4375 6.203125 -4.8125 L 8.40625 -4.8125 L 9.015625 -5.375 L 9.828125 -4.5625 L 5.875 -4.5625 C 6.226562 -3.695312 6.785156 -2.914062 7.546875 -2.21875 C 8.304688 -1.53125 9.117188 -1.0625 9.984375 -0.8125 L 9.984375 -0.65625 C 9.472656 -0.625 9.148438 -0.429688 9.015625 -0.078125 C 8.273438 -0.597656 7.613281 -1.207031 7.03125 -1.90625 C 6.445312 -2.613281 5.976562 -3.5 5.625 -4.5625 L 5.46875 -4.5625 L 5.46875 -0.609375 C 5.46875 -0.0351562 5.476562 0.410156 5.5 0.734375 L 4.8125 1.0625 C 4.84375 0.25 4.859375 -1.445312 4.859375 -4.03125 C 4.304688 -3.132812 3.695312 -2.351562 3.03125 -1.6875 C 2.363281 -1.019531 1.515625 -0.40625 0.484375 0.15625 L 0.40625 0.046875 C 1.300781 -0.609375 2.09375 -1.34375 2.78125 -2.15625 C 3.476562 -2.976562 4.003906 -3.78125 4.359375 -4.5625 L 1.953125 -4.5625 C 1.597656 -4.5625 1.273438 -4.519531 0.984375 -4.4375 L 0.609375 -4.8125 Z M 4.859375 -4.8125 "/>
</symbol>
<symbol overflow="visible" id="glyph0-5">
<path style="stroke:none;" d="M 4.5625 -3.34375 L 5.265625 -2.734375 L 4.890625 -2.53125 C 4.242188 -1.519531 3.625 -0.785156 3.03125 -0.328125 C 2.445312 0.128906 1.65625 0.550781 0.65625 0.9375 L 0.609375 0.8125 C 1.804688 0.164062 2.691406 -0.488281 3.265625 -1.15625 C 3.835938 -1.820312 4.269531 -2.550781 4.5625 -3.34375 Z M 2.9375 -4.8125 L 2.9375 -7.140625 C 2.9375 -7.492188 2.921875 -7.96875 2.890625 -8.5625 L 3.75 -8.1875 L 3.421875 -7.90625 L 3.421875 -6.640625 L 4.078125 -6.640625 L 4.53125 -7.09375 L 5.140625 -6.40625 L 3.421875 -6.40625 L 3.421875 -4.8125 L 4.203125 -4.8125 L 4.6875 -5.265625 L 5.34375 -4.5625 L 2.9375 -4.5625 L 3.671875 -4.15625 L 3.390625 -3.953125 L 3.390625 -1.875 L 2.859375 -1.546875 L 2.859375 -4.5625 L 1.875 -4.5625 C 1.519531 -4.5625 1.191406 -4.519531 0.890625 -4.4375 L 0.53125 -4.8125 L 1.625 -4.8125 L 1.625 -6.359375 C 1.625 -6.679688 1.613281 -7.007812 1.59375 -7.34375 L 2.453125 -6.96875 L 2.125 -6.6875 L 2.125 -4.8125 Z M 1.796875 -3.796875 L 2.53125 -3.296875 C 2.34375 -3.242188 2.097656 -2.960938 1.796875 -2.453125 C 1.472656 -1.898438 1.050781 -1.394531 0.53125 -0.9375 L 0.453125 -1.0625 C 1.046875 -1.875 1.492188 -2.785156 1.796875 -3.796875 Z M 5.5 -1.3125 C 5.53125 -2.007812 5.546875 -2.828125 5.546875 -3.765625 C 5.546875 -4.703125 5.53125 -5.582031 5.5 -6.40625 L 6.078125 -6.078125 L 6.84375 -6.078125 C 6.957031 -6.835938 7.023438 -7.367188 7.046875 -7.671875 L 6.15625 -7.671875 C 5.800781 -7.671875 5.472656 -7.628906 5.171875 -7.546875 L 4.8125 -7.90625 L 8.8125 -7.90625 L 9.34375 -8.40625 L 10.03125 -7.671875 L 7.828125 -7.671875 C 7.640625 -7.453125 7.378906 -6.921875 7.046875 -6.078125 L 8.84375 -6.078125 L 9.171875 -6.4375 L 9.78125 -5.953125 L 9.453125 -5.703125 L 9.453125 -3.21875 C 9.453125 -2.757812 9.46875 -2.285156 9.5 -1.796875 L 8.921875 -1.46875 L 8.921875 -5.828125 L 6.078125 -5.828125 L 6.078125 -1.671875 Z M 8.15625 -4.6875 L 7.78125 -4.40625 C 7.78125 -3.101562 7.691406 -2.171875 7.515625 -1.609375 C 7.335938 -1.054688 7 -0.570312 6.5 -0.15625 C 6 0.25 5.234375 0.613281 4.203125 0.9375 L 4.15625 0.8125 C 5.25 0.320312 6.003906 -0.164062 6.421875 -0.65625 C 6.835938 -1.144531 7.078125 -1.789062 7.140625 -2.59375 C 7.210938 -3.394531 7.238281 -4.242188 7.21875 -5.140625 Z M 7.703125 -1.421875 C 8.765625 -0.929688 9.382812 -0.59375 9.5625 -0.40625 C 9.738281 -0.21875 9.828125 -0.03125 9.828125 0.15625 C 9.828125 0.289062 9.796875 0.429688 9.734375 0.578125 C 9.679688 0.734375 9.628906 0.8125 9.578125 0.8125 C 9.523438 0.8125 9.472656 0.757812 9.421875 0.65625 C 9.285156 0.40625 9.097656 0.140625 8.859375 -0.140625 C 8.628906 -0.429688 8.21875 -0.820312 7.625 -1.3125 Z M 7.703125 -1.421875 "/>
</symbol>
<symbol overflow="visible" id="glyph0-6">
<path style="stroke:none;" d="M 1.421875 -6.078125 L 1.515625 -6.203125 C 2.003906 -6.035156 2.34375 -5.882812 2.53125 -5.75 C 2.71875 -5.613281 2.8125 -5.460938 2.8125 -5.296875 C 2.8125 -5.210938 2.773438 -5.085938 2.703125 -4.921875 C 2.640625 -4.765625 2.582031 -4.6875 2.53125 -4.6875 C 2.476562 -4.6875 2.410156 -4.78125 2.328125 -4.96875 C 2.160156 -5.269531 1.859375 -5.640625 1.421875 -6.078125 Z M 0.890625 -3.015625 C 1.242188 -3.097656 2.035156 -3.492188 3.265625 -4.203125 L 3.34375 -4.078125 C 2.9375 -3.773438 2.546875 -3.46875 2.171875 -3.15625 C 1.804688 -2.84375 1.554688 -2.566406 1.421875 -2.328125 Z M 8.484375 -5.625 C 8.046875 -5.300781 7.539062 -4.945312 6.96875 -4.5625 L 6.890625 -4.6875 C 7.484375 -5.257812 7.929688 -5.832031 8.234375 -6.40625 L 8.890625 -5.75 Z M 7.046875 -4.078125 L 7.09375 -4.203125 C 8.039062 -3.953125 8.597656 -3.753906 8.765625 -3.609375 C 8.929688 -3.460938 9.015625 -3.289062 9.015625 -3.09375 C 9.015625 -2.957031 8.992188 -2.828125 8.953125 -2.703125 C 8.910156 -2.585938 8.863281 -2.53125 8.8125 -2.53125 C 8.726562 -2.53125 8.617188 -2.664062 8.484375 -2.9375 C 8.234375 -3.3125 7.753906 -3.691406 7.046875 -4.078125 Z M 5.140625 -6.359375 C 4.429688 -5.703125 3.96875 -5.296875 3.75 -5.140625 C 4.289062 -5.140625 4.890625 -5.148438 5.546875 -5.171875 C 5.867188 -5.523438 6.113281 -5.878906 6.28125 -6.234375 L 6.9375 -5.625 C 6.71875 -5.570312 6.28125 -5.234375 5.625 -4.609375 C 4.96875 -3.984375 4.4375 -3.507812 4.03125 -3.1875 C 4.769531 -3.207031 5.519531 -3.234375 6.28125 -3.265625 C 6.164062 -3.453125 6.003906 -3.695312 5.796875 -4 L 5.875 -4.078125 C 6.363281 -3.804688 6.6875 -3.585938 6.84375 -3.421875 C 7.007812 -3.265625 7.09375 -3.128906 7.09375 -3.015625 C 7.09375 -2.929688 7.035156 -2.804688 6.921875 -2.640625 C 6.816406 -2.484375 6.738281 -2.40625 6.6875 -2.40625 C 6.65625 -2.40625 6.628906 -2.445312 6.609375 -2.53125 C 6.554688 -2.6875 6.472656 -2.875 6.359375 -3.09375 C 6.085938 -3.070312 5.640625 -3.019531 5.015625 -2.9375 L 5.703125 -2.53125 L 5.421875 -2.328125 L 5.421875 -1.59375 L 8.6875 -1.59375 L 9.21875 -2.125 L 9.953125 -1.34375 L 5.421875 -1.34375 C 5.421875 -0.144531 5.4375 0.585938 5.46875 0.859375 L 4.859375 1.0625 C 4.878906 0.351562 4.890625 -0.445312 4.890625 -1.34375 L 1.828125 -1.34375 C 1.484375 -1.34375 1.160156 -1.300781 0.859375 -1.21875 L 0.484375 -1.59375 L 4.890625 -1.59375 L 4.890625 -2.890625 C 4.296875 -2.804688 3.863281 -2.671875 3.59375 -2.484375 L 3.1875 -3.1875 C 3.53125 -3.1875 3.921875 -3.398438 4.359375 -3.828125 C 4.796875 -4.265625 5.148438 -4.644531 5.421875 -4.96875 C 4.421875 -4.863281 3.78125 -4.71875 3.5 -4.53125 L 3.1875 -5.171875 C 3.394531 -5.148438 3.675781 -5.367188 4.03125 -5.828125 C 4.382812 -6.296875 4.617188 -6.648438 4.734375 -6.890625 L 2.359375 -6.890625 C 2.003906 -6.890625 1.679688 -6.847656 1.390625 -6.765625 L 1.015625 -7.140625 L 5.0625 -7.140625 C 5 -7.597656 4.765625 -8.046875 4.359375 -8.484375 L 4.4375 -8.5625 C 4.988281 -8.34375 5.320312 -8.15625 5.4375 -8 C 5.5625 -7.851562 5.625 -7.742188 5.625 -7.671875 C 5.625 -7.503906 5.515625 -7.328125 5.296875 -7.140625 L 8.1875 -7.140625 L 8.71875 -7.625 L 9.421875 -6.890625 L 4.96875 -6.890625 L 5.5 -6.4375 Z M 5.140625 -6.359375 "/>
</symbol>
<symbol overflow="visible" id="glyph0-7">
<path style="stroke:none;" d="M 1.625 -2.484375 C 2.664062 -2.648438 3.429688 -2.785156 3.921875 -2.890625 L 3.953125 -2.734375 C 3.597656 -2.617188 3.113281 -2.457031 2.5 -2.25 C 1.894531 -2.050781 1.46875 -1.859375 1.21875 -1.671875 L 0.78125 -2.40625 C 1.050781 -2.488281 1.328125 -2.707031 1.609375 -3.0625 C 1.890625 -3.414062 2.304688 -4.023438 2.859375 -4.890625 C 2.453125 -4.804688 2.09375 -4.703125 1.78125 -4.578125 C 1.46875 -4.460938 1.210938 -4.347656 1.015625 -4.234375 L 0.65625 -4.9375 C 0.925781 -4.988281 1.265625 -5.46875 1.671875 -6.375 C 2.078125 -7.289062 2.320312 -7.976562 2.40625 -8.4375 L 3.140625 -7.953125 C 2.890625 -7.703125 2.644531 -7.332031 2.40625 -6.84375 C 2.132812 -6.351562 1.753906 -5.71875 1.265625 -4.9375 L 2.9375 -5.09375 C 3.207031 -5.613281 3.425781 -6.128906 3.59375 -6.640625 L 4.28125 -6.15625 C 4.144531 -6.019531 3.875 -5.640625 3.46875 -5.015625 C 3.0625 -4.359375 2.445312 -3.515625 1.625 -2.484375 Z M 0.53125 -0.40625 C 0.851562 -0.457031 1.390625 -0.578125 2.140625 -0.765625 C 2.890625 -0.960938 3.550781 -1.15625 4.125 -1.34375 L 4.203125 -1.140625 C 3.816406 -1.003906 3.242188 -0.765625 2.484375 -0.421875 C 1.722656 -0.0859375 1.234375 0.171875 1.015625 0.359375 Z M 5.296875 -7.421875 L 5.296875 -5.171875 L 7.90625 -5.171875 L 7.90625 -7.421875 Z M 5.296875 -4.9375 L 5.296875 -2.65625 L 7.90625 -2.65625 L 7.90625 -4.9375 Z M 5.296875 -2.40625 L 5.296875 0.078125 L 7.90625 0.078125 L 7.90625 -2.40625 Z M 4.765625 -5.671875 C 4.765625 -6.785156 4.753906 -7.570312 4.734375 -8.03125 L 5.296875 -7.671875 L 7.875 -7.671875 L 8.1875 -8.109375 L 8.84375 -7.578125 L 8.484375 -7.25 L 8.484375 0.078125 L 8.765625 0.078125 L 9.375 -0.484375 L 10.078125 0.328125 L 4.609375 0.328125 C 4.253906 0.328125 3.925781 0.367188 3.625 0.453125 L 3.265625 0.078125 L 4.765625 0.078125 Z M 4.765625 -5.671875 "/>
</symbol>
<symbol overflow="visible" id="glyph0-8">
<path style="stroke:none;" d="M 1.75 -7.421875 L 1.75 -5.171875 L 3.703125 -5.171875 L 3.703125 -7.421875 Z M 3.015625 -0.890625 L 4.734375 -1.421875 L 4.765625 -1.265625 C 3.921875 -0.910156 3.148438 -0.597656 2.453125 -0.328125 C 1.710938 -0.0234375 1.164062 0.257812 0.8125 0.53125 L 0.359375 -0.15625 L 1.09375 -0.359375 C 1.09375 -2.179688 1.082031 -3.378906 1.0625 -3.953125 L 1.921875 -3.46875 L 1.59375 -3.265625 L 1.59375 -0.484375 L 2.53125 -0.78125 L 2.53125 -4.9375 L 1.75 -4.9375 L 1.75 -4.609375 L 1.21875 -4.40625 C 1.25 -5 1.265625 -5.601562 1.265625 -6.21875 C 1.265625 -6.832031 1.25 -7.421875 1.21875 -7.984375 L 1.75 -7.671875 L 3.671875 -7.671875 L 4.03125 -8.03125 L 4.53125 -7.546875 L 4.203125 -7.296875 C 4.203125 -6.078125 4.210938 -5.273438 4.234375 -4.890625 L 3.703125 -4.609375 L 3.703125 -4.9375 L 3.015625 -4.9375 L 3.015625 -3.34375 L 3.546875 -3.34375 L 3.953125 -3.75 L 4.5625 -3.09375 L 3.015625 -3.09375 Z M 8.890625 -4.9375 C 8.890625 -3.4375 8.898438 -2.523438 8.921875 -2.203125 L 8.359375 -1.953125 L 8.359375 -2.5625 L 5.703125 -2.5625 L 5.703125 -0.046875 L 8.765625 -0.046875 L 9.25 -0.53125 L 9.953125 0.203125 L 5.796875 0.203125 L 5.421875 0.578125 L 4.8125 0.046875 L 5.171875 -0.203125 L 5.171875 -6.484375 C 5.171875 -6.890625 5.160156 -7.390625 5.140625 -7.984375 L 5.703125 -7.625 L 8.515625 -7.625 L 8.96875 -8.078125 L 9.625 -7.375 L 5.703125 -7.375 L 5.703125 -5.375 L 8.3125 -5.375 L 8.6875 -5.75 L 9.21875 -5.21875 Z M 5.703125 -5.140625 L 5.703125 -2.8125 L 8.359375 -2.8125 L 8.359375 -5.140625 Z M 5.703125 -5.140625 "/>
</symbol>
<symbol overflow="visible" id="glyph1-0">
<path style="stroke:none;" d=""/>
</symbol>
<symbol overflow="visible" id="glyph1-1">
<path style="stroke:none;" d="M 4.625 -7.625 C 4.625 -7.734375 4.53125 -7.828125 4.421875 -7.828125 C 4.265625 -7.828125 4.234375 -7.71875 4.203125 -7.625 L 0.640625 2.21875 C 0.578125 2.34375 0.578125 2.40625 0.578125 2.40625 C 0.578125 2.515625 0.671875 2.609375 0.796875 2.609375 C 0.9375 2.609375 0.984375 2.5 1.015625 2.40625 L 4.578125 -7.4375 C 4.625 -7.5625 4.625 -7.625 4.625 -7.625 Z M 4.625 -7.625 "/>
</symbol>
<symbol overflow="visible" id="glyph1-2">
<path style="stroke:none;" d="M 4.6875 -1.8125 L 4.421875 -1.8125 C 4.375 -1.5 4.296875 -1.046875 4.203125 -0.890625 C 4.125 -0.796875 3.4375 -0.796875 3.203125 -0.796875 L 1.328125 -0.796875 L 2.4375 -1.875 C 4.0625 -3.3125 4.6875 -3.875 4.6875 -4.921875 C 4.6875 -6.109375 3.75 -6.953125 2.46875 -6.953125 C 1.296875 -6.953125 0.515625 -5.984375 0.515625 -5.0625 C 0.515625 -4.484375 1.046875 -4.484375 1.078125 -4.484375 C 1.25 -4.484375 1.625 -4.609375 1.625 -5.03125 C 1.625 -5.296875 1.4375 -5.578125 1.0625 -5.578125 C 0.984375 -5.578125 0.953125 -5.578125 0.921875 -5.5625 C 1.171875 -6.234375 1.734375 -6.625 2.34375 -6.625 C 3.28125 -6.625 3.734375 -5.78125 3.734375 -4.921875 C 3.734375 -4.09375 3.21875 -3.265625 2.640625 -2.625 L 0.640625 -0.390625 C 0.515625 -0.265625 0.515625 -0.25 0.515625 0 L 4.390625 0 Z M 4.6875 -1.8125 "/>
</symbol>
<symbol overflow="visible" id="glyph1-3">
<path style="stroke:none;" d="M 2 -0.546875 C 2 -0.859375 1.75 -1.109375 1.453125 -1.109375 C 1.140625 -1.109375 0.890625 -0.859375 0.890625 -0.546875 C 0.890625 -0.25 1.140625 0 1.453125 0 C 1.75 0 2 -0.25 2 -0.546875 Z M 2 -0.546875 "/>
</symbol>
<symbol overflow="visible" id="glyph1-4">
<path style="stroke:none;" d="M 4.6875 -2.09375 C 4.6875 -3.34375 3.828125 -4.390625 2.703125 -4.390625 C 2.203125 -4.390625 1.75 -4.21875 1.375 -3.84375 L 1.375 -5.890625 C 1.59375 -5.828125 1.9375 -5.75 2.265625 -5.75 C 3.546875 -5.75 4.28125 -6.703125 4.28125 -6.84375 C 4.28125 -6.90625 4.25 -6.953125 4.171875 -6.953125 C 4.171875 -6.953125 4.140625 -6.953125 4.09375 -6.921875 C 3.875 -6.828125 3.375 -6.625 2.671875 -6.625 C 2.25 -6.625 1.78125 -6.6875 1.28125 -6.90625 C 1.203125 -6.9375 1.15625 -6.9375 1.15625 -6.9375 C 1.046875 -6.9375 1.046875 -6.859375 1.046875 -6.6875 L 1.046875 -3.59375 C 1.046875 -3.40625 1.046875 -3.328125 1.203125 -3.328125 C 1.265625 -3.328125 1.296875 -3.359375 1.34375 -3.421875 C 1.453125 -3.59375 1.84375 -4.15625 2.6875 -4.15625 C 3.21875 -4.15625 3.484375 -3.671875 3.5625 -3.484375 C 3.734375 -3.09375 3.75 -2.6875 3.75 -2.171875 C 3.75 -1.8125 3.75 -1.171875 3.5 -0.734375 C 3.25 -0.328125 2.875 -0.0625 2.390625 -0.0625 C 1.625 -0.0625 1.03125 -0.609375 0.859375 -1.234375 C 0.890625 -1.21875 0.921875 -1.203125 1.03125 -1.203125 C 1.375 -1.203125 1.5625 -1.46875 1.5625 -1.71875 C 1.5625 -1.96875 1.375 -2.234375 1.03125 -2.234375 C 0.890625 -2.234375 0.515625 -2.15625 0.515625 -1.6875 C 0.515625 -0.78125 1.234375 0.234375 2.40625 0.234375 C 3.625 0.234375 4.6875 -0.765625 4.6875 -2.09375 Z M 4.6875 -2.09375 "/>
</symbol>
<symbol overflow="visible" id="glyph1-5">
<path style="stroke:none;" d="M 4.375 0 L 4.375 -0.328125 L 4.046875 -0.328125 C 3.09375 -0.328125 3.0625 -0.4375 3.0625 -0.828125 L 3.0625 -6.6875 C 3.0625 -6.9375 3.0625 -6.953125 2.828125 -6.953125 C 2.1875 -6.28125 1.265625 -6.28125 0.921875 -6.28125 L 0.921875 -5.953125 C 1.140625 -5.953125 1.75 -5.953125 2.296875 -6.234375 L 2.296875 -0.828125 C 2.296875 -0.453125 2.265625 -0.328125 1.328125 -0.328125 L 0.984375 -0.328125 L 0.984375 0 C 1.359375 -0.03125 2.265625 -0.03125 2.6875 -0.03125 C 3.09375 -0.03125 4.015625 -0.03125 4.375 0 Z M 4.375 0 "/>
</symbol>
<symbol overflow="visible" id="glyph1-6">
<path style="stroke:none;" d="M 4.796875 -3.34375 C 4.796875 -4.171875 4.75 -5.015625 4.390625 -5.78125 C 3.90625 -6.78125 3.046875 -6.953125 2.609375 -6.953125 C 1.984375 -6.953125 1.21875 -6.6875 0.796875 -5.703125 C 0.453125 -4.984375 0.40625 -4.171875 0.40625 -3.34375 C 0.40625 -2.5625 0.453125 -1.625 0.875 -0.828125 C 1.328125 0.015625 2.09375 0.234375 2.59375 0.234375 C 3.15625 0.234375 3.953125 0.015625 4.421875 -0.984375 C 4.75 -1.703125 4.796875 -2.515625 4.796875 -3.34375 Z M 3.9375 -3.46875 C 3.9375 -2.6875 3.9375 -1.96875 3.8125 -1.296875 C 3.65625 -0.3125 3.0625 0 2.59375 0 C 2.1875 0 1.578125 -0.265625 1.390625 -1.265625 C 1.265625 -1.890625 1.265625 -2.84375 1.265625 -3.46875 C 1.265625 -4.140625 1.265625 -4.828125 1.359375 -5.390625 C 1.5625 -6.625 2.34375 -6.71875 2.59375 -6.71875 C 2.9375 -6.71875 3.625 -6.53125 3.828125 -5.5 C 3.9375 -4.921875 3.9375 -4.125 3.9375 -3.46875 Z M 3.9375 -3.46875 "/>
</symbol>
<symbol overflow="visible" id="glyph1-7">
<path style="stroke:none;" d="M 4.765625 -1.78125 C 4.765625 -2.640625 4.109375 -3.453125 3.03125 -3.671875 C 3.875 -3.953125 4.484375 -4.6875 4.484375 -5.515625 C 4.484375 -6.359375 3.5625 -6.953125 2.5625 -6.953125 C 1.515625 -6.953125 0.71875 -6.328125 0.71875 -5.53125 C 0.71875 -5.1875 0.953125 -4.984375 1.25 -4.984375 C 1.578125 -4.984375 1.78125 -5.21875 1.78125 -5.515625 C 1.78125 -6.046875 1.296875 -6.046875 1.140625 -6.046875 C 1.46875 -6.5625 2.15625 -6.6875 2.53125 -6.6875 C 2.953125 -6.6875 3.53125 -6.453125 3.53125 -5.515625 C 3.53125 -5.390625 3.5 -4.796875 3.234375 -4.328125 C 2.921875 -3.828125 2.5625 -3.796875 2.3125 -3.78125 C 2.21875 -3.78125 1.96875 -3.75 1.90625 -3.75 C 1.8125 -3.75 1.75 -3.734375 1.75 -3.625 C 1.75 -3.515625 1.8125 -3.515625 2 -3.515625 L 2.453125 -3.515625 C 3.3125 -3.515625 3.6875 -2.8125 3.6875 -1.78125 C 3.6875 -0.359375 2.96875 -0.0625 2.515625 -0.0625 C 2.0625 -0.0625 1.28125 -0.234375 0.921875 -0.859375 C 1.28125 -0.796875 1.609375 -1.03125 1.609375 -1.4375 C 1.609375 -1.8125 1.328125 -2.015625 1.015625 -2.015625 C 0.765625 -2.015625 0.4375 -1.875 0.4375 -1.40625 C 0.4375 -0.453125 1.40625 0.234375 2.546875 0.234375 C 3.8125 0.234375 4.765625 -0.71875 4.765625 -1.78125 Z M 4.765625 -1.78125 "/>
</symbol>
<symbol overflow="visible" id="glyph2-0">
<path style="stroke:none;" d=""/>
</symbol>
<symbol overflow="visible" id="glyph2-1">
<path style="stroke:none;" d="M 4.796875 -3.34375 C 4.796875 -4.171875 4.75 -5.015625 4.390625 -5.78125 C 3.90625 -6.78125 3.046875 -6.953125 2.609375 -6.953125 C 1.984375 -6.953125 1.21875 -6.6875 0.796875 -5.703125 C 0.453125 -4.984375 0.40625 -4.171875 0.40625 -3.34375 C 0.40625 -2.5625 0.453125 -1.625 0.875 -0.828125 C 1.328125 0.015625 2.09375 0.234375 2.59375 0.234375 C 3.15625 0.234375 3.953125 0.015625 4.421875 -0.984375 C 4.75 -1.703125 4.796875 -2.515625 4.796875 -3.34375 Z M 2.59375 0 C 2.1875 0 1.578125 -0.265625 1.390625 -1.265625 C 1.265625 -1.890625 1.265625 -2.84375 1.265625 -3.46875 C 1.265625 -4.140625 1.265625 -4.828125 1.359375 -5.390625 C 1.5625 -6.625 2.34375 -6.71875 2.59375 -6.71875 C 2.9375 -6.71875 3.625 -6.53125 3.828125 -5.5 C 3.9375 -4.921875 3.9375 -4.125 3.9375 -3.46875 C 3.9375 -2.6875 3.9375 -1.96875 3.8125 -1.296875 C 3.65625 -0.3125 3.0625 0 2.59375 0 Z M 2.59375 0 "/>
</symbol>
<symbol overflow="visible" id="glyph2-2">
<path style="stroke:none;" d="M 1.328125 -0.796875 L 2.4375 -1.875 C 4.0625 -3.3125 4.6875 -3.875 4.6875 -4.921875 C 4.6875 -6.109375 3.75 -6.953125 2.46875 -6.953125 C 1.296875 -6.953125 0.515625 -5.984375 0.515625 -5.0625 C 0.515625 -4.484375 1.046875 -4.484375 1.078125 -4.484375 C 1.25 -4.484375 1.625 -4.609375 1.625 -5.03125 C 1.625 -5.296875 1.4375 -5.578125 1.0625 -5.578125 C 0.984375 -5.578125 0.953125 -5.578125 0.921875 -5.5625 C 1.171875 -6.234375 1.734375 -6.625 2.34375 -6.625 C 3.28125 -6.625 3.734375 -5.78125 3.734375 -4.921875 C 3.734375 -4.09375 3.21875 -3.265625 2.640625 -2.625 L 0.640625 -0.390625 C 0.515625 -0.265625 0.515625 -0.25 0.515625 0 L 4.390625 0 L 4.6875 -1.8125 L 4.421875 -1.8125 C 4.375 -1.5 4.296875 -1.046875 4.203125 -0.890625 C 4.125 -0.796875 3.4375 -0.796875 3.203125 -0.796875 Z M 1.328125 -0.796875 "/>
</symbol>
<symbol overflow="visible" id="glyph2-3">
<path style="stroke:none;" d="M 3.0625 -1.71875 L 3.0625 -0.8125 C 3.0625 -0.4375 3.046875 -0.328125 2.28125 -0.328125 L 2.0625 -0.328125 L 2.0625 0 C 2.484375 -0.03125 3.03125 -0.03125 3.46875 -0.03125 C 3.90625 -0.03125 4.453125 -0.03125 4.890625 0 L 4.890625 -0.328125 L 4.671875 -0.328125 C 3.890625 -0.328125 3.875 -0.4375 3.875 -0.8125 L 3.875 -1.71875 L 4.921875 -1.71875 L 4.921875 -2.046875 L 3.875 -2.046875 L 3.875 -6.796875 C 3.875 -7 3.875 -7.0625 3.703125 -7.0625 C 3.609375 -7.0625 3.578125 -7.0625 3.5 -6.9375 L 0.296875 -2.046875 L 0.296875 -1.71875 Z M 3.125 -2.046875 L 0.578125 -2.046875 L 3.125 -5.9375 Z M 3.125 -2.046875 "/>
</symbol>
<symbol overflow="visible" id="glyph2-4">
<path style="stroke:none;" d="M 1.375 -3.421875 L 1.375 -3.671875 C 1.375 -6.3125 2.671875 -6.6875 3.203125 -6.6875 C 3.453125 -6.6875 3.890625 -6.625 4.125 -6.265625 C 3.96875 -6.265625 3.546875 -6.265625 3.546875 -5.796875 C 3.546875 -5.484375 3.796875 -5.328125 4.03125 -5.328125 C 4.203125 -5.328125 4.515625 -5.421875 4.515625 -5.828125 C 4.515625 -6.453125 4.046875 -6.953125 3.1875 -6.953125 C 1.84375 -6.953125 0.4375 -5.609375 0.4375 -3.296875 C 0.4375 -0.515625 1.65625 0.234375 2.625 0.234375 C 3.78125 0.234375 4.765625 -0.75 4.765625 -2.125 C 4.765625 -3.453125 3.84375 -4.453125 2.6875 -4.453125 C 1.96875 -4.453125 1.59375 -3.921875 1.375 -3.421875 Z M 2.625 -0.0625 C 1.96875 -0.0625 1.65625 -0.6875 1.59375 -0.84375 C 1.40625 -1.34375 1.40625 -2.171875 1.40625 -2.359375 C 1.40625 -3.171875 1.734375 -4.21875 2.671875 -4.21875 C 2.84375 -4.21875 3.3125 -4.21875 3.640625 -3.5625 C 3.828125 -3.1875 3.828125 -2.65625 3.828125 -2.140625 C 3.828125 -1.640625 3.828125 -1.109375 3.65625 -0.734375 C 3.34375 -0.109375 2.859375 -0.0625 2.625 -0.0625 Z M 2.625 -0.0625 "/>
</symbol>
<symbol overflow="visible" id="glyph2-5">
<path style="stroke:none;" d="M 3.03125 -3.671875 C 3.875 -3.953125 4.484375 -4.6875 4.484375 -5.515625 C 4.484375 -6.359375 3.5625 -6.953125 2.5625 -6.953125 C 1.515625 -6.953125 0.71875 -6.328125 0.71875 -5.53125 C 0.71875 -5.1875 0.953125 -4.984375 1.25 -4.984375 C 1.578125 -4.984375 1.78125 -5.21875 1.78125 -5.515625 C 1.78125 -6.046875 1.296875 -6.046875 1.140625 -6.046875 C 1.46875 -6.5625 2.15625 -6.6875 2.53125 -6.6875 C 2.953125 -6.6875 3.53125 -6.453125 3.53125 -5.515625 C 3.53125 -5.390625 3.5 -4.796875 3.234375 -4.328125 C 2.921875 -3.828125 2.5625 -3.796875 2.3125 -3.78125 C 2.21875 -3.78125 1.96875 -3.75 1.90625 -3.75 C 1.8125 -3.75 1.75 -3.734375 1.75 -3.625 C 1.75 -3.515625 1.8125 -3.515625 2 -3.515625 L 2.453125 -3.515625 C 3.3125 -3.515625 3.6875 -2.8125 3.6875 -1.78125 C 3.6875 -0.359375 2.96875 -0.0625 2.515625 -0.0625 C 2.0625 -0.0625 1.28125 -0.234375 0.921875 -0.859375 C 1.28125 -0.796875 1.609375 -1.03125 1.609375 -1.4375 C 1.609375 -1.8125 1.328125 -2.015625 1.015625 -2.015625 C 0.765625 -2.015625 0.4375 -1.875 0.4375 -1.40625 C 0.4375 -0.453125 1.40625 0.234375 2.546875 0.234375 C 3.8125 0.234375 4.765625 -0.71875 4.765625 -1.78125 C 4.765625 -2.640625 4.109375 -3.453125 3.03125 -3.671875 Z M 3.03125 -3.671875 "/>
</symbol>
<symbol overflow="visible" id="glyph3-0">
<path style="stroke:none;" d=""/>
</symbol>
<symbol overflow="visible" id="glyph3-1">
<path style="stroke:none;" d="M 2 -0.546875 C 2 -0.859375 1.75 -1.109375 1.453125 -1.109375 C 1.140625 -1.109375 0.890625 -0.859375 0.890625 -0.546875 C 0.890625 -0.25 1.140625 0 1.453125 0 C 1.75 0 2 -0.25 2 -0.546875 Z M 2 -0.546875 "/>
</symbol>
</g>
</defs>
<g id="surface1">
<path style="fill:none;stroke-width:0.3985;stroke-linecap:butt;stroke-linejoin:miter;stroke:rgb(0%,0%,0%);stroke-opacity:1;stroke-miterlimit:10;" d="M -0.0000537051 -0.000871443 L 155.155301 -0.000871443 " transform="matrix(0.994341,0,0,-0.994341,31.144585,104.217883)"/>
<path style=" stroke:none;fill-rule:nonzero;fill:rgb(0%,0%,0%);fill-opacity:1;" d="M 188.988281 104.21875 C 187.933594 104.019531 186.214844 103.425781 185.027344 102.730469 L 185.027344 105.703125 C 186.214844 105.011719 187.933594 104.414062 188.988281 104.21875 "/>
<g style="fill:rgb(0%,0%,0%);fill-opacity:1;">
  <use xlink:href="#glyph0-1" x="165.496969" y="116.500979"/>
  <use xlink:href="#glyph0-2" x="175.93755" y="116.500979"/>
</g>
<g style="fill:rgb(0%,0%,0%);fill-opacity:1;">
  <use xlink:href="#glyph1-1" x="186.378132" y="116.500979"/>
</g>
<g style="fill:rgb(0%,0%,0%);fill-opacity:1;">
  <use xlink:href="#glyph0-3" x="191.598423" y="116.500979"/>
  <use xlink:href="#glyph0-4" x="202.039004" y="116.500979"/>
</g>
<path style="fill:none;stroke-width:0.3985;stroke-linecap:butt;stroke-linejoin:miter;stroke:rgb(0%,0%,0%);stroke-opacity:1;stroke-miterlimit:10;" d="M -0.0000537051 -0.000871443 L -0.0000537051 87.124979 " transform="matrix(0.994341,0,0,-0.994341,31.144585,104.217883)"/>
<path style=" stroke:none;fill-rule:nonzero;fill:rgb(0%,0%,0%);fill-opacity:1;" d="M 31.144531 14.019531 C 30.945312 15.078125 30.351562 16.792969 29.660156 17.984375 L 32.628906 17.984375 C 31.9375 16.792969 31.34375 15.078125 31.144531 14.019531 "/>
<g style="fill:rgb(0%,0%,0%);fill-opacity:1;">
  <use xlink:href="#glyph0-5" x="34.822652" y="16.998261"/>
  <use xlink:href="#glyph0-6" x="45.263234" y="16.998261"/>
</g>
<g style="fill:rgb(0%,0%,0%);fill-opacity:1;">
  <use xlink:href="#glyph1-1" x="55.703815" y="16.998261"/>
</g>
<g style="fill:rgb(0%,0%,0%);fill-opacity:1;">
  <use xlink:href="#glyph0-7" x="60.924106" y="16.998261"/>
  <use xlink:href="#glyph0-8" x="71.364687" y="16.998261"/>
</g>
<g style="fill:rgb(0%,0%,0%);fill-opacity:1;">
  <use xlink:href="#glyph1-2" x="35.74739" y="114.849378"/>
  <use xlink:href="#glyph1-3" x="40.96768" y="114.849378"/>
  <use xlink:href="#glyph1-4" x="43.870162" y="114.849378"/>
</g>
<path style="fill:none;stroke-width:0.3985;stroke-linecap:butt;stroke-linejoin:miter;stroke:rgb(0%,0%,0%);stroke-opacity:1;stroke-miterlimit:10;" d="M 11.337542 -0.000871443 L 11.337542 22.682177 L 34.016663 22.682177 L 34.016663 -0.000871443 Z M 11.337542 -0.000871443 " transform="matrix(0.994341,0,0,-0.994341,31.144585,104.217883)"/>
<g style="fill:rgb(0%,0%,0%);fill-opacity:1;">
  <use xlink:href="#glyph1-5" x="59.7478" y="114.849378"/>
  <use xlink:href="#glyph1-4" x="64.968091" y="114.849378"/>
</g>
<path style="fill:none;stroke-width:0.3985;stroke-linecap:butt;stroke-linejoin:miter;stroke:rgb(0%,0%,0%);stroke-opacity:1;stroke-dasharray:2.98883,2.98883;stroke-miterlimit:10;" d="M 11.337542 22.682177 L -0.0000537051 22.682177 " transform="matrix(0.994341,0,0,-0.994341,31.144585,104.217883)"/>
<g style="fill:rgb(0%,0%,0%);fill-opacity:1;">
  <use xlink:href="#glyph2-1" x="8.905152" y="85.028095"/>
</g>
<g style="fill:rgb(0%,0%,0%);fill-opacity:1;">
  <use xlink:href="#glyph3-1" x="14.126437" y="85.028095"/>
</g>
<g style="fill:rgb(0%,0%,0%);fill-opacity:1;">
  <use xlink:href="#glyph2-1" x="17.025936" y="85.028095"/>
  <use xlink:href="#glyph2-2" x="22.246226" y="85.028095"/>
</g>
<path style="fill:none;stroke-width:0.3985;stroke-linecap:butt;stroke-linejoin:miter;stroke:rgb(0%,0%,0%);stroke-opacity:1;stroke-miterlimit:10;" d="M 34.016663 -0.000871443 L 34.016663 45.345584 L 56.695783 45.345584 L 56.695783 -0.000871443 Z M 34.016663 -0.000871443 " transform="matrix(0.994341,0,0,-0.994341,31.144585,104.217883)"/>
<g style="fill:rgb(0%,0%,0%);fill-opacity:1;">
  <use xlink:href="#glyph1-2" x="82.297467" y="114.849378"/>
  <use xlink:href="#glyph1-6" x="87.517758" y="114.849378"/>
</g>
<path style="fill:none;stroke-width:0.3985;stroke-linecap:butt;stroke-linejoin:miter;stroke:rgb(0%,0%,0%);stroke-opacity:1;stroke-dasharray:2.98883,2.98883;stroke-miterlimit:10;" d="M 34.016663 45.345584 L -0.0000537051 45.345584 " transform="matrix(0.994341,0,0,-0.994341,31.144585,104.217883)"/>
<g style="fill:rgb(0%,0%,0%);fill-opacity:1;">
  <use xlink:href="#glyph2-1" x="8.905152" y="62.491354"/>
</g>
<g style="fill:rgb(0%,0%,0%);fill-opacity:1;">
  <use xlink:href="#glyph3-1" x="14.126437" y="62.491354"/>
</g>
<g style="fill:rgb(0%,0%,0%);fill-opacity:1;">
  <use xlink:href="#glyph2-1" x="17.025936" y="62.491354"/>
  <use xlink:href="#glyph2-3" x="22.246226" y="62.491354"/>
</g>
<path style="fill:none;stroke-width:0.3985;stroke-linecap:butt;stroke-linejoin:miter;stroke:rgb(0%,0%,0%);stroke-opacity:1;stroke-miterlimit:10;" d="M 56.695783 -0.000871443 L 56.695783 68.028633 L 79.370975 68.028633 L 79.370975 -0.000871443 Z M 56.695783 -0.000871443 " transform="matrix(0.994341,0,0,-0.994341,31.144585,104.217883)"/>
<g style="fill:rgb(0%,0%,0%);fill-opacity:1;">
  <use xlink:href="#glyph1-2" x="104.84614" y="114.849378"/>
  <use xlink:href="#glyph1-4" x="110.066431" y="114.849378"/>
</g>
<path style="fill:none;stroke-width:0.3985;stroke-linecap:butt;stroke-linejoin:miter;stroke:rgb(0%,0%,0%);stroke-opacity:1;stroke-dasharray:2.98883,2.98883;stroke-miterlimit:10;" d="M 56.695783 68.028633 L -0.0000537051 68.028633 " transform="matrix(0.994341,0,0,-0.994341,31.144585,104.217883)"/>
<g style="fill:rgb(0%,0%,0%);fill-opacity:1;">
  <use xlink:href="#glyph2-1" x="8.905152" y="39.93771"/>
</g>
<g style="fill:rgb(0%,0%,0%);fill-opacity:1;">
  <use xlink:href="#glyph3-1" x="14.126437" y="39.93771"/>
</g>
<g style="fill:rgb(0%,0%,0%);fill-opacity:1;">
  <use xlink:href="#glyph2-1" x="17.025936" y="39.93771"/>
  <use xlink:href="#glyph2-4" x="22.246226" y="39.93771"/>
</g>
<path style="fill:none;stroke-width:0.3985;stroke-linecap:butt;stroke-linejoin:miter;stroke:rgb(0%,0%,0%);stroke-opacity:1;stroke-miterlimit:10;" d="M 79.370975 -0.000871443 L 102.050096 -0.000871443 Z M 79.370975 -0.000871443 " transform="matrix(0.994341,0,0,-0.994341,31.144585,104.217883)"/>
<g style="fill:rgb(0%,0%,0%);fill-opacity:1;">
  <use xlink:href="#glyph1-7" x="127.395807" y="114.849378"/>
  <use xlink:href="#glyph1-6" x="132.616098" y="114.849378"/>
</g>
<path style="fill:none;stroke-width:0.3985;stroke-linecap:butt;stroke-linejoin:miter;stroke:rgb(0%,0%,0%);stroke-opacity:1;stroke-dasharray:2.98883,2.98883;stroke-miterlimit:10;" d="M 79.370975 -0.000871443 L -0.0000537051 -0.000871443 " transform="matrix(0.994341,0,0,-0.994341,31.144585,104.217883)"/>
<g style="fill:rgb(0%,0%,0%);fill-opacity:1;">
  <use xlink:href="#glyph2-1" x="22.246226" y="107.581739"/>
</g>
<path style="fill:none;stroke-width:0.3985;stroke-linecap:butt;stroke-linejoin:miter;stroke:rgb(0%,0%,0%);stroke-opacity:1;stroke-miterlimit:10;" d="M 102.050096 -0.000871443 L 102.050096 34.015845 L 124.725288 34.015845 L 124.725288 -0.000871443 Z M 102.050096 -0.000871443 " transform="matrix(0.994341,0,0,-0.994341,31.144585,104.217883)"/>
<g style="fill:rgb(0%,0%,0%);fill-opacity:1;">
  <use xlink:href="#glyph1-7" x="149.94448" y="114.849378"/>
  <use xlink:href="#glyph1-4" x="155.164771" y="114.849378"/>
</g>
<path style="fill:none;stroke-width:0.3985;stroke-linecap:butt;stroke-linejoin:miter;stroke:rgb(0%,0%,0%);stroke-opacity:1;stroke-dasharray:2.98883,2.98883;stroke-miterlimit:10;" d="M 102.050096 34.015845 L -0.0000537051 34.015845 " transform="matrix(0.994341,0,0,-0.994341,31.144585,104.217883)"/>
<g style="fill:rgb(0%,0%,0%);fill-opacity:1;">
  <use xlink:href="#glyph2-1" x="8.905152" y="73.759227"/>
</g>
<g style="fill:rgb(0%,0%,0%);fill-opacity:1;">
  <use xlink:href="#glyph3-1" x="14.126437" y="73.759227"/>
</g>
<g style="fill:rgb(0%,0%,0%);fill-opacity:1;">
  <use xlink:href="#glyph2-1" x="17.025936" y="73.759227"/>
  <use xlink:href="#glyph2-5" x="22.246226" y="73.759227"/>
</g>
<path style="fill:none;stroke-width:0.3985;stroke-linecap:butt;stroke-linejoin:miter;stroke:rgb(0%,0%,0%);stroke-opacity:1;stroke-miterlimit:10;" d="M 79.370975 -0.000871443 L 79.370975 56.694965 L 102.050096 56.694965 L 102.050096 -0.000871443 Z M 79.370975 -0.000871443 " transform="matrix(0.994341,0,0,-0.994341,31.144585,104.217883)"/>
</g>
</svg>
