<?xml version="1.0" encoding="UTF-8"?>
<svg xmlns="http://www.w3.org/2000/svg" xmlns:xlink="http://www.w3.org/1999/xlink" width="95.4pt" height="123.75pt" viewBox="0 0 95.4 123.75" version="1.2">
<defs>
<clipPath id="clip1">
  <path d="M 0 0.261719 L 39 0.261719 L 39 68 L 0 68 Z M 0 0.261719 "/>
</clipPath>
<clipPath id="clip2">
  <path d="M 55 0.261719 L 94.804688 0.261719 L 94.804688 68 L 55 68 Z M 55 0.261719 "/>
</clipPath>
<clipPath id="clip3">
  <path d="M 0 84 L 39 84 L 39 123.238281 L 0 123.238281 Z M 0 84 "/>
</clipPath>
</defs>
<g id="surface1">
<g clip-path="url(#clip1)" clip-rule="nonzero">
<path style="fill:none;stroke-width:0.3985;stroke-linecap:butt;stroke-linejoin:miter;stroke:rgb(0%,0%,0%);stroke-opacity:1;stroke-miterlimit:10;" d="M -0.00018239 0.00091195 L 28.344943 28.346038 L 28.344943 -28.348145 L -0.00018239 -28.348145 Z M -0.00018239 0.00091195 " transform="matrix(0.99375,0,0,-0.99375,5.148619,33.582937)"/>
</g>
<g clip-path="url(#clip2)" clip-rule="nonzero">
<path style="fill:none;stroke-width:0.3985;stroke-linecap:butt;stroke-linejoin:miter;stroke:rgb(0%,0%,0%);stroke-opacity:1;stroke-miterlimit:10;" d="M 56.694 28.346038 L 85.039126 0.00091195 L 85.039126 -28.348145 L 56.694 -28.348145 Z M 56.694 28.346038 " transform="matrix(0.99375,0,0,-0.99375,5.148619,33.582937)"/>
</g>
<g clip-path="url(#clip3)" clip-rule="nonzero">
<path style="fill:none;stroke-width:0.3985;stroke-linecap:butt;stroke-linejoin:miter;stroke:rgb(0%,0%,0%);stroke-opacity:1;stroke-miterlimit:10;" d="M -0.00018239 -56.69327 L 28.344943 -56.69327 L 28.344943 -85.042327 Z M -0.00018239 -56.69327 " transform="matrix(0.99375,0,0,-0.99375,5.148619,33.582937)"/>
</g>
<path style="fill:none;stroke-width:0.3985;stroke-linecap:butt;stroke-linejoin:miter;stroke:rgb(0%,0%,0%);stroke-opacity:1;stroke-miterlimit:10;" d="M -0.00018239 0.00091195 L 28.344943 0.00091195 M 56.694 0.00091195 L 85.039126 0.00091195 " transform="matrix(0.99375,0,0,-0.99375,5.148619,33.582937)"/>
</g>
</svg>
