<?xml version="1.0" encoding="UTF-8"?>
<svg xmlns="http://www.w3.org/2000/svg" xmlns:xlink="http://www.w3.org/1999/xlink" width="137.92pt" height="166.27pt" viewBox="0 0 137.92 166.27" version="1.2">
<g id="surface1">
<path style="fill:none;stroke-width:0.3985;stroke-linecap:butt;stroke-linejoin:miter;stroke:rgb(75%,75%,75%);stroke-opacity:1;stroke-miterlimit:10;" d="M 0.00191409 -0.00118933 L 56.695047 -0.00118933 M 0.00191409 14.174056 L 56.695047 14.174056 M 0.00191409 28.345377 L 56.695047 28.345377 M 0.00191409 42.520622 L 56.695047 42.520622 M 0.00191409 56.691943 L 56.695047 56.691943 M 0.00191409 70.863265 L 56.695047 70.863265 M 0.00191409 -0.00118933 L 0.00191409 70.867188 M 14.173236 -0.00118933 L 14.173236 70.867188 M 28.34848 -0.00118933 L 28.34848 70.867188 M 42.519802 -0.00118933 L 42.519802 70.867188 M 56.6872 -0.00118933 L 56.6872 70.867188 " transform="matrix(0.995629,0,0,-0.995629,5.419969,75.717566)"/>
<path style="fill:none;stroke-width:0.3985;stroke-linecap:butt;stroke-linejoin:miter;stroke:rgb(0%,0%,0%);stroke-opacity:1;stroke-miterlimit:10;" d="M 14.173236 14.174056 L 14.173236 56.691943 L 42.519802 56.691943 L 42.519802 14.174056 Z M 14.173236 14.174056 " transform="matrix(0.995629,0,0,-0.995629,5.419969,75.717566)"/>
<path style="fill:none;stroke-width:0.3985;stroke-linecap:butt;stroke-linejoin:miter;stroke:rgb(0%,0%,0%);stroke-opacity:1;stroke-miterlimit:10;" d="M 14.173236 42.520622 L 42.519802 42.520622 " transform="matrix(0.995629,0,0,-0.995629,5.419969,75.717566)"/>
<path style="fill:none;stroke-width:0.3985;stroke-linecap:butt;stroke-linejoin:miter;stroke:rgb(75%,75%,75%);stroke-opacity:1;stroke-miterlimit:10;" d="M 70.866368 -0.00118933 L 127.559501 -0.00118933 M 70.866368 14.174056 L 127.559501 14.174056 M 70.866368 28.345377 L 127.559501 28.345377 M 70.866368 42.520622 L 127.559501 42.520622 M 70.866368 56.691943 L 127.559501 56.691943 M 70.866368 70.863265 L 127.559501 70.863265 M 70.866368 -0.00118933 L 70.866368 70.867188 M 85.041613 -0.00118933 L 85.041613 70.867188 M 99.212935 -0.00118933 L 99.212935 70.867188 M 113.38818 -0.00118933 L 113.38818 70.867188 M 127.555578 -0.00118933 L 127.555578 70.867188 " transform="matrix(0.995629,0,0,-0.995629,5.419969,75.717566)"/>
<path style="fill:none;stroke-width:0.3985;stroke-linecap:butt;stroke-linejoin:miter;stroke:rgb(0%,0%,0%);stroke-opacity:1;stroke-miterlimit:10;" d="M 85.041613 14.174056 L 113.38818 14.174056 L 113.38818 42.520622 L 99.212935 42.520622 L 99.212935 56.691943 L 85.041613 56.691943 Z M 85.041613 14.174056 " transform="matrix(0.995629,0,0,-0.995629,5.419969,75.717566)"/>
<path style="fill:none;stroke-width:0.3985;stroke-linecap:butt;stroke-linejoin:miter;stroke:rgb(75%,75%,75%);stroke-opacity:1;stroke-miterlimit:10;" d="M 0.00191409 -85.040889 L 56.695047 -85.040889 M 0.00191409 -70.865644 L 56.695047 -70.865644 M 0.00191409 -56.694322 L 56.695047 -56.694322 M 0.00191409 -42.519077 L 56.695047 -42.519077 M 0.00191409 -28.347756 L 56.695047 -28.347756 M 0.00191409 -14.176434 L 56.695047 -14.176434 M 0.00191409 -85.040889 L 0.00191409 -14.172511 M 14.173236 -85.040889 L 14.173236 -14.172511 M 28.34848 -85.040889 L 28.34848 -14.172511 M 42.519802 -85.040889 L 42.519802 -14.172511 M 56.6872 -85.040889 L 56.6872 -14.172511 " transform="matrix(0.995629,0,0,-0.995629,5.419969,75.717566)"/>
<path style="fill:none;stroke-width:0.3985;stroke-linecap:butt;stroke-linejoin:miter;stroke:rgb(0%,0%,0%);stroke-opacity:1;stroke-miterlimit:10;" d="M 14.173236 -28.347756 L 14.173236 -70.865644 L 42.519802 -70.865644 L 42.519802 -28.347756 Z M 14.173236 -28.347756 " transform="matrix(0.995629,0,0,-0.995629,5.419969,75.717566)"/>
<path style="fill:none;stroke-width:0.3985;stroke-linecap:butt;stroke-linejoin:miter;stroke:rgb(0%,0%,0%);stroke-opacity:1;stroke-miterlimit:10;" d="M 14.173236 -42.519077 L 42.519802 -42.519077 " transform="matrix(0.995629,0,0,-0.995629,5.419969,75.717566)"/>
</g>
</svg>
