<?xml version="1.0" encoding="UTF-8"?>
<svg xmlns="http://www.w3.org/2000/svg" xmlns:xlink="http://www.w3.org/1999/xlink" width="275.85pt" height="67.05pt" viewBox="0 0 275.85 67.05" version="1.2">
<defs>
<clipPath id="clip1">
  <path d="M 85 0 L 139 0 L 139 66.113281 L 85 66.113281 Z M 85 0 "/>
</clipPath>
<clipPath id="clip2">
  <path d="M 71 0 L 111 0 L 111 66.113281 L 71 66.113281 Z M 71 0 "/>
</clipPath>
<clipPath id="clip3">
  <path d="M 214 0 L 273.847656 0 L 273.847656 66.113281 L 214 66.113281 Z M 214 0 "/>
</clipPath>
</defs>
<g id="surface1">
<path style="fill-rule:nonzero;fill:rgb(50%,50%,50%);fill-opacity:1;stroke-width:0.3985;stroke-linecap:butt;stroke-linejoin:miter;stroke:rgb(0%,0%,0%);stroke-opacity:1;stroke-miterlimit:10;" d="M -0.000630872 0.000758016 L 14.173959 0.000758016 L 14.173959 14.175348 L 28.348549 14.175348 L 28.348549 42.520566 L 56.693767 42.520566 L 56.693767 56.695156 L 14.173959 56.695156 L 14.173959 42.520566 L -0.000630872 42.520566 Z M -0.000630872 0.000758016 " transform="matrix(0.986029,0,0,-0.986029,6.96156,61.004654)"/>
<path style=" stroke:none;fill-rule:nonzero;fill:rgb(50%,50%,50%);fill-opacity:1;" d="M 104.789062 61.003906 C 120.226562 61.003906 132.738281 48.492188 132.738281 33.054688 C 132.738281 17.617188 120.226562 5.101562 104.789062 5.101562 C 97.070312 5.101562 90.8125 11.359375 90.8125 19.078125 C 90.8125 26.796875 97.070312 33.054688 104.789062 33.054688 C 112.507812 33.054688 118.765625 39.3125 118.765625 47.027344 C 118.765625 54.746094 112.507812 61.003906 104.789062 61.003906 "/>
<g clip-path="url(#clip1)" clip-rule="nonzero">
<path style="fill:none;stroke-width:0.3985;stroke-linecap:butt;stroke-linejoin:miter;stroke:rgb(0%,0%,0%);stroke-opacity:1;stroke-miterlimit:10;" d="M 99.213575 0.000758016 C 114.869802 0.000758016 127.558793 12.689749 127.558793 28.345976 C 127.558793 44.002203 114.869802 56.695156 99.213575 56.695156 C 91.385462 56.695156 85.038985 50.348679 85.038985 42.520566 C 85.038985 34.692453 91.385462 28.345976 99.213575 28.345976 C 107.041688 28.345976 113.388165 21.9995 113.388165 14.175348 C 113.388165 6.347235 107.041688 0.000758016 99.213575 0.000758016 " transform="matrix(0.986029,0,0,-0.986029,6.96156,61.004654)"/>
</g>
<g clip-path="url(#clip2)" clip-rule="nonzero">
<path style="fill:none;stroke-width:0.3985;stroke-linecap:butt;stroke-linejoin:miter;stroke:rgb(0%,0%,0%);stroke-opacity:1;stroke-dasharray:2.98883,2.98883;stroke-miterlimit:10;" d="M 99.213575 56.695156 C 83.557348 56.695156 70.868357 44.002203 70.868357 28.345976 C 70.868357 12.689749 83.557348 0.000758016 99.213575 0.000758016 " transform="matrix(0.986029,0,0,-0.986029,6.96156,61.004654)"/>
</g>
<path style="fill-rule:nonzero;fill:rgb(50%,50%,50%);fill-opacity:1;stroke-width:0.3985;stroke-linecap:butt;stroke-linejoin:miter;stroke:rgb(0%,0%,0%);stroke-opacity:1;stroke-miterlimit:10;" d="M 141.733383 8.502343 L 198.427781 8.502343 L 184.253191 51.026112 L 170.082563 22.676933 L 155.907973 51.026112 Z M 141.733383 8.502343 " transform="matrix(0.986029,0,0,-0.986029,6.96156,61.004654)"/>
<path style=" stroke:none;fill-rule:nonzero;fill:rgb(50%,50%,50%);fill-opacity:1;" d="M 244.542969 61.003906 L 252.605469 47.019531 L 268.75 47.027344 L 260.671875 33.054688 L 268.75 19.078125 L 252.605469 19.085938 L 244.542969 5.101562 L 236.480469 19.085938 L 220.335938 19.078125 L 228.414062 33.054688 L 220.335938 47.027344 L 236.480469 47.019531 Z M 244.542969 61.003906 "/>
<g clip-path="url(#clip3)" clip-rule="nonzero">
<path style="fill:none;stroke-width:0.3985;stroke-linecap:butt;stroke-linejoin:miter;stroke:rgb(0%,0%,0%);stroke-opacity:1;stroke-miterlimit:10;" d="M 240.947589 0.000758016 L 249.124323 14.183271 L 265.497598 14.175348 L 257.305018 28.345976 L 265.497598 42.520566 L 249.124323 42.512643 L 240.947589 56.695156 L 232.770855 42.512643 L 216.397579 42.520566 L 224.59016 28.345976 L 216.397579 14.175348 L 232.770855 14.183271 Z M 240.947589 0.000758016 " transform="matrix(0.986029,0,0,-0.986029,6.96156,61.004654)"/>
</g>
</g>
</svg>
