<?xml version="1.0" encoding="UTF-8"?>
<svg xmlns="http://www.w3.org/2000/svg" xmlns:xlink="http://www.w3.org/1999/xlink" width="103.21pt" height="101.98pt" viewBox="0 0 103.21 101.98" version="1.2">
<defs>
<g>
<symbol overflow="visible" id="glyph0-0">
<path style="stroke:none;" d=""/>
</symbol>
<symbol overflow="visible" id="glyph0-1">
<path style="stroke:none;" d="M 6.875 -2.390625 C 7.046875 -2.390625 7.234375 -2.390625 7.234375 -2.609375 C 7.234375 -2.8125 7.046875 -2.8125 6.875 -2.8125 L 1.234375 -2.8125 C 1.046875 -2.8125 0.859375 -2.8125 0.859375 -2.609375 C 0.859375 -2.390625 1.046875 -2.390625 1.234375 -2.390625 Z M 6.875 -2.390625 "/>
</symbol>
<symbol overflow="visible" id="glyph1-0">
<path style="stroke:none;" d=""/>
</symbol>
<symbol overflow="visible" id="glyph1-1">
<path style="stroke:none;" d="M 3.0625 -6.671875 C 3.0625 -6.921875 3.0625 -6.9375 2.828125 -6.9375 C 2.171875 -6.28125 1.265625 -6.28125 0.921875 -6.28125 L 0.921875 -5.953125 C 1.140625 -5.953125 1.75 -5.953125 2.296875 -6.21875 L 2.296875 -0.828125 C 2.296875 -0.453125 2.265625 -0.328125 1.328125 -0.328125 L 0.984375 -0.328125 L 0.984375 0 C 1.359375 -0.03125 2.265625 -0.03125 2.671875 -0.03125 C 3.09375 -0.03125 4 -0.03125 4.359375 0 L 4.359375 -0.328125 L 4.03125 -0.328125 C 3.09375 -0.328125 3.0625 -0.4375 3.0625 -0.828125 Z M 3.0625 -6.671875 "/>
</symbol>
<symbol overflow="visible" id="glyph1-2">
<path style="stroke:none;" d="M 4.796875 -3.328125 C 4.796875 -4.171875 4.734375 -5 4.375 -5.78125 C 3.890625 -6.78125 3.046875 -6.9375 2.609375 -6.9375 C 1.984375 -6.9375 1.21875 -6.671875 0.796875 -5.703125 C 0.453125 -4.984375 0.40625 -4.171875 0.40625 -3.328125 C 0.40625 -2.546875 0.453125 -1.609375 0.875 -0.828125 C 1.328125 0.015625 2.078125 0.234375 2.59375 0.234375 C 3.15625 0.234375 3.953125 0.015625 4.40625 -0.984375 C 4.734375 -1.703125 4.796875 -2.515625 4.796875 -3.328125 Z M 2.59375 0 C 2.1875 0 1.578125 -0.265625 1.390625 -1.265625 C 1.265625 -1.890625 1.265625 -2.84375 1.265625 -3.453125 C 1.265625 -4.125 1.265625 -4.8125 1.359375 -5.375 C 1.546875 -6.625 2.328125 -6.71875 2.59375 -6.71875 C 2.9375 -6.71875 3.625 -6.53125 3.828125 -5.5 C 3.921875 -4.90625 3.921875 -4.109375 3.921875 -3.453125 C 3.921875 -2.671875 3.921875 -1.96875 3.8125 -1.296875 C 3.65625 -0.3125 3.0625 0 2.59375 0 Z M 2.59375 0 "/>
</symbol>
<symbol overflow="visible" id="glyph1-3">
<path style="stroke:none;" d="M 4.671875 -2.09375 C 4.671875 -3.328125 3.828125 -4.375 2.703125 -4.375 C 2.203125 -4.375 1.75 -4.203125 1.375 -3.84375 L 1.375 -5.875 C 1.578125 -5.8125 1.921875 -5.75 2.265625 -5.75 C 3.546875 -5.75 4.265625 -6.6875 4.265625 -6.828125 C 4.265625 -6.890625 4.234375 -6.9375 4.171875 -6.9375 C 4.15625 -6.9375 4.140625 -6.9375 4.078125 -6.90625 C 3.875 -6.8125 3.359375 -6.609375 2.671875 -6.609375 C 2.25 -6.609375 1.765625 -6.6875 1.28125 -6.90625 C 1.203125 -6.9375 1.171875 -6.9375 1.15625 -6.9375 C 1.046875 -6.9375 1.046875 -6.84375 1.046875 -6.6875 L 1.046875 -3.59375 C 1.046875 -3.40625 1.046875 -3.328125 1.203125 -3.328125 C 1.265625 -3.328125 1.296875 -3.359375 1.328125 -3.421875 C 1.453125 -3.578125 1.828125 -4.140625 2.671875 -4.140625 C 3.21875 -4.140625 3.484375 -3.671875 3.5625 -3.484375 C 3.734375 -3.09375 3.75 -2.6875 3.75 -2.171875 C 3.75 -1.796875 3.75 -1.171875 3.5 -0.734375 C 3.25 -0.328125 2.859375 -0.0625 2.390625 -0.0625 C 1.625 -0.0625 1.03125 -0.609375 0.859375 -1.234375 C 0.890625 -1.21875 0.921875 -1.203125 1.03125 -1.203125 C 1.375 -1.203125 1.546875 -1.46875 1.546875 -1.71875 C 1.546875 -1.96875 1.375 -2.234375 1.03125 -2.234375 C 0.890625 -2.234375 0.515625 -2.15625 0.515625 -1.671875 C 0.515625 -0.78125 1.234375 0.234375 2.40625 0.234375 C 3.609375 0.234375 4.671875 -0.765625 4.671875 -2.09375 Z M 4.671875 -2.09375 "/>
</symbol>
<symbol overflow="visible" id="glyph2-0">
<path style="stroke:none;" d=""/>
</symbol>
<symbol overflow="visible" id="glyph2-1">
<path style="stroke:none;" d="M 2 -0.546875 C 2 -0.859375 1.75 -1.109375 1.453125 -1.109375 C 1.140625 -1.109375 0.890625 -0.859375 0.890625 -0.546875 C 0.890625 -0.25 1.140625 0 1.453125 0 C 1.75 0 2 -0.25 2 -0.546875 Z M 2 -0.546875 "/>
</symbol>
<symbol overflow="visible" id="glyph2-2">
<path style="stroke:none;" d="M 3.484375 -3.140625 C 3.546875 -3.421875 3.78125 -4.375 4.515625 -4.375 C 4.5625 -4.375 4.8125 -4.375 5.03125 -4.234375 C 4.734375 -4.1875 4.53125 -3.921875 4.53125 -3.671875 C 4.53125 -3.515625 4.640625 -3.3125 4.921875 -3.3125 C 5.15625 -3.3125 5.5 -3.5 5.5 -3.921875 C 5.5 -4.453125 4.875 -4.609375 4.515625 -4.609375 C 3.921875 -4.609375 3.546875 -4.046875 3.421875 -3.8125 C 3.171875 -4.5 2.609375 -4.609375 2.296875 -4.609375 C 1.21875 -4.609375 0.625 -3.265625 0.625 -3 C 0.625 -2.890625 0.734375 -2.890625 0.75 -2.890625 C 0.828125 -2.890625 0.859375 -2.921875 0.890625 -3.015625 C 1.234375 -4.109375 1.921875 -4.375 2.28125 -4.375 C 2.484375 -4.375 2.84375 -4.28125 2.84375 -3.671875 C 2.84375 -3.359375 2.671875 -2.65625 2.28125 -1.203125 C 2.109375 -0.546875 1.75 -0.109375 1.296875 -0.109375 C 1.234375 -0.109375 0.984375 -0.109375 0.765625 -0.25 C 1.03125 -0.296875 1.265625 -0.515625 1.265625 -0.8125 C 1.265625 -1.09375 1.03125 -1.171875 0.875 -1.171875 C 0.5625 -1.171875 0.296875 -0.90625 0.296875 -0.578125 C 0.296875 -0.09375 0.828125 0.109375 1.28125 0.109375 C 1.96875 0.109375 2.34375 -0.609375 2.375 -0.671875 C 2.5 -0.296875 2.875 0.109375 3.5 0.109375 C 4.578125 0.109375 5.171875 -1.234375 5.171875 -1.484375 C 5.171875 -1.59375 5.078125 -1.59375 5.046875 -1.59375 C 4.953125 -1.59375 4.921875 -1.546875 4.90625 -1.484375 C 4.5625 -0.359375 3.859375 -0.109375 3.515625 -0.109375 C 3.109375 -0.109375 2.953125 -0.453125 2.953125 -0.796875 C 2.953125 -1.03125 3.015625 -1.265625 3.125 -1.71875 Z M 3.484375 -3.140625 "/>
</symbol>
<symbol overflow="visible" id="glyph2-3">
<path style="stroke:none;" d="M 5.0625 -3.96875 C 5.109375 -4.109375 5.109375 -4.140625 5.109375 -4.203125 C 5.109375 -4.390625 4.953125 -4.484375 4.796875 -4.484375 C 4.703125 -4.484375 4.53125 -4.421875 4.4375 -4.265625 C 4.421875 -4.21875 4.328125 -3.890625 4.296875 -3.703125 C 4.21875 -3.4375 4.140625 -3.15625 4.078125 -2.875 L 3.609375 -1 C 3.578125 -0.84375 3.125 -0.109375 2.4375 -0.109375 C 1.90625 -0.109375 1.796875 -0.578125 1.796875 -0.953125 C 1.796875 -1.4375 1.96875 -2.078125 2.328125 -3 C 2.484375 -3.421875 2.53125 -3.546875 2.53125 -3.75 C 2.53125 -4.21875 2.203125 -4.609375 1.671875 -4.609375 C 0.6875 -4.609375 0.296875 -3.09375 0.296875 -3 C 0.296875 -2.890625 0.40625 -2.890625 0.421875 -2.890625 C 0.53125 -2.890625 0.546875 -2.921875 0.59375 -3.078125 C 0.875 -4.0625 1.296875 -4.375 1.640625 -4.375 C 1.734375 -4.375 1.90625 -4.375 1.90625 -4.046875 C 1.90625 -3.78125 1.796875 -3.515625 1.734375 -3.3125 C 1.3125 -2.203125 1.125 -1.609375 1.125 -1.125 C 1.125 -0.203125 1.78125 0.109375 2.390625 0.109375 C 2.796875 0.109375 3.15625 -0.0625 3.453125 -0.359375 C 3.3125 0.1875 3.1875 0.703125 2.765625 1.25 C 2.5 1.609375 2.109375 1.90625 1.625 1.90625 C 1.484375 1.90625 1.015625 1.875 0.828125 1.46875 C 1 1.46875 1.140625 1.46875 1.28125 1.34375 C 1.390625 1.25 1.484375 1.109375 1.484375 0.921875 C 1.484375 0.59375 1.203125 0.546875 1.109375 0.546875 C 0.859375 0.546875 0.515625 0.71875 0.515625 1.234375 C 0.515625 1.75 0.984375 2.140625 1.625 2.140625 C 2.703125 2.140625 3.765625 1.1875 4.0625 0.015625 Z M 5.0625 -3.96875 "/>
</symbol>
</g>
</defs>
<g id="surface1">
<path style="fill:none;stroke-width:0.3985;stroke-linecap:butt;stroke-linejoin:miter;stroke:rgb(0%,0%,0%);stroke-opacity:1;stroke-miterlimit:10;" d="M 28.345019 -0.00101686 C 28.345019 15.656986 15.654873 28.347133 0.000806123 28.347133 C -15.657197 28.347133 -28.347343 15.656986 -28.347343 -0.00101686 C -28.347343 -15.655084 -15.657197 -28.34523 0.000806123 -28.34523 C 15.654873 -28.34523 28.345019 -15.655084 28.345019 -0.00101686 Z M 28.345019 -0.00101686 " transform="matrix(0.992404,0,0,-0.992404,48.831231,54.245085)"/>
<path style=" stroke:none;fill-rule:nonzero;fill:rgb(50%,50%,50%);fill-opacity:1;" d="M 73.191406 40.179688 C 65.425781 26.722656 48.21875 22.113281 34.765625 29.882812 C 30.488281 32.351562 26.9375 35.902344 24.46875 40.179688 Z M 73.191406 40.179688 "/>
<g style="fill:rgb(0%,0%,0%);fill-opacity:1;">
  <use xlink:href="#glyph0-1" x="8.415585" y="64.631583"/>
</g>
<g style="fill:rgb(0%,0%,0%);fill-opacity:1;">
  <use xlink:href="#glyph1-1" x="16.520547" y="64.631583"/>
</g>
<g style="fill:rgb(0%,0%,0%);fill-opacity:1;">
  <use xlink:href="#glyph1-1" x="79.98378" y="64.631583"/>
</g>
<g style="fill:rgb(0%,0%,0%);fill-opacity:1;">
  <use xlink:href="#glyph1-2" x="47.800124" y="50.565251"/>
</g>
<g style="fill:rgb(0%,0%,0%);fill-opacity:1;">
  <use xlink:href="#glyph2-1" x="53.010244" y="50.565251"/>
</g>
<g style="fill:rgb(0%,0%,0%);fill-opacity:1;">
  <use xlink:href="#glyph1-3" x="55.905086" y="50.565251"/>
</g>
<path style="fill:none;stroke-width:0.3985;stroke-linecap:butt;stroke-linejoin:miter;stroke:rgb(0%,0%,0%);stroke-opacity:1;stroke-miterlimit:10;" d="M -42.521418 -0.00101686 L 38.933262 -0.00101686 " transform="matrix(0.992404,0,0,-0.992404,48.831231,54.245085)"/>
<path style=" stroke:none;fill-rule:nonzero;fill:rgb(0%,0%,0%);fill-opacity:1;" d="M 91.027344 54.246094 C 89.972656 54.046875 88.261719 53.453125 87.074219 52.761719 L 87.074219 55.726562 C 88.261719 55.035156 89.972656 54.441406 91.027344 54.246094 "/>
<g style="fill:rgb(0%,0%,0%);fill-opacity:1;">
  <use xlink:href="#glyph2-2" x="88.051031" y="62.402644"/>
</g>
<path style="fill:none;stroke-width:0.3985;stroke-linecap:butt;stroke-linejoin:miter;stroke:rgb(0%,0%,0%);stroke-opacity:1;stroke-miterlimit:10;" d="M 0.000806123 -42.519305 L 0.000806123 38.935375 " transform="matrix(0.992404,0,0,-0.992404,48.831231,54.245085)"/>
<path style=" stroke:none;fill-rule:nonzero;fill:rgb(0%,0%,0%);fill-opacity:1;" d="M 48.832031 12.046875 C 48.632812 13.101562 48.039062 14.816406 47.347656 16.003906 L 50.3125 16.003906 C 49.621094 14.816406 49.027344 13.101562 48.832031 12.046875 "/>
<g style="fill:rgb(0%,0%,0%);fill-opacity:1;">
  <use xlink:href="#glyph2-3" x="52.502133" y="13.277661"/>
</g>
</g>
</svg>
