<?xml version="1.0" encoding="UTF-8"?>
<svg xmlns="http://www.w3.org/2000/svg" xmlns:xlink="http://www.w3.org/1999/xlink" width="358.51pt" height="75.88pt" viewBox="0 0 358.51 75.88" version="1.2">
<defs>
<clipPath id="clip1">
  <path d="M 0.0390625 33 L 15 33 L 15 49 L 0.0390625 49 Z M 0.0390625 33 "/>
</clipPath>
<clipPath id="clip2">
  <path d="M 343 23 L 357.980469 23 L 357.980469 39 L 343 39 Z M 343 23 "/>
</clipPath>
<clipPath id="clip3">
  <path d="M 290 60 L 307 60 L 307 75.761719 L 290 75.761719 Z M 290 60 "/>
</clipPath>
<clipPath id="clip4">
  <path d="M 330 60 L 347 60 L 347 75.761719 L 330 75.761719 Z M 330 60 "/>
</clipPath>
</defs>
<g id="surface1">
<g clip-path="url(#clip1)" clip-rule="nonzero">
<path style="fill:none;stroke-width:0.3985;stroke-linecap:butt;stroke-linejoin:miter;stroke:rgb(0%,0%,0%);stroke-opacity:1;stroke-miterlimit:10;" d="M 1.99446 0.00187553 C 1.99446 1.101268 1.098514 1.993301 -0.000877899 1.993301 C -1.10027 1.993301 -1.992304 1.101268 -1.992304 0.00187553 C -1.992304 -1.101429 -1.10027 -1.993463 -0.000877899 -1.993463 C 1.098514 -1.993463 1.99446 -1.101429 1.99446 0.00187553 Z M 1.99446 0.00187553 " transform="matrix(0.998421,0,0,-0.998421,7.200095,41.122966)"/>
</g>
<path style="fill:none;stroke-width:0.3985;stroke-linecap:butt;stroke-linejoin:miter;stroke:rgb(0%,0%,0%);stroke-opacity:1;stroke-miterlimit:10;" d="M 58.685535 0.00187553 C 58.685535 1.101268 57.793501 1.993301 56.694109 1.993301 C 55.594717 1.993301 54.702684 1.101268 54.702684 0.00187553 C 54.702684 -1.101429 55.594717 -1.993463 56.694109 -1.993463 C 57.793501 -1.993463 58.685535 -1.101429 58.685535 0.00187553 Z M 58.685535 0.00187553 " transform="matrix(0.998421,0,0,-0.998421,7.200095,41.122966)"/>
<path style="fill:none;stroke-width:0.3985;stroke-linecap:butt;stroke-linejoin:miter;stroke:rgb(0%,0%,0%);stroke-opacity:1;stroke-miterlimit:10;" d="M 67.191152 0.00187553 C 67.191152 1.101268 66.299119 1.993301 65.195814 1.993301 C 64.096422 1.993301 63.204389 1.101268 63.204389 0.00187553 C 63.204389 -1.101429 64.096422 -1.993463 65.195814 -1.993463 C 66.299119 -1.993463 67.191152 -1.101429 67.191152 0.00187553 Z M 67.191152 0.00187553 " transform="matrix(0.998421,0,0,-0.998421,7.200095,41.122966)"/>
<path style="fill:none;stroke-width:0.3985;stroke-linecap:butt;stroke-linejoin:miter;stroke:rgb(0%,0%,0%);stroke-opacity:1;stroke-miterlimit:10;" d="M 50.18383 0.00187553 C 50.18383 1.101268 49.291796 1.993301 48.188492 1.993301 C 47.0891 1.993301 46.197066 1.101268 46.197066 0.00187553 C 46.197066 -1.101429 47.0891 -1.993463 48.188492 -1.993463 C 49.291796 -1.993463 50.18383 -1.101429 50.18383 0.00187553 Z M 50.18383 0.00187553 " transform="matrix(0.998421,0,0,-0.998421,7.200095,41.122966)"/>
<path style="fill:none;stroke-width:0.3985;stroke-linecap:butt;stroke-linejoin:miter;stroke:rgb(0%,0%,0%);stroke-opacity:1;stroke-miterlimit:10;" d="M 143.726059 0.00187553 C 143.726059 1.101268 142.834026 1.993301 141.734634 1.993301 C 140.635242 1.993301 139.743208 1.101268 139.743208 0.00187553 C 139.743208 -1.101429 140.635242 -1.993463 141.734634 -1.993463 C 142.834026 -1.993463 143.726059 -1.101429 143.726059 0.00187553 Z M 143.726059 0.00187553 " transform="matrix(0.998421,0,0,-0.998421,7.200095,41.122966)"/>
<path style="fill:none;stroke-width:0.3985;stroke-linecap:butt;stroke-linejoin:miter;stroke:rgb(0%,0%,0%);stroke-opacity:1;stroke-miterlimit:10;" d="M 151.089248 4.250772 C 151.089248 5.354076 150.197214 6.24611 149.097822 6.24611 C 147.99843 6.24611 147.106397 5.354076 147.106397 4.250772 C 147.106397 3.15138 147.99843 2.259346 149.097822 2.259346 C 150.197214 2.259346 151.089248 3.15138 151.089248 4.250772 Z M 151.089248 4.250772 " transform="matrix(0.998421,0,0,-0.998421,7.200095,41.122966)"/>
<path style="fill:none;stroke-width:0.3985;stroke-linecap:butt;stroke-linejoin:miter;stroke:rgb(0%,0%,0%);stroke-opacity:1;stroke-miterlimit:10;" d="M 158.456349 8.503581 C 158.456349 9.602973 157.564315 10.495006 156.464923 10.495006 C 155.361619 10.495006 154.469585 9.602973 154.469585 8.503581 C 154.469585 7.404188 155.361619 6.512155 156.464923 6.512155 C 157.564315 6.512155 158.456349 7.404188 158.456349 8.503581 Z M 158.456349 8.503581 " transform="matrix(0.998421,0,0,-0.998421,7.200095,41.122966)"/>
<path style="fill:none;stroke-width:0.3985;stroke-linecap:butt;stroke-linejoin:miter;stroke:rgb(0%,0%,0%);stroke-opacity:1;stroke-miterlimit:10;" d="M 136.362871 4.250772 C 136.362871 5.354076 135.470837 6.24611 134.371445 6.24611 C 133.268141 6.24611 132.376107 5.354076 132.376107 4.250772 C 132.376107 3.15138 133.268141 2.259346 134.371445 2.259346 C 135.470837 2.259346 136.362871 3.15138 136.362871 4.250772 Z M 136.362871 4.250772 " transform="matrix(0.998421,0,0,-0.998421,7.200095,41.122966)"/>
<path style="fill:none;stroke-width:0.3985;stroke-linecap:butt;stroke-linejoin:miter;stroke:rgb(0%,0%,0%);stroke-opacity:1;stroke-miterlimit:10;" d="M 128.99577 8.503581 C 128.99577 9.602973 128.103736 10.495006 127.004344 10.495006 C 125.904952 10.495006 125.012919 9.602973 125.012919 8.503581 C 125.012919 7.404188 125.904952 6.512155 127.004344 6.512155 C 128.103736 6.512155 128.99577 7.404188 128.99577 8.503581 Z M 128.99577 8.503581 " transform="matrix(0.998421,0,0,-0.998421,7.200095,41.122966)"/>
<path style="fill:none;stroke-width:0.3985;stroke-linecap:butt;stroke-linejoin:miter;stroke:rgb(0%,0%,0%);stroke-opacity:1;stroke-miterlimit:10;" d="M 143.726059 -17.009359 C 143.726059 -15.906055 142.834026 -15.014021 141.734634 -15.014021 C 140.635242 -15.014021 139.743208 -15.906055 139.743208 -17.009359 C 139.743208 -18.108751 140.635242 -19.000785 141.734634 -19.000785 C 142.834026 -19.000785 143.726059 -18.108751 143.726059 -17.009359 Z M 143.726059 -17.009359 " transform="matrix(0.998421,0,0,-0.998421,7.200095,41.122966)"/>
<path style="fill:none;stroke-width:0.3985;stroke-linecap:butt;stroke-linejoin:miter;stroke:rgb(0%,0%,0%);stroke-opacity:1;stroke-miterlimit:10;" d="M 143.726059 -8.503742 C 143.726059 -7.40435 142.834026 -6.512316 141.734634 -6.512316 C 140.635242 -6.512316 139.743208 -7.40435 139.743208 -8.503742 C 139.743208 -9.603134 140.635242 -10.495168 141.734634 -10.495168 C 142.834026 -10.495168 143.726059 -9.603134 143.726059 -8.503742 Z M 143.726059 -8.503742 " transform="matrix(0.998421,0,0,-0.998421,7.200095,41.122966)"/>
<path style="fill:none;stroke-width:0.3985;stroke-linecap:butt;stroke-linejoin:miter;stroke:rgb(0%,0%,0%);stroke-opacity:1;stroke-miterlimit:10;" d="M 228.766584 0.00187553 C 228.766584 1.101268 227.87455 1.993301 226.775158 1.993301 C 225.675766 1.993301 224.783733 1.101268 224.783733 0.00187553 C 224.783733 -1.101429 225.675766 -1.993463 226.775158 -1.993463 C 227.87455 -1.993463 228.766584 -1.101429 228.766584 0.00187553 Z M 228.766584 0.00187553 " transform="matrix(0.998421,0,0,-0.998421,7.200095,41.122966)"/>
<path style="fill:none;stroke-width:0.3985;stroke-linecap:butt;stroke-linejoin:miter;stroke:rgb(0%,0%,0%);stroke-opacity:1;stroke-miterlimit:10;" d="M 237.272201 0.00187553 C 237.272201 1.101268 236.380168 1.993301 235.276863 1.993301 C 234.177471 1.993301 233.285438 1.101268 233.285438 0.00187553 C 233.285438 -1.101429 234.177471 -1.993463 235.276863 -1.993463 C 236.380168 -1.993463 237.272201 -1.101429 237.272201 0.00187553 Z M 237.272201 0.00187553 " transform="matrix(0.998421,0,0,-0.998421,7.200095,41.122966)"/>
<path style="fill:none;stroke-width:0.3985;stroke-linecap:butt;stroke-linejoin:miter;stroke:rgb(0%,0%,0%);stroke-opacity:1;stroke-miterlimit:10;" d="M 245.773906 0.00187553 C 245.773906 1.101268 244.881873 1.993301 243.782481 1.993301 C 242.683089 1.993301 241.791055 1.101268 241.791055 0.00187553 C 241.791055 -1.101429 242.683089 -1.993463 243.782481 -1.993463 C 244.881873 -1.993463 245.773906 -1.101429 245.773906 0.00187553 Z M 245.773906 0.00187553 " transform="matrix(0.998421,0,0,-0.998421,7.200095,41.122966)"/>
<path style="fill:none;stroke-width:0.3985;stroke-linecap:butt;stroke-linejoin:miter;stroke:rgb(0%,0%,0%);stroke-opacity:1;stroke-miterlimit:10;" d="M 254.279524 0.00187553 C 254.279524 1.101268 253.38749 1.993301 252.288098 1.993301 C 251.184794 1.993301 250.29276 1.101268 250.29276 0.00187553 C 250.29276 -1.101429 251.184794 -1.993463 252.288098 -1.993463 C 253.38749 -1.993463 254.279524 -1.101429 254.279524 0.00187553 Z M 254.279524 0.00187553 " transform="matrix(0.998421,0,0,-0.998421,7.200095,41.122966)"/>
<path style="fill:none;stroke-width:0.3985;stroke-linecap:butt;stroke-linejoin:miter;stroke:rgb(0%,0%,0%);stroke-opacity:1;stroke-miterlimit:10;" d="M 203.253644 0.00187553 C 203.253644 1.101268 202.361611 1.993301 201.262218 1.993301 C 200.162826 1.993301 199.270793 1.101268 199.270793 0.00187553 C 199.270793 -1.101429 200.162826 -1.993463 201.262218 -1.993463 C 202.361611 -1.993463 203.253644 -1.101429 203.253644 0.00187553 Z M 203.253644 0.00187553 " transform="matrix(0.998421,0,0,-0.998421,7.200095,41.122966)"/>
<path style="fill:none;stroke-width:0.3985;stroke-linecap:butt;stroke-linejoin:miter;stroke:rgb(0%,0%,0%);stroke-opacity:1;stroke-miterlimit:10;" d="M 211.759261 0.00187553 C 211.759261 1.101268 210.867228 1.993301 209.767836 1.993301 C 208.664531 1.993301 207.772498 1.101268 207.772498 0.00187553 C 207.772498 -1.101429 208.664531 -1.993463 209.767836 -1.993463 C 210.867228 -1.993463 211.759261 -1.101429 211.759261 0.00187553 Z M 211.759261 0.00187553 " transform="matrix(0.998421,0,0,-0.998421,7.200095,41.122966)"/>
<path style="fill:none;stroke-width:0.3985;stroke-linecap:butt;stroke-linejoin:miter;stroke:rgb(0%,0%,0%);stroke-opacity:1;stroke-miterlimit:10;" d="M 220.264879 0.00187553 C 220.264879 1.101268 219.372845 1.993301 218.269541 1.993301 C 217.170149 1.993301 216.278115 1.101268 216.278115 0.00187553 C 216.278115 -1.101429 217.170149 -1.993463 218.269541 -1.993463 C 219.372845 -1.993463 220.264879 -1.101429 220.264879 0.00187553 Z M 220.264879 0.00187553 " transform="matrix(0.998421,0,0,-0.998421,7.200095,41.122966)"/>
<path style="fill:none;stroke-width:0.3985;stroke-linecap:butt;stroke-linejoin:miter;stroke:rgb(0%,0%,0%);stroke-opacity:1;stroke-miterlimit:10;" d="M 228.766584 -8.503742 C 228.766584 -7.40435 227.87455 -6.512316 226.775158 -6.512316 C 225.675766 -6.512316 224.783733 -7.40435 224.783733 -8.503742 C 224.783733 -9.603134 225.675766 -10.495168 226.775158 -10.495168 C 227.87455 -10.495168 228.766584 -9.603134 228.766584 -8.503742 Z M 228.766584 -8.503742 " transform="matrix(0.998421,0,0,-0.998421,7.200095,41.122966)"/>
<path style="fill:none;stroke-width:0.3985;stroke-linecap:butt;stroke-linejoin:miter;stroke:rgb(0%,0%,0%);stroke-opacity:1;stroke-miterlimit:10;" d="M 228.766584 -17.009359 C 228.766584 -15.906055 227.87455 -15.014021 226.775158 -15.014021 C 225.675766 -15.014021 224.783733 -15.906055 224.783733 -17.009359 C 224.783733 -18.108751 225.675766 -19.000785 226.775158 -19.000785 C 227.87455 -19.000785 228.766584 -18.108751 228.766584 -17.009359 Z M 228.766584 -17.009359 " transform="matrix(0.998421,0,0,-0.998421,7.200095,41.122966)"/>
<path style="fill:none;stroke-width:0.3985;stroke-linecap:butt;stroke-linejoin:miter;stroke:rgb(0%,0%,0%);stroke-opacity:1;stroke-miterlimit:10;" d="M 228.766584 -25.511064 C 228.766584 -24.411672 227.87455 -23.519639 226.775158 -23.519639 C 225.675766 -23.519639 224.783733 -24.411672 224.783733 -25.511064 C 224.783733 -26.610456 225.675766 -27.506402 226.775158 -27.506402 C 227.87455 -27.506402 228.766584 -26.610456 228.766584 -25.511064 Z M 228.766584 -25.511064 " transform="matrix(0.998421,0,0,-0.998421,7.200095,41.122966)"/>
<path style="fill:none;stroke-width:0.3985;stroke-linecap:butt;stroke-linejoin:miter;stroke:rgb(0%,0%,0%);stroke-opacity:1;stroke-miterlimit:10;" d="M 228.766584 25.510903 C 228.766584 26.614207 227.87455 27.506241 226.775158 27.506241 C 225.675766 27.506241 224.783733 26.614207 224.783733 25.510903 C 224.783733 24.411511 225.675766 23.519477 226.775158 23.519477 C 227.87455 23.519477 228.766584 24.411511 228.766584 25.510903 Z M 228.766584 25.510903 " transform="matrix(0.998421,0,0,-0.998421,7.200095,41.122966)"/>
<path style="fill:none;stroke-width:0.3985;stroke-linecap:butt;stroke-linejoin:miter;stroke:rgb(0%,0%,0%);stroke-opacity:1;stroke-miterlimit:10;" d="M 228.766584 17.009198 C 228.766584 18.10859 227.87455 19.000624 226.775158 19.000624 C 225.675766 19.000624 224.783733 18.10859 224.783733 17.009198 C 224.783733 15.905893 225.675766 15.01386 226.775158 15.01386 C 227.87455 15.01386 228.766584 15.905893 228.766584 17.009198 Z M 228.766584 17.009198 " transform="matrix(0.998421,0,0,-0.998421,7.200095,41.122966)"/>
<path style="fill:none;stroke-width:0.3985;stroke-linecap:butt;stroke-linejoin:miter;stroke:rgb(0%,0%,0%);stroke-opacity:1;stroke-miterlimit:10;" d="M 228.766584 8.503581 C 228.766584 9.602973 227.87455 10.495006 226.775158 10.495006 C 225.675766 10.495006 224.783733 9.602973 224.783733 8.503581 C 224.783733 7.404188 225.675766 6.512155 226.775158 6.512155 C 227.87455 6.512155 228.766584 7.404188 228.766584 8.503581 Z M 228.766584 8.503581 " transform="matrix(0.998421,0,0,-0.998421,7.200095,41.122966)"/>
<path style="fill:none;stroke-width:0.3985;stroke-linecap:butt;stroke-linejoin:miter;stroke:rgb(0%,0%,0%);stroke-opacity:1;stroke-miterlimit:10;" d="M 313.807108 0.00187553 C 313.807108 1.101268 312.915075 1.993301 311.815683 1.993301 C 310.716291 1.993301 309.824257 1.101268 309.824257 0.00187553 C 309.824257 -1.101429 310.716291 -1.993463 311.815683 -1.993463 C 312.915075 -1.993463 313.807108 -1.101429 313.807108 0.00187553 Z M 313.807108 0.00187553 " transform="matrix(0.998421,0,0,-0.998421,7.200095,41.122966)"/>
<path style="fill:none;stroke-width:0.3985;stroke-linecap:butt;stroke-linejoin:miter;stroke:rgb(0%,0%,0%);stroke-opacity:1;stroke-miterlimit:10;" d="M 321.894096 2.627114 C 321.894096 3.726507 321.002063 4.61854 319.90267 4.61854 C 318.803278 4.61854 317.911245 3.726507 317.911245 2.627114 C 317.911245 1.527722 318.803278 0.635689 319.90267 0.635689 C 321.002063 0.635689 321.894096 1.527722 321.894096 2.627114 Z M 321.894096 2.627114 " transform="matrix(0.998421,0,0,-0.998421,7.200095,41.122966)"/>
<path style="fill:none;stroke-width:0.3985;stroke-linecap:butt;stroke-linejoin:miter;stroke:rgb(0%,0%,0%);stroke-opacity:1;stroke-miterlimit:10;" d="M 329.984996 5.256266 C 329.984996 6.355658 329.092963 7.247691 327.989658 7.247691 C 326.890266 7.247691 325.998233 6.355658 325.998233 5.256266 C 325.998233 4.156874 326.890266 3.26484 327.989658 3.26484 C 329.092963 3.26484 329.984996 4.156874 329.984996 5.256266 Z M 329.984996 5.256266 " transform="matrix(0.998421,0,0,-0.998421,7.200095,41.122966)"/>
<path style="fill:none;stroke-width:0.3985;stroke-linecap:butt;stroke-linejoin:miter;stroke:rgb(0%,0%,0%);stroke-opacity:1;stroke-miterlimit:10;" d="M 338.071984 7.881505 C 338.071984 8.984809 337.17995 9.876843 336.076646 9.876843 C 334.977254 9.876843 334.08522 8.984809 334.08522 7.881505 C 334.08522 6.782112 334.977254 5.890079 336.076646 5.890079 C 337.17995 5.890079 338.071984 6.782112 338.071984 7.881505 Z M 338.071984 7.881505 " transform="matrix(0.998421,0,0,-0.998421,7.200095,41.122966)"/>
<g clip-path="url(#clip2)" clip-rule="nonzero">
<path style="fill:none;stroke-width:0.3985;stroke-linecap:butt;stroke-linejoin:miter;stroke:rgb(0%,0%,0%);stroke-opacity:1;stroke-miterlimit:10;" d="M 346.158972 10.510656 C 346.158972 11.610048 345.266938 12.505994 344.167546 12.505994 C 343.064241 12.505994 342.172208 11.610048 342.172208 10.510656 C 342.172208 9.411264 343.064241 8.51923 344.167546 8.51923 C 345.266938 8.51923 346.158972 9.411264 346.158972 10.510656 Z M 346.158972 10.510656 " transform="matrix(0.998421,0,0,-0.998421,7.200095,41.122966)"/>
</g>
<path style="fill:none;stroke-width:0.3985;stroke-linecap:butt;stroke-linejoin:miter;stroke:rgb(0%,0%,0%);stroke-opacity:1;stroke-miterlimit:10;" d="M 313.807108 34.01652 C 313.807108 35.115912 312.915075 36.007946 311.815683 36.007946 C 310.716291 36.007946 309.824257 35.115912 309.824257 34.01652 C 309.824257 32.917128 310.716291 32.025095 311.815683 32.025095 C 312.915075 32.025095 313.807108 32.917128 313.807108 34.01652 Z M 313.807108 34.01652 " transform="matrix(0.998421,0,0,-0.998421,7.200095,41.122966)"/>
<path style="fill:none;stroke-width:0.3985;stroke-linecap:butt;stroke-linejoin:miter;stroke:rgb(0%,0%,0%);stroke-opacity:1;stroke-miterlimit:10;" d="M 313.807108 25.510903 C 313.807108 26.614207 312.915075 27.506241 311.815683 27.506241 C 310.716291 27.506241 309.824257 26.614207 309.824257 25.510903 C 309.824257 24.411511 310.716291 23.519477 311.815683 23.519477 C 312.915075 23.519477 313.807108 24.411511 313.807108 25.510903 Z M 313.807108 25.510903 " transform="matrix(0.998421,0,0,-0.998421,7.200095,41.122966)"/>
<path style="fill:none;stroke-width:0.3985;stroke-linecap:butt;stroke-linejoin:miter;stroke:rgb(0%,0%,0%);stroke-opacity:1;stroke-miterlimit:10;" d="M 313.807108 17.009198 C 313.807108 18.10859 312.915075 19.000624 311.815683 19.000624 C 310.716291 19.000624 309.824257 18.10859 309.824257 17.009198 C 309.824257 15.905893 310.716291 15.01386 311.815683 15.01386 C 312.915075 15.01386 313.807108 15.905893 313.807108 17.009198 Z M 313.807108 17.009198 " transform="matrix(0.998421,0,0,-0.998421,7.200095,41.122966)"/>
<path style="fill:none;stroke-width:0.3985;stroke-linecap:butt;stroke-linejoin:miter;stroke:rgb(0%,0%,0%);stroke-opacity:1;stroke-miterlimit:10;" d="M 313.807108 8.503581 C 313.807108 9.602973 312.915075 10.495006 311.815683 10.495006 C 310.716291 10.495006 309.824257 9.602973 309.824257 8.503581 C 309.824257 7.404188 310.716291 6.512155 311.815683 6.512155 C 312.915075 6.512155 313.807108 7.404188 313.807108 8.503581 Z M 313.807108 8.503581 " transform="matrix(0.998421,0,0,-0.998421,7.200095,41.122966)"/>
<path style="fill:none;stroke-width:0.3985;stroke-linecap:butt;stroke-linejoin:miter;stroke:rgb(0%,0%,0%);stroke-opacity:1;stroke-miterlimit:10;" d="M 305.720121 2.627114 C 305.720121 3.726507 304.828087 4.61854 303.728695 4.61854 C 302.625391 4.61854 301.733357 3.726507 301.733357 2.627114 C 301.733357 1.527722 302.625391 0.635689 303.728695 0.635689 C 304.828087 0.635689 305.720121 1.527722 305.720121 2.627114 Z M 305.720121 2.627114 " transform="matrix(0.998421,0,0,-0.998421,7.200095,41.122966)"/>
<path style="fill:none;stroke-width:0.3985;stroke-linecap:butt;stroke-linejoin:miter;stroke:rgb(0%,0%,0%);stroke-opacity:1;stroke-miterlimit:10;" d="M 297.633133 5.256266 C 297.633133 6.355658 296.7411 7.247691 295.637795 7.247691 C 294.538403 7.247691 293.646369 6.355658 293.646369 5.256266 C 293.646369 4.156874 294.538403 3.26484 295.637795 3.26484 C 296.7411 3.26484 297.633133 4.156874 297.633133 5.256266 Z M 297.633133 5.256266 " transform="matrix(0.998421,0,0,-0.998421,7.200095,41.122966)"/>
<path style="fill:none;stroke-width:0.3985;stroke-linecap:butt;stroke-linejoin:miter;stroke:rgb(0%,0%,0%);stroke-opacity:1;stroke-miterlimit:10;" d="M 289.546145 7.881505 C 289.546145 8.984809 288.654112 9.876843 287.550807 9.876843 C 286.451415 9.876843 285.559382 8.984809 285.559382 7.881505 C 285.559382 6.782112 286.451415 5.890079 287.550807 5.890079 C 288.654112 5.890079 289.546145 6.782112 289.546145 7.881505 Z M 289.546145 7.881505 " transform="matrix(0.998421,0,0,-0.998421,7.200095,41.122966)"/>
<path style="fill:none;stroke-width:0.3985;stroke-linecap:butt;stroke-linejoin:miter;stroke:rgb(0%,0%,0%);stroke-opacity:1;stroke-miterlimit:10;" d="M 281.455245 10.510656 C 281.455245 11.610048 280.563212 12.505994 279.46382 12.505994 C 278.364428 12.505994 277.472394 11.610048 277.472394 10.510656 C 277.472394 9.411264 278.364428 8.51923 279.46382 8.51923 C 280.563212 8.51923 281.455245 9.411264 281.455245 10.510656 Z M 281.455245 10.510656 " transform="matrix(0.998421,0,0,-0.998421,7.200095,41.122966)"/>
<g clip-path="url(#clip3)" clip-rule="nonzero">
<path style="fill:none;stroke-width:0.3985;stroke-linecap:butt;stroke-linejoin:miter;stroke:rgb(0%,0%,0%);stroke-opacity:1;stroke-miterlimit:10;" d="M 293.814604 -27.51814 C 293.814604 -26.418747 292.92257 -25.526714 291.819266 -25.526714 C 290.719874 -25.526714 289.82784 -26.418747 289.82784 -27.51814 C 289.82784 -28.621444 290.719874 -29.513478 291.819266 -29.513478 C 292.92257 -29.513478 293.814604 -28.621444 293.814604 -27.51814 Z M 293.814604 -27.51814 " transform="matrix(0.998421,0,0,-0.998421,7.200095,41.122966)"/>
</g>
<path style="fill:none;stroke-width:0.3985;stroke-linecap:butt;stroke-linejoin:miter;stroke:rgb(0%,0%,0%);stroke-opacity:1;stroke-miterlimit:10;" d="M 298.810774 -20.640092 C 298.810774 -19.5407 297.91874 -18.648666 296.819348 -18.648666 C 295.719956 -18.648666 294.827923 -19.5407 294.827923 -20.640092 C 294.827923 -21.739484 295.719956 -22.631518 296.819348 -22.631518 C 297.91874 -22.631518 298.810774 -21.739484 298.810774 -20.640092 Z M 298.810774 -20.640092 " transform="matrix(0.998421,0,0,-0.998421,7.200095,41.122966)"/>
<path style="fill:none;stroke-width:0.3985;stroke-linecap:butt;stroke-linejoin:miter;stroke:rgb(0%,0%,0%);stroke-opacity:1;stroke-miterlimit:10;" d="M 303.810856 -13.758132 C 303.810856 -12.65874 302.918823 -11.766706 301.81943 -11.766706 C 300.716126 -11.766706 299.824092 -12.65874 299.824092 -13.758132 C 299.824092 -14.861437 300.716126 -15.75347 301.81943 -15.75347 C 302.918823 -15.75347 303.810856 -14.861437 303.810856 -13.758132 Z M 303.810856 -13.758132 " transform="matrix(0.998421,0,0,-0.998421,7.200095,41.122966)"/>
<path style="fill:none;stroke-width:0.3985;stroke-linecap:butt;stroke-linejoin:miter;stroke:rgb(0%,0%,0%);stroke-opacity:1;stroke-miterlimit:10;" d="M 308.810938 -6.880084 C 308.810938 -5.780692 307.918905 -4.888659 306.8156 -4.888659 C 305.716208 -4.888659 304.824175 -5.780692 304.824175 -6.880084 C 304.824175 -7.979477 305.716208 -8.87151 306.8156 -8.87151 C 307.918905 -8.87151 308.810938 -7.979477 308.810938 -6.880084 Z M 308.810938 -6.880084 " transform="matrix(0.998421,0,0,-0.998421,7.200095,41.122966)"/>
<path style="fill:none;stroke-width:0.3985;stroke-linecap:butt;stroke-linejoin:miter;stroke:rgb(0%,0%,0%);stroke-opacity:1;stroke-miterlimit:10;" d="M 308.810938 -6.880084 C 308.810938 -5.780692 307.918905 -4.888659 306.8156 -4.888659 C 305.716208 -4.888659 304.824175 -5.780692 304.824175 -6.880084 C 304.824175 -7.979477 305.716208 -8.87151 306.8156 -8.87151 C 307.918905 -8.87151 308.810938 -7.979477 308.810938 -6.880084 Z M 308.810938 -6.880084 " transform="matrix(0.998421,0,0,-0.998421,7.200095,41.122966)"/>
<path style="fill:none;stroke-width:0.3985;stroke-linecap:butt;stroke-linejoin:miter;stroke:rgb(0%,0%,0%);stroke-opacity:1;stroke-miterlimit:10;" d="M 318.807191 -6.880084 C 318.807191 -5.780692 317.915157 -4.888659 316.811853 -4.888659 C 315.712461 -4.888659 314.820427 -5.780692 314.820427 -6.880084 C 314.820427 -7.979477 315.712461 -8.87151 316.811853 -8.87151 C 317.915157 -8.87151 318.807191 -7.979477 318.807191 -6.880084 Z M 318.807191 -6.880084 " transform="matrix(0.998421,0,0,-0.998421,7.200095,41.122966)"/>
<path style="fill:none;stroke-width:0.3985;stroke-linecap:butt;stroke-linejoin:miter;stroke:rgb(0%,0%,0%);stroke-opacity:1;stroke-miterlimit:10;" d="M 323.803361 -13.758132 C 323.803361 -12.65874 322.911327 -11.766706 321.811935 -11.766706 C 320.712543 -11.766706 319.820509 -12.65874 319.820509 -13.758132 C 319.820509 -14.861437 320.712543 -15.75347 321.811935 -15.75347 C 322.911327 -15.75347 323.803361 -14.861437 323.803361 -13.758132 Z M 323.803361 -13.758132 " transform="matrix(0.998421,0,0,-0.998421,7.200095,41.122966)"/>
<path style="fill:none;stroke-width:0.3985;stroke-linecap:butt;stroke-linejoin:miter;stroke:rgb(0%,0%,0%);stroke-opacity:1;stroke-miterlimit:10;" d="M 328.803443 -20.640092 C 328.803443 -19.5407 327.91141 -18.648666 326.812017 -18.648666 C 325.708713 -18.648666 324.816679 -19.5407 324.816679 -20.640092 C 324.816679 -21.739484 325.708713 -22.631518 326.812017 -22.631518 C 327.91141 -22.631518 328.803443 -21.739484 328.803443 -20.640092 Z M 328.803443 -20.640092 " transform="matrix(0.998421,0,0,-0.998421,7.200095,41.122966)"/>
<g clip-path="url(#clip4)" clip-rule="nonzero">
<path style="fill:none;stroke-width:0.3985;stroke-linecap:butt;stroke-linejoin:miter;stroke:rgb(0%,0%,0%);stroke-opacity:1;stroke-miterlimit:10;" d="M 333.803525 -27.51814 C 333.803525 -26.418747 332.911492 -25.526714 331.808187 -25.526714 C 330.708795 -25.526714 329.816762 -26.418747 329.816762 -27.51814 C 329.816762 -28.621444 330.708795 -29.513478 331.808187 -29.513478 C 332.911492 -29.513478 333.803525 -28.621444 333.803525 -27.51814 Z M 333.803525 -27.51814 " transform="matrix(0.998421,0,0,-0.998421,7.200095,41.122966)"/>
</g>
</g>
</svg>
