<?xml version="1.0" encoding="UTF-8"?>
<svg xmlns="http://www.w3.org/2000/svg" xmlns:xlink="http://www.w3.org/1999/xlink" width="165.48pt" height="123.24pt" viewBox="0 0 165.48 123.24" version="1.2">
<defs>
<g>
<symbol overflow="visible" id="glyph0-0">
<path style="stroke:none;" d=""/>
</symbol>
<symbol overflow="visible" id="glyph0-1">
<path style="stroke:none;" d="M 3.484375 -3.15625 C 3.546875 -3.421875 3.78125 -4.390625 4.515625 -4.390625 C 4.578125 -4.390625 4.828125 -4.390625 5.046875 -4.25 C 4.75 -4.203125 4.546875 -3.9375 4.546875 -3.6875 C 4.546875 -3.515625 4.65625 -3.3125 4.9375 -3.3125 C 5.171875 -3.3125 5.5 -3.5 5.5 -3.921875 C 5.5 -4.46875 4.890625 -4.609375 4.53125 -4.609375 C 3.921875 -4.609375 3.5625 -4.0625 3.4375 -3.8125 C 3.171875 -4.515625 2.609375 -4.609375 2.3125 -4.609375 C 1.21875 -4.609375 0.625 -3.265625 0.625 -3 C 0.625 -2.90625 0.734375 -2.90625 0.75 -2.90625 C 0.828125 -2.90625 0.859375 -2.921875 0.890625 -3.015625 C 1.234375 -4.125 1.9375 -4.390625 2.28125 -4.390625 C 2.484375 -4.390625 2.84375 -4.296875 2.84375 -3.6875 C 2.84375 -3.359375 2.671875 -2.65625 2.28125 -1.203125 C 2.125 -0.546875 1.75 -0.109375 1.296875 -0.109375 C 1.234375 -0.109375 0.984375 -0.109375 0.765625 -0.25 C 1.03125 -0.296875 1.265625 -0.515625 1.265625 -0.8125 C 1.265625 -1.09375 1.03125 -1.171875 0.875 -1.171875 C 0.5625 -1.171875 0.296875 -0.90625 0.296875 -0.578125 C 0.296875 -0.09375 0.828125 0.109375 1.28125 0.109375 C 1.96875 0.109375 2.34375 -0.609375 2.375 -0.671875 C 2.5 -0.296875 2.875 0.109375 3.5 0.109375 C 4.578125 0.109375 5.171875 -1.234375 5.171875 -1.5 C 5.171875 -1.59375 5.078125 -1.59375 5.046875 -1.59375 C 4.953125 -1.59375 4.9375 -1.5625 4.921875 -1.484375 C 4.578125 -0.359375 3.859375 -0.109375 3.53125 -0.109375 C 3.125 -0.109375 2.953125 -0.453125 2.953125 -0.796875 C 2.953125 -1.03125 3.015625 -1.265625 3.125 -1.71875 Z M 3.484375 -3.15625 "/>
</symbol>
<symbol overflow="visible" id="glyph0-2">
<path style="stroke:none;" d="M 5.078125 -3.984375 C 5.109375 -4.125 5.109375 -4.140625 5.109375 -4.21875 C 5.109375 -4.40625 4.96875 -4.5 4.8125 -4.5 C 4.703125 -4.5 4.546875 -4.4375 4.453125 -4.28125 C 4.421875 -4.234375 4.34375 -3.90625 4.296875 -3.71875 C 4.234375 -3.4375 4.15625 -3.15625 4.09375 -2.875 L 3.625 -1 C 3.578125 -0.84375 3.125 -0.109375 2.4375 -0.109375 C 1.90625 -0.109375 1.796875 -0.578125 1.796875 -0.953125 C 1.796875 -1.4375 1.96875 -2.09375 2.328125 -3 C 2.5 -3.4375 2.53125 -3.546875 2.53125 -3.75 C 2.53125 -4.234375 2.203125 -4.609375 1.6875 -4.609375 C 0.6875 -4.609375 0.296875 -3.09375 0.296875 -3 C 0.296875 -2.90625 0.40625 -2.90625 0.421875 -2.90625 C 0.53125 -2.90625 0.546875 -2.921875 0.59375 -3.09375 C 0.875 -4.078125 1.296875 -4.390625 1.65625 -4.390625 C 1.734375 -4.390625 1.90625 -4.390625 1.90625 -4.046875 C 1.90625 -3.78125 1.8125 -3.515625 1.734375 -3.3125 C 1.3125 -2.21875 1.125 -1.625 1.125 -1.125 C 1.125 -0.203125 1.78125 0.109375 2.40625 0.109375 C 2.8125 0.109375 3.15625 -0.0625 3.453125 -0.359375 C 3.3125 0.1875 3.1875 0.703125 2.78125 1.25 C 2.5 1.609375 2.109375 1.90625 1.625 1.90625 C 1.484375 1.90625 1.015625 1.875 0.828125 1.46875 C 1 1.46875 1.140625 1.46875 1.28125 1.34375 C 1.390625 1.25 1.5 1.109375 1.5 0.921875 C 1.5 0.59375 1.203125 0.546875 1.109375 0.546875 C 0.859375 0.546875 0.515625 0.71875 0.515625 1.234375 C 0.515625 1.75 0.984375 2.140625 1.625 2.140625 C 2.703125 2.140625 3.78125 1.1875 4.078125 0.015625 Z M 5.078125 -3.984375 "/>
</symbol>
<symbol overflow="visible" id="glyph0-3">
<path style="stroke:none;" d="M 1.671875 -0.8125 C 1.5625 -0.40625 1.546875 -0.328125 0.71875 -0.328125 C 0.546875 -0.328125 0.4375 -0.328125 0.4375 -0.109375 C 0.4375 0 0.53125 0 0.71875 0 L 4.453125 0 C 6.09375 0 7.328125 -1.234375 7.328125 -2.25 C 7.328125 -3 6.71875 -3.609375 5.703125 -3.71875 C 6.796875 -3.921875 7.890625 -4.703125 7.890625 -5.6875 C 7.890625 -6.453125 7.203125 -7.125 5.953125 -7.125 L 2.4375 -7.125 C 2.25 -7.125 2.140625 -7.125 2.140625 -6.921875 C 2.140625 -6.8125 2.234375 -6.8125 2.4375 -6.8125 C 2.453125 -6.8125 2.65625 -6.8125 2.828125 -6.78125 C 3.015625 -6.765625 3.109375 -6.75 3.109375 -6.625 C 3.109375 -6.578125 3.09375 -6.546875 3.0625 -6.421875 Z M 3.25 -3.8125 L 3.890625 -6.40625 C 3.984375 -6.78125 4.015625 -6.8125 4.453125 -6.8125 L 5.796875 -6.8125 C 6.71875 -6.8125 6.9375 -6.1875 6.9375 -5.734375 C 6.9375 -4.8125 6.046875 -3.8125 4.765625 -3.8125 Z M 2.78125 -0.328125 C 2.625 -0.328125 2.609375 -0.328125 2.546875 -0.328125 C 2.4375 -0.34375 2.40625 -0.359375 2.40625 -0.4375 C 2.40625 -0.46875 2.40625 -0.484375 2.46875 -0.671875 L 3.1875 -3.59375 L 5.15625 -3.59375 C 6.15625 -3.59375 6.359375 -2.8125 6.359375 -2.375 C 6.359375 -1.34375 5.421875 -0.328125 4.203125 -0.328125 Z M 2.78125 -0.328125 "/>
</symbol>
<symbol overflow="visible" id="glyph0-4">
<path style="stroke:none;" d="M 1.875 -1.203125 C 1.453125 -0.5 1.046875 -0.359375 0.578125 -0.328125 C 0.453125 -0.3125 0.359375 -0.3125 0.359375 -0.109375 C 0.359375 -0.046875 0.421875 0 0.5 0 C 0.78125 0 1.109375 -0.03125 1.40625 -0.03125 C 1.75 -0.03125 2.109375 0 2.4375 0 C 2.5 0 2.640625 0 2.640625 -0.203125 C 2.640625 -0.3125 2.546875 -0.328125 2.46875 -0.328125 C 2.234375 -0.34375 1.984375 -0.421875 1.984375 -0.6875 C 1.984375 -0.8125 2.046875 -0.921875 2.125 -1.078125 L 2.921875 -2.40625 L 5.546875 -2.40625 C 5.5625 -2.1875 5.703125 -0.765625 5.703125 -0.671875 C 5.703125 -0.359375 5.171875 -0.328125 4.953125 -0.328125 C 4.8125 -0.328125 4.703125 -0.328125 4.703125 -0.109375 C 4.703125 0 4.828125 0 4.859375 0 C 5.28125 0 5.734375 -0.03125 6.15625 -0.03125 C 6.421875 -0.03125 7.078125 0 7.34375 0 C 7.40625 0 7.53125 0 7.53125 -0.203125 C 7.53125 -0.328125 7.421875 -0.328125 7.28125 -0.328125 C 6.640625 -0.328125 6.640625 -0.390625 6.609375 -0.703125 L 5.96875 -7.21875 C 5.953125 -7.4375 5.953125 -7.46875 5.765625 -7.46875 C 5.609375 -7.46875 5.5625 -7.40625 5.5 -7.296875 Z M 3.125 -2.734375 L 5.171875 -6.171875 L 5.515625 -2.734375 Z M 3.125 -2.734375 "/>
</symbol>
<symbol overflow="visible" id="glyph0-5">
<path style="stroke:none;" d="M 7.9375 -7.25 C 7.9375 -7.28125 7.90625 -7.359375 7.8125 -7.359375 C 7.78125 -7.359375 7.78125 -7.34375 7.65625 -7.234375 L 6.9375 -6.421875 C 6.84375 -6.578125 6.359375 -7.359375 5.203125 -7.359375 C 2.875 -7.359375 0.515625 -5.046875 0.515625 -2.625 C 0.515625 -0.90625 1.75 0.234375 3.34375 0.234375 C 4.265625 0.234375 5.046875 -0.1875 5.609375 -0.671875 C 6.578125 -1.53125 6.75 -2.46875 6.75 -2.5 C 6.75 -2.609375 6.65625 -2.609375 6.625 -2.609375 C 6.5625 -2.609375 6.515625 -2.59375 6.484375 -2.5 C 6.390625 -2.203125 6.15625 -1.46875 5.4375 -0.859375 C 4.71875 -0.265625 4.0625 -0.09375 3.515625 -0.09375 C 2.578125 -0.09375 1.46875 -0.640625 1.46875 -2.265625 C 1.46875 -2.859375 1.6875 -4.546875 2.734375 -5.765625 C 3.375 -6.515625 4.359375 -7.03125 5.28125 -7.03125 C 6.34375 -7.03125 6.96875 -6.234375 6.96875 -5.015625 C 6.96875 -4.609375 6.9375 -4.59375 6.9375 -4.484375 C 6.9375 -4.390625 7.046875 -4.390625 7.09375 -4.390625 C 7.21875 -4.390625 7.21875 -4.40625 7.28125 -4.59375 Z M 7.9375 -7.25 "/>
</symbol>
</g>
<clipPath id="clip1">
  <path d="M 6 13 L 145 13 L 145 122.484375 L 6 122.484375 Z M 6 13 "/>
</clipPath>
</defs>
<g id="surface1">
<g clip-path="url(#clip1)" clip-rule="nonzero">
<path style="fill:none;stroke-width:0.3985;stroke-linecap:butt;stroke-linejoin:miter;stroke:rgb(0%,0%,0%);stroke-opacity:1;stroke-miterlimit:10;" d="M -28.346113 -24.546686 C -28.346113 -24.546686 -24.506172 -14.995961 -23.032295 -11.148159 C -21.558417 -7.296427 -19.192353 -0.732761 -17.718476 3.2133 C -16.240668 7.159361 -13.878535 13.593326 -12.400727 17.291775 C -10.92685 20.994154 -8.560786 26.748171 -7.086909 29.888512 C -5.613031 33.024923 -3.246967 37.603768 -1.77309 39.906947 C -0.295282 42.210125 2.066851 45.216835 3.544659 46.490265 C 5.018536 47.759764 7.3846 48.938866 8.858477 49.068567 C 10.332355 49.198268 12.698419 48.447574 14.172296 47.421755 C 15.650104 46.399867 18.012237 43.778331 19.490045 41.691321 C 20.963922 39.60431 23.329986 35.343823 24.803864 32.372486 C 26.277741 29.39722 28.643805 23.863302 30.117682 20.263111 C 31.591559 16.65899 33.957623 10.331144 35.435431 6.408666 C 36.909308 2.490118 39.275372 -4.093201 40.74925 -7.996027 C 42.223127 -11.894924 44.589191 -18.163815 46.063068 -21.712911 C 47.536945 -25.258077 49.903009 -30.674084 51.376887 -33.558953 C 52.854694 -36.443822 55.216828 -40.539236 56.694636 -42.516196 C 58.168513 -44.493157 60.534577 -46.914246 62.008454 -47.810363 C 63.482331 -48.710411 65.848396 -49.248867 67.322273 -48.989465 C 68.80008 -48.730063 71.162214 -47.342653 72.640022 -45.947382 C 74.113899 -44.556042 76.479963 -41.356746 77.95384 -38.951379 C 79.427717 -36.546011 81.793782 -31.813883 83.267659 -28.598865 C 84.745466 -25.383848 87.1076 -19.531573 88.585408 -15.78596 C 90.059285 -12.040346 92.425349 -5.563147 93.899226 -1.609226 C 95.373103 2.340765 99.213045 12.701139 99.213045 12.701139 " transform="matrix(0.993871,0,0,-0.993871,40.613785,68.033449)"/>
</g>
<path style="fill:none;stroke-width:0.3985;stroke-linecap:butt;stroke-linejoin:miter;stroke:rgb(0%,0%,0%);stroke-opacity:1;stroke-miterlimit:10;" d="M -35.432515 -0.00171742 L 109.801379 -0.00171742 " transform="matrix(0.993871,0,0,-0.993871,40.613785,68.033449)"/>
<path style=" stroke:none;fill-rule:nonzero;fill:rgb(0%,0%,0%);fill-opacity:1;" d="M 153.304688 68.035156 C 152.25 67.835938 150.535156 67.242188 149.34375 66.546875 L 149.34375 69.519531 C 150.535156 68.824219 152.25 68.230469 153.304688 68.035156 "/>
<g style="fill:rgb(0%,0%,0%);fill-opacity:1;">
  <use xlink:href="#glyph0-1" x="150.32422" y="76.203069"/>
</g>
<path style="fill:none;stroke-width:0.3985;stroke-linecap:butt;stroke-linejoin:miter;stroke:rgb(0%,0%,0%);stroke-opacity:1;stroke-miterlimit:10;" d="M -0.000507019 -49.606528 L -0.000507019 53.108956 " transform="matrix(0.993871,0,0,-0.993871,40.613785,68.033449)"/>
<path style=" stroke:none;fill-rule:nonzero;fill:rgb(0%,0%,0%);fill-opacity:1;" d="M 40.613281 11.6875 C 40.414062 12.742188 39.820312 14.460938 39.128906 15.648438 L 42.097656 15.648438 C 41.40625 14.460938 40.8125 12.742188 40.613281 11.6875 "/>
<g style="fill:rgb(0%,0%,0%);fill-opacity:1;">
  <use xlink:href="#glyph0-2" x="31.446319" y="12.919329"/>
</g>
<path style="fill:none;stroke-width:0.3985;stroke-linecap:butt;stroke-linejoin:miter;stroke:rgb(0%,0%,0%);stroke-opacity:1;stroke-miterlimit:10;" d="M -18.897578 -0.00171742 L 9.448028 49.09608 L 37.797565 -0.00171742 " transform="matrix(0.993871,0,0,-0.993871,40.613785,68.033449)"/>
<g style="fill:rgb(0%,0%,0%);fill-opacity:1;">
  <use xlink:href="#glyph0-3" x="17.612629" y="64.357121"/>
</g>
<g style="fill:rgb(0%,0%,0%);fill-opacity:1;">
  <use xlink:href="#glyph0-4" x="46.091008" y="15.561038"/>
</g>
<g style="fill:rgb(0%,0%,0%);fill-opacity:1;">
  <use xlink:href="#glyph0-5" x="74.075433" y="64.357121"/>
</g>
</g>
</svg>
