<?xml version="1.0" encoding="UTF-8"?>
<svg xmlns="http://www.w3.org/2000/svg" xmlns:xlink="http://www.w3.org/1999/xlink" width="134.59pt" height="121.64pt" viewBox="0 0 134.59 121.64" version="1.2">
<defs>
<g>
<symbol overflow="visible" id="glyph0-0">
<path style="stroke:none;" d=""/>
</symbol>
<symbol overflow="visible" id="glyph0-1">
<path style="stroke:none;" d="M 3.078125 -1.734375 L 3.078125 -0.8125 C 3.078125 -0.4375 3.0625 -0.328125 2.28125 -0.328125 L 2.0625 -0.328125 L 2.0625 0 C 2.484375 -0.03125 3.03125 -0.03125 3.46875 -0.03125 C 3.921875 -0.03125 4.46875 -0.03125 4.90625 0 L 4.90625 -0.328125 L 4.671875 -0.328125 C 3.90625 -0.328125 3.890625 -0.4375 3.890625 -0.8125 L 3.890625 -1.734375 L 4.9375 -1.734375 L 4.9375 -2.046875 L 3.890625 -2.046875 L 3.890625 -6.8125 C 3.890625 -7.03125 3.890625 -7.09375 3.71875 -7.09375 C 3.625 -7.09375 3.59375 -7.09375 3.5 -6.96875 L 0.296875 -2.046875 L 0.296875 -1.734375 Z M 3.140625 -2.046875 L 0.59375 -2.046875 L 3.140625 -5.953125 Z M 3.140625 -2.046875 "/>
</symbol>
<symbol overflow="visible" id="glyph0-2">
<path style="stroke:none;" d="M 4.8125 -3.34375 C 4.8125 -4.1875 4.765625 -5.03125 4.390625 -5.796875 C 3.921875 -6.796875 3.0625 -6.96875 2.609375 -6.96875 C 1.984375 -6.96875 1.21875 -6.703125 0.796875 -5.71875 C 0.453125 -5 0.40625 -4.1875 0.40625 -3.34375 C 0.40625 -2.5625 0.453125 -1.625 0.875 -0.828125 C 1.328125 0.015625 2.09375 0.234375 2.609375 0.234375 C 3.171875 0.234375 3.96875 0.015625 4.421875 -0.984375 C 4.765625 -1.703125 4.8125 -2.515625 4.8125 -3.34375 Z M 2.609375 0 C 2.203125 0 1.578125 -0.265625 1.390625 -1.265625 C 1.28125 -1.890625 1.28125 -2.859375 1.28125 -3.46875 C 1.28125 -4.140625 1.28125 -4.84375 1.359375 -5.40625 C 1.5625 -6.640625 2.34375 -6.734375 2.609375 -6.734375 C 2.953125 -6.734375 3.640625 -6.546875 3.84375 -5.515625 C 3.953125 -4.9375 3.953125 -4.140625 3.953125 -3.46875 C 3.953125 -2.6875 3.953125 -1.984375 3.828125 -1.3125 C 3.671875 -0.3125 3.078125 0 2.609375 0 Z M 2.609375 0 "/>
</symbol>
<symbol overflow="visible" id="glyph1-0">
<path style="stroke:none;" d=""/>
</symbol>
<symbol overflow="visible" id="glyph1-1">
<path style="stroke:none;" d="M 0.921875 -0.625 C 0.890625 -0.453125 0.828125 -0.21875 0.828125 -0.171875 C 0.828125 0.015625 0.96875 0.109375 1.125 0.109375 C 1.25 0.109375 1.4375 0.03125 1.515625 -0.171875 C 1.53125 -0.203125 1.65625 -0.6875 1.71875 -0.953125 L 1.953125 -1.890625 C 2.015625 -2.125 2.078125 -2.359375 2.125 -2.59375 C 2.171875 -2.78125 2.25 -3.078125 2.265625 -3.125 C 2.421875 -3.4375 2.96875 -4.390625 3.96875 -4.390625 C 4.4375 -4.390625 4.53125 -4.015625 4.53125 -3.65625 C 4.53125 -3.40625 4.453125 -3.109375 4.375 -2.796875 L 4.078125 -1.578125 L 3.875 -0.78125 C 3.828125 -0.578125 3.734375 -0.21875 3.734375 -0.171875 C 3.734375 0.015625 3.890625 0.109375 4.046875 0.109375 C 4.359375 0.109375 4.421875 -0.140625 4.515625 -0.484375 C 4.65625 -1.0625 5.046875 -2.59375 5.140625 -3 C 5.171875 -3.140625 5.71875 -4.390625 6.875 -4.390625 C 7.3125 -4.390625 7.4375 -4.046875 7.4375 -3.65625 C 7.4375 -3.0625 7 -1.875 6.78125 -1.3125 C 6.6875 -1.0625 6.640625 -0.953125 6.640625 -0.75 C 6.640625 -0.25 7.015625 0.109375 7.5 0.109375 C 8.484375 0.109375 8.875 -1.40625 8.875 -1.5 C 8.875 -1.609375 8.78125 -1.609375 8.75 -1.609375 C 8.640625 -1.609375 8.640625 -1.5625 8.59375 -1.40625 C 8.4375 -0.859375 8.109375 -0.109375 7.53125 -0.109375 C 7.34375 -0.109375 7.28125 -0.21875 7.28125 -0.453125 C 7.28125 -0.71875 7.375 -0.96875 7.46875 -1.203125 C 7.65625 -1.75 8.109375 -2.90625 8.109375 -3.5 C 8.109375 -4.1875 7.6875 -4.625 6.90625 -4.625 C 6.109375 -4.625 5.578125 -4.171875 5.1875 -3.609375 C 5.1875 -3.75 5.15625 -4.109375 4.859375 -4.359375 C 4.59375 -4.578125 4.265625 -4.625 4 -4.625 C 3.0625 -4.625 2.546875 -3.953125 2.359375 -3.71875 C 2.3125 -4.3125 1.875 -4.625 1.40625 -4.625 C 0.921875 -4.625 0.71875 -4.21875 0.625 -4.03125 C 0.4375 -3.65625 0.296875 -3.046875 0.296875 -3.015625 C 0.296875 -2.90625 0.40625 -2.90625 0.421875 -2.90625 C 0.53125 -2.90625 0.546875 -2.921875 0.609375 -3.15625 C 0.78125 -3.890625 1 -4.390625 1.375 -4.390625 C 1.53125 -4.390625 1.703125 -4.3125 1.703125 -3.921875 C 1.703125 -3.703125 1.671875 -3.578125 1.53125 -3.03125 Z M 0.921875 -0.625 "/>
</symbol>
<symbol overflow="visible" id="glyph1-2">
<path style="stroke:none;" d="M 3.5 -3.15625 C 3.5625 -3.4375 3.796875 -4.390625 4.53125 -4.390625 C 4.578125 -4.390625 4.84375 -4.390625 5.0625 -4.265625 C 4.765625 -4.203125 4.546875 -3.953125 4.546875 -3.703125 C 4.546875 -3.53125 4.671875 -3.328125 4.953125 -3.328125 C 5.1875 -3.328125 5.515625 -3.515625 5.515625 -3.9375 C 5.515625 -4.484375 4.90625 -4.625 4.546875 -4.625 C 3.9375 -4.625 3.5625 -4.078125 3.4375 -3.828125 C 3.1875 -4.515625 2.609375 -4.625 2.3125 -4.625 C 1.21875 -4.625 0.625 -3.28125 0.625 -3.015625 C 0.625 -2.90625 0.734375 -2.90625 0.75 -2.90625 C 0.84375 -2.90625 0.875 -2.9375 0.890625 -3.03125 C 1.25 -4.140625 1.9375 -4.390625 2.296875 -4.390625 C 2.484375 -4.390625 2.859375 -4.296875 2.859375 -3.703125 C 2.859375 -3.375 2.6875 -2.671875 2.296875 -1.203125 C 2.125 -0.5625 1.765625 -0.109375 1.296875 -0.109375 C 1.234375 -0.109375 1 -0.109375 0.78125 -0.25 C 1.03125 -0.296875 1.265625 -0.515625 1.265625 -0.8125 C 1.265625 -1.09375 1.03125 -1.1875 0.875 -1.1875 C 0.5625 -1.1875 0.296875 -0.90625 0.296875 -0.578125 C 0.296875 -0.09375 0.828125 0.109375 1.28125 0.109375 C 1.984375 0.109375 2.359375 -0.625 2.390625 -0.6875 C 2.515625 -0.296875 2.890625 0.109375 3.515625 0.109375 C 4.59375 0.109375 5.1875 -1.234375 5.1875 -1.5 C 5.1875 -1.609375 5.09375 -1.609375 5.0625 -1.609375 C 4.96875 -1.609375 4.953125 -1.5625 4.9375 -1.484375 C 4.578125 -0.359375 3.875 -0.109375 3.53125 -0.109375 C 3.125 -0.109375 2.96875 -0.453125 2.96875 -0.8125 C 2.96875 -1.03125 3.03125 -1.265625 3.140625 -1.734375 Z M 3.5 -3.15625 "/>
</symbol>
</g>
<clipPath id="clip1">
  <path d="M 0 0.00390625 L 102 0.00390625 L 102 102 L 0 102 Z M 0 0.00390625 "/>
</clipPath>
</defs>
<g id="surface1">
<g clip-path="url(#clip1)" clip-rule="nonzero">
<path style="fill:none;stroke-width:0.3985;stroke-linecap:butt;stroke-linejoin:miter;stroke:rgb(0%,0%,0%);stroke-opacity:1;stroke-miterlimit:10;" d="M -0.00120627 -0.000435331 L 90.711792 -0.000435331 L 68.033543 90.708645 Z M -0.00120627 -0.000435331 " transform="matrix(0.996963,0,0,-0.996963,5.165265,95.605035)"/>
</g>
<path style="fill-rule:nonzero;fill:rgb(75%,75%,75%);fill-opacity:1;stroke-width:0.3985;stroke-linecap:butt;stroke-linejoin:miter;stroke:rgb(0%,0%,0%);stroke-opacity:1;stroke-miterlimit:10;" d="M 22.677043 -0.000435331 L 22.677043 30.235925 L 83.149764 30.235925 L 83.149764 -0.000435331 Z M 22.677043 -0.000435331 " transform="matrix(0.996963,0,0,-0.996963,5.165265,95.605035)"/>
<path style="fill:none;stroke-width:0.3985;stroke-linecap:butt;stroke-linejoin:miter;stroke:rgb(0%,0%,0%);stroke-opacity:1;stroke-miterlimit:10;" d="M 3.587819 -6.802343 L 87.122767 -6.802343 " transform="matrix(0.996963,0,0,-0.996963,5.165265,95.605035)"/>
<path style=" stroke:none;fill-rule:nonzero;fill:rgb(0%,0%,0%);fill-opacity:1;" d="M 5.164062 102.386719 C 6.226562 102.585938 7.945312 103.183594 9.136719 103.878906 L 9.136719 100.898438 C 7.945312 101.59375 6.226562 102.1875 5.164062 102.386719 "/>
<path style=" stroke:none;fill-rule:nonzero;fill:rgb(0%,0%,0%);fill-opacity:1;" d="M 95.601562 102.386719 C 94.539062 102.1875 92.820312 101.59375 91.628906 100.898438 L 91.628906 103.878906 C 92.820312 103.183594 94.539062 102.585938 95.601562 102.386719 "/>
<g style="fill:rgb(0%,0%,0%);fill-opacity:1;">
  <use xlink:href="#glyph0-1" x="40.552465" y="112.821588"/>
  <use xlink:href="#glyph0-2" x="45.786521" y="112.821588"/>
</g>
<g style="fill:rgb(0%,0%,0%);fill-opacity:1;">
  <use xlink:href="#glyph1-1" x="51.020577" y="112.821588"/>
</g>
<path style="fill:none;stroke-width:0.3985;stroke-linecap:butt;stroke-linejoin:miter;stroke:rgb(0%,0%,0%);stroke-opacity:1;stroke-miterlimit:10;" d="M 97.5137 3.584672 L 97.5137 87.123538 " transform="matrix(0.996963,0,0,-0.996963,5.165265,95.605035)"/>
<path style=" stroke:none;fill-rule:nonzero;fill:rgb(0%,0%,0%);fill-opacity:1;" d="M 102.382812 95.605469 C 102.582031 94.546875 103.175781 92.824219 103.871094 91.632812 L 100.894531 91.632812 C 101.589844 92.824219 102.183594 94.546875 102.382812 95.605469 "/>
<path style=" stroke:none;fill-rule:nonzero;fill:rgb(0%,0%,0%);fill-opacity:1;" d="M 102.382812 5.171875 C 102.183594 6.230469 101.589844 7.953125 100.894531 9.144531 L 103.871094 9.144531 C 103.175781 7.953125 102.582031 6.230469 102.382812 5.171875 "/>
<g style="fill:rgb(0%,0%,0%);fill-opacity:1;">
  <use xlink:href="#glyph0-1" x="106.069881" y="53.760505"/>
  <use xlink:href="#glyph0-2" x="111.303936" y="53.760505"/>
</g>
<g style="fill:rgb(0%,0%,0%);fill-opacity:1;">
  <use xlink:href="#glyph1-1" x="116.537992" y="53.760505"/>
</g>
<g style="fill:rgb(0%,0%,0%);fill-opacity:1;">
  <use xlink:href="#glyph1-2" x="58.695197" y="61.684367"/>
</g>
</g>
</svg>
