<?xml version="1.0" encoding="UTF-8"?>
<svg xmlns="http://www.w3.org/2000/svg" xmlns:xlink="http://www.w3.org/1999/xlink" width="101.07pt" height="101.07pt" viewBox="0 0 101.07 101.07" version="1.2">
<defs>
<clipPath id="clip1">
  <path d="M 22 0 L 100.148438 0 L 100.148438 100.148438 L 22 100.148438 Z M 22 0 "/>
</clipPath>
<clipPath id="clip2">
  <path d="M 0 0 L 56 0 L 56 100.148438 L 0 100.148438 Z M 0 0 "/>
</clipPath>
</defs>
<g id="surface1">
<path style=" stroke:none;fill-rule:nonzero;fill:rgb(0%,0%,0%);fill-opacity:1;" d="M 50.074219 5.136719 C 37.664062 5.136719 27.601562 15.195312 27.601562 27.605469 C 27.601562 40.015625 37.664062 50.078125 50.074219 50.078125 C 62.484375 50.078125 72.542969 60.136719 72.542969 72.546875 C 72.542969 84.957031 62.484375 95.015625 50.074219 95.015625 C 74.894531 95.015625 95.015625 74.898438 95.015625 50.078125 C 95.015625 25.257812 74.894531 5.136719 50.074219 5.136719 "/>
<g clip-path="url(#clip1)" clip-rule="nonzero">
<path style="fill:none;stroke-width:0.3985;stroke-linecap:butt;stroke-linejoin:miter;stroke:rgb(0%,0%,0%);stroke-opacity:1;stroke-miterlimit:10;" d="M 0.000978851 -0.000984491 C -12.52337 -0.000984491 -22.678461 -10.152133 -22.678461 -22.676482 C -22.678461 -35.200831 -12.52337 -45.355921 0.000978851 -45.355921 C 12.525328 -45.355921 22.676476 -55.507069 22.676476 -68.031418 C 22.676476 -80.555767 12.525328 -90.706915 0.000978851 -90.706915 C 25.049677 -90.706915 45.355915 -70.404619 45.355915 -45.355921 C 45.355915 -20.307223 25.049677 -0.000984491 0.000978851 -0.000984491 " transform="matrix(0.990882,0,0,-0.990882,50.073249,5.135743)"/>
</g>
<g clip-path="url(#clip2)" clip-rule="nonzero">
<path style="fill:none;stroke-width:0.3985;stroke-linecap:butt;stroke-linejoin:miter;stroke:rgb(0%,0%,0%);stroke-opacity:1;stroke-miterlimit:10;" d="M 0.000978851 -0.000984491 C -25.047719 -0.000984491 -45.353958 -20.307223 -45.353958 -45.355921 C -45.353958 -70.404619 -25.047719 -90.706915 0.000978851 -90.706915 " transform="matrix(0.990882,0,0,-0.990882,50.073249,5.135743)"/>
</g>
<path style="fill-rule:nonzero;fill:rgb(0%,0%,0%);fill-opacity:1;stroke-width:0.3985;stroke-linecap:butt;stroke-linejoin:miter;stroke:rgb(0%,0%,0%);stroke-opacity:1;stroke-miterlimit:10;" d="M 5.669853 -68.031418 C 5.669853 -64.901317 3.131081 -62.362544 0.000978851 -62.362544 C -3.129123 -62.362544 -5.667895 -64.901317 -5.667895 -68.031418 C -5.667895 -71.16152 -3.129123 -73.700293 0.000978851 -73.700293 C 3.131081 -73.700293 5.669853 -71.16152 5.669853 -68.031418 Z M 5.669853 -68.031418 " transform="matrix(0.990882,0,0,-0.990882,50.073249,5.135743)"/>
<path style="fill-rule:nonzero;fill:rgb(100%,100%,100%);fill-opacity:1;stroke-width:0.3985;stroke-linecap:butt;stroke-linejoin:miter;stroke:rgb(0%,0%,0%);stroke-opacity:1;stroke-miterlimit:10;" d="M 5.669853 -22.676482 C 5.669853 -19.54638 3.131081 -17.007607 0.000978851 -17.007607 C -3.129123 -17.007607 -5.667895 -19.54638 -5.667895 -22.676482 C -5.667895 -25.806583 -3.129123 -28.345356 0.000978851 -28.345356 C 3.131081 -28.345356 5.669853 -25.806583 5.669853 -22.676482 Z M 5.669853 -22.676482 " transform="matrix(0.990882,0,0,-0.990882,50.073249,5.135743)"/>
</g>
</svg>
