<?xml version="1.0" encoding="UTF-8"?>
<svg xmlns="http://www.w3.org/2000/svg" xmlns:xlink="http://www.w3.org/1999/xlink" width="105.15pt" height="160.21pt" viewBox="0 0 105.15 160.21" version="1.2">
<defs>
<g>
<symbol overflow="visible" id="glyph0-0">
<path style="stroke:none;" d=""/>
</symbol>
<symbol overflow="visible" id="glyph0-1">
<path style="stroke:none;" d="M 1.328125 -0.796875 L 2.421875 -1.875 C 4.046875 -3.3125 4.671875 -3.875 4.671875 -4.921875 C 4.671875 -6.109375 3.734375 -6.9375 2.46875 -6.9375 C 1.296875 -6.9375 0.515625 -5.984375 0.515625 -5.046875 C 0.515625 -4.46875 1.046875 -4.46875 1.078125 -4.46875 C 1.25 -4.46875 1.609375 -4.59375 1.609375 -5.015625 C 1.609375 -5.296875 1.421875 -5.5625 1.0625 -5.5625 C 0.984375 -5.5625 0.953125 -5.5625 0.921875 -5.5625 C 1.171875 -6.234375 1.734375 -6.625 2.328125 -6.625 C 3.28125 -6.625 3.734375 -5.78125 3.734375 -4.921875 C 3.734375 -4.078125 3.203125 -3.265625 2.640625 -2.609375 L 0.640625 -0.390625 C 0.515625 -0.265625 0.515625 -0.25 0.515625 0 L 4.390625 0 L 4.671875 -1.8125 L 4.421875 -1.8125 C 4.359375 -1.5 4.296875 -1.046875 4.1875 -0.890625 C 4.109375 -0.796875 3.421875 -0.796875 3.203125 -0.796875 Z M 1.328125 -0.796875 "/>
</symbol>
<symbol overflow="visible" id="glyph0-2">
<path style="stroke:none;" d="M 4.796875 -3.328125 C 4.796875 -4.171875 4.734375 -5 4.375 -5.78125 C 3.890625 -6.78125 3.046875 -6.9375 2.609375 -6.9375 C 1.984375 -6.9375 1.21875 -6.671875 0.796875 -5.703125 C 0.453125 -4.984375 0.40625 -4.171875 0.40625 -3.328125 C 0.40625 -2.546875 0.453125 -1.609375 0.875 -0.828125 C 1.328125 0.015625 2.078125 0.234375 2.59375 0.234375 C 3.15625 0.234375 3.953125 0.015625 4.40625 -0.984375 C 4.734375 -1.703125 4.796875 -2.515625 4.796875 -3.328125 Z M 2.59375 0 C 2.1875 0 1.578125 -0.265625 1.390625 -1.265625 C 1.265625 -1.890625 1.265625 -2.84375 1.265625 -3.453125 C 1.265625 -4.125 1.265625 -4.8125 1.359375 -5.375 C 1.546875 -6.625 2.328125 -6.71875 2.59375 -6.71875 C 2.9375 -6.71875 3.625 -6.53125 3.828125 -5.5 C 3.921875 -4.90625 3.921875 -4.109375 3.921875 -3.453125 C 3.921875 -2.671875 3.921875 -1.96875 3.8125 -1.296875 C 3.65625 -0.3125 3.0625 0 2.59375 0 Z M 2.59375 0 "/>
</symbol>
<symbol overflow="visible" id="glyph0-3">
<path style="stroke:none;" d="M 3.0625 -6.671875 C 3.0625 -6.921875 3.0625 -6.9375 2.828125 -6.9375 C 2.171875 -6.28125 1.265625 -6.28125 0.921875 -6.28125 L 0.921875 -5.953125 C 1.140625 -5.953125 1.75 -5.953125 2.296875 -6.21875 L 2.296875 -0.828125 C 2.296875 -0.453125 2.265625 -0.328125 1.328125 -0.328125 L 0.984375 -0.328125 L 0.984375 0 C 1.359375 -0.03125 2.265625 -0.03125 2.671875 -0.03125 C 3.09375 -0.03125 4 -0.03125 4.359375 0 L 4.359375 -0.328125 L 4.03125 -0.328125 C 3.09375 -0.328125 3.0625 -0.4375 3.0625 -0.828125 Z M 3.0625 -6.671875 "/>
</symbol>
<symbol overflow="visible" id="glyph1-0">
<path style="stroke:none;" d=""/>
</symbol>
<symbol overflow="visible" id="glyph1-1">
<path style="stroke:none;" d="M 2.609375 -4.4375 C 2.609375 -4.625 2.59375 -4.953125 2.5625 -5.421875 L 3.578125 -4.921875 L 3.171875 -4.640625 L 3.171875 -0.046875 L 5.21875 -0.046875 L 5.21875 -7.328125 L 2.734375 -7.328125 C 2.378906 -7.328125 2.050781 -7.285156 1.75 -7.203125 L 1.390625 -7.578125 L 8.265625 -7.578125 L 8.875 -8.1875 L 9.734375 -7.328125 L 5.78125 -7.328125 L 5.78125 -4.109375 L 7.78125 -4.109375 L 8.34375 -4.6875 L 9.15625 -3.875 L 5.78125 -3.875 L 5.78125 -0.046875 L 8.265625 -0.046875 L 8.921875 -0.6875 L 9.8125 0.203125 L 1.953125 0.203125 C 1.597656 0.203125 1.273438 0.242188 0.984375 0.328125 L 0.609375 -0.046875 L 2.609375 -0.046875 Z M 2.609375 -4.4375 "/>
</symbol>
<symbol overflow="visible" id="glyph1-2">
<path style="stroke:none;" d="M 8.828125 -7.25 C 8.828125 -4.914062 8.84375 -3.515625 8.875 -3.046875 L 8.3125 -2.734375 L 8.3125 -7.375 L 5.375 -7.375 L 5.375 -2.96875 L 4.796875 -2.609375 C 4.828125 -3.066406 4.84375 -3.941406 4.84375 -5.234375 C 4.84375 -6.523438 4.828125 -7.441406 4.796875 -7.984375 L 5.421875 -7.609375 L 8.21875 -7.609375 L 8.546875 -8.015625 L 9.15625 -7.484375 Z M 6.46875 -6.546875 L 7.453125 -6.0625 L 7.078125 -5.78125 C 7.078125 -4.78125 7.03125 -3.929688 6.9375 -3.234375 C 6.84375 -2.546875 6.664062 -1.945312 6.40625 -1.4375 C 6.15625 -0.9375 5.753906 -0.476562 5.203125 -0.0625 C 4.660156 0.351562 4.007812 0.710938 3.25 1.015625 L 3.171875 0.890625 C 4.253906 0.296875 5.023438 -0.3125 5.484375 -0.9375 C 5.953125 -1.5625 6.242188 -2.289062 6.359375 -3.125 C 6.484375 -3.96875 6.519531 -5.109375 6.46875 -6.546875 Z M 6.96875 0.125 L 6.96875 -1.875 C 6.96875 -2.175781 6.953125 -2.632812 6.921875 -3.25 L 7.859375 -2.765625 L 7.484375 -2.484375 L 7.484375 -0.15625 C 7.484375 0.0820312 7.632812 0.1875 7.9375 0.15625 L 8.828125 0.15625 C 9.078125 0.15625 9.226562 -0.046875 9.28125 -0.453125 C 9.332031 -0.859375 9.359375 -1.289062 9.359375 -1.75 L 9.5625 -1.75 C 9.5625 -1.207031 9.582031 -0.800781 9.625 -0.53125 C 9.664062 -0.257812 9.796875 -0.0820312 10.015625 0 C 9.878906 0.375 9.566406 0.59375 9.078125 0.65625 L 7.65625 0.65625 C 7.195312 0.65625 6.96875 0.476562 6.96875 0.125 Z M 2.28125 1.015625 C 2.3125 0.503906 2.328125 -1.082031 2.328125 -3.75 C 1.835938 -3.09375 1.210938 -2.507812 0.453125 -2 L 0.359375 -2.109375 C 1.117188 -2.816406 1.722656 -3.550781 2.171875 -4.3125 C 2.617188 -5.070312 2.925781 -5.65625 3.09375 -6.0625 L 1.421875 -6.0625 L 0.890625 -5.984375 L 0.5625 -6.3125 L 3.09375 -6.3125 L 3.421875 -6.765625 L 4.109375 -6.109375 L 3.703125 -5.90625 C 3.429688 -5.445312 3.144531 -4.957031 2.84375 -4.4375 L 2.84375 -4.078125 C 3.445312 -3.828125 3.84375 -3.613281 4.03125 -3.4375 C 4.21875 -3.257812 4.3125 -3.078125 4.3125 -2.890625 C 4.3125 -2.785156 4.273438 -2.648438 4.203125 -2.484375 C 4.140625 -2.316406 4.097656 -2.234375 4.078125 -2.234375 C 3.992188 -2.234375 3.882812 -2.367188 3.75 -2.640625 C 3.550781 -3.046875 3.25 -3.441406 2.84375 -3.828125 C 2.84375 -1.171875 2.859375 0.320312 2.890625 0.65625 Z M 1.625 -8.3125 L 1.703125 -8.390625 C 2.273438 -8.085938 2.625 -7.847656 2.75 -7.671875 C 2.875 -7.492188 2.9375 -7.335938 2.9375 -7.203125 C 2.9375 -7.046875 2.875 -6.894531 2.75 -6.75 C 2.625 -6.613281 2.550781 -6.546875 2.53125 -6.546875 C 2.414062 -6.546875 2.332031 -6.6875 2.28125 -6.96875 C 2.195312 -7.375 1.976562 -7.820312 1.625 -8.3125 Z M 1.625 -8.3125 "/>
</symbol>
<symbol overflow="visible" id="glyph1-3">
<path style="stroke:none;" d="M 9.234375 -7.65625 L 9.234375 -0.890625 C 9.234375 -0.347656 9.25 0.132812 9.28125 0.5625 L 8.671875 0.890625 L 8.671875 0.078125 L 2.03125 0.078125 L 2.03125 0.734375 L 1.421875 0.984375 C 1.453125 0.429688 1.46875 -0.125 1.46875 -0.6875 L 1.46875 -6.84375 C 1.46875 -7.300781 1.453125 -7.816406 1.421875 -8.390625 L 2.03125 -8.015625 L 8.59375 -8.015625 L 8.875 -8.421875 L 9.53125 -7.890625 Z M 2.03125 -7.78125 L 2.03125 -2.765625 C 3.3125 -3.304688 4.300781 -3.914062 5 -4.59375 C 4.65625 -5.082031 4.347656 -5.640625 4.078125 -6.265625 C 3.640625 -5.585938 3.175781 -5.019531 2.6875 -4.5625 L 2.5625 -4.640625 C 3 -5.210938 3.363281 -5.800781 3.65625 -6.40625 C 3.957031 -7.019531 4.132812 -7.476562 4.1875 -7.78125 Z M 2.03125 -0.15625 L 8.671875 -0.15625 L 8.671875 -7.78125 L 4.28125 -7.78125 L 4.96875 -7.40625 L 4.71875 -7.28125 C 4.5625 -7.039062 4.441406 -6.851562 4.359375 -6.71875 L 6.515625 -6.71875 L 6.796875 -7.078125 L 7.40625 -6.515625 L 7.078125 -6.3125 C 6.617188 -5.65625 6.144531 -5.054688 5.65625 -4.515625 C 6.5 -3.890625 7.460938 -3.523438 8.546875 -3.421875 L 8.546875 -3.25 C 8.140625 -3.226562 7.882812 -3.066406 7.78125 -2.765625 C 6.820312 -3.117188 5.992188 -3.609375 5.296875 -4.234375 C 4.347656 -3.472656 3.257812 -2.914062 2.03125 -2.5625 Z M 4.234375 -6.46875 C 4.609375 -5.789062 4.972656 -5.265625 5.328125 -4.890625 C 5.710938 -5.316406 6.09375 -5.84375 6.46875 -6.46875 Z M 4.484375 -3.34375 C 5.128906 -3.207031 5.585938 -3.082031 5.859375 -2.96875 C 6.128906 -2.863281 6.25 -2.679688 6.21875 -2.421875 C 6.195312 -2.160156 6.144531 -2.03125 6.0625 -2.03125 C 5.976562 -2.03125 5.882812 -2.097656 5.78125 -2.234375 C 5.507812 -2.503906 5.0625 -2.832031 4.4375 -3.21875 Z M 3.703125 -1.875 C 4.953125 -1.738281 5.773438 -1.609375 6.171875 -1.484375 C 6.566406 -1.359375 6.773438 -1.144531 6.796875 -0.84375 C 6.828125 -0.550781 6.773438 -0.40625 6.640625 -0.40625 C 6.554688 -0.40625 6.421875 -0.488281 6.234375 -0.65625 C 5.828125 -0.976562 4.984375 -1.328125 3.703125 -1.703125 Z M 3.703125 -1.875 "/>
</symbol>
<symbol overflow="visible" id="glyph1-4">
<path style="stroke:none;" d="M 1.671875 -5.296875 C 1.234375 -4.503906 0.828125 -3.890625 0.453125 -3.453125 L 0.328125 -3.578125 C 0.953125 -4.640625 1.429688 -5.640625 1.765625 -6.578125 C 2.109375 -7.515625 2.304688 -8.144531 2.359375 -8.46875 L 3.171875 -8.015625 L 2.84375 -7.78125 C 2.550781 -7.125 2.238281 -6.429688 1.90625 -5.703125 L 2.4375 -5.421875 L 2.203125 -5.171875 L 2.203125 -0.8125 C 2.203125 -0.375 2.210938 0.164062 2.234375 0.8125 L 1.625 1.0625 C 1.65625 0.21875 1.671875 -0.472656 1.671875 -1.015625 Z M 6.3125 -7 L 6.3125 -3.78125 C 6.3125 -3.539062 6.320312 -3.015625 6.34375 -2.203125 L 5.828125 -1.953125 L 5.828125 -7.171875 L 3.828125 -7.171875 L 3.828125 -2 L 3.296875 -1.703125 C 3.328125 -2.460938 3.34375 -2.96875 3.34375 -3.21875 L 3.34375 -6.265625 C 3.34375 -6.515625 3.328125 -7.003906 3.296875 -7.734375 L 3.90625 -7.40625 L 5.78125 -7.40625 L 6.140625 -7.78125 L 6.671875 -7.25 Z M 4.515625 -6.46875 L 5.328125 -6.109375 L 5.09375 -5.828125 C 5.0625 -4.765625 5.03125 -3.875 5 -3.15625 C 4.976562 -2.4375 4.882812 -1.832031 4.71875 -1.34375 C 4.5625 -0.851562 4.316406 -0.4375 3.984375 -0.09375 C 3.660156 0.238281 3.175781 0.582031 2.53125 0.9375 L 2.4375 0.8125 C 3.195312 0.269531 3.726562 -0.273438 4.03125 -0.828125 C 4.332031 -1.390625 4.492188 -2.21875 4.515625 -3.3125 C 4.546875 -4.414062 4.546875 -5.46875 4.515625 -6.46875 Z M 5.09375 -1.59375 C 5.875 -1.019531 6.328125 -0.644531 6.453125 -0.46875 C 6.578125 -0.289062 6.640625 -0.132812 6.640625 0 C 6.640625 0.101562 6.597656 0.222656 6.515625 0.359375 C 6.429688 0.492188 6.375 0.5625 6.34375 0.5625 C 6.289062 0.5625 6.222656 0.46875 6.140625 0.28125 C 6.003906 -0.0078125 5.847656 -0.289062 5.671875 -0.5625 C 5.503906 -0.84375 5.28125 -1.144531 5 -1.46875 Z M 7.78125 -6.390625 L 7.78125 -2.890625 C 7.78125 -2.585938 7.789062 -2.191406 7.8125 -1.703125 L 7.203125 -1.421875 C 7.234375 -2.046875 7.25 -2.519531 7.25 -2.84375 L 7.25 -5.703125 C 7.25 -5.992188 7.234375 -6.453125 7.203125 -7.078125 L 8.0625 -6.671875 Z M 7.25 0 C 7.757812 0.0820312 8.148438 0.125 8.421875 0.125 C 8.691406 0.125 8.816406 -0.0078125 8.796875 -0.28125 L 8.796875 -7.125 C 8.796875 -7.476562 8.78125 -7.882812 8.75 -8.34375 L 9.6875 -7.859375 L 9.328125 -7.578125 L 9.328125 0.046875 C 9.347656 0.503906 9.078125 0.828125 8.515625 1.015625 C 8.535156 0.742188 8.113281 0.472656 7.25 0.203125 Z M 7.25 0 "/>
</symbol>
<symbol overflow="visible" id="glyph1-5">
<path style="stroke:none;" d="M 3.46875 -0.953125 C 3.675781 -1.671875 3.785156 -2.722656 3.796875 -4.109375 C 3.816406 -5.492188 3.8125 -6.566406 3.78125 -7.328125 L 4.359375 -7 L 6.59375 -7 C 6.59375 -7.382812 6.375 -7.847656 5.9375 -8.390625 L 6.0625 -8.46875 C 6.601562 -8.164062 6.914062 -7.945312 7 -7.8125 C 7.082031 -7.675781 7.125 -7.566406 7.125 -7.484375 C 7.125 -7.347656 7.039062 -7.1875 6.875 -7 L 8.75 -7 L 9.203125 -7.453125 L 9.890625 -6.765625 L 4.3125 -6.765625 C 4.3125 -5.265625 4.304688 -4.117188 4.296875 -3.328125 C 4.285156 -2.546875 4.171875 -1.785156 3.953125 -1.046875 C 3.734375 -0.316406 3.269531 0.394531 2.5625 1.09375 L 2.484375 0.984375 C 2.941406 0.410156 3.269531 -0.234375 3.46875 -0.953125 Z M 5.90625 -4.1875 L 5.90625 -0.328125 C 5.90625 -0.140625 5.914062 0.210938 5.9375 0.734375 L 5.375 1.015625 C 5.40625 0.472656 5.421875 0.0390625 5.421875 -0.28125 L 5.421875 -4.15625 C 5.171875 -3.800781 4.859375 -3.445312 4.484375 -3.09375 L 4.359375 -3.171875 C 4.765625 -3.710938 5.09375 -4.296875 5.34375 -4.921875 C 5.601562 -5.546875 5.789062 -6.085938 5.90625 -6.546875 L 6.71875 -6.0625 L 6.34375 -5.90625 C 6.15625 -5.5 5.953125 -5.101562 5.734375 -4.71875 L 6.1875 -4.390625 Z M 6.875 0 C 7.5 0.0820312 7.898438 0.125 8.078125 0.125 C 8.253906 0.125 8.34375 0.03125 8.34375 -0.15625 L 8.34375 -4.28125 L 7.28125 -4.28125 L 6.71875 -4.1875 L 6.390625 -4.515625 L 8.34375 -4.515625 C 8.34375 -5.441406 8.332031 -6.09375 8.3125 -6.46875 L 9.15625 -6.0625 L 8.828125 -5.78125 L 8.828125 -4.515625 L 9.03125 -4.515625 L 9.40625 -4.890625 L 10.015625 -4.28125 L 8.828125 -4.28125 L 8.828125 0.125 C 8.828125 0.5 8.554688 0.785156 8.015625 0.984375 C 8.015625 0.679688 7.632812 0.40625 6.875 0.15625 Z M 6.59375 -3.578125 L 6.71875 -3.65625 C 7.34375 -3.039062 7.644531 -2.625 7.625 -2.40625 C 7.613281 -2.1875 7.550781 -2.039062 7.4375 -1.96875 C 7.332031 -1.90625 7.269531 -1.875 7.25 -1.875 C 7.164062 -1.875 7.109375 -1.992188 7.078125 -2.234375 C 7.023438 -2.566406 6.863281 -3.015625 6.59375 -3.578125 Z M 2.484375 -5.375 L 2.484375 -1.21875 C 2.484375 -0.8125 2.5 -0.226562 2.53125 0.53125 L 1.953125 0.859375 C 1.984375 0.148438 2 -0.421875 2 -0.859375 L 2 -5 C 1.613281 -4.320312 1.132812 -3.632812 0.5625 -2.9375 L 0.453125 -3.046875 C 1.128906 -4.160156 1.65625 -5.210938 2.03125 -6.203125 C 2.414062 -7.191406 2.648438 -7.90625 2.734375 -8.34375 L 3.546875 -7.8125 L 3.21875 -7.65625 C 2.945312 -7.0625 2.660156 -6.453125 2.359375 -5.828125 L 2.734375 -5.625 Z M 2.484375 -5.375 "/>
</symbol>
</g>
<clipPath id="clip1">
  <path d="M 4 0.25 L 44 0.25 L 44 40 L 4 40 Z M 4 0.25 "/>
</clipPath>
<clipPath id="clip2">
  <path d="M 60 0.25 L 100 0.25 L 100 40 L 60 40 Z M 60 0.25 "/>
</clipPath>
</defs>
<g id="surface1">
<g clip-path="url(#clip1)" clip-rule="nonzero">
<path style="fill:none;stroke-width:0.3985;stroke-linecap:butt;stroke-linejoin:miter;stroke:rgb(0%,0%,0%);stroke-opacity:1;stroke-miterlimit:10;" d="M -0.000790062 0.00180254 L 28.347626 0.00180254 L 28.347626 28.346281 Z M -0.000790062 0.00180254 " transform="matrix(0.991981,0,0,-0.991981,9.977346,33.505694)"/>
</g>
<g style="fill:rgb(0%,0%,0%);fill-opacity:1;">
  <use xlink:href="#glyph0-1" x="18.828794" y="43.887769"/>
  <use xlink:href="#glyph0-2" x="24.036695" y="43.887769"/>
</g>
<g style="fill:rgb(0%,0%,0%);fill-opacity:1;">
  <use xlink:href="#glyph0-1" x="41.766374" y="22.802218"/>
  <use xlink:href="#glyph0-2" x="46.974275" y="22.802218"/>
</g>
<g style="fill:rgb(0%,0%,0%);fill-opacity:1;">
  <use xlink:href="#glyph1-1" x="8.412992" y="65.327457"/>
  <use xlink:href="#glyph1-2" x="18.828794" y="65.327457"/>
  <use xlink:href="#glyph1-3" x="29.244596" y="65.327457"/>
</g>
<g clip-path="url(#clip2)" clip-rule="nonzero">
<path style="fill:none;stroke-width:0.3985;stroke-linecap:butt;stroke-linejoin:miter;stroke:rgb(0%,0%,0%);stroke-opacity:1;stroke-miterlimit:10;" d="M 56.692104 0.00180254 L 85.04052 0.00180254 L 70.868281 28.346281 Z M 56.692104 0.00180254 " transform="matrix(0.991981,0,0,-0.991981,9.977346,33.505694)"/>
</g>
<g style="fill:rgb(0%,0%,0%);fill-opacity:1;">
  <use xlink:href="#glyph0-1" x="75.068172" y="43.887769"/>
  <use xlink:href="#glyph0-2" x="80.276073" y="43.887769"/>
</g>
<g style="fill:rgb(0%,0%,0%);fill-opacity:1;">
  <use xlink:href="#glyph1-4" x="64.65237" y="65.327457"/>
  <use xlink:href="#glyph1-2" x="75.068172" y="65.327457"/>
  <use xlink:href="#glyph1-3" x="85.483974" y="65.327457"/>
</g>
<path style="fill:none;stroke-width:0.3985;stroke-linecap:butt;stroke-linejoin:miter;stroke:rgb(0%,0%,0%);stroke-opacity:1;stroke-miterlimit:10;" d="M -0.000790062 -85.039507 L 28.347626 -85.039507 L 28.347626 -56.695029 L -0.000790062 -56.695029 Z M -0.000790062 -85.039507 " transform="matrix(0.991981,0,0,-0.991981,9.977346,33.505694)"/>
<g style="fill:rgb(0%,0%,0%);fill-opacity:1;">
  <use xlink:href="#glyph0-1" x="18.828794" y="128.245844"/>
  <use xlink:href="#glyph0-2" x="24.036695" y="128.245844"/>
</g>
<g style="fill:rgb(0%,0%,0%);fill-opacity:1;">
  <use xlink:href="#glyph0-3" x="41.766374" y="107.160293"/>
  <use xlink:href="#glyph0-2" x="46.974275" y="107.160293"/>
</g>
<g style="fill:rgb(0%,0%,0%);fill-opacity:1;">
  <use xlink:href="#glyph0-3" x="41.766374" y="100.131115"/>
  <use xlink:href="#glyph0-2" x="46.974275" y="100.131115"/>
</g>
<g style="fill:rgb(0%,0%,0%);fill-opacity:1;">
  <use xlink:href="#glyph1-5" x="8.412992" y="149.665693"/>
  <use xlink:href="#glyph1-2" x="18.828794" y="149.665693"/>
  <use xlink:href="#glyph1-3" x="29.244596" y="149.665693"/>
</g>
</g>
</svg>
