<?xml version="1.0" encoding="UTF-8"?>
<svg xmlns="http://www.w3.org/2000/svg" xmlns:xlink="http://www.w3.org/1999/xlink" width="89.54pt" height="91.91pt" viewBox="0 0 89.54 91.91" version="1.2">
<defs>
<g>
<symbol overflow="visible" id="glyph0-0">
<path style="stroke:none;" d=""/>
</symbol>
<symbol overflow="visible" id="glyph0-1">
<path style="stroke:none;" d="M 3.390625 -2.140625 C 3.140625 -2.0625 3.140625 -1.828125 3.140625 -1.828125 C 3.140625 -1.734375 3.203125 -1.59375 3.390625 -1.59375 C 3.546875 -1.59375 3.734375 -1.734375 3.734375 -1.96875 C 3.734375 -2.296875 3.375 -2.421875 3.078125 -2.421875 C 2.71875 -2.421875 2.5 -2.1875 2.390625 -2.046875 C 2.203125 -2.359375 1.859375 -2.421875 1.65625 -2.421875 C 0.96875 -2.421875 0.578125 -1.765625 0.578125 -1.5625 C 0.578125 -1.5 0.671875 -1.5 0.703125 -1.5 C 0.75 -1.5 0.796875 -1.5 0.8125 -1.5625 C 0.984375 -2.09375 1.421875 -2.234375 1.640625 -2.234375 C 1.8125 -2.234375 2.03125 -2.15625 2.03125 -1.859375 C 2.03125 -1.734375 1.921875 -1.34375 1.734375 -0.625 C 1.65625 -0.3125 1.40625 -0.125 1.171875 -0.125 C 1.125 -0.125 0.96875 -0.125 0.84375 -0.21875 C 1.09375 -0.296875 1.09375 -0.515625 1.09375 -0.53125 C 1.09375 -0.6875 0.96875 -0.765625 0.84375 -0.765625 C 0.71875 -0.765625 0.515625 -0.65625 0.515625 -0.390625 C 0.515625 -0.0625 0.875 0.0625 1.15625 0.0625 C 1.453125 0.0625 1.703125 -0.109375 1.84375 -0.3125 C 2.0625 0.015625 2.40625 0.0625 2.578125 0.0625 C 3.265625 0.0625 3.65625 -0.59375 3.65625 -0.78125 C 3.65625 -0.859375 3.5625 -0.859375 3.53125 -0.859375 C 3.453125 -0.859375 3.4375 -0.828125 3.421875 -0.78125 C 3.265625 -0.296875 2.84375 -0.125 2.59375 -0.125 C 2.4375 -0.125 2.203125 -0.1875 2.203125 -0.5 C 2.203125 -0.5625 2.203125 -0.59375 2.25 -0.78125 C 2.34375 -1.171875 2.5 -1.765625 2.53125 -1.875 C 2.609375 -2.015625 2.796875 -2.234375 3.0625 -2.234375 C 3.078125 -2.234375 3.265625 -2.234375 3.390625 -2.140625 Z M 3.390625 -2.140625 "/>
</symbol>
<symbol overflow="visible" id="glyph0-2">
<path style="stroke:none;" d="M 3.625 -2.046875 C 3.640625 -2.125 3.640625 -2.15625 3.640625 -2.171875 C 3.640625 -2.28125 3.546875 -2.359375 3.4375 -2.359375 C 3.21875 -2.359375 3.171875 -2.171875 3.140625 -2.015625 L 3.03125 -1.5625 L 2.859375 -0.875 C 2.828125 -0.8125 2.8125 -0.6875 2.796875 -0.65625 C 2.796875 -0.640625 2.5 -0.125 2.03125 -0.125 C 1.78125 -0.125 1.59375 -0.25 1.59375 -0.59375 C 1.59375 -0.890625 1.75 -1.296875 1.90625 -1.6875 C 1.9375 -1.75 1.96875 -1.84375 1.96875 -1.9375 C 1.96875 -2.203125 1.71875 -2.421875 1.375 -2.421875 C 0.796875 -2.421875 0.5 -1.71875 0.5 -1.5625 C 0.5 -1.5 0.578125 -1.5 0.609375 -1.5 C 0.703125 -1.5 0.71875 -1.515625 0.734375 -1.609375 C 0.859375 -1.984375 1.109375 -2.234375 1.359375 -2.234375 C 1.453125 -2.234375 1.515625 -2.171875 1.515625 -2.03125 C 1.515625 -1.921875 1.484375 -1.84375 1.453125 -1.734375 C 1.1875 -1.09375 1.125 -0.890625 1.125 -0.671875 C 1.125 -0.0625 1.640625 0.0625 2 0.0625 C 2.3125 0.0625 2.546875 -0.09375 2.6875 -0.203125 C 2.609375 0.09375 2.546875 0.34375 2.296875 0.609375 C 2.171875 0.734375 1.90625 0.9375 1.5625 0.9375 C 1.46875 0.9375 1.265625 0.921875 1.140625 0.796875 C 1.390625 0.75 1.421875 0.53125 1.421875 0.46875 C 1.421875 0.3125 1.296875 0.25 1.171875 0.25 C 1.015625 0.25 0.828125 0.390625 0.828125 0.640625 C 0.828125 0.90625 1.109375 1.125 1.5625 1.125 C 2.1875 1.125 2.9375 0.703125 3.109375 0 Z M 3.625 -2.046875 "/>
</symbol>
</g>
<clipPath id="clip1">
  <path d="M 10 10 L 79 10 L 79 91.628906 L 10 91.628906 Z M 10 10 "/>
</clipPath>
</defs>
<g id="surface1">
<path style="fill:none;stroke-width:0.3985;stroke-linecap:butt;stroke-linejoin:miter;stroke:rgb(0%,0%,0%);stroke-opacity:1;stroke-miterlimit:10;" d="M -28.348187 0.000168165 L 44.956167 0.000168165 " transform="matrix(0.994889,0,0,-0.994889,33.35564,27.254074)"/>
<path style="fill:none;stroke-width:0.3985;stroke-linecap:round;stroke-linejoin:round;stroke:rgb(0%,0%,0%);stroke-opacity:1;stroke-miterlimit:10;" d="M -2.071626 2.391296 C -1.6947 0.95819 -0.850541 0.278937 0.00146965 0.000168165 C -0.850541 -0.2786 -1.6947 -0.957853 -2.071626 -2.390959 " transform="matrix(0.994889,0,0,-0.994889,78.279788,27.254074)"/>
<g style="fill:rgb(0%,0%,0%);fill-opacity:1;">
  <use xlink:href="#glyph0-1" x="76.311957" y="33.290064"/>
</g>
<path style="fill:none;stroke-width:0.3985;stroke-linecap:butt;stroke-linejoin:miter;stroke:rgb(0%,0%,0%);stroke-opacity:1;stroke-miterlimit:10;" d="M -0.000171906 -56.691935 L -0.000171906 16.608493 " transform="matrix(0.994889,0,0,-0.994889,33.35564,27.254074)"/>
<path style="fill:none;stroke-width:0.3985;stroke-linecap:round;stroke-linejoin:round;stroke:rgb(0%,0%,0%);stroke-opacity:1;stroke-miterlimit:10;" d="M -2.072921 2.391299 C -1.692068 0.958193 -0.851836 0.27894 0.000174867 0.000171906 C -0.851836 -0.278597 -1.692068 -0.95785 -2.072921 -2.390956 " transform="matrix(0,-0.994889,-0.994889,0,33.35564,10.531424)"/>
<g style="fill:rgb(0%,0%,0%);fill-opacity:1;">
  <use xlink:href="#glyph0-2" x="37.035734" y="10.979681"/>
</g>
<g clip-path="url(#clip1)" clip-rule="nonzero">
<path style="fill:none;stroke-width:0.3985;stroke-linecap:butt;stroke-linejoin:miter;stroke:rgb(0%,0%,0%);stroke-opacity:1;stroke-miterlimit:10;" d="M -17.008981 -59.526737 L -14.645337 -48.207162 L -12.281694 -37.873094 L -9.921977 -28.524531 L -7.558334 -20.157548 L -5.198617 -12.77607 L -2.834973 -6.380098 L -0.47133 -0.965706 L 1.888387 3.463181 L 4.25203 6.910488 L 6.611747 9.368363 L 8.975391 10.844658 L 11.339034 11.339374 L 13.698751 10.848584 L 16.062394 9.372289 L 18.426038 6.910488 L 20.785755 3.467107 L 23.149398 -0.96178 L 25.509115 -6.376172 L 27.872758 -12.772144 L 30.236402 -20.153621 L 32.596119 -28.520605 L 34.959762 -37.869167 L 37.319479 -48.203236 L 39.683123 -59.518884 " transform="matrix(0.994889,0,0,-0.994889,33.35564,27.254074)"/>
</g>
<path style="fill:none;stroke-width:0.3985;stroke-linecap:butt;stroke-linejoin:miter;stroke:rgb(0%,0%,0%);stroke-opacity:1;stroke-miterlimit:10;" d="M -11.339378 -8.504236 L -9.450819 -8.033078 L -7.558334 -7.557994 L -3.781216 -6.615677 L -1.888731 -6.140593 L 1.888387 -5.198277 L 3.776946 -4.723192 L 5.669431 -4.252034 L 7.55799 -3.780876 L 9.446549 -3.305791 L 11.339034 -2.834633 L 13.227593 -2.363475 L 15.116152 -1.888391 L 17.004711 -1.417233 L 18.897196 -0.946074 L 20.785755 -0.474916 L 22.674314 0.000168165 L 24.562873 0.471326 L 26.455358 0.942484 L 28.343917 1.417569 L 30.232476 1.888727 L 32.124961 2.359885 L 34.01352 2.83497 " transform="matrix(0.994889,0,0,-0.994889,33.35564,27.254074)"/>
</g>
</svg>
