<?xml version="1.0" encoding="UTF-8"?>
<svg xmlns="http://www.w3.org/2000/svg" xmlns:xlink="http://www.w3.org/1999/xlink" width="154.09pt" height="112.41pt" viewBox="0 0 154.09 112.41" version="1.2">
<defs>
<clipPath id="clip1">
  <path d="M 56 0.0351562 L 97 0.0351562 L 97 39 L 56 39 Z M 56 0.0351562 "/>
</clipPath>
<clipPath id="clip2">
  <path d="M 140 12 L 153.183594 12 L 153.183594 26 L 140 26 Z M 140 12 "/>
</clipPath>
<clipPath id="clip3">
  <path d="M 140 40 L 153.183594 40 L 153.183594 55 L 140 55 Z M 140 40 "/>
</clipPath>
<clipPath id="clip4">
  <path d="M 140 54 L 153.183594 54 L 153.183594 69 L 140 69 Z M 140 54 "/>
</clipPath>
<clipPath id="clip5">
  <path d="M 140 69 L 153.183594 69 L 153.183594 83 L 140 83 Z M 140 69 "/>
</clipPath>
<clipPath id="clip6">
  <path d="M 140 83 L 153.183594 83 L 153.183594 97 L 140 97 Z M 140 83 "/>
</clipPath>
<clipPath id="clip7">
  <path d="M 140 97 L 153.183594 97 L 153.183594 111 L 140 111 Z M 140 97 "/>
</clipPath>
</defs>
<g id="surface1">
<path style="fill-rule:nonzero;fill:rgb(0%,0%,0%);fill-opacity:1;stroke-width:0.3985;stroke-linecap:butt;stroke-linejoin:miter;stroke:rgb(0%,0%,0%);stroke-opacity:1;stroke-miterlimit:10;" d="M 0.997936 0.00173768 C 0.997936 0.551842 0.549994 0.995855 -0.000110682 0.995855 C -0.550215 0.995855 -0.998158 0.551842 -0.998158 0.00173768 C -0.998158 -0.548367 -0.550215 -0.996309 -0.000110682 -0.996309 C 0.549994 -0.996309 0.997936 -0.548367 0.997936 0.00173768 Z M -0.000110682 0.00173768 L 56.692102 0.00173768 " transform="matrix(0.994129,0,0,-0.994129,6.140735,19.279071)"/>
<g clip-path="url(#clip1)" clip-rule="nonzero">
<path style="fill:none;stroke-width:0.3985;stroke-linecap:butt;stroke-linejoin:miter;stroke:rgb(0%,0%,0%);stroke-opacity:1;stroke-miterlimit:10;" d="M 85.042138 0.00173768 C 85.042138 7.828941 78.696288 14.174791 70.865156 14.174791 C 63.037953 14.174791 56.692102 7.828941 56.692102 0.00173768 C 56.692102 -7.829395 63.037953 -14.175245 70.865156 -14.175245 C 78.696288 -14.175245 85.042138 -7.829395 85.042138 0.00173768 Z M 85.042138 0.00173768 " transform="matrix(0.994129,0,0,-0.994129,6.140735,19.279071)"/>
</g>
<path style="fill:none;stroke-width:0.3985;stroke-linecap:butt;stroke-linejoin:miter;stroke:rgb(0%,0%,0%);stroke-opacity:1;stroke-miterlimit:10;" d="M 79.372131 0.00173768 C 79.372131 4.697274 75.564621 8.504784 70.865156 8.504784 C 66.16962 8.504784 62.36211 4.697274 62.36211 0.00173768 C 62.36211 -4.697728 66.16962 -8.505238 70.865156 -8.505238 C 75.564621 -8.505238 79.372131 -4.697728 79.372131 0.00173768 Z M 79.372131 0.00173768 " transform="matrix(0.994129,0,0,-0.994129,6.140735,19.279071)"/>
<path style="fill-rule:nonzero;fill:rgb(0%,0%,0%);fill-opacity:1;stroke-width:0.3985;stroke-linecap:butt;stroke-linejoin:miter;stroke:rgb(0%,0%,0%);stroke-opacity:1;stroke-miterlimit:10;" d="M 71.863203 0.00173768 C 71.863203 0.551842 71.41919 0.995855 70.865156 0.995855 C 70.315051 0.995855 69.871038 0.551842 69.871038 0.00173768 C 69.871038 -0.548367 70.315051 -0.996309 70.865156 -0.996309 C 71.41919 -0.996309 71.863203 -0.548367 71.863203 0.00173768 Z M 71.863203 0.00173768 " transform="matrix(0.994129,0,0,-0.994129,6.140735,19.279071)"/>
<path style="fill:none;stroke-width:0.3985;stroke-linecap:butt;stroke-linejoin:miter;stroke:rgb(0%,0%,0%);stroke-opacity:1;stroke-miterlimit:10;" d="M 85.042138 0.00173768 L 141.734352 0.00173768 " transform="matrix(0.994129,0,0,-0.994129,6.140735,19.279071)"/>
<path style=" stroke:none;fill-rule:nonzero;fill:rgb(0%,0%,0%);fill-opacity:1;" d="M 148.03125 19.277344 C 148.03125 18.730469 147.589844 18.289062 147.042969 18.289062 C 146.496094 18.289062 146.050781 18.730469 146.050781 19.277344 C 146.050781 19.824219 146.496094 20.269531 147.042969 20.269531 C 147.589844 20.269531 148.03125 19.824219 148.03125 19.277344 Z M 148.03125 19.277344 "/>
<g clip-path="url(#clip2)" clip-rule="nonzero">
<path style="fill:none;stroke-width:0.3985;stroke-linecap:butt;stroke-linejoin:miter;stroke:rgb(0%,0%,0%);stroke-opacity:1;stroke-miterlimit:10;" d="M 142.728469 0.00173768 C 142.728469 0.551842 142.284456 0.995855 141.734352 0.995855 C 141.184247 0.995855 140.736305 0.551842 140.736305 0.00173768 C 140.736305 -0.548367 141.184247 -0.996309 141.734352 -0.996309 C 142.284456 -0.996309 142.728469 -0.548367 142.728469 0.00173768 Z M 142.728469 0.00173768 " transform="matrix(0.994129,0,0,-0.994129,6.140735,19.279071)"/>
</g>
<path style="fill-rule:nonzero;fill:rgb(0%,0%,0%);fill-opacity:1;stroke-width:0.3985;stroke-linecap:butt;stroke-linejoin:miter;stroke:rgb(0%,0%,0%);stroke-opacity:1;stroke-miterlimit:10;" d="M 0.997936 -28.348298 C 0.997936 -27.798194 0.549994 -27.350251 -0.000110682 -27.350251 C -0.550215 -27.350251 -0.998158 -27.798194 -0.998158 -28.348298 C -0.998158 -28.898403 -0.550215 -29.342416 -0.000110682 -29.342416 C 0.549994 -29.342416 0.997936 -28.898403 0.997936 -28.348298 Z M -0.000110682 -28.348298 L 56.692102 -28.348298 " transform="matrix(0.994129,0,0,-0.994129,6.140735,19.279071)"/>
<path style="fill:none;stroke-width:0.3985;stroke-linecap:butt;stroke-linejoin:miter;stroke:rgb(0%,0%,0%);stroke-opacity:1;stroke-miterlimit:10;" d="M 56.692102 -31.181337 L 56.692102 -25.51133 L 85.042138 -25.51133 L 85.042138 -31.181337 Z M 56.692102 -31.181337 " transform="matrix(0.994129,0,0,-0.994129,6.140735,19.279071)"/>
<path style="fill:none;stroke-width:0.3985;stroke-linecap:butt;stroke-linejoin:miter;stroke:rgb(0%,0%,0%);stroke-opacity:1;stroke-miterlimit:10;" d="M 85.042138 -28.348298 L 141.734352 -28.348298 " transform="matrix(0.994129,0,0,-0.994129,6.140735,19.279071)"/>
<path style=" stroke:none;fill-rule:nonzero;fill:rgb(0%,0%,0%);fill-opacity:1;" d="M 148.03125 47.460938 C 148.03125 46.914062 147.589844 46.46875 147.042969 46.46875 C 146.496094 46.46875 146.050781 46.914062 146.050781 47.460938 C 146.050781 48.007812 146.496094 48.449219 147.042969 48.449219 C 147.589844 48.449219 148.03125 48.007812 148.03125 47.460938 Z M 148.03125 47.460938 "/>
<g clip-path="url(#clip3)" clip-rule="nonzero">
<path style="fill:none;stroke-width:0.3985;stroke-linecap:butt;stroke-linejoin:miter;stroke:rgb(0%,0%,0%);stroke-opacity:1;stroke-miterlimit:10;" d="M 142.728469 -28.348298 C 142.728469 -27.798194 142.284456 -27.350251 141.734352 -27.350251 C 141.184247 -27.350251 140.736305 -27.798194 140.736305 -28.348298 C 140.736305 -28.898403 141.184247 -29.342416 141.734352 -29.342416 C 142.284456 -29.342416 142.728469 -28.898403 142.728469 -28.348298 Z M 142.728469 -28.348298 " transform="matrix(0.994129,0,0,-0.994129,6.140735,19.279071)"/>
</g>
<path style="fill-rule:nonzero;fill:rgb(0%,0%,0%);fill-opacity:1;stroke-width:0.3985;stroke-linecap:butt;stroke-linejoin:miter;stroke:rgb(0%,0%,0%);stroke-opacity:1;stroke-miterlimit:10;" d="M 0.997936 -42.521352 C 0.997936 -41.971247 0.549994 -41.523305 -0.000110682 -41.523305 C -0.550215 -41.523305 -0.998158 -41.971247 -0.998158 -42.521352 C -0.998158 -43.071456 -0.550215 -43.515469 -0.000110682 -43.515469 C 0.549994 -43.515469 0.997936 -43.071456 0.997936 -42.521352 Z M -0.000110682 -42.521352 L 56.692102 -42.521352 " transform="matrix(0.994129,0,0,-0.994129,6.140735,19.279071)"/>
<path style="fill:none;stroke-width:0.3985;stroke-linecap:butt;stroke-linejoin:miter;stroke:rgb(0%,0%,0%);stroke-opacity:1;stroke-miterlimit:10;" d="M 56.692102 -45.35439 L 56.692102 -39.684383 L 85.042138 -39.684383 L 85.042138 -45.35439 Z M 56.692102 -45.35439 " transform="matrix(0.994129,0,0,-0.994129,6.140735,19.279071)"/>
<path style="fill:none;stroke-width:0.3985;stroke-linecap:butt;stroke-linejoin:miter;stroke:rgb(0%,0%,0%);stroke-opacity:1;stroke-miterlimit:10;" d="M 85.042138 -42.521352 L 141.734352 -42.521352 " transform="matrix(0.994129,0,0,-0.994129,6.140735,19.279071)"/>
<path style=" stroke:none;fill-rule:nonzero;fill:rgb(0%,0%,0%);fill-opacity:1;" d="M 148.03125 61.550781 C 148.03125 61.003906 147.589844 60.558594 147.042969 60.558594 C 146.496094 60.558594 146.050781 61.003906 146.050781 61.550781 C 146.050781 62.097656 146.496094 62.539062 147.042969 62.539062 C 147.589844 62.539062 148.03125 62.097656 148.03125 61.550781 Z M 148.03125 61.550781 "/>
<g clip-path="url(#clip4)" clip-rule="nonzero">
<path style="fill:none;stroke-width:0.3985;stroke-linecap:butt;stroke-linejoin:miter;stroke:rgb(0%,0%,0%);stroke-opacity:1;stroke-miterlimit:10;" d="M 142.728469 -42.521352 C 142.728469 -41.971247 142.284456 -41.523305 141.734352 -41.523305 C 141.184247 -41.523305 140.736305 -41.971247 140.736305 -42.521352 C 140.736305 -43.071456 141.184247 -43.515469 141.734352 -43.515469 C 142.284456 -43.515469 142.728469 -43.071456 142.728469 -42.521352 Z M 142.728469 -42.521352 " transform="matrix(0.994129,0,0,-0.994129,6.140735,19.279071)"/>
</g>
<path style="fill-rule:nonzero;fill:rgb(0%,0%,0%);fill-opacity:1;stroke-width:0.3985;stroke-linecap:butt;stroke-linejoin:miter;stroke:rgb(0%,0%,0%);stroke-opacity:1;stroke-miterlimit:10;" d="M 0.997936 -56.694405 C 0.997936 -56.1443 0.549994 -55.696358 -0.000110682 -55.696358 C -0.550215 -55.696358 -0.998158 -56.1443 -0.998158 -56.694405 C -0.998158 -57.244509 -0.550215 -57.688522 -0.000110682 -57.688522 C 0.549994 -57.688522 0.997936 -57.244509 0.997936 -56.694405 Z M -0.000110682 -56.694405 L 56.692102 -56.694405 " transform="matrix(0.994129,0,0,-0.994129,6.140735,19.279071)"/>
<path style="fill:none;stroke-width:0.3985;stroke-linecap:butt;stroke-linejoin:miter;stroke:rgb(0%,0%,0%);stroke-opacity:1;stroke-miterlimit:10;" d="M 56.692102 -59.527444 L 56.692102 -53.857437 L 85.042138 -53.857437 L 85.042138 -59.527444 Z M 56.692102 -59.527444 " transform="matrix(0.994129,0,0,-0.994129,6.140735,19.279071)"/>
<path style="fill:none;stroke-width:0.3985;stroke-linecap:butt;stroke-linejoin:miter;stroke:rgb(0%,0%,0%);stroke-opacity:1;stroke-miterlimit:10;" d="M 85.042138 -56.694405 L 141.734352 -56.694405 " transform="matrix(0.994129,0,0,-0.994129,6.140735,19.279071)"/>
<path style=" stroke:none;fill-rule:nonzero;fill:rgb(0%,0%,0%);fill-opacity:1;" d="M 148.03125 75.640625 C 148.03125 75.09375 147.589844 74.648438 147.042969 74.648438 C 146.496094 74.648438 146.050781 75.09375 146.050781 75.640625 C 146.050781 76.1875 146.496094 76.628906 147.042969 76.628906 C 147.589844 76.628906 148.03125 76.1875 148.03125 75.640625 Z M 148.03125 75.640625 "/>
<g clip-path="url(#clip5)" clip-rule="nonzero">
<path style="fill:none;stroke-width:0.3985;stroke-linecap:butt;stroke-linejoin:miter;stroke:rgb(0%,0%,0%);stroke-opacity:1;stroke-miterlimit:10;" d="M 142.728469 -56.694405 C 142.728469 -56.1443 142.284456 -55.696358 141.734352 -55.696358 C 141.184247 -55.696358 140.736305 -56.1443 140.736305 -56.694405 C 140.736305 -57.244509 141.184247 -57.688522 141.734352 -57.688522 C 142.284456 -57.688522 142.728469 -57.244509 142.728469 -56.694405 Z M 142.728469 -56.694405 " transform="matrix(0.994129,0,0,-0.994129,6.140735,19.279071)"/>
</g>
<path style="fill-rule:nonzero;fill:rgb(0%,0%,0%);fill-opacity:1;stroke-width:0.3985;stroke-linecap:butt;stroke-linejoin:miter;stroke:rgb(0%,0%,0%);stroke-opacity:1;stroke-miterlimit:10;" d="M 0.997936 -70.867458 C 0.997936 -70.317353 0.549994 -69.869411 -0.000110682 -69.869411 C -0.550215 -69.869411 -0.998158 -70.317353 -0.998158 -70.867458 C -0.998158 -71.417563 -0.550215 -71.861576 -0.000110682 -71.861576 C 0.549994 -71.861576 0.997936 -71.417563 0.997936 -70.867458 Z M -0.000110682 -70.867458 L 56.692102 -70.867458 " transform="matrix(0.994129,0,0,-0.994129,6.140735,19.279071)"/>
<path style="fill:none;stroke-width:0.3985;stroke-linecap:butt;stroke-linejoin:miter;stroke:rgb(0%,0%,0%);stroke-opacity:1;stroke-miterlimit:10;" d="M 56.692102 -73.700497 L 56.692102 -68.03049 L 85.042138 -68.03049 L 85.042138 -73.700497 Z M 56.692102 -73.700497 " transform="matrix(0.994129,0,0,-0.994129,6.140735,19.279071)"/>
<path style="fill:none;stroke-width:0.3985;stroke-linecap:butt;stroke-linejoin:miter;stroke:rgb(0%,0%,0%);stroke-opacity:1;stroke-miterlimit:10;" d="M 85.042138 -70.867458 L 141.734352 -70.867458 " transform="matrix(0.994129,0,0,-0.994129,6.140735,19.279071)"/>
<path style=" stroke:none;fill-rule:nonzero;fill:rgb(0%,0%,0%);fill-opacity:1;" d="M 148.03125 89.730469 C 148.03125 89.183594 147.589844 88.738281 147.042969 88.738281 C 146.496094 88.738281 146.050781 89.183594 146.050781 89.730469 C 146.050781 90.277344 146.496094 90.71875 147.042969 90.71875 C 147.589844 90.71875 148.03125 90.277344 148.03125 89.730469 Z M 148.03125 89.730469 "/>
<g clip-path="url(#clip6)" clip-rule="nonzero">
<path style="fill:none;stroke-width:0.3985;stroke-linecap:butt;stroke-linejoin:miter;stroke:rgb(0%,0%,0%);stroke-opacity:1;stroke-miterlimit:10;" d="M 142.728469 -70.867458 C 142.728469 -70.317353 142.284456 -69.869411 141.734352 -69.869411 C 141.184247 -69.869411 140.736305 -70.317353 140.736305 -70.867458 C 140.736305 -71.417563 141.184247 -71.861576 141.734352 -71.861576 C 142.284456 -71.861576 142.728469 -71.417563 142.728469 -70.867458 Z M 142.728469 -70.867458 " transform="matrix(0.994129,0,0,-0.994129,6.140735,19.279071)"/>
</g>
<path style="fill-rule:nonzero;fill:rgb(0%,0%,0%);fill-opacity:1;stroke-width:0.3985;stroke-linecap:butt;stroke-linejoin:miter;stroke:rgb(0%,0%,0%);stroke-opacity:1;stroke-miterlimit:10;" d="M 0.997936 -85.040511 C 0.997936 -84.490407 0.549994 -84.042464 -0.000110682 -84.042464 C -0.550215 -84.042464 -0.998158 -84.490407 -0.998158 -85.040511 C -0.998158 -85.590616 -0.550215 -86.038558 -0.000110682 -86.038558 C 0.549994 -86.038558 0.997936 -85.590616 0.997936 -85.040511 Z M -0.000110682 -85.040511 L 56.692102 -85.040511 " transform="matrix(0.994129,0,0,-0.994129,6.140735,19.279071)"/>
<path style="fill:none;stroke-width:0.3985;stroke-linecap:butt;stroke-linejoin:miter;stroke:rgb(0%,0%,0%);stroke-opacity:1;stroke-miterlimit:10;" d="M 56.692102 -87.87355 L 56.692102 -82.207472 L 85.042138 -82.207472 L 85.042138 -87.87355 Z M 56.692102 -87.87355 " transform="matrix(0.994129,0,0,-0.994129,6.140735,19.279071)"/>
<path style="fill:none;stroke-width:0.3985;stroke-linecap:butt;stroke-linejoin:miter;stroke:rgb(0%,0%,0%);stroke-opacity:1;stroke-miterlimit:10;" d="M 85.042138 -85.040511 L 141.734352 -85.040511 " transform="matrix(0.994129,0,0,-0.994129,6.140735,19.279071)"/>
<path style=" stroke:none;fill-rule:nonzero;fill:rgb(0%,0%,0%);fill-opacity:1;" d="M 148.03125 103.820312 C 148.03125 103.273438 147.589844 102.828125 147.042969 102.828125 C 146.496094 102.828125 146.050781 103.273438 146.050781 103.820312 C 146.050781 104.367188 146.496094 104.8125 147.042969 104.8125 C 147.589844 104.8125 148.03125 104.367188 148.03125 103.820312 Z M 148.03125 103.820312 "/>
<g clip-path="url(#clip7)" clip-rule="nonzero">
<path style="fill:none;stroke-width:0.3985;stroke-linecap:butt;stroke-linejoin:miter;stroke:rgb(0%,0%,0%);stroke-opacity:1;stroke-miterlimit:10;" d="M 142.728469 -85.040511 C 142.728469 -84.490407 142.284456 -84.042464 141.734352 -84.042464 C 141.184247 -84.042464 140.736305 -84.490407 140.736305 -85.040511 C 140.736305 -85.590616 141.184247 -86.038558 141.734352 -86.038558 C 142.284456 -86.038558 142.728469 -85.590616 142.728469 -85.040511 Z M 142.728469 -85.040511 " transform="matrix(0.994129,0,0,-0.994129,6.140735,19.279071)"/>
</g>
</g>
</svg>
