<?xml version="1.0" encoding="UTF-8"?>
<svg xmlns="http://www.w3.org/2000/svg" xmlns:xlink="http://www.w3.org/1999/xlink" width="310.04pt" height="86.57pt" viewBox="0 0 310.04 86.57" version="1.2">
<g id="surface1">
<path style="fill:none;stroke-width:0.3985;stroke-linecap:butt;stroke-linejoin:miter;stroke:rgb(0%,0%,0%);stroke-opacity:1;stroke-miterlimit:10;" d="M 0.00136326 -0.00111774 L 0.00136326 68.030443 L 141.733127 68.030443 L 141.733127 -0.00111774 Z M 0.00136326 -0.00111774 " transform="matrix(0.995057,0,0,-0.995057,5.443956,74.022325)"/>
<path style="fill:none;stroke-width:0.3985;stroke-linecap:butt;stroke-linejoin:miter;stroke:rgb(0%,0%,0%);stroke-opacity:1;stroke-dasharray:2.98883,2.98883;stroke-miterlimit:10;" d="M 0.00136326 11.340093 L 11.338648 11.340093 L 11.338648 -0.00111774 " transform="matrix(0.995057,0,0,-0.995057,5.443956,74.022325)"/>
<path style="fill:none;stroke-width:0.3985;stroke-linecap:butt;stroke-linejoin:miter;stroke:rgb(0%,0%,0%);stroke-opacity:1;stroke-dasharray:2.98883,2.98883;stroke-miterlimit:10;" d="M 130.395842 -0.00111774 L 130.395842 11.340093 L 141.733127 11.340093 " transform="matrix(0.995057,0,0,-0.995057,5.443956,74.022325)"/>
<path style="fill:none;stroke-width:0.3985;stroke-linecap:butt;stroke-linejoin:miter;stroke:rgb(0%,0%,0%);stroke-opacity:1;stroke-dasharray:2.98883,2.98883;stroke-miterlimit:10;" d="M 0.00136326 56.693158 L 11.338648 56.693158 L 11.338648 68.030443 " transform="matrix(0.995057,0,0,-0.995057,5.443956,74.022325)"/>
<path style="fill:none;stroke-width:0.3985;stroke-linecap:butt;stroke-linejoin:miter;stroke:rgb(0%,0%,0%);stroke-opacity:1;stroke-dasharray:2.98883,2.98883;stroke-miterlimit:10;" d="M 130.395842 68.030443 L 130.395842 56.693158 L 141.733127 56.693158 " transform="matrix(0.995057,0,0,-0.995057,5.443956,74.022325)"/>
<path style="fill:none;stroke-width:0.3985;stroke-linecap:butt;stroke-linejoin:miter;stroke:rgb(0%,0%,0%);stroke-opacity:1;stroke-miterlimit:10;" d="M 170.080264 -0.00111774 L 238.111825 -0.00111774 L 292.678397 54.565454 L 292.678397 65.906665 L 224.646836 65.906665 L 170.080264 11.340093 Z M 170.080264 -0.00111774 " transform="matrix(0.995057,0,0,-0.995057,5.443956,74.022325)"/>
<path style="fill:none;stroke-width:0.3985;stroke-linecap:butt;stroke-linejoin:miter;stroke:rgb(0%,0%,0%);stroke-opacity:1;stroke-miterlimit:10;" d="M 170.080264 11.340093 L 238.111825 11.340093 L 292.678397 65.906665 " transform="matrix(0.995057,0,0,-0.995057,5.443956,74.022325)"/>
<path style="fill:none;stroke-width:0.3985;stroke-linecap:butt;stroke-linejoin:miter;stroke:rgb(0%,0%,0%);stroke-opacity:1;stroke-miterlimit:10;" d="M 238.111825 11.340093 L 238.111825 -0.00111774 " transform="matrix(0.995057,0,0,-0.995057,5.443956,74.022325)"/>
<path style="fill:none;stroke-width:0.3985;stroke-linecap:butt;stroke-linejoin:miter;stroke:rgb(0%,0%,0%);stroke-opacity:1;stroke-dasharray:2.98883,2.98883;stroke-miterlimit:10;" d="M 170.080264 -0.00111774 L 224.646836 54.565454 L 292.678397 54.565454 " transform="matrix(0.995057,0,0,-0.995057,5.443956,74.022325)"/>
<path style="fill:none;stroke-width:0.3985;stroke-linecap:butt;stroke-linejoin:miter;stroke:rgb(0%,0%,0%);stroke-opacity:1;stroke-dasharray:2.98883,2.98883;stroke-miterlimit:10;" d="M 224.646836 54.565454 L 224.646836 65.906665 " transform="matrix(0.995057,0,0,-0.995057,5.443956,74.022325)"/>
</g>
</svg>
