<?xml version="1.0" encoding="UTF-8"?>
<svg xmlns="http://www.w3.org/2000/svg" xmlns:xlink="http://www.w3.org/1999/xlink" width="101.7pt" height="101.98pt" viewBox="0 0 101.7 101.98" version="1.2">
<defs>
<g>
<symbol overflow="visible" id="glyph0-0">
<path style="stroke:none;" d=""/>
</symbol>
<symbol overflow="visible" id="glyph0-1">
<path style="stroke:none;" d="M 3.5 -3.15625 C 3.5625 -3.4375 3.796875 -4.390625 4.53125 -4.390625 C 4.578125 -4.390625 4.84375 -4.390625 5.0625 -4.265625 C 4.765625 -4.203125 4.546875 -3.953125 4.546875 -3.703125 C 4.546875 -3.53125 4.671875 -3.328125 4.953125 -3.328125 C 5.1875 -3.328125 5.515625 -3.515625 5.515625 -3.9375 C 5.515625 -4.484375 4.90625 -4.625 4.546875 -4.625 C 3.9375 -4.625 3.5625 -4.078125 3.4375 -3.828125 C 3.1875 -4.515625 2.609375 -4.625 2.3125 -4.625 C 1.21875 -4.625 0.625 -3.28125 0.625 -3.015625 C 0.625 -2.90625 0.734375 -2.90625 0.75 -2.90625 C 0.84375 -2.90625 0.875 -2.9375 0.890625 -3.03125 C 1.25 -4.140625 1.9375 -4.390625 2.296875 -4.390625 C 2.484375 -4.390625 2.859375 -4.296875 2.859375 -3.703125 C 2.859375 -3.375 2.6875 -2.671875 2.296875 -1.203125 C 2.125 -0.5625 1.765625 -0.109375 1.296875 -0.109375 C 1.234375 -0.109375 1 -0.109375 0.78125 -0.25 C 1.03125 -0.296875 1.265625 -0.515625 1.265625 -0.8125 C 1.265625 -1.09375 1.03125 -1.1875 0.875 -1.1875 C 0.5625 -1.1875 0.296875 -0.90625 0.296875 -0.578125 C 0.296875 -0.09375 0.828125 0.109375 1.28125 0.109375 C 1.984375 0.109375 2.359375 -0.625 2.390625 -0.6875 C 2.515625 -0.296875 2.890625 0.109375 3.515625 0.109375 C 4.59375 0.109375 5.1875 -1.234375 5.1875 -1.5 C 5.1875 -1.609375 5.09375 -1.609375 5.0625 -1.609375 C 4.96875 -1.609375 4.953125 -1.5625 4.9375 -1.484375 C 4.578125 -0.359375 3.875 -0.109375 3.53125 -0.109375 C 3.125 -0.109375 2.96875 -0.453125 2.96875 -0.8125 C 2.96875 -1.03125 3.03125 -1.265625 3.140625 -1.734375 Z M 3.5 -3.15625 "/>
</symbol>
<symbol overflow="visible" id="glyph0-2">
<path style="stroke:none;" d="M 5.09375 -3.984375 C 5.125 -4.140625 5.125 -4.15625 5.125 -4.234375 C 5.125 -4.421875 4.984375 -4.515625 4.828125 -4.515625 C 4.71875 -4.515625 4.546875 -4.453125 4.453125 -4.296875 C 4.4375 -4.234375 4.359375 -3.921875 4.3125 -3.734375 C 4.234375 -3.453125 4.171875 -3.171875 4.109375 -2.890625 L 3.625 -1 C 3.59375 -0.84375 3.140625 -0.109375 2.453125 -0.109375 C 1.921875 -0.109375 1.796875 -0.578125 1.796875 -0.96875 C 1.796875 -1.4375 1.984375 -2.09375 2.328125 -3.015625 C 2.5 -3.4375 2.546875 -3.5625 2.546875 -3.765625 C 2.546875 -4.234375 2.203125 -4.625 1.6875 -4.625 C 0.6875 -4.625 0.296875 -3.109375 0.296875 -3.015625 C 0.296875 -2.90625 0.40625 -2.90625 0.421875 -2.90625 C 0.53125 -2.90625 0.546875 -2.9375 0.59375 -3.09375 C 0.875 -4.078125 1.296875 -4.390625 1.65625 -4.390625 C 1.734375 -4.390625 1.921875 -4.390625 1.921875 -4.0625 C 1.921875 -3.796875 1.8125 -3.53125 1.734375 -3.328125 C 1.3125 -2.21875 1.125 -1.625 1.125 -1.125 C 1.125 -0.203125 1.796875 0.109375 2.40625 0.109375 C 2.8125 0.109375 3.171875 -0.0625 3.46875 -0.359375 C 3.328125 0.1875 3.203125 0.703125 2.78125 1.25 C 2.515625 1.609375 2.109375 1.921875 1.640625 1.921875 C 1.484375 1.921875 1.015625 1.890625 0.84375 1.46875 C 1 1.46875 1.140625 1.46875 1.28125 1.34375 C 1.390625 1.25 1.5 1.125 1.5 0.921875 C 1.5 0.59375 1.21875 0.5625 1.109375 0.5625 C 0.875 0.5625 0.515625 0.71875 0.515625 1.234375 C 0.515625 1.765625 0.984375 2.140625 1.640625 2.140625 C 2.71875 2.140625 3.796875 1.1875 4.078125 0.015625 Z M 5.09375 -3.984375 "/>
</symbol>
<symbol overflow="visible" id="glyph0-3">
<path style="stroke:none;" d="M 4.765625 -5.234375 C 4.765625 -5.921875 4.578125 -7.375 3.5 -7.375 C 2.046875 -7.375 0.4375 -4.421875 0.4375 -2.03125 C 0.4375 -1.046875 0.75 0.109375 1.703125 0.109375 C 3.171875 0.109375 4.765625 -2.890625 4.765625 -5.234375 Z M 1.546875 -3.796875 C 1.734375 -4.46875 1.9375 -5.3125 2.359375 -6.046875 C 2.640625 -6.5625 3.03125 -7.15625 3.5 -7.15625 C 4.015625 -7.15625 4.078125 -6.484375 4.078125 -5.890625 C 4.078125 -5.375 3.984375 -4.84375 3.734375 -3.796875 Z M 3.640625 -3.46875 C 3.53125 -2.984375 3.3125 -2.09375 2.90625 -1.34375 C 2.546875 -0.625 2.140625 -0.109375 1.703125 -0.109375 C 1.34375 -0.109375 1.125 -0.421875 1.125 -1.390625 C 1.125 -1.828125 1.1875 -2.4375 1.46875 -3.46875 Z M 3.640625 -3.46875 "/>
</symbol>
</g>
</defs>
<g id="surface1">
<path style="fill:none;stroke-width:0.3985;stroke-linecap:butt;stroke-linejoin:miter;stroke:rgb(0%,0%,0%);stroke-opacity:1;stroke-miterlimit:10;" d="M -14.174704 -0.00136984 L 67.279711 -0.00136984 " transform="matrix(0.997059,0,0,-0.997059,19.297076,54.260353)"/>
<path style=" stroke:none;fill-rule:nonzero;fill:rgb(0%,0%,0%);fill-opacity:1;" d="M 89.957031 54.261719 C 88.894531 54.0625 87.175781 53.464844 85.980469 52.769531 L 85.980469 55.75 C 87.175781 55.054688 88.894531 54.460938 89.957031 54.261719 "/>
<g style="fill:rgb(0%,0%,0%);fill-opacity:1;">
  <use xlink:href="#glyph0-1" x="86.963471" y="62.456176"/>
</g>
<path style="fill:none;stroke-width:0.3985;stroke-linecap:butt;stroke-linejoin:miter;stroke:rgb(0%,0%,0%);stroke-opacity:1;stroke-miterlimit:10;" d="M -0.000202065 -42.520959 L -0.000202065 38.933457 " transform="matrix(0.997059,0,0,-0.997059,19.297076,54.260353)"/>
<path style=" stroke:none;fill-rule:nonzero;fill:rgb(0%,0%,0%);fill-opacity:1;" d="M 19.296875 11.863281 C 19.097656 12.925781 18.503906 14.648438 17.808594 15.839844 L 20.785156 15.839844 C 20.089844 14.648438 19.496094 12.925781 19.296875 11.863281 "/>
<g style="fill:rgb(0%,0%,0%);fill-opacity:1;">
  <use xlink:href="#glyph0-2" x="10.100206" y="13.100768"/>
</g>
<path style="fill:none;stroke-width:0.3985;stroke-linecap:butt;stroke-linejoin:miter;stroke:rgb(0%,0%,0%);stroke-opacity:1;stroke-miterlimit:10;" d="M 56.693889 -0.00136984 C 56.693889 15.654051 44.004223 28.347635 28.344885 28.347635 C 12.689464 28.347635 -0.000202065 15.654051 -0.000202065 -0.00136984 C -0.000202065 -15.65679 12.689464 -28.346456 28.344885 -28.346456 C 44.004223 -28.346456 56.693889 -15.65679 56.693889 -0.00136984 Z M 56.693889 -0.00136984 " transform="matrix(0.997059,0,0,-0.997059,19.297076,54.260353)"/>
<path style="fill:none;stroke-width:0.3985;stroke-linecap:butt;stroke-linejoin:miter;stroke:rgb(0%,0%,0%);stroke-opacity:1;stroke-miterlimit:10;" d="M -14.174704 -14.171954 L 42.519387 42.522137 " transform="matrix(0.997059,0,0,-0.997059,19.297076,54.260353)"/>
<g style="fill:rgb(0%,0%,0%);fill-opacity:1;">
  <use xlink:href="#glyph0-3" x="30.826068" y="50.829474"/>
</g>
</g>
</svg>
