<?xml version="1.0" encoding="UTF-8"?>
<svg xmlns="http://www.w3.org/2000/svg" xmlns:xlink="http://www.w3.org/1999/xlink" width="120.71pt" height="112.21pt" viewBox="0 0 120.71 112.21" version="1.2">
<g id="surface1">
<path style="fill:none;stroke-width:0.19925;stroke-linecap:butt;stroke-linejoin:miter;stroke:rgb(79.998779%,79.998779%,79.998779%);stroke-opacity:1;stroke-miterlimit:10;" d="M -85.043152 -59.530787 L 25.510999 -59.530787 M -85.043152 -51.026016 L 25.510999 -51.026016 M -85.043152 -42.521246 L 25.510999 -42.521246 M -85.043152 -34.016475 L 25.510999 -34.016475 M -85.043152 -25.511704 L 25.510999 -25.511704 M -85.043152 -17.006934 L 25.510999 -17.006934 M -85.043152 -8.502163 L 25.510999 -8.502163 M -85.043152 -0.00132627 L 25.510999 -0.00132627 M -85.043152 8.503444 L 25.510999 8.503444 M -85.043152 17.008215 L 25.510999 17.008215 M -85.043152 25.512986 L 25.510999 25.512986 M -85.043152 34.017756 L 25.510999 34.017756 M -85.043152 42.518593 L 25.510999 42.518593 M -85.043152 -59.530787 L -85.043152 42.522527 M -76.538381 -59.530787 L -76.538381 42.522527 M -68.033611 -59.530787 L -68.033611 42.522527 M -59.52884 -59.530787 L -59.52884 42.522527 M -51.02407 -59.530787 L -51.02407 42.522527 M -42.519299 -59.530787 L -42.519299 42.522527 M -34.018462 -59.530787 L -34.018462 42.522527 M -25.513691 -59.530787 L -25.513691 42.522527 M -17.008921 -59.530787 L -17.008921 42.522527 M -8.50415 -59.530787 L -8.50415 42.522527 M 0.000620455 -59.530787 L 0.000620455 42.522527 M 8.505391 -59.530787 L 8.505391 42.522527 M 17.010162 -59.530787 L 17.010162 42.522527 M 25.510999 -59.530787 L 25.510999 42.522527 " transform="matrix(0.993009,0,0,-0.993009,89.768915,47.268214)"/>
<path style="fill:none;stroke-width:0.3985;stroke-linecap:butt;stroke-linejoin:miter;stroke:rgb(0%,0%,0%);stroke-opacity:1;stroke-miterlimit:10;" d="M -76.538381 34.017756 L -34.018462 34.017756 L -34.018462 -0.00132627 Z M -76.538381 34.017756 " transform="matrix(0.993009,0,0,-0.993009,89.768915,47.268214)"/>
<path style="fill:none;stroke-width:0.3985;stroke-linecap:butt;stroke-linejoin:miter;stroke:rgb(0%,0%,0%);stroke-opacity:1;stroke-miterlimit:10;" d="M -76.538381 34.017756 L -34.018462 17.008215 " transform="matrix(0.993009,0,0,-0.993009,89.768915,47.268214)"/>
<path style="fill:none;stroke-width:0.3985;stroke-linecap:butt;stroke-linejoin:miter;stroke:rgb(0%,0%,0%);stroke-opacity:1;stroke-miterlimit:10;" d="M -17.008921 34.017756 L 17.010162 17.008215 L -17.008921 -0.00132627 Z M -17.008921 34.017756 " transform="matrix(0.993009,0,0,-0.993009,89.768915,47.268214)"/>
<path style="fill:none;stroke-width:0.3985;stroke-linecap:butt;stroke-linejoin:miter;stroke:rgb(0%,0%,0%);stroke-opacity:1;stroke-miterlimit:10;" d="M -76.538381 -17.006934 L -34.018462 -17.006934 L -34.018462 -51.026016 Z M -76.538381 -17.006934 " transform="matrix(0.993009,0,0,-0.993009,89.768915,47.268214)"/>
</g>
</svg>
