<?xml version="1.0" encoding="UTF-8"?>
<svg xmlns="http://www.w3.org/2000/svg" xmlns:xlink="http://www.w3.org/1999/xlink" width="86.9pt" height="82.65pt" viewBox="0 0 86.9 82.65" version="1.2">
<defs>
<clipPath id="clip1">
  <path d="M 39 13 L 48 13 L 48 48 L 39 48 Z M 39 13 "/>
</clipPath>
<clipPath id="clip2">
  <path d="M 47.632812 30.570312 C 47.632812 21.214844 40.050781 13.632812 30.695312 13.632812 C 21.34375 13.632812 13.761719 21.214844 13.761719 30.570312 C 13.761719 39.921875 21.34375 47.503906 30.695312 47.503906 C 40.050781 47.503906 47.632812 39.921875 47.632812 30.570312 Z M 47.632812 30.570312 "/>
</clipPath>
<clipPath id="clip3">
  <path d="M 73.039062 30.570312 C 73.039062 21.214844 65.457031 13.632812 56.101562 13.632812 C 46.746094 13.632812 39.164062 21.214844 39.164062 30.570312 C 39.164062 39.921875 46.746094 47.503906 56.101562 47.503906 C 65.457031 47.503906 73.039062 39.921875 73.039062 30.570312 Z M 73.039062 30.570312 "/>
</clipPath>
<clipPath id="clip4">
  <path d="M 26 34 L 61 34 L 61 65 L 26 65 Z M 26 34 "/>
</clipPath>
<clipPath id="clip5">
  <path d="M 60.335938 51.738281 C 60.335938 42.386719 52.753906 34.800781 43.398438 34.800781 C 34.046875 34.800781 26.460938 42.386719 26.460938 51.738281 C 26.460938 61.09375 34.046875 68.675781 43.398438 68.675781 C 52.753906 68.675781 60.335938 61.09375 60.335938 51.738281 Z M 60.335938 51.738281 "/>
</clipPath>
</defs>
<g id="surface1">
<g clip-path="url(#clip1)" clip-rule="nonzero">
<g clip-path="url(#clip2)" clip-rule="nonzero">
<g clip-path="url(#clip3)" clip-rule="nonzero">
<path style=" stroke:none;fill-rule:nonzero;fill:rgb(50%,50%,50%);fill-opacity:1;" d="M 13.761719 47.503906 L 13.761719 -54.113281 L 115.378906 -54.113281 L 115.378906 47.503906 Z M 13.761719 47.503906 "/>
</g>
</g>
</g>
<g clip-path="url(#clip4)" clip-rule="nonzero">
<g clip-path="url(#clip5)" clip-rule="nonzero">
<path style=" stroke:none;fill-rule:nonzero;fill:rgb(100%,100%,100%);fill-opacity:1;" d="M -3.175781 64.441406 L -3.175781 -3.304688 L 98.441406 -3.304688 L 98.441406 64.441406 Z M -3.175781 64.441406 "/>
</g>
</g>
<path style="fill:none;stroke-width:0.3985;stroke-linecap:butt;stroke-linejoin:miter;stroke:rgb(0%,0%,0%);stroke-opacity:1;stroke-miterlimit:10;" d="M 17.007526 -0.00176936 C 17.007526 9.393317 9.393386 17.007456 -0.00170009 17.007456 C -9.392864 17.007456 -17.007003 9.393317 -17.007003 -0.00176936 C -17.007003 -9.392933 -9.392864 -17.007072 -0.00170009 -17.007072 C 9.393386 -17.007072 17.007526 -9.392933 17.007526 -0.00176936 Z M 17.007526 -0.00176936 " transform="matrix(0.995783,0,0,-0.995783,30.697005,30.568551)"/>
<path style="fill:none;stroke-width:0.3985;stroke-linecap:butt;stroke-linejoin:miter;stroke:rgb(0%,0%,0%);stroke-opacity:1;stroke-miterlimit:10;" d="M 42.521364 -0.00176936 C 42.521364 9.393317 34.907225 17.007456 25.512138 17.007456 C 16.117052 17.007456 8.502913 9.393317 8.502913 -0.00176936 C 8.502913 -9.392933 16.117052 -17.007072 25.512138 -17.007072 C 34.907225 -17.007072 42.521364 -9.392933 42.521364 -0.00176936 Z M 42.521364 -0.00176936 " transform="matrix(0.995783,0,0,-0.995783,30.697005,30.568551)"/>
<path style="fill:none;stroke-width:0.3985;stroke-linecap:butt;stroke-linejoin:miter;stroke:rgb(0%,0%,0%);stroke-opacity:1;stroke-miterlimit:10;" d="M 29.764445 -21.259379 C 29.764445 -11.868215 22.150306 -4.250153 12.755219 -4.250153 C 3.364055 -4.250153 -4.254007 -11.868215 -4.254007 -21.259379 C -4.254007 -30.654465 3.364055 -38.268604 12.755219 -38.268604 C 22.150306 -38.268604 29.764445 -30.654465 29.764445 -21.259379 Z M 29.764445 -21.259379 " transform="matrix(0.995783,0,0,-0.995783,30.697005,30.568551)"/>
<path style="fill:none;stroke-width:0.3985;stroke-linecap:butt;stroke-linejoin:miter;stroke:rgb(0%,0%,0%);stroke-opacity:1;stroke-miterlimit:10;" d="M -25.511616 -46.773217 L -25.511616 25.512069 L 51.025977 25.512069 L 51.025977 -46.773217 Z M -25.511616 -46.773217 " transform="matrix(0.995783,0,0,-0.995783,30.697005,30.568551)"/>
</g>
</svg>
