<?xml version="1.0" encoding="UTF-8"?>
<svg xmlns="http://www.w3.org/2000/svg" xmlns:xlink="http://www.w3.org/1999/xlink" width="137.92pt" height="137.92pt" viewBox="0 0 137.92 137.92" version="1.2">
<g id="surface1">
<path style="fill:none;stroke-width:0.3985;stroke-linecap:butt;stroke-linejoin:miter;stroke:rgb(75%,75%,75%);stroke-opacity:1;stroke-miterlimit:10;" d="M 0.00169196 -0.00101381 L 127.560014 -0.00101381 M 0.00169196 8.503917 L 127.560014 8.503917 M 0.00169196 17.008847 L 127.560014 17.008847 M 0.00169196 25.513777 L 127.560014 25.513777 M 0.00169196 34.014799 L 127.560014 34.014799 M 0.00169196 42.51973 L 127.560014 42.51973 M 0.00169196 51.02466 L 127.560014 51.02466 M 0.00169196 59.52959 L 127.560014 59.52959 M 0.00169196 68.034521 L 127.560014 68.034521 M 0.00169196 76.535543 L 127.560014 76.535543 M 0.00169196 85.040473 L 127.560014 85.040473 M 0.00169196 93.545403 L 127.560014 93.545403 M 0.00169196 102.050334 L 127.560014 102.050334 M 0.00169196 110.555264 L 127.560014 110.555264 M 0.00169196 119.056286 L 127.560014 119.056286 M 0.00169196 127.557308 L 127.560014 127.557308 M 0.00169196 -0.00101381 L 0.00169196 127.561217 M 8.502714 -0.00101381 L 8.502714 127.561217 M 17.007644 -0.00101381 L 17.007644 127.561217 M 25.512575 -0.00101381 L 25.512575 127.561217 M 34.017505 -0.00101381 L 34.017505 127.561217 M 42.522435 -0.00101381 L 42.522435 127.561217 M 51.023457 -0.00101381 L 51.023457 127.561217 M 59.528388 -0.00101381 L 59.528388 127.561217 M 68.033318 -0.00101381 L 68.033318 127.561217 M 76.538248 -0.00101381 L 76.538248 127.561217 M 85.043179 -0.00101381 L 85.043179 127.561217 M 93.544201 -0.00101381 L 93.544201 127.561217 M 102.049131 -0.00101381 L 102.049131 127.561217 M 110.554062 -0.00101381 L 110.554062 127.561217 M 119.058992 -0.00101381 L 119.058992 127.561217 M 127.560014 -0.00101381 L 127.560014 127.561217 " transform="matrix(0.99942,0,0,-0.99942,5.177997,132.663049)"/>
<path style="fill:none;stroke-width:0.3985;stroke-linecap:butt;stroke-linejoin:miter;stroke:rgb(0%,0%,0%);stroke-opacity:1;stroke-miterlimit:10;" d="M 42.522435 17.008847 L 8.502714 17.008847 L 8.502714 51.02466 L 42.522435 51.02466 " transform="matrix(0.99942,0,0,-0.99942,5.177997,132.663049)"/>
<path style="fill:none;stroke-width:0.3985;stroke-linecap:butt;stroke-linejoin:miter;stroke:rgb(0%,0%,0%);stroke-opacity:1;stroke-miterlimit:10;" d="M 42.522435 8.503917 L 42.522435 59.52959 L 59.528388 59.52959 L 59.528388 8.503917 Z M 42.522435 8.503917 " transform="matrix(0.99942,0,0,-0.99942,5.177997,132.663049)"/>
<path style="fill:none;stroke-width:0.3985;stroke-linecap:butt;stroke-linejoin:miter;stroke:rgb(0%,0%,0%);stroke-opacity:1;stroke-miterlimit:10;" d="M 42.522435 76.535543 L 8.502714 76.535543 L 8.502714 110.555264 L 42.522435 110.555264 " transform="matrix(0.99942,0,0,-0.99942,5.177997,132.663049)"/>
<path style="fill:none;stroke-width:0.3985;stroke-linecap:butt;stroke-linejoin:miter;stroke:rgb(0%,0%,0%);stroke-opacity:1;stroke-miterlimit:10;" d="M 42.522435 68.034521 L 42.522435 119.056286 L 59.528388 119.056286 L 59.528388 68.034521 Z M 42.522435 68.034521 " transform="matrix(0.99942,0,0,-0.99942,5.177997,132.663049)"/>
<path style="fill:none;stroke-width:0.3985;stroke-linecap:butt;stroke-linejoin:miter;stroke:rgb(0%,0%,0%);stroke-opacity:1;stroke-miterlimit:10;" d="M 110.554062 93.545403 C 110.554062 102.937567 102.940273 110.555264 93.544201 110.555264 C 84.152037 110.555264 76.538248 102.937567 76.538248 93.545403 C 76.538248 84.15324 84.152037 76.535543 93.544201 76.535543 C 102.940273 76.535543 110.554062 84.15324 110.554062 93.545403 Z M 110.554062 93.545403 " transform="matrix(0.99942,0,0,-0.99942,5.177997,132.663049)"/>
<path style="fill:none;stroke-width:0.3985;stroke-linecap:butt;stroke-linejoin:miter;stroke:rgb(0%,0%,0%);stroke-opacity:1;stroke-miterlimit:10;" d="M 119.058992 93.545403 C 119.058992 107.635603 107.6344 119.056286 93.544201 119.056286 C 79.454001 119.056286 68.033318 107.635603 68.033318 93.545403 C 68.033318 79.455204 79.454001 68.034521 93.544201 68.034521 C 107.6344 68.034521 119.058992 79.455204 119.058992 93.545403 Z M 119.058992 93.545403 " transform="matrix(0.99942,0,0,-0.99942,5.177997,132.663049)"/>
</g>
</svg>
