<?xml version="1.0" encoding="UTF-8"?>
<svg xmlns="http://www.w3.org/2000/svg" xmlns:xlink="http://www.w3.org/1999/xlink" width="67.05pt" height="60.45pt" viewBox="0 0 67.05 60.45" version="1.2">
<defs>
<clipPath id="clip1">
  <path d="M 0 0.152344 L 66.113281 0.152344 L 66.113281 59.757812 L 0 59.757812 Z M 0 0.152344 "/>
</clipPath>
<clipPath id="clip2">
  <path d="M 12 47 L 26 47 L 26 59.757812 L 12 59.757812 Z M 12 47 "/>
</clipPath>
<clipPath id="clip3">
  <path d="M 26 47 L 40 47 L 40 59.757812 L 26 59.757812 Z M 26 47 "/>
</clipPath>
<clipPath id="clip4">
  <path d="M 40 47 L 54 47 L 54 59.757812 L 40 59.757812 Z M 40 47 "/>
</clipPath>
</defs>
<g id="surface1">
<g clip-path="url(#clip1)" clip-rule="nonzero">
<path style="fill:none;stroke-width:0.3985;stroke-linecap:butt;stroke-linejoin:miter;stroke:rgb(0%,0%,0%);stroke-opacity:1;stroke-miterlimit:10;" d="M 0.000767338 -0.00112118 L 56.695165 -0.00112118 L 28.345985 49.094936 Z M 0.000767338 -0.00112118 " transform="matrix(0.986029,0,0,-0.986029,5.108618,53.666863)"/>
</g>
<path style=" stroke:none;fill-rule:nonzero;fill:rgb(0%,0%,0%);fill-opacity:1;" d="M 20.066406 53.667969 C 20.066406 53.125 19.625 52.683594 19.085938 52.683594 C 18.542969 52.683594 18.101562 53.125 18.101562 53.667969 C 18.101562 54.210938 18.542969 54.648438 19.085938 54.648438 C 19.625 54.648438 20.066406 54.210938 20.066406 53.667969 Z M 20.066406 53.667969 "/>
<g clip-path="url(#clip2)" clip-rule="nonzero">
<path style="fill:none;stroke-width:0.3985;stroke-linecap:butt;stroke-linejoin:miter;stroke:rgb(0%,0%,0%);stroke-opacity:1;stroke-miterlimit:10;" d="M 15.169718 -0.00112118 C 15.169718 0.549541 14.722057 0.997201 14.175357 0.997201 C 13.624695 0.997201 13.177035 0.549541 13.177035 -0.00112118 C 13.177035 -0.551783 13.624695 -0.995482 14.175357 -0.995482 C 14.722057 -0.995482 15.169718 -0.551783 15.169718 -0.00112118 Z M 15.169718 -0.00112118 " transform="matrix(0.986029,0,0,-0.986029,5.108618,53.666863)"/>
</g>
<path style=" stroke:none;fill-rule:nonzero;fill:rgb(0%,0%,0%);fill-opacity:1;" d="M 34.042969 53.667969 C 34.042969 53.125 33.601562 52.683594 33.058594 52.683594 C 32.515625 52.683594 32.078125 53.125 32.078125 53.667969 C 32.078125 54.210938 32.515625 54.648438 33.058594 54.648438 C 33.601562 54.648438 34.042969 54.210938 34.042969 53.667969 Z M 34.042969 53.667969 "/>
<g clip-path="url(#clip3)" clip-rule="nonzero">
<path style="fill:none;stroke-width:0.3985;stroke-linecap:butt;stroke-linejoin:miter;stroke:rgb(0%,0%,0%);stroke-opacity:1;stroke-miterlimit:10;" d="M 29.344308 -0.00112118 C 29.344308 0.549541 28.896647 0.997201 28.345985 0.997201 C 27.795324 0.997201 27.351625 0.549541 27.351625 -0.00112118 C 27.351625 -0.551783 27.795324 -0.995482 28.345985 -0.995482 C 28.896647 -0.995482 29.344308 -0.551783 29.344308 -0.00112118 Z M 29.344308 -0.00112118 " transform="matrix(0.986029,0,0,-0.986029,5.108618,53.666863)"/>
</g>
<path style=" stroke:none;fill-rule:nonzero;fill:rgb(0%,0%,0%);fill-opacity:1;" d="M 48.015625 53.667969 C 48.015625 53.125 47.578125 52.683594 47.035156 52.683594 C 46.492188 52.683594 46.050781 53.125 46.050781 53.667969 C 46.050781 54.210938 46.492188 54.648438 47.035156 54.648438 C 47.578125 54.648438 48.015625 54.210938 48.015625 53.667969 Z M 48.015625 53.667969 "/>
<g clip-path="url(#clip4)" clip-rule="nonzero">
<path style="fill:none;stroke-width:0.3985;stroke-linecap:butt;stroke-linejoin:miter;stroke:rgb(0%,0%,0%);stroke-opacity:1;stroke-miterlimit:10;" d="M 43.514936 -0.00112118 C 43.514936 0.549541 43.071237 0.997201 42.520575 0.997201 C 41.969913 0.997201 41.522253 0.549541 41.522253 -0.00112118 C 41.522253 -0.551783 41.969913 -0.995482 42.520575 -0.995482 C 43.071237 -0.995482 43.514936 -0.551783 43.514936 -0.00112118 Z M 43.514936 -0.00112118 " transform="matrix(0.986029,0,0,-0.986029,5.108618,53.666863)"/>
</g>
</g>
</svg>
