<?xml version="1.0" encoding="UTF-8"?>
<svg xmlns="http://www.w3.org/2000/svg" xmlns:xlink="http://www.w3.org/1999/xlink" width="146.23pt" height="171.74pt" viewBox="0 0 146.23 171.74" version="1.2">
<g id="surface1">
<path style="fill:none;stroke-width:0.19925;stroke-linecap:butt;stroke-linejoin:miter;stroke:rgb(50%,50%,50%);stroke-opacity:1;stroke-miterlimit:10;" d="M 0.000303854 -76.53889 L 136.064584 -76.53889 M 0.000303854 -68.0334 L 136.064584 -68.0334 M 0.000303854 -59.52791 L 136.064584 -59.52791 M 0.000303854 -51.026346 L 136.064584 -51.026346 M 0.000303854 -42.520856 L 136.064584 -42.520856 M 0.000303854 -34.015366 L 136.064584 -34.015366 M 0.000303854 -25.513803 L 136.064584 -25.513803 M 0.000303854 -17.008313 L 136.064584 -17.008313 M 0.000303854 -8.502823 L 136.064584 -8.502823 M 0.000303854 -0.00125951 L 136.064584 -0.00125951 M 0.000303854 8.504231 L 136.064584 8.504231 M 0.000303854 17.009721 L 136.064584 17.009721 M 0.000303854 25.511284 L 136.064584 25.511284 M 0.000303854 34.016774 L 136.064584 34.016774 M 0.000303854 42.522264 L 136.064584 42.522264 M 0.000303854 51.023827 L 136.064584 51.023827 M 0.000303854 59.529317 L 136.064584 59.529317 M 0.000303854 68.034807 L 136.064584 68.034807 M 0.000303854 76.536371 L 136.064584 76.536371 M 0.000303854 85.037934 L 136.064584 85.037934 M 0.000303854 -76.53889 L 0.000303854 85.041861 M 8.505794 -76.53889 L 8.505794 85.041861 M 17.007357 -76.53889 L 17.007357 85.041861 M 25.512847 -76.53889 L 25.512847 85.041861 M 34.018337 -76.53889 L 34.018337 85.041861 M 42.519901 -76.53889 L 42.519901 85.041861 M 51.025391 -76.53889 L 51.025391 85.041861 M 59.526954 -76.53889 L 59.526954 85.041861 M 68.032444 -76.53889 L 68.032444 85.041861 M 76.537934 -76.53889 L 76.537934 85.041861 M 85.039497 -76.53889 L 85.039497 85.041861 M 93.544987 -76.53889 L 93.544987 85.041861 M 102.050477 -76.53889 L 102.050477 85.041861 M 110.552041 -76.53889 L 110.552041 85.041861 M 119.057531 -76.53889 L 119.057531 85.041861 M 127.563021 -76.53889 L 127.563021 85.041861 M 136.064584 -76.53889 L 136.064584 85.041861 " transform="matrix(0.994762,0,0,-0.994762,5.054385,89.971403)"/>
<path style="fill:none;stroke-width:0.3985;stroke-linecap:butt;stroke-linejoin:miter;stroke:rgb(0%,0%,0%);stroke-opacity:1;stroke-miterlimit:10;" d="M 59.526954 51.023827 C 59.526954 65.113254 48.107764 76.536371 34.018337 76.536371 C 19.924984 76.536371 8.505794 65.113254 8.505794 51.023827 C 8.505794 36.9344 19.924984 25.511284 34.018337 25.511284 C 48.107764 25.511284 59.526954 36.9344 59.526954 51.023827 Z M 59.526954 51.023827 " transform="matrix(0.994762,0,0,-0.994762,5.054385,89.971403)"/>
<path style="fill:none;stroke-width:0.3985;stroke-linecap:butt;stroke-linejoin:miter;stroke:rgb(0%,0%,0%);stroke-opacity:1;stroke-miterlimit:10;" d="M 8.505794 51.023827 L 8.505794 -0.00125951 L 59.526954 -0.00125951 L 59.526954 51.023827 " transform="matrix(0.994762,0,0,-0.994762,5.054385,89.971403)"/>
<path style="fill:none;stroke-width:0.3985;stroke-linecap:butt;stroke-linejoin:miter;stroke:rgb(0%,0%,0%);stroke-opacity:1;stroke-miterlimit:10;" d="M 76.537934 76.536371 L 76.537934 -0.00125951 L 127.563021 -0.00125951 L 127.563021 34.016774 Z M 76.537934 76.536371 " transform="matrix(0.994762,0,0,-0.994762,5.054385,89.971403)"/>
<path style="fill:none;stroke-width:0.3985;stroke-linecap:butt;stroke-linejoin:miter;stroke:rgb(0%,0%,0%);stroke-opacity:1;stroke-miterlimit:10;" d="M 59.526954 -42.520856 C 59.526954 -28.431429 48.107764 -17.008313 34.018337 -17.008313 C 19.924984 -17.008313 8.505794 -28.431429 8.505794 -42.520856 C 8.505794 -56.610283 19.924984 -68.0334 34.018337 -68.0334 C 48.107764 -68.0334 59.526954 -56.610283 59.526954 -42.520856 Z M 59.526954 -42.520856 " transform="matrix(0.994762,0,0,-0.994762,5.054385,89.971403)"/>
</g>
</svg>
