<?xml version="1.0" encoding="UTF-8"?>
<svg xmlns="http://www.w3.org/2000/svg" xmlns:xlink="http://www.w3.org/1999/xlink" width="50.05pt" height="112.41pt" viewBox="0 0 50.05 112.41" version="1.2">
<g id="surface1">
<path style="fill:none;stroke-width:0.3985;stroke-linecap:butt;stroke-linejoin:miter;stroke:rgb(0%,0%,0%);stroke-opacity:1;stroke-miterlimit:10;" d="M 14.171946 -0.0019729 C 14.171946 7.827463 7.827197 14.172212 0.00174088 14.172212 C -7.827695 14.172212 -14.172444 7.827463 -14.172444 -0.0019729 C -14.172444 -7.827429 -7.827695 -14.172178 0.00174088 -14.172178 C 7.827197 -14.172178 14.171946 -7.827429 14.171946 -0.0019729 Z M 14.171946 -0.0019729 " transform="matrix(0.981373,0,0,-0.981373,24.556885,89.298845)"/>
<path style="fill:none;stroke-width:0.3985;stroke-linecap:butt;stroke-linejoin:miter;stroke:rgb(0%,0%,0%);stroke-opacity:1;stroke-miterlimit:10;" d="M 14.171946 28.346397 C 14.171946 36.175834 7.827197 42.520583 0.00174088 42.520583 C -7.827695 42.520583 -14.172444 36.175834 -14.172444 28.346397 C -14.172444 20.516961 -7.827695 14.172212 0.00174088 14.172212 C 7.827197 14.172212 14.171946 20.516961 14.171946 28.346397 Z M 14.171946 28.346397 " transform="matrix(0.981373,0,0,-0.981373,24.556885,89.298845)"/>
<path style="fill:none;stroke-width:0.3985;stroke-linecap:butt;stroke-linejoin:miter;stroke:rgb(0%,0%,0%);stroke-opacity:1;stroke-miterlimit:10;" d="M 14.171946 56.694768 C 14.171946 64.520224 7.827197 70.868953 0.00174088 70.868953 C -7.827695 70.868953 -14.172444 64.520224 -14.172444 56.694768 C -14.172444 48.865332 -7.827695 42.520583 0.00174088 42.520583 C 7.827197 42.520583 14.171946 48.865332 14.171946 56.694768 Z M 14.171946 56.694768 " transform="matrix(0.981373,0,0,-0.981373,24.556885,89.298845)"/>
<path style="fill:none;stroke-width:0.3985;stroke-linecap:butt;stroke-linejoin:miter;stroke:rgb(0%,0%,0%);stroke-opacity:1;stroke-miterlimit:10;" d="M -14.172444 70.868953 L 14.171946 70.868953 " transform="matrix(0.981373,0,0,-0.981373,24.556885,89.298845)"/>
<path style="fill:none;stroke-width:0.3985;stroke-linecap:butt;stroke-linejoin:miter;stroke:rgb(0%,0%,0%);stroke-opacity:1;stroke-miterlimit:10;" d="M -14.172444 -14.172178 L -14.172444 85.039158 " transform="matrix(0.981373,0,0,-0.981373,24.556885,89.298845)"/>
<path style="fill:none;stroke-width:0.3985;stroke-linecap:butt;stroke-linejoin:miter;stroke:rgb(0%,0%,0%);stroke-opacity:1;stroke-miterlimit:10;" d="M 14.171946 -14.172178 L 14.171946 85.039158 " transform="matrix(0.981373,0,0,-0.981373,24.556885,89.298845)"/>
<path style="fill-rule:nonzero;fill:rgb(50%,50%,50%);fill-opacity:1;stroke-width:0.3985;stroke-linecap:butt;stroke-linejoin:miter;stroke:rgb(0%,0%,0%);stroke-opacity:1;stroke-miterlimit:10;" d="M -19.844507 -17.010199 L -19.844507 -14.172178 L 19.844008 -14.172178 L 19.844008 -17.010199 Z M -19.844507 -17.010199 " transform="matrix(0.981373,0,0,-0.981373,24.556885,89.298845)"/>
</g>
</svg>
