<?xml version="1.0" encoding="UTF-8"?>
<svg xmlns="http://www.w3.org/2000/svg" xmlns:xlink="http://www.w3.org/1999/xlink" width="453.23pt" height="143.16pt" viewBox="0 0 453.23 143.16" version="1.2">
<defs>
<g>
<symbol overflow="visible" id="glyph0-0">
<path style="stroke:none;" d=""/>
</symbol>
<symbol overflow="visible" id="glyph0-1">
<path style="stroke:none;" d="M 1.875 -1.203125 C 1.453125 -0.5 1.046875 -0.359375 0.578125 -0.328125 C 0.453125 -0.3125 0.359375 -0.3125 0.359375 -0.109375 C 0.359375 -0.046875 0.421875 0 0.5 0 C 0.78125 0 1.109375 -0.03125 1.40625 -0.03125 C 1.75 -0.03125 2.109375 0 2.4375 0 C 2.5 0 2.640625 0 2.640625 -0.203125 C 2.640625 -0.3125 2.546875 -0.328125 2.46875 -0.328125 C 2.234375 -0.34375 1.984375 -0.421875 1.984375 -0.6875 C 1.984375 -0.8125 2.046875 -0.921875 2.125 -1.078125 L 2.921875 -2.40625 L 5.546875 -2.40625 C 5.5625 -2.1875 5.703125 -0.765625 5.703125 -0.671875 C 5.703125 -0.359375 5.171875 -0.328125 4.953125 -0.328125 C 4.8125 -0.328125 4.703125 -0.328125 4.703125 -0.109375 C 4.703125 0 4.828125 0 4.859375 0 C 5.28125 0 5.734375 -0.03125 6.15625 -0.03125 C 6.421875 -0.03125 7.078125 0 7.34375 0 C 7.40625 0 7.53125 0 7.53125 -0.203125 C 7.53125 -0.328125 7.421875 -0.328125 7.28125 -0.328125 C 6.640625 -0.328125 6.640625 -0.390625 6.609375 -0.703125 L 5.96875 -7.21875 C 5.953125 -7.4375 5.953125 -7.46875 5.765625 -7.46875 C 5.609375 -7.46875 5.5625 -7.40625 5.5 -7.296875 Z M 3.125 -2.734375 L 5.171875 -6.171875 L 5.515625 -2.734375 Z M 3.125 -2.734375 "/>
</symbol>
<symbol overflow="visible" id="glyph0-2">
<path style="stroke:none;" d="M 1.671875 -0.8125 C 1.5625 -0.40625 1.546875 -0.328125 0.71875 -0.328125 C 0.546875 -0.328125 0.4375 -0.328125 0.4375 -0.109375 C 0.4375 0 0.53125 0 0.71875 0 L 4.453125 0 C 6.09375 0 7.328125 -1.234375 7.328125 -2.25 C 7.328125 -3 6.71875 -3.609375 5.703125 -3.71875 C 6.796875 -3.921875 7.890625 -4.703125 7.890625 -5.6875 C 7.890625 -6.453125 7.203125 -7.125 5.953125 -7.125 L 2.4375 -7.125 C 2.25 -7.125 2.140625 -7.125 2.140625 -6.921875 C 2.140625 -6.8125 2.234375 -6.8125 2.4375 -6.8125 C 2.453125 -6.8125 2.65625 -6.8125 2.828125 -6.78125 C 3.015625 -6.765625 3.109375 -6.75 3.109375 -6.625 C 3.109375 -6.578125 3.09375 -6.546875 3.0625 -6.421875 Z M 3.25 -3.8125 L 3.890625 -6.40625 C 3.984375 -6.78125 4.015625 -6.8125 4.453125 -6.8125 L 5.796875 -6.8125 C 6.71875 -6.8125 6.9375 -6.1875 6.9375 -5.734375 C 6.9375 -4.8125 6.046875 -3.8125 4.765625 -3.8125 Z M 2.78125 -0.328125 C 2.625 -0.328125 2.609375 -0.328125 2.546875 -0.328125 C 2.4375 -0.34375 2.40625 -0.359375 2.40625 -0.4375 C 2.40625 -0.46875 2.40625 -0.484375 2.46875 -0.671875 L 3.1875 -3.59375 L 5.15625 -3.59375 C 6.15625 -3.59375 6.359375 -2.8125 6.359375 -2.375 C 6.359375 -1.34375 5.421875 -0.328125 4.203125 -0.328125 Z M 2.78125 -0.328125 "/>
</symbol>
<symbol overflow="visible" id="glyph0-3">
<path style="stroke:none;" d="M 7.9375 -7.25 C 7.9375 -7.28125 7.90625 -7.359375 7.8125 -7.359375 C 7.78125 -7.359375 7.78125 -7.34375 7.65625 -7.234375 L 6.9375 -6.421875 C 6.84375 -6.578125 6.359375 -7.359375 5.203125 -7.359375 C 2.875 -7.359375 0.515625 -5.046875 0.515625 -2.625 C 0.515625 -0.90625 1.75 0.234375 3.34375 0.234375 C 4.265625 0.234375 5.046875 -0.1875 5.609375 -0.671875 C 6.578125 -1.53125 6.75 -2.46875 6.75 -2.5 C 6.75 -2.609375 6.65625 -2.609375 6.625 -2.609375 C 6.5625 -2.609375 6.515625 -2.59375 6.484375 -2.5 C 6.390625 -2.203125 6.15625 -1.46875 5.4375 -0.859375 C 4.71875 -0.265625 4.0625 -0.09375 3.515625 -0.09375 C 2.578125 -0.09375 1.46875 -0.640625 1.46875 -2.265625 C 1.46875 -2.859375 1.6875 -4.546875 2.734375 -5.765625 C 3.375 -6.515625 4.359375 -7.03125 5.28125 -7.03125 C 6.34375 -7.03125 6.96875 -6.234375 6.96875 -5.015625 C 6.96875 -4.609375 6.9375 -4.59375 6.9375 -4.484375 C 6.9375 -4.390625 7.046875 -4.390625 7.09375 -4.390625 C 7.21875 -4.390625 7.21875 -4.40625 7.28125 -4.59375 Z M 7.9375 -7.25 "/>
</symbol>
<symbol overflow="visible" id="glyph1-0">
<path style="stroke:none;" d=""/>
</symbol>
<symbol overflow="visible" id="glyph1-1">
<path style="stroke:none;" d="M 2.015625 -3.28125 C 2.0625 -3.390625 2.078125 -3.453125 2.078125 -3.5 C 2.078125 -3.71875 1.875 -3.875 1.671875 -3.875 C 1.40625 -3.875 1.3125 -3.65625 1.28125 -3.546875 L 0.375 -0.546875 C 0.359375 -0.53125 0.328125 -0.4375 0.328125 -0.4375 C 0.328125 -0.359375 0.546875 -0.28125 0.609375 -0.28125 C 0.65625 -0.28125 0.65625 -0.296875 0.703125 -0.40625 Z M 2.015625 -3.28125 "/>
</symbol>
</g>
<clipPath id="clip1">
  <path d="M 384 32 L 451.523438 32 L 451.523438 129 L 384 129 Z M 384 32 "/>
</clipPath>
<clipPath id="clip2">
  <path d="M 384 61 L 451.523438 61 L 451.523438 101 L 384 101 Z M 384 61 "/>
</clipPath>
</defs>
<g id="surface1">
<path style="fill:none;stroke-width:0.3985;stroke-linecap:butt;stroke-linejoin:miter;stroke:rgb(0%,0%,0%);stroke-opacity:1;stroke-miterlimit:10;" d="M 0.0003772 0.000777452 L 56.694373 0.000777452 L 56.694373 56.694774 L 47.248648 103.943045 L 0.0003772 28.345811 Z M 0.0003772 0.000777452 " transform="matrix(0.994167,0,0,-0.994167,23.655875,123.082804)"/>
<g style="fill:rgb(0%,0%,0%);fill-opacity:1;">
  <use xlink:href="#glyph0-1" x="19.740847" y="133.893372"/>
</g>
<g style="fill:rgb(0%,0%,0%);fill-opacity:1;">
  <use xlink:href="#glyph0-2" x="75.797928" y="133.893372"/>
</g>
<g style="fill:rgb(0%,0%,0%);fill-opacity:1;">
  <use xlink:href="#glyph0-2" x="83.696582" y="70.540102"/>
</g>
<g style="fill:rgb(0%,0%,0%);fill-opacity:1;">
  <use xlink:href="#glyph1-1" x="92.138052" y="66.752327"/>
</g>
<g style="fill:rgb(0%,0%,0%);fill-opacity:1;">
  <use xlink:href="#glyph0-3" x="65.135491" y="16.06971"/>
</g>
<g style="fill:rgb(0%,0%,0%);fill-opacity:1;">
  <use xlink:href="#glyph1-1" x="73.342337" y="12.281935"/>
</g>
<g style="fill:rgb(0%,0%,0%);fill-opacity:1;">
  <use xlink:href="#glyph0-1" x="9.370694" y="98.721744"/>
</g>
<g style="fill:rgb(0%,0%,0%);fill-opacity:1;">
  <use xlink:href="#glyph1-1" x="17.199757" y="94.933969"/>
</g>
<path style="fill:none;stroke-width:0.3985;stroke-linecap:butt;stroke-linejoin:miter;stroke:rgb(0%,0%,0%);stroke-opacity:1;stroke-miterlimit:10;" d="M 0.0003772 28.345811 L 56.694373 56.694774 " transform="matrix(0.994167,0,0,-0.994167,23.655875,123.082804)"/>
<path style="fill:none;stroke-width:0.3985;stroke-linecap:butt;stroke-linejoin:miter;stroke:rgb(0%,0%,0%);stroke-opacity:1;stroke-dasharray:2.98883,2.98883;stroke-miterlimit:10;" d="M 47.248648 103.943045 L 47.248648 18.900086 L 56.694373 0.000777452 " transform="matrix(0.994167,0,0,-0.994167,23.655875,123.082804)"/>
<g style="fill:rgb(0%,0%,0%);fill-opacity:1;">
  <use xlink:href="#glyph0-3" x="66.525336" y="115.101634"/>
</g>
<path style="fill:none;stroke-width:0.3985;stroke-linecap:butt;stroke-linejoin:miter;stroke:rgb(0%,0%,0%);stroke-opacity:1;stroke-dasharray:2.98883,2.98883;stroke-miterlimit:10;" d="M 0.0003772 0.000777452 L 47.248648 18.900086 " transform="matrix(0.994167,0,0,-0.994167,23.655875,123.082804)"/>
<path style="fill:none;stroke-width:0.3985;stroke-linecap:butt;stroke-linejoin:miter;stroke:rgb(0%,0%,0%);stroke-opacity:1;stroke-miterlimit:10;" d="M 113.38837 0.000777452 L 170.082366 0.000777452 L 170.082366 28.345811 L 141.733403 85.039807 L 113.38837 56.694774 Z M 113.38837 0.000777452 " transform="matrix(0.994167,0,0,-0.994167,23.655875,123.082804)"/>
<path style="fill:none;stroke-width:0.3985;stroke-linecap:butt;stroke-linejoin:miter;stroke:rgb(0%,0%,0%);stroke-opacity:1;stroke-miterlimit:10;" d="M 113.38837 56.694774 L 170.082366 28.345811 " transform="matrix(0.994167,0,0,-0.994167,23.655875,123.082804)"/>
<path style="fill:none;stroke-width:0.3985;stroke-linecap:butt;stroke-linejoin:miter;stroke:rgb(0%,0%,0%);stroke-opacity:1;stroke-dasharray:2.98883,2.98883;stroke-miterlimit:10;" d="M 141.733403 0.000777452 L 141.733403 85.039807 " transform="matrix(0.994167,0,0,-0.994167,23.655875,123.082804)"/>
<path style="fill:none;stroke-width:0.3985;stroke-linecap:butt;stroke-linejoin:miter;stroke:rgb(0%,0%,0%);stroke-opacity:1;stroke-miterlimit:10;" d="M 198.427399 0.000777452 L 255.121396 0.000777452 L 255.121396 85.039807 L 198.427399 28.345811 Z M 198.427399 0.000777452 " transform="matrix(0.994167,0,0,-0.994167,23.655875,123.082804)"/>
<path style="fill:none;stroke-width:0.3985;stroke-linecap:butt;stroke-linejoin:miter;stroke:rgb(0%,0%,0%);stroke-opacity:1;stroke-miterlimit:10;" d="M 198.427399 28.345811 L 255.121396 56.694774 " transform="matrix(0.994167,0,0,-0.994167,23.655875,123.082804)"/>
<path style="fill:none;stroke-width:0.3985;stroke-linecap:butt;stroke-linejoin:miter;stroke:rgb(0%,0%,0%);stroke-opacity:1;stroke-miterlimit:10;" d="M 283.466429 0.000777452 L 340.160425 0.000777452 L 340.160425 28.345811 L 283.466429 85.039807 Z M 283.466429 0.000777452 " transform="matrix(0.994167,0,0,-0.994167,23.655875,123.082804)"/>
<path style="fill:none;stroke-width:0.3985;stroke-linecap:butt;stroke-linejoin:miter;stroke:rgb(0%,0%,0%);stroke-opacity:1;stroke-miterlimit:10;" d="M 283.466429 56.694774 L 340.160425 28.345811 " transform="matrix(0.994167,0,0,-0.994167,23.655875,123.082804)"/>
<g clip-path="url(#clip1)" clip-rule="nonzero">
<path style="fill:none;stroke-width:0.3985;stroke-linecap:butt;stroke-linejoin:miter;stroke:rgb(0%,0%,0%);stroke-opacity:1;stroke-miterlimit:10;" d="M 368.509388 0.000777452 L 425.203384 0.000777452 L 425.203384 56.694774 L 396.854422 85.039807 L 368.509388 28.345811 Z M 368.509388 0.000777452 " transform="matrix(0.994167,0,0,-0.994167,23.655875,123.082804)"/>
</g>
<g clip-path="url(#clip2)" clip-rule="nonzero">
<path style="fill:none;stroke-width:0.3985;stroke-linecap:butt;stroke-linejoin:miter;stroke:rgb(0%,0%,0%);stroke-opacity:1;stroke-miterlimit:10;" d="M 368.509388 28.345811 L 425.203384 56.694774 " transform="matrix(0.994167,0,0,-0.994167,23.655875,123.082804)"/>
</g>
<path style="fill:none;stroke-width:0.3985;stroke-linecap:butt;stroke-linejoin:miter;stroke:rgb(0%,0%,0%);stroke-opacity:1;stroke-dasharray:2.98883,2.98883;stroke-miterlimit:10;" d="M 396.854422 0.000777452 L 396.854422 85.039807 " transform="matrix(0.994167,0,0,-0.994167,23.655875,123.082804)"/>
</g>
</svg>
