<?xml version="1.0" encoding="UTF-8"?>
<svg xmlns="http://www.w3.org/2000/svg" xmlns:xlink="http://www.w3.org/1999/xlink" width="152.09pt" height="123.75pt" viewBox="0 0 152.09 123.75" version="1.2">
<g id="surface1">
<path style="fill:none;stroke-width:0.3985;stroke-linecap:butt;stroke-linejoin:miter;stroke:rgb(0%,0%,0%);stroke-opacity:1;stroke-miterlimit:10;" d="M -0.00175786 -0.0018421 L -0.00175786 113.387408 L 56.694832 113.387408 L 56.694832 -0.0018421 Z M -0.00175786 -0.0018421 " transform="matrix(0.994052,0,0,-0.994052,5.150185,118.107544)"/>
<path style=" stroke:none;fill-rule:nonzero;fill:rgb(79.998779%,79.998779%,79.998779%);fill-opacity:1;" d="M 5.148438 118.109375 L 5.148438 61.75 L 61.507812 61.75 L 61.507812 118.109375 Z M 5.148438 118.109375 "/>
<path style="fill:none;stroke-width:0.3985;stroke-linecap:butt;stroke-linejoin:miter;stroke:rgb(0%,0%,0%);stroke-opacity:1;stroke-miterlimit:10;" d="M 85.039198 -0.0018421 L 85.039198 113.387408 L 141.735788 113.387408 L 141.735788 -0.0018421 Z M 85.039198 -0.0018421 " transform="matrix(0.994052,0,0,-0.994052,5.150185,118.107544)"/>
<path style=" stroke:none;fill-rule:nonzero;fill:rgb(79.998779%,79.998779%,79.998779%);fill-opacity:1;" d="M 89.683594 118.109375 L 89.683594 33.574219 L 146.042969 33.574219 L 146.042969 118.109375 Z M 89.683594 118.109375 "/>
<path style=" stroke:none;fill-rule:nonzero;fill:rgb(100%,100%,100%);fill-opacity:1;" d="M 131.953125 104.019531 C 131.953125 96.238281 125.644531 89.929688 117.863281 89.929688 C 110.082031 89.929688 103.773438 96.238281 103.773438 104.019531 C 103.773438 111.800781 110.082031 118.109375 117.863281 118.109375 C 125.644531 118.109375 131.953125 111.800781 131.953125 104.019531 Z M 131.953125 104.019531 "/>
</g>
</svg>
