<?xml version="1.0" encoding="UTF-8"?>
<svg xmlns="http://www.w3.org/2000/svg" xmlns:xlink="http://www.w3.org/1999/xlink" width="197.05pt" height="91.91pt" viewBox="0 0 197.05 91.91" version="1.2">
<defs>
<clipPath id="clip1">
  <path d="M 53 0.175781 L 96 0.175781 L 96 89 L 53 89 Z M 53 0.175781 "/>
</clipPath>
<clipPath id="clip2">
  <path d="M 53 0.175781 L 96 0.175781 L 96 89 L 53 89 Z M 53 0.175781 "/>
</clipPath>
<clipPath id="clip3">
  <path d="M 53 0.175781 L 96 0.175781 L 96 89 L 53 89 Z M 53 0.175781 "/>
</clipPath>
</defs>
<g id="surface1">
<g clip-path="url(#clip1)" clip-rule="nonzero">
<path style="fill:none;stroke-width:0.3985;stroke-linecap:butt;stroke-linejoin:miter;stroke:rgb(0%,0%,0%);stroke-opacity:1;stroke-miterlimit:10;" d="M 0.00176637 0.00129764 L -30.621727 78.251742 L 0.00176637 0.00129764 " transform="matrix(0.995202,0,0,-0.995202,89.588086,83.204416)"/>
</g>
<path style="fill:none;stroke-width:0.3985;stroke-linecap:butt;stroke-linejoin:miter;stroke:rgb(0%,0%,0%);stroke-opacity:1;stroke-miterlimit:10;" d="M 0.00176637 0.00129764 L 0.00176637 0.00129764 " transform="matrix(0.995202,0,0,-0.995202,89.588086,83.204416)"/>
<g clip-path="url(#clip2)" clip-rule="nonzero">
<path style="fill:none;stroke-width:0.3985;stroke-linecap:butt;stroke-linejoin:miter;stroke:rgb(0%,0%,0%);stroke-opacity:1;stroke-miterlimit:10;" d="M -30.621727 78.251742 L 0.00176637 0.00129764 " transform="matrix(0.995202,0,0,-0.995202,89.588086,83.204416)"/>
</g>
<path style="fill:none;stroke-width:0.3985;stroke-linecap:butt;stroke-linejoin:miter;stroke:rgb(0%,0%,0%);stroke-opacity:1;stroke-dasharray:2.98883,2.98883;stroke-miterlimit:10;" d="M 0.00176637 0.00129764 L 0.00176637 0.00129764 " transform="matrix(0.995202,0,0,-0.995202,89.588086,83.204416)"/>
<g clip-path="url(#clip3)" clip-rule="nonzero">
<path style="fill:none;stroke-width:0.3985;stroke-linecap:butt;stroke-linejoin:miter;stroke:rgb(0%,0%,0%);stroke-opacity:1;stroke-dasharray:2.98883,2.98883;stroke-miterlimit:10;" d="M -30.621727 78.251742 L 0.00176637 0.00129764 " transform="matrix(0.995202,0,0,-0.995202,89.588086,83.204416)"/>
</g>
</g>
</svg>
