<?xml version="1.0" encoding="UTF-8"?>
<svg xmlns="http://www.w3.org/2000/svg" xmlns:xlink="http://www.w3.org/1999/xlink" width="84.06pt" height="84.06pt" viewBox="0 0 84.06 84.06" version="1.2">
<g id="surface1">
<path style="fill:none;stroke-width:0.3985;stroke-linecap:butt;stroke-linejoin:miter;stroke:rgb(75%,75%,75%);stroke-opacity:1;stroke-miterlimit:10;" d="M 0.00131025 -0.00113398 L 73.699134 -0.00113398 M 0.00131025 5.670968 L 73.699134 5.670968 M 0.00131025 11.33912 L 73.699134 11.33912 M 0.00131025 17.007271 L 73.699134 17.007271 M 0.00131025 22.675423 L 73.699134 22.675423 M 0.00131025 28.347525 L 73.699134 28.347525 M 0.00131025 34.015677 L 73.699134 34.015677 M 0.00131025 39.683829 L 73.699134 39.683829 M 0.00131025 45.355931 L 73.699134 45.355931 M 0.00131025 51.024082 L 73.699134 51.024082 M 0.00131025 56.692234 L 73.699134 56.692234 M 0.00131025 62.360386 L 73.699134 62.360386 M 0.00131025 68.032488 L 73.699134 68.032488 M 0.00131025 73.69669 L 73.699134 73.69669 M 0.00131025 -0.00113398 L 0.00131025 73.70064 M 5.669462 -0.00113398 L 5.669462 73.70064 M 11.337614 -0.00113398 L 11.337614 73.70064 M 17.009716 -0.00113398 L 17.009716 73.70064 M 22.677868 -0.00113398 L 22.677868 73.70064 M 28.346019 -0.00113398 L 28.346019 73.70064 M 34.014171 -0.00113398 L 34.014171 73.70064 M 39.686273 -0.00113398 L 39.686273 73.70064 M 45.354425 -0.00113398 L 45.354425 73.70064 M 51.022577 -0.00113398 L 51.022577 73.70064 M 56.694678 -0.00113398 L 56.694678 73.70064 M 62.36283 -0.00113398 L 62.36283 73.70064 M 68.030982 -0.00113398 L 68.030982 73.70064 M 73.699134 -0.00113398 L 73.699134 73.70064 " transform="matrix(0.988941,0,0,-0.988941,5.123704,78.006691)"/>
<path style="fill:none;stroke-width:0.3985;stroke-linecap:butt;stroke-linejoin:miter;stroke:rgb(0%,0%,0%);stroke-opacity:1;stroke-miterlimit:10;" d="M 5.669462 5.670968 L 5.669462 22.675423 L 39.686273 22.675423 L 39.686273 5.670968 Z M 5.669462 5.670968 " transform="matrix(0.988941,0,0,-0.988941,5.123704,78.006691)"/>
<path style="fill:none;stroke-width:0.3985;stroke-linecap:butt;stroke-linejoin:miter;stroke:rgb(0%,0%,0%);stroke-opacity:1;stroke-miterlimit:10;" d="M 51.022577 34.015677 L 51.022577 68.032488 L 68.030982 68.032488 L 68.030982 34.015677 Z M 51.022577 34.015677 " transform="matrix(0.988941,0,0,-0.988941,5.123704,78.006691)"/>
<path style="fill:none;stroke-width:0.3985;stroke-linecap:butt;stroke-linejoin:miter;stroke:rgb(0%,0%,0%);stroke-opacity:1;stroke-miterlimit:10;" d="M 22.677868 5.670968 L 22.677868 22.675423 " transform="matrix(0.988941,0,0,-0.988941,5.123704,78.006691)"/>
<path style="fill:none;stroke-width:0.3985;stroke-linecap:butt;stroke-linejoin:miter;stroke:rgb(0%,0%,0%);stroke-opacity:1;stroke-miterlimit:10;" d="M 5.669462 34.015677 L 22.677868 34.015677 L 39.686273 68.032488 L 22.677868 68.032488 Z M 5.669462 34.015677 " transform="matrix(0.988941,0,0,-0.988941,5.123704,78.006691)"/>
</g>
</svg>
