<?xml version="1.0" encoding="UTF-8"?>
<svg xmlns="http://www.w3.org/2000/svg" xmlns:xlink="http://www.w3.org/1999/xlink" width="123.75pt" height="123.75pt" viewBox="0 0 123.75 123.75" version="1.2">
<defs>
<g>
<symbol overflow="visible" id="glyph0-0">
<path style="stroke:none;" d=""/>
</symbol>
<symbol overflow="visible" id="glyph0-1">
<path style="stroke:none;" d="M 3.078125 -6.703125 C 3.078125 -6.96875 3.078125 -6.984375 2.84375 -6.984375 C 2.1875 -6.3125 1.265625 -6.3125 0.9375 -6.3125 L 0.9375 -5.984375 C 1.140625 -5.984375 1.765625 -5.984375 2.3125 -6.265625 L 2.3125 -0.828125 C 2.3125 -0.453125 2.28125 -0.328125 1.328125 -0.328125 L 1 -0.328125 L 1 0 C 1.359375 -0.03125 2.28125 -0.03125 2.6875 -0.03125 C 3.109375 -0.03125 4.03125 -0.03125 4.390625 0 L 4.390625 -0.328125 L 4.0625 -0.328125 C 3.109375 -0.328125 3.078125 -0.4375 3.078125 -0.828125 Z M 3.078125 -6.703125 "/>
</symbol>
<symbol overflow="visible" id="glyph0-2">
<path style="stroke:none;" d="M 4.703125 -2.109375 C 4.703125 -3.359375 3.84375 -4.40625 2.71875 -4.40625 C 2.21875 -4.40625 1.765625 -4.234375 1.390625 -3.875 L 1.390625 -5.90625 C 1.59375 -5.84375 1.9375 -5.78125 2.28125 -5.78125 C 3.5625 -5.78125 4.296875 -6.734375 4.296875 -6.875 C 4.296875 -6.9375 4.265625 -6.984375 4.1875 -6.984375 C 4.1875 -6.984375 4.15625 -6.984375 4.109375 -6.953125 C 3.90625 -6.859375 3.390625 -6.640625 2.6875 -6.640625 C 2.265625 -6.640625 1.78125 -6.71875 1.296875 -6.9375 C 1.203125 -6.96875 1.1875 -6.96875 1.15625 -6.96875 C 1.0625 -6.96875 1.0625 -6.890625 1.0625 -6.71875 L 1.0625 -3.609375 C 1.0625 -3.421875 1.0625 -3.34375 1.203125 -3.34375 C 1.28125 -3.34375 1.296875 -3.375 1.34375 -3.4375 C 1.453125 -3.609375 1.84375 -4.171875 2.6875 -4.171875 C 3.234375 -4.171875 3.5 -3.6875 3.578125 -3.5 C 3.75 -3.109375 3.78125 -2.703125 3.78125 -2.1875 C 3.78125 -1.8125 3.78125 -1.1875 3.515625 -0.75 C 3.265625 -0.328125 2.890625 -0.0625 2.40625 -0.0625 C 1.640625 -0.0625 1.03125 -0.625 0.859375 -1.234375 C 0.890625 -1.234375 0.921875 -1.21875 1.03125 -1.21875 C 1.390625 -1.21875 1.5625 -1.484375 1.5625 -1.734375 C 1.5625 -1.984375 1.390625 -2.25 1.03125 -2.25 C 0.890625 -2.25 0.53125 -2.171875 0.53125 -1.6875 C 0.53125 -0.78125 1.25 0.234375 2.421875 0.234375 C 3.640625 0.234375 4.703125 -0.78125 4.703125 -2.109375 Z M 4.703125 -2.109375 "/>
</symbol>
<symbol overflow="visible" id="glyph0-3">
<path style="stroke:none;" d="M 3.046875 -3.6875 C 3.90625 -3.96875 4.515625 -4.703125 4.515625 -5.53125 C 4.515625 -6.390625 3.578125 -6.984375 2.578125 -6.984375 C 1.515625 -6.984375 0.71875 -6.359375 0.71875 -5.5625 C 0.71875 -5.203125 0.953125 -5.015625 1.265625 -5.015625 C 1.578125 -5.015625 1.796875 -5.25 1.796875 -5.546875 C 1.796875 -6.078125 1.296875 -6.078125 1.140625 -6.078125 C 1.46875 -6.578125 2.15625 -6.71875 2.53125 -6.71875 C 2.96875 -6.71875 3.546875 -6.484375 3.546875 -5.546875 C 3.546875 -5.421875 3.515625 -4.8125 3.25 -4.34375 C 2.9375 -3.84375 2.578125 -3.8125 2.3125 -3.8125 C 2.234375 -3.796875 1.984375 -3.78125 1.90625 -3.78125 C 1.828125 -3.765625 1.75 -3.75 1.75 -3.65625 C 1.75 -3.53125 1.828125 -3.53125 2 -3.53125 L 2.46875 -3.53125 C 3.328125 -3.53125 3.71875 -2.828125 3.71875 -1.796875 C 3.71875 -0.359375 2.984375 -0.0625 2.53125 -0.0625 C 2.078125 -0.0625 1.296875 -0.234375 0.921875 -0.859375 C 1.296875 -0.8125 1.609375 -1.03125 1.609375 -1.4375 C 1.609375 -1.8125 1.328125 -2.03125 1.03125 -2.03125 C 0.78125 -2.03125 0.4375 -1.875 0.4375 -1.421875 C 0.4375 -0.46875 1.421875 0.234375 2.5625 0.234375 C 3.84375 0.234375 4.796875 -0.71875 4.796875 -1.796875 C 4.796875 -2.65625 4.125 -3.46875 3.046875 -3.6875 Z M 3.046875 -3.6875 "/>
</symbol>
<symbol overflow="visible" id="glyph0-4">
<path style="stroke:none;" d="M 1.328125 -0.8125 L 2.4375 -1.890625 C 4.078125 -3.328125 4.703125 -3.90625 4.703125 -4.953125 C 4.703125 -6.140625 3.765625 -6.984375 2.484375 -6.984375 C 1.296875 -6.984375 0.53125 -6.015625 0.53125 -5.078125 C 0.53125 -4.5 1.046875 -4.5 1.078125 -4.5 C 1.265625 -4.5 1.625 -4.625 1.625 -5.046875 C 1.625 -5.328125 1.4375 -5.59375 1.0625 -5.59375 C 0.984375 -5.59375 0.96875 -5.59375 0.9375 -5.59375 C 1.171875 -6.265625 1.734375 -6.65625 2.34375 -6.65625 C 3.296875 -6.65625 3.75 -5.8125 3.75 -4.953125 C 3.75 -4.109375 3.234375 -3.28125 2.65625 -2.625 L 0.640625 -0.390625 C 0.53125 -0.265625 0.53125 -0.25 0.53125 0 L 4.40625 0 L 4.703125 -1.828125 L 4.453125 -1.828125 C 4.390625 -1.515625 4.3125 -1.046875 4.21875 -0.890625 C 4.140625 -0.8125 3.453125 -0.8125 3.21875 -0.8125 Z M 1.328125 -0.8125 "/>
</symbol>
<symbol overflow="visible" id="glyph0-5">
<path style="stroke:none;" d="M 3.078125 -1.734375 L 3.078125 -0.8125 C 3.078125 -0.4375 3.0625 -0.328125 2.28125 -0.328125 L 2.0625 -0.328125 L 2.0625 0 C 2.5 -0.03125 3.046875 -0.03125 3.484375 -0.03125 C 3.921875 -0.03125 4.484375 -0.03125 4.90625 0 L 4.90625 -0.328125 L 4.6875 -0.328125 C 3.90625 -0.328125 3.890625 -0.4375 3.890625 -0.8125 L 3.890625 -1.734375 L 4.9375 -1.734375 L 4.9375 -2.0625 L 3.890625 -2.0625 L 3.890625 -6.828125 C 3.890625 -7.03125 3.890625 -7.09375 3.71875 -7.09375 C 3.625 -7.09375 3.59375 -7.09375 3.515625 -6.96875 L 0.296875 -2.0625 L 0.296875 -1.734375 Z M 3.140625 -2.0625 L 0.59375 -2.0625 L 3.140625 -5.96875 Z M 3.140625 -2.0625 "/>
</symbol>
<symbol overflow="visible" id="glyph0-6">
<path style="stroke:none;" d="M 4.828125 -3.359375 C 4.828125 -4.1875 4.765625 -5.03125 4.40625 -5.8125 C 3.921875 -6.8125 3.0625 -6.984375 2.625 -6.984375 C 1.984375 -6.984375 1.234375 -6.703125 0.796875 -5.734375 C 0.46875 -5.015625 0.40625 -4.1875 0.40625 -3.359375 C 0.40625 -2.5625 0.453125 -1.625 0.875 -0.828125 C 1.328125 0.015625 2.09375 0.234375 2.609375 0.234375 C 3.171875 0.234375 3.96875 0.015625 4.4375 -0.984375 C 4.765625 -1.703125 4.828125 -2.53125 4.828125 -3.359375 Z M 2.609375 0 C 2.203125 0 1.578125 -0.265625 1.390625 -1.265625 C 1.28125 -1.890625 1.28125 -2.859375 1.28125 -3.484375 C 1.28125 -4.15625 1.28125 -4.84375 1.359375 -5.40625 C 1.5625 -6.65625 2.34375 -6.75 2.609375 -6.75 C 2.953125 -6.75 3.65625 -6.5625 3.84375 -5.53125 C 3.953125 -4.9375 3.953125 -4.140625 3.953125 -3.484375 C 3.953125 -2.6875 3.953125 -1.984375 3.84375 -1.3125 C 3.6875 -0.3125 3.078125 0 2.609375 0 Z M 2.609375 0 "/>
</symbol>
</g>
</defs>
<g id="surface1">
<path style="fill:none;stroke-width:0.3985;stroke-linecap:butt;stroke-linejoin:miter;stroke:rgb(0%,0%,0%);stroke-opacity:1;stroke-miterlimit:10;" d="M 0.00132323 0.00182828 L 113.386172 0.00182828 M 0.00132323 28.34804 L 113.386172 28.34804 M 0.00132323 56.694253 L 113.386172 56.694253 M 0.00132323 85.040465 L 113.386172 85.040465 M 0.00132323 113.378848 L 113.386172 113.378848 M 0.00132323 0.00182828 L 0.00132323 113.386677 M 28.347535 0.00182828 L 28.347535 113.386677 M 56.693747 0.00182828 L 56.693747 113.386677 M 85.03996 0.00182828 L 85.03996 113.386677 M 113.378343 0.00182828 L 113.378343 113.386677 " transform="matrix(0.997984,0,0,-0.997984,5.170554,118.32995)"/>
<g style="fill:rgb(0%,0%,0%);fill-opacity:1;">
  <use xlink:href="#glyph0-1" x="14.075565" y="107.561704"/>
  <use xlink:href="#glyph0-2" x="19.31498" y="107.561704"/>
</g>
<g style="fill:rgb(0%,0%,0%);fill-opacity:1;">
  <use xlink:href="#glyph0-1" x="14.075565" y="79.271855"/>
  <use xlink:href="#glyph0-3" x="19.31498" y="79.271855"/>
</g>
<g style="fill:rgb(0%,0%,0%);fill-opacity:1;">
  <use xlink:href="#glyph0-1" x="14.075565" y="50.982006"/>
  <use xlink:href="#glyph0-4" x="19.31498" y="50.982006"/>
</g>
<g style="fill:rgb(0%,0%,0%);fill-opacity:1;">
  <use xlink:href="#glyph0-1" x="14.075565" y="22.693155"/>
  <use xlink:href="#glyph0-1" x="19.31498" y="22.693155"/>
</g>
<g style="fill:rgb(0%,0%,0%);fill-opacity:1;">
  <use xlink:href="#glyph0-4" x="42.365413" y="107.561704"/>
  <use xlink:href="#glyph0-5" x="47.604829" y="107.561704"/>
</g>
<g style="fill:rgb(0%,0%,0%);fill-opacity:1;">
  <use xlink:href="#glyph0-4" x="42.365413" y="79.271855"/>
  <use xlink:href="#glyph0-4" x="47.604829" y="79.271855"/>
</g>
<g style="fill:rgb(0%,0%,0%);fill-opacity:1;">
  <use xlink:href="#glyph0-4" x="42.365413" y="50.982006"/>
  <use xlink:href="#glyph0-4" x="47.604829" y="50.982006"/>
</g>
<g style="fill:rgb(0%,0%,0%);fill-opacity:1;">
  <use xlink:href="#glyph0-4" x="42.365413" y="22.693155"/>
  <use xlink:href="#glyph0-1" x="47.604829" y="22.693155"/>
</g>
<g style="fill:rgb(0%,0%,0%);fill-opacity:1;">
  <use xlink:href="#glyph0-3" x="70.655262" y="107.561704"/>
  <use xlink:href="#glyph0-5" x="75.894677" y="107.561704"/>
</g>
<g style="fill:rgb(0%,0%,0%);fill-opacity:1;">
  <use xlink:href="#glyph0-3" x="70.655262" y="79.271855"/>
  <use xlink:href="#glyph0-3" x="75.894677" y="79.271855"/>
</g>
<g style="fill:rgb(0%,0%,0%);fill-opacity:1;">
  <use xlink:href="#glyph0-3" x="70.655262" y="50.982006"/>
  <use xlink:href="#glyph0-3" x="75.894677" y="50.982006"/>
</g>
<g style="fill:rgb(0%,0%,0%);fill-opacity:1;">
  <use xlink:href="#glyph0-3" x="70.655262" y="22.693155"/>
  <use xlink:href="#glyph0-1" x="75.894677" y="22.693155"/>
</g>
<g style="fill:rgb(0%,0%,0%);fill-opacity:1;">
  <use xlink:href="#glyph0-5" x="98.945111" y="107.561704"/>
  <use xlink:href="#glyph0-5" x="104.184526" y="107.561704"/>
</g>
<g style="fill:rgb(0%,0%,0%);fill-opacity:1;">
  <use xlink:href="#glyph0-5" x="98.945111" y="79.271855"/>
  <use xlink:href="#glyph0-3" x="104.184526" y="79.271855"/>
</g>
<g style="fill:rgb(0%,0%,0%);fill-opacity:1;">
  <use xlink:href="#glyph0-5" x="98.945111" y="50.982006"/>
  <use xlink:href="#glyph0-4" x="104.184526" y="50.982006"/>
</g>
<g style="fill:rgb(0%,0%,0%);fill-opacity:1;">
  <use xlink:href="#glyph0-5" x="98.945111" y="22.693155"/>
  <use xlink:href="#glyph0-6" x="104.184526" y="22.693155"/>
</g>
</g>
</svg>
