<?xml version="1.0" encoding="UTF-8"?>
<svg xmlns="http://www.w3.org/2000/svg" xmlns:xlink="http://www.w3.org/1999/xlink" width="67.76pt" height="42.25pt" viewBox="0 0 67.76 42.25" version="1.2">
<g id="surface1">
<path style="fill:none;stroke-width:0.3985;stroke-linecap:butt;stroke-linejoin:miter;stroke:rgb(0%,0%,0%);stroke-opacity:1;stroke-miterlimit:10;" d="M -0.00117751 -0.000196006 L 25.510195 -0.000196006 M 31.891019 -0.000196006 L 57.402391 -0.000196006 " transform="matrix(0.982558,0,0,-0.982558,5.563657,5.089651)"/>
<path style="fill:none;stroke-width:0.3985;stroke-linecap:butt;stroke-linejoin:miter;stroke:rgb(0%,0%,0%);stroke-opacity:1;stroke-miterlimit:10;" d="M -0.00117751 -6.377045 L 25.510195 -6.377045 M 31.891019 -6.377045 L 57.402391 -6.377045 " transform="matrix(0.982558,0,0,-0.982558,5.563657,5.089651)"/>
<path style="fill:none;stroke-width:0.3985;stroke-linecap:butt;stroke-linejoin:miter;stroke:rgb(0%,0%,0%);stroke-opacity:1;stroke-miterlimit:10;" d="M -0.00117751 -12.75787 L 25.510195 -12.75787 M 31.891019 -12.75787 L 57.402391 -12.75787 " transform="matrix(0.982558,0,0,-0.982558,5.563657,5.089651)"/>
<path style="fill:none;stroke-width:0.3985;stroke-linecap:butt;stroke-linejoin:miter;stroke:rgb(0%,0%,0%);stroke-opacity:1;stroke-miterlimit:10;" d="M -0.00117751 -19.134719 L 57.402391 -19.134719 " transform="matrix(0.982558,0,0,-0.982558,5.563657,5.089651)"/>
<path style="fill:none;stroke-width:0.3985;stroke-linecap:butt;stroke-linejoin:miter;stroke:rgb(0%,0%,0%);stroke-opacity:1;stroke-miterlimit:10;" d="M -0.00117751 -25.511568 L 57.402391 -25.511568 " transform="matrix(0.982558,0,0,-0.982558,5.563657,5.089651)"/>
<path style="fill:none;stroke-width:0.3985;stroke-linecap:butt;stroke-linejoin:miter;stroke:rgb(0%,0%,0%);stroke-opacity:1;stroke-miterlimit:10;" d="M -0.00117751 -31.888417 L 57.402391 -31.888417 " transform="matrix(0.982558,0,0,-0.982558,5.563657,5.089651)"/>
</g>
</svg>
