<?xml version="1.0" encoding="UTF-8"?>
<svg xmlns="http://www.w3.org/2000/svg" xmlns:xlink="http://www.w3.org/1999/xlink" width="434.65pt" height="121.16pt" viewBox="0 0 434.65 121.16" version="1.2">
<defs>
<g>
<symbol overflow="visible" id="glyph0-0">
<path style="stroke:none;" d=""/>
</symbol>
<symbol overflow="visible" id="glyph0-1">
<path style="stroke:none;" d="M 3.484375 -3.140625 C 3.546875 -3.421875 3.78125 -4.375 4.515625 -4.375 C 4.5625 -4.375 4.8125 -4.375 5.03125 -4.234375 C 4.734375 -4.1875 4.53125 -3.921875 4.53125 -3.671875 C 4.53125 -3.515625 4.640625 -3.3125 4.921875 -3.3125 C 5.15625 -3.3125 5.5 -3.5 5.5 -3.921875 C 5.5 -4.453125 4.875 -4.609375 4.515625 -4.609375 C 3.921875 -4.609375 3.546875 -4.046875 3.421875 -3.8125 C 3.171875 -4.5 2.609375 -4.609375 2.296875 -4.609375 C 1.21875 -4.609375 0.625 -3.265625 0.625 -3 C 0.625 -2.890625 0.734375 -2.890625 0.75 -2.890625 C 0.828125 -2.890625 0.859375 -2.921875 0.890625 -3.015625 C 1.234375 -4.109375 1.921875 -4.375 2.28125 -4.375 C 2.484375 -4.375 2.84375 -4.28125 2.84375 -3.671875 C 2.84375 -3.359375 2.671875 -2.65625 2.28125 -1.203125 C 2.109375 -0.546875 1.75 -0.109375 1.296875 -0.109375 C 1.234375 -0.109375 0.984375 -0.109375 0.765625 -0.25 C 1.03125 -0.296875 1.265625 -0.515625 1.265625 -0.8125 C 1.265625 -1.09375 1.03125 -1.171875 0.875 -1.171875 C 0.5625 -1.171875 0.296875 -0.90625 0.296875 -0.578125 C 0.296875 -0.09375 0.828125 0.109375 1.28125 0.109375 C 1.96875 0.109375 2.34375 -0.609375 2.375 -0.671875 C 2.5 -0.296875 2.875 0.109375 3.5 0.109375 C 4.578125 0.109375 5.171875 -1.234375 5.171875 -1.484375 C 5.171875 -1.59375 5.078125 -1.59375 5.046875 -1.59375 C 4.953125 -1.59375 4.921875 -1.546875 4.90625 -1.484375 C 4.5625 -0.359375 3.859375 -0.109375 3.515625 -0.109375 C 3.109375 -0.109375 2.953125 -0.453125 2.953125 -0.796875 C 2.953125 -1.03125 3.015625 -1.265625 3.125 -1.71875 Z M 3.484375 -3.140625 "/>
</symbol>
<symbol overflow="visible" id="glyph0-2">
<path style="stroke:none;" d="M 5.0625 -3.96875 C 5.109375 -4.109375 5.109375 -4.140625 5.109375 -4.203125 C 5.109375 -4.390625 4.953125 -4.484375 4.796875 -4.484375 C 4.703125 -4.484375 4.53125 -4.421875 4.4375 -4.265625 C 4.421875 -4.21875 4.328125 -3.890625 4.296875 -3.703125 C 4.21875 -3.4375 4.140625 -3.15625 4.078125 -2.875 L 3.609375 -1 C 3.578125 -0.84375 3.125 -0.109375 2.4375 -0.109375 C 1.90625 -0.109375 1.796875 -0.578125 1.796875 -0.953125 C 1.796875 -1.4375 1.96875 -2.078125 2.328125 -3 C 2.484375 -3.421875 2.53125 -3.546875 2.53125 -3.75 C 2.53125 -4.21875 2.203125 -4.609375 1.671875 -4.609375 C 0.6875 -4.609375 0.296875 -3.09375 0.296875 -3 C 0.296875 -2.890625 0.40625 -2.890625 0.421875 -2.890625 C 0.53125 -2.890625 0.546875 -2.921875 0.59375 -3.078125 C 0.875 -4.0625 1.296875 -4.375 1.640625 -4.375 C 1.734375 -4.375 1.90625 -4.375 1.90625 -4.046875 C 1.90625 -3.78125 1.796875 -3.515625 1.734375 -3.3125 C 1.3125 -2.203125 1.125 -1.609375 1.125 -1.125 C 1.125 -0.203125 1.78125 0.109375 2.390625 0.109375 C 2.796875 0.109375 3.15625 -0.0625 3.453125 -0.359375 C 3.3125 0.1875 3.1875 0.703125 2.765625 1.25 C 2.5 1.609375 2.109375 1.90625 1.625 1.90625 C 1.484375 1.90625 1.015625 1.875 0.828125 1.46875 C 1 1.46875 1.140625 1.46875 1.28125 1.34375 C 1.390625 1.25 1.484375 1.109375 1.484375 0.921875 C 1.484375 0.59375 1.203125 0.546875 1.109375 0.546875 C 0.859375 0.546875 0.515625 0.71875 0.515625 1.234375 C 0.515625 1.75 0.984375 2.140625 1.625 2.140625 C 2.703125 2.140625 3.765625 1.1875 4.0625 0.015625 Z M 5.0625 -3.96875 "/>
</symbol>
<symbol overflow="visible" id="glyph0-3">
<path style="stroke:none;" d="M 3.828125 -4.171875 L 4.71875 -4.171875 C 4.921875 -4.171875 5.03125 -4.171875 5.03125 -4.375 C 5.03125 -4.484375 4.921875 -4.484375 4.75 -4.484375 L 3.890625 -4.484375 L 4.109375 -5.6875 C 4.140625 -5.90625 4.296875 -6.640625 4.359375 -6.765625 C 4.453125 -6.96875 4.625 -7.125 4.84375 -7.125 C 4.890625 -7.125 5.15625 -7.125 5.359375 -6.9375 C 4.890625 -6.890625 4.796875 -6.53125 4.796875 -6.375 C 4.796875 -6.125 4.984375 -6 5.1875 -6 C 5.453125 -6 5.75 -6.234375 5.75 -6.625 C 5.75 -7.109375 5.28125 -7.34375 4.84375 -7.34375 C 4.484375 -7.34375 3.828125 -7.15625 3.515625 -6.125 C 3.453125 -5.90625 3.421875 -5.8125 3.171875 -4.484375 L 2.453125 -4.484375 C 2.265625 -4.484375 2.140625 -4.484375 2.140625 -4.296875 C 2.140625 -4.171875 2.234375 -4.171875 2.4375 -4.171875 L 3.125 -4.171875 L 2.34375 -0.046875 C 2.15625 0.953125 1.984375 1.90625 1.4375 1.90625 C 1.390625 1.90625 1.140625 1.90625 0.9375 1.71875 C 1.421875 1.6875 1.515625 1.3125 1.515625 1.15625 C 1.515625 0.921875 1.328125 0.796875 1.125 0.796875 C 0.859375 0.796875 0.546875 1.015625 0.546875 1.421875 C 0.546875 1.890625 1.015625 2.140625 1.4375 2.140625 C 2.015625 2.140625 2.421875 1.515625 2.609375 1.125 C 2.953125 0.46875 3.1875 -0.796875 3.203125 -0.859375 Z M 3.828125 -4.171875 "/>
</symbol>
<symbol overflow="visible" id="glyph0-4">
<path style="stroke:none;" d="M 1.859375 -1.203125 C 1.453125 -0.5 1.046875 -0.359375 0.578125 -0.328125 C 0.453125 -0.3125 0.359375 -0.3125 0.359375 -0.109375 C 0.359375 -0.046875 0.421875 0 0.5 0 C 0.78125 0 1.109375 -0.03125 1.390625 -0.03125 C 1.734375 -0.03125 2.109375 0 2.4375 0 C 2.5 0 2.640625 0 2.640625 -0.203125 C 2.640625 -0.3125 2.546875 -0.328125 2.46875 -0.328125 C 2.234375 -0.34375 1.984375 -0.421875 1.984375 -0.6875 C 1.984375 -0.8125 2.046875 -0.921875 2.125 -1.078125 L 2.921875 -2.40625 L 5.53125 -2.40625 C 5.5625 -2.1875 5.703125 -0.765625 5.703125 -0.671875 C 5.703125 -0.359375 5.15625 -0.328125 4.953125 -0.328125 C 4.796875 -0.328125 4.703125 -0.328125 4.703125 -0.109375 C 4.703125 0 4.828125 0 4.84375 0 C 5.28125 0 5.71875 -0.03125 6.15625 -0.03125 C 6.40625 -0.03125 7.0625 0 7.328125 0 C 7.390625 0 7.515625 0 7.515625 -0.203125 C 7.515625 -0.328125 7.40625 -0.328125 7.28125 -0.328125 C 6.625 -0.328125 6.625 -0.390625 6.59375 -0.703125 L 5.96875 -7.21875 C 5.9375 -7.421875 5.9375 -7.46875 5.765625 -7.46875 C 5.59375 -7.46875 5.5625 -7.390625 5.5 -7.28125 Z M 3.109375 -2.734375 L 5.171875 -6.171875 L 5.5 -2.734375 Z M 3.109375 -2.734375 "/>
</symbol>
<symbol overflow="visible" id="glyph0-5">
<path style="stroke:none;" d="M 2 -0.546875 C 2 -0.859375 1.75 -1.109375 1.453125 -1.109375 C 1.140625 -1.109375 0.890625 -0.859375 0.890625 -0.546875 C 0.890625 -0.25 1.140625 0 1.453125 0 C 1.75 0 2 -0.25 2 -0.546875 Z M 2 -0.546875 "/>
</symbol>
<symbol overflow="visible" id="glyph0-6">
<path style="stroke:none;" d="M 1.671875 -0.8125 C 1.5625 -0.40625 1.546875 -0.328125 0.71875 -0.328125 C 0.546875 -0.328125 0.4375 -0.328125 0.4375 -0.109375 C 0.4375 0 0.53125 0 0.71875 0 L 4.4375 0 C 6.09375 0 7.3125 -1.234375 7.3125 -2.25 C 7.3125 -3 6.71875 -3.609375 5.703125 -3.71875 C 6.78125 -3.921875 7.875 -4.6875 7.875 -5.6875 C 7.875 -6.453125 7.1875 -7.125 5.9375 -7.125 L 2.4375 -7.125 C 2.234375 -7.125 2.140625 -7.125 2.140625 -6.90625 C 2.140625 -6.796875 2.234375 -6.796875 2.421875 -6.796875 C 2.453125 -6.796875 2.640625 -6.796875 2.828125 -6.78125 C 3.015625 -6.75 3.109375 -6.75 3.109375 -6.609375 C 3.109375 -6.5625 3.09375 -6.53125 3.0625 -6.40625 Z M 3.234375 -3.8125 L 3.890625 -6.40625 C 3.984375 -6.765625 4 -6.796875 4.453125 -6.796875 L 5.796875 -6.796875 C 6.71875 -6.796875 6.9375 -6.1875 6.9375 -5.71875 C 6.9375 -4.796875 6.03125 -3.8125 4.765625 -3.8125 Z M 2.765625 -0.328125 C 2.625 -0.328125 2.609375 -0.328125 2.546875 -0.328125 C 2.4375 -0.34375 2.40625 -0.359375 2.40625 -0.4375 C 2.40625 -0.46875 2.40625 -0.484375 2.453125 -0.671875 L 3.171875 -3.578125 L 5.15625 -3.578125 C 6.15625 -3.578125 6.34375 -2.8125 6.34375 -2.359375 C 6.34375 -1.328125 5.421875 -0.328125 4.1875 -0.328125 Z M 2.765625 -0.328125 "/>
</symbol>
<symbol overflow="visible" id="glyph0-7">
<path style="stroke:none;" d="M 7.921875 -7.25 C 7.921875 -7.28125 7.90625 -7.34375 7.8125 -7.34375 C 7.78125 -7.34375 7.765625 -7.34375 7.65625 -7.21875 L 6.921875 -6.421875 C 6.828125 -6.5625 6.34375 -7.34375 5.1875 -7.34375 C 2.859375 -7.34375 0.515625 -5.046875 0.515625 -2.625 C 0.515625 -0.90625 1.75 0.234375 3.34375 0.234375 C 4.25 0.234375 5.046875 -0.1875 5.59375 -0.671875 C 6.5625 -1.515625 6.75 -2.46875 6.75 -2.5 C 6.75 -2.609375 6.640625 -2.609375 6.625 -2.609375 C 6.5625 -2.609375 6.5 -2.578125 6.484375 -2.5 C 6.390625 -2.203125 6.15625 -1.453125 5.4375 -0.859375 C 4.703125 -0.265625 4.046875 -0.09375 3.515625 -0.09375 C 2.578125 -0.09375 1.46875 -0.640625 1.46875 -2.265625 C 1.46875 -2.859375 1.6875 -4.546875 2.734375 -5.765625 C 3.359375 -6.5 4.34375 -7.03125 5.28125 -7.03125 C 6.34375 -7.03125 6.953125 -6.21875 6.953125 -5.015625 C 6.953125 -4.59375 6.921875 -4.578125 6.921875 -4.484375 C 6.921875 -4.375 7.03125 -4.375 7.078125 -4.375 C 7.21875 -4.375 7.21875 -4.390625 7.265625 -4.578125 Z M 7.921875 -7.25 "/>
</symbol>
<symbol overflow="visible" id="glyph0-8">
<path style="stroke:none;" d="M 1.65625 -0.8125 C 1.546875 -0.40625 1.53125 -0.328125 0.703125 -0.328125 C 0.53125 -0.328125 0.421875 -0.328125 0.421875 -0.125 C 0.421875 0 0.515625 0 0.703125 0 L 4.15625 0 C 6.328125 0 8.375 -2.203125 8.375 -4.484375 C 8.375 -5.953125 7.5 -7.125 5.9375 -7.125 L 2.421875 -7.125 C 2.234375 -7.125 2.109375 -7.125 2.109375 -6.921875 C 2.109375 -6.796875 2.203125 -6.796875 2.421875 -6.796875 C 2.546875 -6.796875 2.734375 -6.78125 2.859375 -6.78125 C 3.03125 -6.75 3.09375 -6.71875 3.09375 -6.609375 C 3.09375 -6.5625 3.078125 -6.53125 3.046875 -6.40625 Z M 3.90625 -6.40625 C 4 -6.765625 4.015625 -6.796875 4.46875 -6.796875 L 5.59375 -6.796875 C 6.609375 -6.796875 7.46875 -6.25 7.46875 -4.859375 C 7.46875 -4.359375 7.265625 -2.640625 6.375 -1.5 C 6.078125 -1.109375 5.25 -0.328125 3.96875 -0.328125 L 2.796875 -0.328125 C 2.640625 -0.328125 2.625 -0.328125 2.5625 -0.328125 C 2.453125 -0.34375 2.421875 -0.359375 2.421875 -0.4375 C 2.421875 -0.46875 2.421875 -0.484375 2.484375 -0.671875 Z M 3.90625 -6.40625 "/>
</symbol>
<symbol overflow="visible" id="glyph1-0">
<path style="stroke:none;" d=""/>
</symbol>
<symbol overflow="visible" id="glyph1-1">
<path style="stroke:none;" d="M 1.328125 -0.796875 L 2.421875 -1.875 C 4.046875 -3.3125 4.671875 -3.875 4.671875 -4.921875 C 4.671875 -6.109375 3.734375 -6.9375 2.46875 -6.9375 C 1.296875 -6.9375 0.515625 -5.984375 0.515625 -5.046875 C 0.515625 -4.46875 1.046875 -4.46875 1.078125 -4.46875 C 1.25 -4.46875 1.609375 -4.59375 1.609375 -5.015625 C 1.609375 -5.296875 1.421875 -5.5625 1.0625 -5.5625 C 0.984375 -5.5625 0.953125 -5.5625 0.921875 -5.5625 C 1.171875 -6.234375 1.734375 -6.625 2.328125 -6.625 C 3.28125 -6.625 3.734375 -5.78125 3.734375 -4.921875 C 3.734375 -4.078125 3.203125 -3.265625 2.640625 -2.609375 L 0.640625 -0.390625 C 0.515625 -0.265625 0.515625 -0.25 0.515625 0 L 4.390625 0 L 4.671875 -1.8125 L 4.421875 -1.8125 C 4.359375 -1.5 4.296875 -1.046875 4.1875 -0.890625 C 4.109375 -0.796875 3.421875 -0.796875 3.203125 -0.796875 Z M 1.328125 -0.796875 "/>
</symbol>
<symbol overflow="visible" id="glyph1-2">
<path style="stroke:none;" d="M 7.15625 -3.40625 C 7.3125 -3.40625 7.515625 -3.40625 7.515625 -3.609375 C 7.515625 -3.828125 7.3125 -3.828125 7.171875 -3.828125 L 0.921875 -3.828125 C 0.78125 -3.828125 0.578125 -3.828125 0.578125 -3.609375 C 0.578125 -3.40625 0.78125 -3.40625 0.9375 -3.40625 Z M 7.171875 -1.390625 C 7.3125 -1.390625 7.515625 -1.390625 7.515625 -1.59375 C 7.515625 -1.796875 7.3125 -1.796875 7.15625 -1.796875 L 0.9375 -1.796875 C 0.78125 -1.796875 0.578125 -1.796875 0.578125 -1.59375 C 0.578125 -1.390625 0.78125 -1.390625 0.921875 -1.390625 Z M 7.171875 -1.390625 "/>
</symbol>
<symbol overflow="visible" id="glyph1-3">
<path style="stroke:none;" d="M 3.453125 2.5 C 3.453125 2.46875 3.453125 2.453125 3.265625 2.265625 C 1.96875 0.953125 1.640625 -1.015625 1.640625 -2.609375 C 1.640625 -4.421875 2.03125 -6.234375 3.3125 -7.53125 C 3.453125 -7.65625 3.453125 -7.6875 3.453125 -7.71875 C 3.453125 -7.78125 3.40625 -7.8125 3.34375 -7.8125 C 3.234375 -7.8125 2.296875 -7.109375 1.6875 -5.78125 C 1.15625 -4.640625 1.03125 -3.484375 1.03125 -2.609375 C 1.03125 -1.796875 1.140625 -0.53125 1.71875 0.640625 C 2.34375 1.921875 3.234375 2.609375 3.34375 2.609375 C 3.40625 2.609375 3.453125 2.578125 3.453125 2.5 Z M 3.453125 2.5 "/>
</symbol>
<symbol overflow="visible" id="glyph1-4">
<path style="stroke:none;" d="M 3.015625 -2.609375 C 3.015625 -3.421875 2.890625 -4.671875 2.328125 -5.859375 C 1.703125 -7.140625 0.796875 -7.8125 0.703125 -7.8125 C 0.640625 -7.8125 0.59375 -7.78125 0.59375 -7.71875 C 0.59375 -7.6875 0.59375 -7.65625 0.796875 -7.46875 C 1.8125 -6.4375 2.40625 -4.78125 2.40625 -2.609375 C 2.40625 -0.828125 2.015625 1.015625 0.734375 2.328125 C 0.59375 2.453125 0.59375 2.46875 0.59375 2.5 C 0.59375 2.5625 0.640625 2.609375 0.703125 2.609375 C 0.796875 2.609375 1.734375 1.890625 2.359375 0.578125 C 2.890625 -0.578125 3.015625 -1.734375 3.015625 -2.609375 Z M 3.015625 -2.609375 "/>
</symbol>
<symbol overflow="visible" id="glyph1-5">
<path style="stroke:none;" d="M 3.0625 -6.671875 C 3.0625 -6.921875 3.0625 -6.9375 2.828125 -6.9375 C 2.171875 -6.28125 1.265625 -6.28125 0.921875 -6.28125 L 0.921875 -5.953125 C 1.140625 -5.953125 1.75 -5.953125 2.296875 -6.21875 L 2.296875 -0.828125 C 2.296875 -0.453125 2.265625 -0.328125 1.328125 -0.328125 L 0.984375 -0.328125 L 0.984375 0 C 1.359375 -0.03125 2.265625 -0.03125 2.671875 -0.03125 C 3.09375 -0.03125 4 -0.03125 4.359375 0 L 4.359375 -0.328125 L 4.03125 -0.328125 C 3.09375 -0.328125 3.0625 -0.4375 3.0625 -0.828125 Z M 3.0625 -6.671875 "/>
</symbol>
<symbol overflow="visible" id="glyph2-0">
<path style="stroke:none;" d=""/>
</symbol>
<symbol overflow="visible" id="glyph2-1">
<path style="stroke:none;" d="M 2 -3.265625 C 2.0625 -3.390625 2.0625 -3.4375 2.0625 -3.484375 C 2.0625 -3.703125 1.875 -3.875 1.65625 -3.875 C 1.390625 -3.875 1.3125 -3.65625 1.28125 -3.546875 L 0.359375 -0.546875 C 0.359375 -0.53125 0.328125 -0.4375 0.328125 -0.4375 C 0.328125 -0.359375 0.546875 -0.28125 0.609375 -0.28125 C 0.65625 -0.28125 0.65625 -0.296875 0.703125 -0.40625 Z M 2 -3.265625 "/>
</symbol>
</g>
</defs>
<g id="surface1">
<path style="fill:none;stroke-width:0.3985;stroke-linecap:butt;stroke-linejoin:miter;stroke:rgb(0%,0%,0%);stroke-opacity:1;stroke-miterlimit:10;" d="M -10.628251 0.0000189832 L 49.563528 0.0000189832 " transform="matrix(0.993115,0,0,-0.993115,30.976948,53.906269)"/>
<path style=" stroke:none;fill-rule:nonzero;fill:rgb(0%,0%,0%);fill-opacity:1;" d="M 83.761719 53.90625 C 82.707031 53.707031 80.992188 53.113281 79.804688 52.421875 L 79.804688 55.390625 C 80.992188 54.699219 82.707031 54.105469 83.761719 53.90625 "/>
<g style="fill:rgb(0%,0%,0%);fill-opacity:1;">
  <use xlink:href="#glyph0-1" x="80.781652" y="62.069672"/>
</g>
<path style="fill:none;stroke-width:0.3985;stroke-linecap:butt;stroke-linejoin:miter;stroke:rgb(0%,0%,0%);stroke-opacity:1;stroke-miterlimit:10;" d="M -10.628251 26.57361 C -10.628251 26.57361 -8.708785 20.964678 -7.973252 18.935079 C -7.233785 16.90548 -6.053786 13.802081 -5.314319 11.957348 C -4.578786 10.116549 -3.394853 7.30815 -2.65932 5.648284 C -1.919854 3.988418 -0.735921 1.475018 -0.00038771 0.0000189832 C 0.739079 -1.474981 1.919078 -3.69338 2.658545 -4.983513 C 3.394078 -6.273645 4.578011 -8.197045 5.313544 -9.302311 C 6.05301 -10.407577 7.236943 -12.032043 7.972476 -12.956376 C 8.708009 -13.876776 9.891942 -15.206242 10.631409 -15.945709 C 11.366942 -16.681242 12.550875 -17.715708 13.286408 -18.270308 C 14.025874 -18.824908 15.205874 -19.564374 15.94534 -19.930174 C 16.680873 -20.299907 17.864806 -20.744374 18.604272 -20.92924 C 19.339806 -21.114107 20.523738 -21.25964 21.259272 -21.25964 C 21.998738 -21.25964 23.178738 -21.114107 23.918204 -20.92924 C 24.653737 -20.744374 25.83767 -20.299907 26.573203 -19.930174 C 27.312669 -19.564374 28.496602 -18.824908 29.232135 -18.270308 C 29.971602 -17.715708 31.151601 -16.681242 31.891068 -15.945709 C 32.626601 -15.206242 33.810534 -13.876776 34.546067 -12.956376 C 35.285533 -12.032043 36.469466 -10.407577 37.204999 -9.302311 C 37.944466 -8.197045 39.124465 -6.273645 39.863932 -4.983513 C 40.599465 -3.69338 41.783398 -1.474981 42.518931 0.0000189832 C 43.258397 1.475018 44.438397 3.988418 45.177863 5.648284 C 45.913396 7.30815 47.097329 10.116549 47.836796 11.957348 C 48.572329 13.802081 49.756262 16.90548 50.491795 18.935079 C 51.231261 20.964678 53.150727 26.57361 53.150727 26.57361 " transform="matrix(0.993115,0,0,-0.993115,30.976948,53.906269)"/>
<path style="fill:none;stroke-width:0.3985;stroke-linecap:butt;stroke-linejoin:miter;stroke:rgb(0%,0%,0%);stroke-opacity:1;stroke-miterlimit:10;" d="M -0.00038771 -42.519299 L -0.00038771 38.932139 " transform="matrix(0.993115,0,0,-0.993115,30.976948,53.906269)"/>
<path style=" stroke:none;fill-rule:nonzero;fill:rgb(0%,0%,0%);fill-opacity:1;" d="M 30.976562 11.679688 C 30.777344 12.734375 30.183594 14.449219 29.492188 15.636719 L 32.460938 15.636719 C 31.769531 14.449219 31.175781 12.734375 30.976562 11.679688 "/>
<g style="fill:rgb(0%,0%,0%);fill-opacity:1;">
  <use xlink:href="#glyph0-2" x="34.650479" y="12.909499"/>
</g>
<path style="fill:none;stroke-width:0.3985;stroke-linecap:butt;stroke-linejoin:miter;stroke:rgb(0%,0%,0%);stroke-opacity:1;stroke-miterlimit:10;" d="M 42.518931 2.127952 L 42.518931 0.0000189832 " transform="matrix(0.993115,0,0,-0.993115,30.976948,53.906269)"/>
<g style="fill:rgb(0%,0%,0%);fill-opacity:1;">
  <use xlink:href="#glyph1-1" x="70.597261" y="64.300208"/>
</g>
<g style="fill:rgb(0%,0%,0%);fill-opacity:1;">
  <use xlink:href="#glyph0-2" x="9.745147" y="109.297244"/>
</g>
<g style="fill:rgb(0%,0%,0%);fill-opacity:1;">
  <use xlink:href="#glyph1-2" x="18.128029" y="109.297244"/>
</g>
<g style="fill:rgb(0%,0%,0%);fill-opacity:1;">
  <use xlink:href="#glyph0-3" x="29.135713" y="109.297244"/>
</g>
<g style="fill:rgb(0%,0%,0%);fill-opacity:1;">
  <use xlink:href="#glyph2-1" x="35.362542" y="105.512484"/>
</g>
<g style="fill:rgb(0%,0%,0%);fill-opacity:1;">
  <use xlink:href="#glyph1-3" x="38.139291" y="109.297244"/>
</g>
<g style="fill:rgb(0%,0%,0%);fill-opacity:1;">
  <use xlink:href="#glyph0-1" x="42.194179" y="109.297244"/>
</g>
<g style="fill:rgb(0%,0%,0%);fill-opacity:1;">
  <use xlink:href="#glyph1-4" x="48.15386" y="109.297244"/>
</g>
<path style="fill:none;stroke-width:0.3985;stroke-linecap:butt;stroke-linejoin:miter;stroke:rgb(0%,0%,0%);stroke-opacity:1;stroke-miterlimit:10;" d="M 74.410386 0.0000189832 L 134.606099 0.0000189832 " transform="matrix(0.993115,0,0,-0.993115,30.976948,53.906269)"/>
<path style=" stroke:none;fill-rule:nonzero;fill:rgb(0%,0%,0%);fill-opacity:1;" d="M 168.214844 53.90625 C 167.160156 53.707031 165.445312 53.113281 164.257812 52.421875 L 164.257812 55.390625 C 165.445312 54.699219 167.160156 54.105469 168.214844 53.90625 "/>
<g style="fill:rgb(0%,0%,0%);fill-opacity:1;">
  <use xlink:href="#glyph0-1" x="165.236131" y="62.069672"/>
</g>
<path style="fill:none;stroke-width:0.3985;stroke-linecap:butt;stroke-linejoin:miter;stroke:rgb(0%,0%,0%);stroke-opacity:1;stroke-miterlimit:10;" d="M 74.410386 -39.8643 C 74.410386 -39.8643 76.329852 -29.492104 77.069319 -26.034705 C 77.804852 -22.577306 78.988785 -17.680308 79.724318 -14.946642 C 80.463784 -12.21691 81.643784 -8.429111 82.38325 -6.352312 C 83.118783 -4.279446 84.302716 -1.48678 85.042183 0.0000189832 C 85.777716 1.486818 86.961649 3.390551 87.697182 4.358151 C 88.436648 5.329684 89.616648 6.45855 90.356114 6.97775 C 91.091647 7.493016 92.27558 7.95715 93.011113 8.098749 C 93.75058 8.236416 94.934512 8.145949 95.670045 7.972883 C 96.409512 7.799816 97.589511 7.264883 98.328978 6.851883 C 99.064511 6.43495 100.248444 5.569617 100.983977 4.983551 C 101.723443 4.393551 102.907376 3.307951 103.642909 2.615685 C 104.382376 1.923418 105.562375 0.727685 106.301842 0.0000189832 C 107.037375 -0.727647 108.221308 -1.92338 108.956841 -2.615647 C 109.696307 -3.307913 110.876307 -4.393513 111.615773 -4.983513 C 112.351306 -5.569579 113.535239 -6.434912 114.274706 -6.851845 C 115.010239 -7.264845 116.194172 -7.799778 116.929705 -7.972845 C 117.669171 -8.145912 118.849171 -8.236378 119.588637 -8.098712 C 120.32417 -7.957112 121.508103 -7.492978 122.24757 -6.977712 C 122.983103 -6.458512 124.167036 -5.329646 124.902569 -4.358113 C 125.642035 -3.390513 126.822035 -1.48678 127.561501 0.0000189832 C 128.297034 1.486818 129.480967 4.279484 130.2165 6.35235 C 130.955966 8.429149 132.139899 12.216948 132.875432 14.94668 C 133.614899 17.680346 134.794898 22.577344 135.534365 26.034743 C 136.269898 29.492142 138.189364 39.864338 138.189364 39.864338 " transform="matrix(0.993115,0,0,-0.993115,30.976948,53.906269)"/>
<path style="fill:none;stroke-width:0.3985;stroke-linecap:butt;stroke-linejoin:miter;stroke:rgb(0%,0%,0%);stroke-opacity:1;stroke-miterlimit:10;" d="M 85.042183 -42.519299 L 85.042183 38.932139 " transform="matrix(0.993115,0,0,-0.993115,30.976948,53.906269)"/>
<path style=" stroke:none;fill-rule:nonzero;fill:rgb(0%,0%,0%);fill-opacity:1;" d="M 115.433594 11.679688 C 115.234375 12.734375 114.640625 14.449219 113.949219 15.636719 L 116.914062 15.636719 C 116.222656 14.449219 115.628906 12.734375 115.433594 11.679688 "/>
<g style="fill:rgb(0%,0%,0%);fill-opacity:1;">
  <use xlink:href="#glyph0-2" x="119.104958" y="12.909499"/>
</g>
<path style="fill:none;stroke-width:0.3985;stroke-linecap:butt;stroke-linejoin:miter;stroke:rgb(0%,0%,0%);stroke-opacity:1;stroke-miterlimit:10;" d="M 127.561501 2.127952 L 127.561501 0.0000189832 " transform="matrix(0.993115,0,0,-0.993115,30.976948,53.906269)"/>
<g style="fill:rgb(0%,0%,0%);fill-opacity:1;">
  <use xlink:href="#glyph1-1" x="155.052732" y="64.300208"/>
</g>
<path style="fill:none;stroke-width:0.3985;stroke-linecap:butt;stroke-linejoin:miter;stroke:rgb(0%,0%,0%);stroke-opacity:1;stroke-miterlimit:10;" d="M 106.301842 2.127952 L 106.301842 0.0000189832 " transform="matrix(0.993115,0,0,-0.993115,30.976948,53.906269)"/>
<g style="fill:rgb(0%,0%,0%);fill-opacity:1;">
  <use xlink:href="#glyph1-5" x="133.939113" y="64.300208"/>
</g>
<g style="fill:rgb(0%,0%,0%);fill-opacity:1;">
  <use xlink:href="#glyph0-4" x="110.073572" y="110.253614"/>
  <use xlink:href="#glyph0-5" x="117.894351" y="110.253614"/>
</g>
<path style="fill:none;stroke-width:0.3985;stroke-linecap:butt;stroke-linejoin:miter;stroke:rgb(0%,0%,0%);stroke-opacity:1;stroke-miterlimit:10;" d="M 159.449023 0.0000189832 L 219.644735 0.0000189832 " transform="matrix(0.993115,0,0,-0.993115,30.976948,53.906269)"/>
<path style=" stroke:none;fill-rule:nonzero;fill:rgb(0%,0%,0%);fill-opacity:1;" d="M 252.671875 53.90625 C 251.617188 53.707031 249.902344 53.113281 248.714844 52.421875 L 248.714844 55.390625 C 249.902344 54.699219 251.617188 54.105469 252.671875 53.90625 "/>
<g style="fill:rgb(0%,0%,0%);fill-opacity:1;">
  <use xlink:href="#glyph0-1" x="249.691603" y="62.069672"/>
</g>
<path style="fill:none;stroke-width:0.3985;stroke-linecap:butt;stroke-linejoin:miter;stroke:rgb(0%,0%,0%);stroke-opacity:1;stroke-miterlimit:10;" d="M 159.449023 39.864338 C 159.449023 39.864338 161.372423 29.492142 162.107956 26.034743 C 162.847422 22.577344 164.027422 17.680346 164.766888 14.94668 C 165.502421 12.216948 166.686354 8.429149 167.421887 6.35235 C 168.161353 4.279484 169.345286 1.486818 170.080819 0.0000189832 C 170.820286 -1.48678 172.000285 -3.390513 172.739752 -4.358113 C 173.475285 -5.329646 174.659218 -6.458512 175.394751 -6.977712 C 176.134217 -7.492978 177.314217 -7.957112 178.053683 -8.098712 C 178.789216 -8.236378 179.973149 -8.145912 180.712616 -7.972845 C 181.448149 -7.799778 182.632082 -7.264845 183.367615 -6.851845 C 184.107081 -6.434912 185.287081 -5.569579 186.026547 -4.983513 C 186.76208 -4.393513 187.946013 -3.307913 188.681546 -2.615647 C 189.421013 -1.92338 190.604946 -0.727647 191.340479 0.0000189832 C 192.079945 0.727685 193.259945 1.923418 193.999411 2.615685 C 194.734944 3.307951 195.918877 4.393551 196.65441 4.983551 C 197.393877 5.569617 198.57781 6.43495 199.313343 6.851883 C 200.052809 7.264883 201.232809 7.799816 201.972275 7.972883 C 202.707808 8.145949 203.891741 8.236416 204.627274 8.098749 C 205.36674 7.95715 206.54674 7.493016 207.286206 6.97775 C 208.02174 6.45855 209.205672 5.329684 209.945139 4.358151 C 210.680672 3.390551 211.864605 1.486818 212.600138 0.0000189832 C 213.339604 -1.48678 214.519604 -4.279446 215.25907 -6.352312 C 215.994603 -8.429111 217.178536 -12.21691 217.918003 -14.946642 C 218.653536 -17.680308 219.837469 -22.577306 220.573002 -26.034705 C 221.312468 -29.492104 223.231934 -39.8643 223.231934 -39.8643 " transform="matrix(0.993115,0,0,-0.993115,30.976948,53.906269)"/>
<path style="fill:none;stroke-width:0.3985;stroke-linecap:butt;stroke-linejoin:miter;stroke:rgb(0%,0%,0%);stroke-opacity:1;stroke-miterlimit:10;" d="M 170.080819 -42.519299 L 170.080819 38.932139 " transform="matrix(0.993115,0,0,-0.993115,30.976948,53.906269)"/>
<path style=" stroke:none;fill-rule:nonzero;fill:rgb(0%,0%,0%);fill-opacity:1;" d="M 199.886719 11.679688 C 199.6875 12.734375 199.09375 14.449219 198.402344 15.636719 L 201.371094 15.636719 C 200.679688 14.449219 200.085938 12.734375 199.886719 11.679688 "/>
<g style="fill:rgb(0%,0%,0%);fill-opacity:1;">
  <use xlink:href="#glyph0-2" x="203.56043" y="12.909499"/>
</g>
<path style="fill:none;stroke-width:0.3985;stroke-linecap:butt;stroke-linejoin:miter;stroke:rgb(0%,0%,0%);stroke-opacity:1;stroke-miterlimit:10;" d="M 212.600138 2.127952 L 212.600138 0.0000189832 " transform="matrix(0.993115,0,0,-0.993115,30.976948,53.906269)"/>
<g style="fill:rgb(0%,0%,0%);fill-opacity:1;">
  <use xlink:href="#glyph1-1" x="239.507211" y="64.300208"/>
</g>
<path style="fill:none;stroke-width:0.3985;stroke-linecap:butt;stroke-linejoin:miter;stroke:rgb(0%,0%,0%);stroke-opacity:1;stroke-miterlimit:10;" d="M 191.340479 2.127952 L 191.340479 0.0000189832 " transform="matrix(0.993115,0,0,-0.993115,30.976948,53.906269)"/>
<g style="fill:rgb(0%,0%,0%);fill-opacity:1;">
  <use xlink:href="#glyph1-5" x="218.393591" y="64.300208"/>
</g>
<g style="fill:rgb(0%,0%,0%);fill-opacity:1;">
  <use xlink:href="#glyph0-6" x="194.222171" y="110.253614"/>
</g>
<g style="fill:rgb(0%,0%,0%);fill-opacity:1;">
  <use xlink:href="#glyph0-5" x="202.647757" y="110.253614"/>
</g>
<path style="fill:none;stroke-width:0.3985;stroke-linecap:butt;stroke-linejoin:miter;stroke:rgb(0%,0%,0%);stroke-opacity:1;stroke-miterlimit:10;" d="M 244.491593 0.0000189832 L 304.683372 0.0000189832 " transform="matrix(0.993115,0,0,-0.993115,30.976948,53.906269)"/>
<path style=" stroke:none;fill-rule:nonzero;fill:rgb(0%,0%,0%);fill-opacity:1;" d="M 337.125 53.90625 C 336.070312 53.707031 334.355469 53.113281 333.167969 52.421875 L 333.167969 55.390625 C 334.355469 54.699219 336.070312 54.105469 337.125 53.90625 "/>
<g style="fill:rgb(0%,0%,0%);fill-opacity:1;">
  <use xlink:href="#glyph0-1" x="334.146082" y="62.069672"/>
</g>
<path style="fill:none;stroke-width:0.3985;stroke-linecap:butt;stroke-linejoin:miter;stroke:rgb(0%,0%,0%);stroke-opacity:1;stroke-miterlimit:10;" d="M 244.491593 11.957348 C 244.491593 11.957348 246.411059 15.225947 247.150526 16.213213 C 247.886059 17.204413 249.069992 18.470946 249.805525 19.100279 C 250.544991 19.729612 251.724991 20.441545 252.464457 20.740478 C 253.19999 21.039412 254.383923 21.255745 255.119456 21.259678 C 255.858923 21.267545 257.042856 21.035478 257.778389 20.783745 C 258.517855 20.528078 259.697855 19.910545 260.437321 19.434612 C 261.172854 18.954746 262.356787 18.002879 263.09232 17.334213 C 263.831787 16.66948 265.01572 15.438347 265.751253 14.616281 C 266.490719 13.794214 267.670719 12.342815 268.410185 11.398815 C 269.145718 10.454815 270.329651 8.838216 271.065184 7.807683 C 271.804651 6.773217 272.98465 5.050417 273.724117 3.964818 C 274.45965 2.883151 275.643583 1.101352 276.383049 0.0000189832 C 277.118582 -1.101314 278.302515 -2.883113 279.038048 -3.96478 C 279.777514 -5.050379 280.957514 -6.777112 281.69698 -7.807645 C 282.432514 -8.838178 283.616446 -10.454777 284.355913 -11.398777 C 285.091446 -12.342777 286.275379 -13.794176 287.010912 -14.616243 C 287.750378 -15.438309 288.930378 -16.669442 289.669844 -17.334175 C 290.405377 -18.002841 291.58931 -18.954708 292.324843 -19.434574 C 293.06431 -19.910507 294.248243 -20.528041 294.983776 -20.783707 C 295.723242 -21.03544 296.903242 -21.267507 297.642708 -21.25964 C 298.378241 -21.255707 299.562174 -21.039374 300.297707 -20.74044 C 301.037174 -20.441507 302.221107 -19.729574 302.95664 -19.100241 C 303.692173 -18.470908 304.876106 -17.204375 305.615572 -16.213175 C 306.351105 -15.225909 308.270571 -11.95731 308.270571 -11.95731 " transform="matrix(0.993115,0,0,-0.993115,30.976948,53.906269)"/>
<path style="fill:none;stroke-width:0.3985;stroke-linecap:butt;stroke-linejoin:miter;stroke:rgb(0%,0%,0%);stroke-opacity:1;stroke-miterlimit:10;" d="M 255.119456 -42.519299 L 255.119456 38.932139 " transform="matrix(0.993115,0,0,-0.993115,30.976948,53.906269)"/>
<path style=" stroke:none;fill-rule:nonzero;fill:rgb(0%,0%,0%);fill-opacity:1;" d="M 284.339844 11.679688 C 284.144531 12.734375 283.550781 14.449219 282.859375 15.636719 L 285.824219 15.636719 C 285.132812 14.449219 284.539062 12.734375 284.339844 11.679688 "/>
<g style="fill:rgb(0%,0%,0%);fill-opacity:1;">
  <use xlink:href="#glyph0-2" x="288.014908" y="12.909499"/>
</g>
<path style="fill:none;stroke-width:0.3985;stroke-linecap:butt;stroke-linejoin:miter;stroke:rgb(0%,0%,0%);stroke-opacity:1;stroke-miterlimit:10;" d="M 297.642708 2.127952 L 297.642708 0.0000189832 " transform="matrix(0.993115,0,0,-0.993115,30.976948,53.906269)"/>
<g style="fill:rgb(0%,0%,0%);fill-opacity:1;">
  <use xlink:href="#glyph1-1" x="323.962683" y="64.300208"/>
</g>
<path style="fill:none;stroke-width:0.3985;stroke-linecap:butt;stroke-linejoin:miter;stroke:rgb(0%,0%,0%);stroke-opacity:1;stroke-miterlimit:10;" d="M 276.383049 2.127952 L 276.383049 0.0000189832 " transform="matrix(0.993115,0,0,-0.993115,30.976948,53.906269)"/>
<g style="fill:rgb(0%,0%,0%);fill-opacity:1;">
  <use xlink:href="#glyph1-5" x="302.84807" y="64.300208"/>
</g>
<g style="fill:rgb(0%,0%,0%);fill-opacity:1;">
  <use xlink:href="#glyph0-7" x="279.083827" y="110.253614"/>
</g>
<g style="fill:rgb(0%,0%,0%);fill-opacity:1;">
  <use xlink:href="#glyph0-5" x="286.685624" y="110.253614"/>
</g>
<path style="fill:none;stroke-width:0.3985;stroke-linecap:butt;stroke-linejoin:miter;stroke:rgb(0%,0%,0%);stroke-opacity:1;stroke-miterlimit:10;" d="M 329.53023 0.0000189832 L 389.725943 0.0000189832 " transform="matrix(0.993115,0,0,-0.993115,30.976948,53.906269)"/>
<path style=" stroke:none;fill-rule:nonzero;fill:rgb(0%,0%,0%);fill-opacity:1;" d="M 421.582031 53.90625 C 420.527344 53.707031 418.8125 53.113281 417.625 52.421875 L 417.625 55.390625 C 418.8125 54.699219 420.527344 54.105469 421.582031 53.90625 "/>
<g style="fill:rgb(0%,0%,0%);fill-opacity:1;">
  <use xlink:href="#glyph0-1" x="418.601553" y="62.069672"/>
</g>
<path style="fill:none;stroke-width:0.3985;stroke-linecap:butt;stroke-linejoin:miter;stroke:rgb(0%,0%,0%);stroke-opacity:1;stroke-miterlimit:10;" d="M 329.53023 -11.95731 C 329.53023 -11.95731 331.45363 -15.225909 332.189163 -16.213175 C 332.928629 -17.204375 334.108629 -18.470908 334.848095 -19.100241 C 335.583628 -19.729574 336.767561 -20.441507 337.503094 -20.74044 C 338.242561 -21.039374 339.42256 -21.255707 340.162027 -21.25964 C 340.89756 -21.267507 342.081493 -21.03544 342.820959 -20.783707 C 343.556492 -20.528041 344.740425 -19.910507 345.475958 -19.434574 C 346.215425 -18.954708 347.395424 -18.002841 348.134891 -17.334175 C 348.870424 -16.669442 350.054357 -15.438309 350.793823 -14.616243 C 351.529356 -13.794176 352.713289 -12.342777 353.448822 -11.398777 C 354.188288 -10.454777 355.368288 -8.838178 356.107754 -7.807645 C 356.843287 -6.777112 358.02722 -5.050379 358.762753 -3.96478 C 359.50222 -2.883113 360.686153 -1.101314 361.421686 0.0000189832 C 362.161152 1.101352 363.341152 2.883151 364.080618 3.964818 C 364.816151 5.050417 366.000084 6.773217 366.735617 7.807683 C 367.475084 8.838216 368.655083 10.454815 369.39455 11.398815 C 370.130083 12.342815 371.314016 13.794214 372.053482 14.616281 C 372.789015 15.438347 373.972948 16.66948 374.708481 17.334213 C 375.447948 18.002879 376.627947 18.954746 377.367414 19.434612 C 378.102947 19.910545 379.28688 20.528078 380.026346 20.783745 C 380.761879 21.035478 381.945812 21.267545 382.681345 21.259678 C 383.420812 21.255745 384.600811 21.039412 385.340278 20.740478 C 386.075811 20.441545 387.259744 19.729612 387.995277 19.100279 C 388.734743 18.470946 389.918676 17.204413 390.654209 16.213213 C 391.393675 15.225947 393.313141 11.957348 393.313141 11.957348 " transform="matrix(0.993115,0,0,-0.993115,30.976948,53.906269)"/>
<path style="fill:none;stroke-width:0.3985;stroke-linecap:butt;stroke-linejoin:miter;stroke:rgb(0%,0%,0%);stroke-opacity:1;stroke-miterlimit:10;" d="M 340.162027 -42.519299 L 340.162027 38.932139 " transform="matrix(0.993115,0,0,-0.993115,30.976948,53.906269)"/>
<path style=" stroke:none;fill-rule:nonzero;fill:rgb(0%,0%,0%);fill-opacity:1;" d="M 368.796875 11.679688 C 368.597656 12.734375 368.003906 14.449219 367.3125 15.636719 L 370.28125 15.636719 C 369.589844 14.449219 368.996094 12.734375 368.796875 11.679688 "/>
<g style="fill:rgb(0%,0%,0%);fill-opacity:1;">
  <use xlink:href="#glyph0-2" x="372.47038" y="12.909499"/>
</g>
<path style="fill:none;stroke-width:0.3985;stroke-linecap:butt;stroke-linejoin:miter;stroke:rgb(0%,0%,0%);stroke-opacity:1;stroke-miterlimit:10;" d="M 382.681345 2.127952 L 382.681345 0.0000189832 " transform="matrix(0.993115,0,0,-0.993115,30.976948,53.906269)"/>
<g style="fill:rgb(0%,0%,0%);fill-opacity:1;">
  <use xlink:href="#glyph1-1" x="408.417162" y="64.300208"/>
</g>
<path style="fill:none;stroke-width:0.3985;stroke-linecap:butt;stroke-linejoin:miter;stroke:rgb(0%,0%,0%);stroke-opacity:1;stroke-miterlimit:10;" d="M 361.421686 2.127952 L 361.421686 0.0000189832 " transform="matrix(0.993115,0,0,-0.993115,30.976948,53.906269)"/>
<g style="fill:rgb(0%,0%,0%);fill-opacity:1;">
  <use xlink:href="#glyph1-5" x="387.303542" y="64.300208"/>
</g>
<g style="fill:rgb(0%,0%,0%);fill-opacity:1;">
  <use xlink:href="#glyph0-8" x="362.886823" y="110.253614"/>
</g>
<g style="fill:rgb(0%,0%,0%);fill-opacity:1;">
  <use xlink:href="#glyph0-5" x="371.792083" y="110.253614"/>
</g>
</g>
</svg>
