<?xml version="1.0" encoding="UTF-8"?>
<svg xmlns="http://www.w3.org/2000/svg" xmlns:xlink="http://www.w3.org/1999/xlink" width="123.55pt" height="123.55pt" viewBox="0 0 123.55 123.55" version="1.2">
<g id="surface1">
<path style="fill:none;stroke-width:0.19925;stroke-linecap:butt;stroke-linejoin:miter;stroke:rgb(50%,50%,50%);stroke-opacity:1;stroke-miterlimit:10;" d="M -0.0000611089 0.00000971267 L 113.38799 0.00000971267 M -0.0000611089 14.172536 L 113.38799 14.172536 M -0.0000611089 28.345062 L 113.38799 28.345062 M -0.0000611089 42.521509 L 113.38799 42.521509 M -0.0000611089 56.694035 L 113.38799 56.694035 M -0.0000611089 70.866562 L 113.38799 70.866562 M -0.0000611089 85.039088 L 113.38799 85.039088 M -0.0000611089 99.215535 L 113.38799 99.215535 M -0.0000611089 113.384141 L 113.38799 113.384141 M -0.0000611089 0.00000971267 L -0.0000611089 113.388061 M 14.172465 0.00000971267 L 14.172465 113.388061 M 28.344992 0.00000971267 L 28.344992 113.388061 M 42.521438 0.00000971267 L 42.521438 113.388061 M 56.693965 0.00000971267 L 56.693965 113.388061 M 70.866491 0.00000971267 L 70.866491 113.388061 M 85.039017 0.00000971267 L 85.039017 113.388061 M 99.215464 0.00000971267 L 99.215464 113.388061 M 113.38407 0.00000971267 L 113.38407 113.388061 " transform="matrix(0.996371,0,0,-0.996371,5.062561,118.039072)"/>
<path style="fill:none;stroke-width:0.3985;stroke-linecap:butt;stroke-linejoin:miter;stroke:rgb(0%,0%,0%);stroke-opacity:1;stroke-miterlimit:10;" d="M 14.172465 14.172536 L 14.172465 42.521509 L 42.521438 42.521509 L 42.521438 14.172536 Z M 14.172465 14.172536 " transform="matrix(0.996371,0,0,-0.996371,5.062561,118.039072)"/>
<path style="fill:none;stroke-width:0.3985;stroke-linecap:butt;stroke-linejoin:miter;stroke:rgb(0%,0%,0%);stroke-opacity:1;stroke-miterlimit:10;" d="M 14.172465 14.172536 L 42.521438 42.521509 " transform="matrix(0.996371,0,0,-0.996371,5.062561,118.039072)"/>
<path style="fill:none;stroke-width:0.3985;stroke-linecap:butt;stroke-linejoin:miter;stroke:rgb(0%,0%,0%);stroke-opacity:1;stroke-miterlimit:10;" d="M 14.172465 70.866562 L 42.521438 70.866562 L 42.521438 99.215535 Z M 14.172465 70.866562 " transform="matrix(0.996371,0,0,-0.996371,5.062561,118.039072)"/>
<path style="fill:none;stroke-width:0.3985;stroke-linecap:butt;stroke-linejoin:miter;stroke:rgb(0%,0%,0%);stroke-opacity:1;stroke-miterlimit:10;" d="M 70.866491 70.866562 L 99.215464 70.866562 L 70.866491 99.215535 Z M 70.866491 70.866562 " transform="matrix(0.996371,0,0,-0.996371,5.062561,118.039072)"/>
</g>
</svg>
