<?xml version="1.0" encoding="UTF-8"?>
<svg xmlns="http://www.w3.org/2000/svg" xmlns:xlink="http://www.w3.org/1999/xlink" width="211.3pt" height="173.92pt" viewBox="0 0 211.3 173.92" version="1.2">
<defs>
<g>
<symbol overflow="visible" id="glyph0-0">
<path style="stroke:none;" d=""/>
</symbol>
<symbol overflow="visible" id="glyph0-1">
<path style="stroke:none;" d="M 7.40625 -2.4375 C 7.4375 -2.484375 7.46875 -2.5625 7.46875 -2.578125 C 7.46875 -2.59375 7.46875 -2.703125 7.34375 -2.703125 C 7.25 -2.703125 7.21875 -2.640625 7.203125 -2.578125 C 6.515625 -1.03125 6.140625 -0.328125 4.34375 -0.328125 L 2.8125 -0.328125 C 2.671875 -0.328125 2.65625 -0.328125 2.578125 -0.328125 C 2.484375 -0.34375 2.453125 -0.359375 2.453125 -0.4375 C 2.453125 -0.46875 2.453125 -0.484375 2.5 -0.6875 L 3.21875 -3.53125 L 4.25 -3.53125 C 5.140625 -3.53125 5.140625 -3.3125 5.140625 -3.0625 C 5.140625 -2.984375 5.140625 -2.859375 5.0625 -2.546875 C 5.046875 -2.484375 5.03125 -2.453125 5.03125 -2.421875 C 5.03125 -2.375 5.078125 -2.3125 5.171875 -2.3125 C 5.25 -2.3125 5.28125 -2.359375 5.328125 -2.515625 L 5.921875 -4.96875 C 5.921875 -5.03125 5.875 -5.09375 5.796875 -5.09375 C 5.703125 -5.09375 5.6875 -5.03125 5.65625 -4.90625 C 5.4375 -4.109375 5.25 -3.859375 4.28125 -3.859375 L 3.296875 -3.859375 L 3.921875 -6.390625 C 4.015625 -6.75 4.03125 -6.796875 4.484375 -6.796875 L 5.96875 -6.796875 C 7.25 -6.796875 7.5625 -6.484375 7.5625 -5.625 C 7.5625 -5.375 7.5625 -5.359375 7.515625 -5.078125 C 7.515625 -5.015625 7.5 -4.9375 7.5 -4.890625 C 7.5 -4.84375 7.53125 -4.765625 7.625 -4.765625 C 7.75 -4.765625 7.75 -4.828125 7.78125 -5.03125 L 7.984375 -6.84375 C 8.015625 -7.125 7.96875 -7.125 7.703125 -7.125 L 2.421875 -7.125 C 2.203125 -7.125 2.109375 -7.125 2.109375 -6.90625 C 2.109375 -6.796875 2.203125 -6.796875 2.390625 -6.796875 C 2.78125 -6.796875 3.078125 -6.796875 3.078125 -6.609375 C 3.078125 -6.5625 3.078125 -6.546875 3.03125 -6.359375 L 1.640625 -0.8125 C 1.53125 -0.40625 1.515625 -0.328125 0.6875 -0.328125 C 0.515625 -0.328125 0.390625 -0.328125 0.390625 -0.125 C 0.390625 0 0.484375 0 0.6875 0 L 6.125 0 C 6.359375 0 6.375 -0.015625 6.453125 -0.171875 Z M 7.40625 -2.4375 "/>
</symbol>
<symbol overflow="visible" id="glyph0-2">
<path style="stroke:none;" d="M 1.671875 -0.8125 C 1.5625 -0.40625 1.53125 -0.328125 0.71875 -0.328125 C 0.53125 -0.328125 0.421875 -0.328125 0.421875 -0.125 C 0.421875 0 0.515625 0 0.71875 0 L 4.171875 0 C 6.359375 0 8.421875 -2.203125 8.421875 -4.5 C 8.421875 -5.984375 7.53125 -7.15625 5.953125 -7.15625 L 2.4375 -7.15625 C 2.234375 -7.15625 2.125 -7.15625 2.125 -6.953125 C 2.125 -6.828125 2.21875 -6.828125 2.421875 -6.828125 C 2.5625 -6.828125 2.75 -6.8125 2.875 -6.796875 C 3.046875 -6.78125 3.109375 -6.75 3.109375 -6.640625 C 3.109375 -6.59375 3.09375 -6.5625 3.0625 -6.4375 Z M 3.921875 -6.421875 C 4.015625 -6.796875 4.046875 -6.828125 4.484375 -6.828125 L 5.609375 -6.828125 C 6.640625 -6.828125 7.5 -6.265625 7.5 -4.890625 C 7.5 -4.375 7.296875 -2.65625 6.40625 -1.5 C 6.109375 -1.125 5.28125 -0.328125 3.984375 -0.328125 L 2.8125 -0.328125 C 2.65625 -0.328125 2.640625 -0.328125 2.578125 -0.328125 C 2.46875 -0.34375 2.4375 -0.359375 2.4375 -0.4375 C 2.4375 -0.46875 2.4375 -0.484375 2.484375 -0.6875 Z M 3.921875 -6.421875 "/>
</symbol>
<symbol overflow="visible" id="glyph0-3">
<path style="stroke:none;" d="M 3.171875 -3.40625 L 4.1875 -3.40625 C 4.96875 -3.40625 5.0625 -3.234375 5.0625 -2.9375 C 5.0625 -2.859375 5.0625 -2.734375 4.984375 -2.421875 C 4.96875 -2.359375 4.953125 -2.328125 4.953125 -2.296875 C 4.953125 -2.21875 5.015625 -2.171875 5.078125 -2.171875 C 5.1875 -2.171875 5.1875 -2.203125 5.234375 -2.390625 L 5.8125 -4.671875 C 5.84375 -4.78125 5.84375 -4.8125 5.84375 -4.84375 C 5.84375 -4.859375 5.828125 -4.953125 5.71875 -4.953125 C 5.609375 -4.953125 5.59375 -4.90625 5.5625 -4.734375 C 5.34375 -3.921875 5.09375 -3.734375 4.203125 -3.734375 L 3.25 -3.734375 L 3.921875 -6.390625 C 4.015625 -6.75 4.03125 -6.796875 4.484375 -6.796875 L 5.875 -6.796875 C 7.15625 -6.796875 7.40625 -6.453125 7.40625 -5.640625 C 7.40625 -5.40625 7.40625 -5.359375 7.375 -5.078125 C 7.34375 -4.9375 7.34375 -4.921875 7.34375 -4.890625 C 7.34375 -4.84375 7.375 -4.765625 7.46875 -4.765625 C 7.59375 -4.765625 7.59375 -4.828125 7.625 -5.03125 L 7.828125 -6.84375 C 7.859375 -7.125 7.8125 -7.125 7.546875 -7.125 L 2.421875 -7.125 C 2.203125 -7.125 2.109375 -7.125 2.109375 -6.90625 C 2.109375 -6.796875 2.203125 -6.796875 2.390625 -6.796875 C 2.78125 -6.796875 3.078125 -6.796875 3.078125 -6.609375 C 3.078125 -6.5625 3.078125 -6.546875 3.03125 -6.359375 L 1.640625 -0.8125 C 1.53125 -0.40625 1.515625 -0.328125 0.6875 -0.328125 C 0.515625 -0.328125 0.390625 -0.328125 0.390625 -0.125 C 0.390625 0 0.515625 0 0.5625 0 C 0.859375 0 1.640625 -0.03125 1.9375 -0.03125 C 2.28125 -0.03125 3.15625 0 3.5 0 C 3.59375 0 3.71875 0 3.71875 -0.203125 C 3.71875 -0.28125 3.65625 -0.296875 3.65625 -0.3125 C 3.625 -0.328125 3.59375 -0.328125 3.359375 -0.328125 C 3.125 -0.328125 3.078125 -0.328125 2.8125 -0.34375 C 2.515625 -0.375 2.484375 -0.421875 2.484375 -0.5625 C 2.484375 -0.578125 2.484375 -0.640625 2.515625 -0.796875 Z M 3.171875 -3.40625 "/>
</symbol>
<symbol overflow="visible" id="glyph0-4">
<path style="stroke:none;" d="M 1.671875 -0.8125 C 1.5625 -0.40625 1.546875 -0.328125 0.71875 -0.328125 C 0.546875 -0.328125 0.4375 -0.328125 0.4375 -0.109375 C 0.4375 0 0.53125 0 0.71875 0 L 4.453125 0 C 6.109375 0 7.34375 -1.234375 7.34375 -2.265625 C 7.34375 -3.015625 6.734375 -3.625 5.71875 -3.734375 C 6.8125 -3.9375 7.921875 -4.703125 7.921875 -5.703125 C 7.921875 -6.484375 7.21875 -7.15625 5.96875 -7.15625 L 2.453125 -7.15625 C 2.25 -7.15625 2.140625 -7.15625 2.140625 -6.9375 C 2.140625 -6.828125 2.234375 -6.828125 2.4375 -6.828125 C 2.453125 -6.828125 2.65625 -6.828125 2.84375 -6.796875 C 3.03125 -6.78125 3.125 -6.765625 3.125 -6.640625 C 3.125 -6.59375 3.109375 -6.5625 3.078125 -6.4375 Z M 3.25 -3.828125 L 3.90625 -6.421875 C 4 -6.796875 4.015625 -6.828125 4.46875 -6.828125 L 5.828125 -6.828125 C 6.734375 -6.828125 6.96875 -6.203125 6.96875 -5.75 C 6.96875 -4.828125 6.0625 -3.828125 4.78125 -3.828125 Z M 2.78125 -0.328125 C 2.640625 -0.328125 2.609375 -0.328125 2.546875 -0.328125 C 2.453125 -0.34375 2.421875 -0.359375 2.421875 -0.4375 C 2.421875 -0.46875 2.421875 -0.484375 2.46875 -0.6875 L 3.1875 -3.59375 L 5.171875 -3.59375 C 6.171875 -3.59375 6.375 -2.828125 6.375 -2.375 C 6.375 -1.34375 5.4375 -0.328125 4.203125 -0.328125 Z M 2.78125 -0.328125 "/>
</symbol>
<symbol overflow="visible" id="glyph0-5">
<path style="stroke:none;" d="M 1.875 -1.203125 C 1.453125 -0.5 1.046875 -0.359375 0.59375 -0.328125 C 0.453125 -0.3125 0.359375 -0.3125 0.359375 -0.109375 C 0.359375 -0.046875 0.421875 0 0.5 0 C 0.78125 0 1.109375 -0.03125 1.40625 -0.03125 C 1.75 -0.03125 2.109375 0 2.453125 0 C 2.515625 0 2.65625 0 2.65625 -0.203125 C 2.65625 -0.3125 2.546875 -0.328125 2.484375 -0.328125 C 2.234375 -0.34375 1.984375 -0.421875 1.984375 -0.6875 C 1.984375 -0.8125 2.046875 -0.9375 2.140625 -1.078125 L 2.9375 -2.421875 L 5.5625 -2.421875 C 5.578125 -2.203125 5.71875 -0.78125 5.71875 -0.671875 C 5.71875 -0.359375 5.1875 -0.328125 4.96875 -0.328125 C 4.828125 -0.328125 4.71875 -0.328125 4.71875 -0.109375 C 4.71875 0 4.84375 0 4.875 0 C 5.296875 0 5.75 -0.03125 6.171875 -0.03125 C 6.4375 -0.03125 7.09375 0 7.359375 0 C 7.421875 0 7.546875 0 7.546875 -0.203125 C 7.546875 -0.328125 7.4375 -0.328125 7.3125 -0.328125 C 6.65625 -0.328125 6.65625 -0.390625 6.625 -0.703125 L 5.984375 -7.25 C 5.96875 -7.453125 5.96875 -7.5 5.796875 -7.5 C 5.625 -7.5 5.578125 -7.421875 5.515625 -7.3125 Z M 3.125 -2.75 L 5.1875 -6.203125 L 5.53125 -2.75 Z M 3.125 -2.75 "/>
</symbol>
<symbol overflow="visible" id="glyph0-6">
<path style="stroke:none;" d="M 3.921875 -6.421875 C 3.984375 -6.671875 4.015625 -6.78125 4.21875 -6.8125 C 4.3125 -6.828125 4.640625 -6.828125 4.859375 -6.828125 C 5.59375 -6.828125 6.765625 -6.828125 6.765625 -5.796875 C 6.765625 -5.4375 6.59375 -4.703125 6.1875 -4.296875 C 5.921875 -4.03125 5.359375 -3.703125 4.421875 -3.703125 L 3.25 -3.703125 Z M 5.4375 -3.5625 C 6.484375 -3.796875 7.734375 -4.515625 7.734375 -5.578125 C 7.734375 -6.484375 6.796875 -7.15625 5.421875 -7.15625 L 2.4375 -7.15625 C 2.234375 -7.15625 2.140625 -7.15625 2.140625 -6.9375 C 2.140625 -6.828125 2.234375 -6.828125 2.421875 -6.828125 C 2.453125 -6.828125 2.65625 -6.828125 2.828125 -6.796875 C 3.015625 -6.78125 3.109375 -6.765625 3.109375 -6.640625 C 3.109375 -6.59375 3.09375 -6.5625 3.0625 -6.4375 L 1.671875 -0.8125 C 1.5625 -0.40625 1.53125 -0.328125 0.71875 -0.328125 C 0.515625 -0.328125 0.421875 -0.328125 0.421875 -0.109375 C 0.421875 0 0.5625 0 0.578125 0 C 0.875 0 1.609375 -0.03125 1.890625 -0.03125 C 2.1875 -0.03125 2.9375 0 3.21875 0 C 3.3125 0 3.4375 0 3.4375 -0.203125 C 3.4375 -0.328125 3.34375 -0.328125 3.140625 -0.328125 C 2.75 -0.328125 2.453125 -0.328125 2.453125 -0.515625 C 2.453125 -0.578125 2.484375 -0.625 2.484375 -0.6875 L 3.1875 -3.46875 L 4.421875 -3.46875 C 5.375 -3.46875 5.5625 -2.875 5.5625 -2.515625 C 5.5625 -2.359375 5.484375 -2.03125 5.421875 -1.796875 C 5.34375 -1.5 5.25 -1.109375 5.25 -0.90625 C 5.25 0.234375 6.515625 0.234375 6.640625 0.234375 C 7.53125 0.234375 7.90625 -0.828125 7.90625 -0.96875 C 7.90625 -1.09375 7.78125 -1.09375 7.78125 -1.09375 C 7.6875 -1.09375 7.65625 -1.03125 7.640625 -0.953125 C 7.375 -0.171875 6.9375 0 6.6875 0 C 6.34375 0 6.265625 -0.234375 6.265625 -0.640625 C 6.265625 -0.96875 6.328125 -1.5 6.375 -1.828125 C 6.390625 -1.984375 6.421875 -2.171875 6.421875 -2.328125 C 6.421875 -3.125 5.71875 -3.453125 5.4375 -3.5625 Z M 5.4375 -3.5625 "/>
</symbol>
<symbol overflow="visible" id="glyph0-7">
<path style="stroke:none;" d="M 4.578125 -0.0625 C 6.203125 -0.6875 7.75 -2.546875 7.75 -4.5625 C 7.75 -6.25 6.640625 -7.375 5.078125 -7.375 C 2.8125 -7.375 0.515625 -5 0.515625 -2.5625 C 0.515625 -0.828125 1.6875 0.234375 3.1875 0.234375 C 3.453125 0.234375 3.8125 0.1875 4.21875 0.078125 C 4.171875 0.71875 4.171875 0.75 4.171875 0.875 C 4.171875 1.21875 4.171875 2.03125 5.046875 2.03125 C 6.296875 2.03125 6.796875 0.109375 6.796875 0 C 6.796875 -0.078125 6.71875 -0.109375 6.671875 -0.109375 C 6.59375 -0.109375 6.578125 -0.046875 6.546875 0.015625 C 6.296875 0.75 5.6875 1.015625 5.328125 1.015625 C 4.84375 1.015625 4.6875 0.734375 4.578125 -0.0625 Z M 2.609375 -0.140625 C 1.796875 -0.46875 1.4375 -1.28125 1.4375 -2.234375 C 1.4375 -2.953125 1.703125 -4.4375 2.5 -5.5625 C 3.265625 -6.640625 4.25 -7.125 5.015625 -7.125 C 6.0625 -7.125 6.828125 -6.296875 6.828125 -4.90625 C 6.828125 -3.859375 6.296875 -1.40625 4.53125 -0.421875 C 4.484375 -0.78125 4.375 -1.546875 3.609375 -1.546875 C 3.0625 -1.546875 2.546875 -1.03125 2.546875 -0.484375 C 2.546875 -0.265625 2.609375 -0.15625 2.609375 -0.140625 Z M 3.25 -0.03125 C 3.109375 -0.03125 2.78125 -0.03125 2.78125 -0.484375 C 2.78125 -0.90625 3.171875 -1.3125 3.609375 -1.3125 C 4.046875 -1.3125 4.25 -1.0625 4.25 -0.421875 C 4.25 -0.265625 4.234375 -0.265625 4.140625 -0.21875 C 3.859375 -0.109375 3.546875 -0.03125 3.25 -0.03125 Z M 3.25 -0.03125 "/>
</symbol>
<symbol overflow="visible" id="glyph1-0">
<path style="stroke:none;" d=""/>
</symbol>
<symbol overflow="visible" id="glyph1-1">
<path style="stroke:none;" d="M 3.46875 2.515625 C 3.46875 2.484375 3.46875 2.453125 3.28125 2.28125 C 1.984375 0.96875 1.640625 -1.015625 1.640625 -2.609375 C 1.640625 -4.4375 2.046875 -6.265625 3.328125 -7.5625 C 3.46875 -7.6875 3.46875 -7.71875 3.46875 -7.75 C 3.46875 -7.8125 3.421875 -7.84375 3.359375 -7.84375 C 3.25 -7.84375 2.3125 -7.140625 1.703125 -5.8125 C 1.15625 -4.65625 1.03125 -3.5 1.03125 -2.609375 C 1.03125 -1.796875 1.15625 -0.53125 1.734375 0.65625 C 2.359375 1.9375 3.25 2.609375 3.359375 2.609375 C 3.421875 2.609375 3.46875 2.578125 3.46875 2.515625 Z M 3.46875 2.515625 "/>
</symbol>
<symbol overflow="visible" id="glyph1-2">
<path style="stroke:none;" d="M 3.03125 -2.609375 C 3.03125 -3.4375 2.90625 -4.703125 2.328125 -5.890625 C 1.703125 -7.171875 0.8125 -7.84375 0.703125 -7.84375 C 0.640625 -7.84375 0.59375 -7.8125 0.59375 -7.75 C 0.59375 -7.71875 0.59375 -7.6875 0.796875 -7.5 C 1.828125 -6.46875 2.421875 -4.8125 2.421875 -2.609375 C 2.421875 -0.828125 2.03125 1.015625 0.734375 2.328125 C 0.59375 2.453125 0.59375 2.484375 0.59375 2.515625 C 0.59375 2.578125 0.640625 2.609375 0.703125 2.609375 C 0.8125 2.609375 1.75 1.90625 2.359375 0.578125 C 2.90625 -0.578125 3.03125 -1.734375 3.03125 -2.609375 Z M 3.03125 -2.609375 "/>
</symbol>
<symbol overflow="visible" id="glyph1-3">
<path style="stroke:none;" d="M 1.609375 -2.1875 L 2.015625 -6.96875 C 2.015625 -7.3125 1.734375 -7.5 1.453125 -7.5 C 1.1875 -7.5 0.90625 -7.3125 0.90625 -6.96875 L 1.3125 -2.203125 C 1.3125 -2.046875 1.328125 -1.953125 1.453125 -1.953125 C 1.5625 -1.953125 1.59375 -2.015625 1.609375 -2.1875 Z M 2.015625 -0.5625 C 2.015625 -0.859375 1.765625 -1.109375 1.453125 -1.109375 C 1.15625 -1.109375 0.90625 -0.859375 0.90625 -0.5625 C 0.90625 -0.25 1.15625 0 1.453125 0 C 1.765625 0 2.015625 -0.25 2.015625 -0.5625 Z M 2.015625 -0.5625 "/>
</symbol>
<symbol overflow="visible" id="glyph1-4">
<path style="stroke:none;" d="M 3.078125 -6.703125 C 3.078125 -6.953125 3.078125 -6.96875 2.84375 -6.96875 C 2.1875 -6.296875 1.265625 -6.296875 0.9375 -6.296875 L 0.9375 -5.984375 C 1.140625 -5.984375 1.765625 -5.984375 2.296875 -6.25 L 2.296875 -0.828125 C 2.296875 -0.453125 2.265625 -0.328125 1.328125 -0.328125 L 1 -0.328125 L 1 0 C 1.359375 -0.03125 2.265625 -0.03125 2.6875 -0.03125 C 3.109375 -0.03125 4.015625 -0.03125 4.390625 0 L 4.390625 -0.328125 L 4.046875 -0.328125 C 3.109375 -0.328125 3.078125 -0.4375 3.078125 -0.828125 Z M 3.078125 -6.703125 "/>
</symbol>
<symbol overflow="visible" id="glyph1-5">
<path style="stroke:none;" d="M 4.578125 -7.453125 C 4.640625 -7.59375 4.640625 -7.625 4.640625 -7.640625 C 4.640625 -7.75 4.546875 -7.84375 4.421875 -7.84375 C 4.28125 -7.84375 4.234375 -7.75 4.203125 -7.640625 L 0.640625 2.21875 C 0.59375 2.359375 0.59375 2.390625 0.59375 2.40625 C 0.59375 2.515625 0.6875 2.609375 0.796875 2.609375 C 0.9375 2.609375 0.984375 2.515625 1.015625 2.40625 Z M 4.578125 -7.453125 "/>
</symbol>
<symbol overflow="visible" id="glyph1-6">
<path style="stroke:none;" d="M 3.03125 -3.6875 C 3.890625 -3.96875 4.5 -4.703125 4.5 -5.53125 C 4.5 -6.390625 3.578125 -6.96875 2.578125 -6.96875 C 1.515625 -6.96875 0.71875 -6.34375 0.71875 -5.546875 C 0.71875 -5.203125 0.953125 -5 1.25 -5 C 1.578125 -5 1.796875 -5.234375 1.796875 -5.53125 C 1.796875 -6.0625 1.296875 -6.0625 1.140625 -6.0625 C 1.46875 -6.578125 2.15625 -6.703125 2.53125 -6.703125 C 2.96875 -6.703125 3.53125 -6.484375 3.53125 -5.53125 C 3.53125 -5.40625 3.515625 -4.8125 3.25 -4.34375 C 2.9375 -3.84375 2.578125 -3.8125 2.3125 -3.796875 C 2.234375 -3.796875 1.984375 -3.765625 1.90625 -3.765625 C 1.828125 -3.765625 1.75 -3.75 1.75 -3.640625 C 1.75 -3.53125 1.828125 -3.53125 2 -3.53125 L 2.453125 -3.53125 C 3.3125 -3.53125 3.703125 -2.8125 3.703125 -1.796875 C 3.703125 -0.359375 2.984375 -0.0625 2.515625 -0.0625 C 2.078125 -0.0625 1.28125 -0.234375 0.921875 -0.859375 C 1.28125 -0.8125 1.609375 -1.03125 1.609375 -1.4375 C 1.609375 -1.8125 1.328125 -2.015625 1.03125 -2.015625 C 0.78125 -2.015625 0.4375 -1.875 0.4375 -1.40625 C 0.4375 -0.453125 1.40625 0.234375 2.546875 0.234375 C 3.828125 0.234375 4.78125 -0.71875 4.78125 -1.796875 C 4.78125 -2.65625 4.125 -3.46875 3.03125 -3.6875 Z M 3.03125 -3.6875 "/>
</symbol>
</g>
</defs>
<g id="surface1">
<path style="fill:none;stroke-width:0.3985;stroke-linecap:butt;stroke-linejoin:miter;stroke:rgb(0%,0%,0%);stroke-opacity:1;stroke-miterlimit:10;" d="M -21.82838 -21.824869 L 113.387619 0.00110364 L 56.692606 113.38721 " transform="matrix(0.996698,0,0,-0.996698,76.494587,132.547975)"/>
<g style="fill:rgb(0%,0%,0%);fill-opacity:1;">
  <use xlink:href="#glyph0-1" x="50.575452" y="165.141"/>
</g>
<g style="fill:rgb(0%,0%,0%);fill-opacity:1;">
  <use xlink:href="#glyph0-2" x="193.193982" y="136.124128"/>
</g>
<g style="fill:rgb(0%,0%,0%);fill-opacity:1;">
  <use xlink:href="#glyph0-3" x="128.908947" y="15.84858"/>
</g>
<path style="fill:none;stroke-width:0.3985;stroke-linecap:butt;stroke-linejoin:miter;stroke:rgb(0%,0%,0%);stroke-opacity:1;stroke-miterlimit:10;" d="M -21.82838 -21.824869 L 56.692606 113.38721 " transform="matrix(0.996698,0,0,-0.996698,76.494587,132.547975)"/>
<path style="fill:none;stroke-width:0.3985;stroke-linecap:butt;stroke-linejoin:miter;stroke:rgb(0%,0%,0%);stroke-opacity:1;stroke-dasharray:2.98883,2.98883;stroke-miterlimit:10;" d="M -21.82838 -21.824869 L 0.00151195 0.00110364 L 56.692606 113.38721 " transform="matrix(0.996698,0,0,-0.996698,76.494587,132.547975)"/>
<g style="fill:rgb(0%,0%,0%);fill-opacity:1;">
  <use xlink:href="#glyph0-4" x="72.262607" y="143.38607"/>
</g>
<g style="fill:rgb(0%,0%,0%);fill-opacity:1;">
  <use xlink:href="#glyph0-5" x="8.452" y="136.124128"/>
</g>
<path style="fill:none;stroke-width:0.3985;stroke-linecap:butt;stroke-linejoin:miter;stroke:rgb(0%,0%,0%);stroke-opacity:1;stroke-miterlimit:10;" d="M -56.693501 0.00110364 L -9.153718 0.00110364 " transform="matrix(0.996698,0,0,-0.996698,76.494587,132.547975)"/>
<path style="fill:none;stroke-width:0.3985;stroke-linecap:butt;stroke-linejoin:miter;stroke:rgb(0%,0%,0%);stroke-opacity:1;stroke-dasharray:2.98883,2.98883;stroke-miterlimit:10;" d="M -9.153718 0.00110364 L 113.387619 0.00110364 L 0.00151195 0.00110364 " transform="matrix(0.996698,0,0,-0.996698,76.494587,132.547975)"/>
<g style="fill:rgb(0%,0%,0%);fill-opacity:1;">
  <use xlink:href="#glyph0-6" x="76.494587" y="132.547975"/>
</g>
<g style="fill:rgb(0%,0%,0%);fill-opacity:1;">
  <use xlink:href="#glyph1-1" x="84.521993" y="132.547975"/>
</g>
<g style="fill:rgb(0%,0%,0%);fill-opacity:1;">
  <use xlink:href="#glyph0-1" x="88.591512" y="132.547975"/>
</g>
<g style="fill:rgb(0%,0%,0%);fill-opacity:1;">
  <use xlink:href="#glyph1-2" x="96.919921" y="132.547975"/>
  <use xlink:href="#glyph1-3" x="100.980469" y="132.547975"/>
  <use xlink:href="#glyph1-4" x="103.879366" y="132.547975"/>
  <use xlink:href="#glyph1-5" x="109.112031" y="132.547975"/>
  <use xlink:href="#glyph1-6" x="114.344696" y="132.547975"/>
  <use xlink:href="#glyph1-3" x="119.577361" y="132.547975"/>
  <use xlink:href="#glyph1-1" x="122.476258" y="132.547975"/>
</g>
<g style="fill:rgb(0%,0%,0%);fill-opacity:1;">
  <use xlink:href="#glyph0-3" x="126.57169" y="132.547975"/>
</g>
<g style="fill:rgb(0%,0%,0%);fill-opacity:1;">
  <use xlink:href="#glyph1-2" x="134.755578" y="132.547975"/>
</g>
<g style="fill:rgb(0%,0%,0%);fill-opacity:1;">
  <use xlink:href="#glyph0-7" x="138.825097" y="132.547975"/>
</g>
<path style="fill:none;stroke-width:0.3985;stroke-linecap:butt;stroke-linejoin:miter;stroke:rgb(0%,0%,0%);stroke-opacity:1;stroke-miterlimit:10;" d="M -56.693501 0.00110364 L -58.73148 -2.373926 L -60.071843 -4.72544 L -60.698914 -7.014248 L -60.604853 -9.224671 L -59.789662 -11.321438 L -58.261177 -13.284953 L -56.042915 -15.0917 L -53.16231 -16.718164 L -49.642877 -18.148669 L -45.535565 -19.359699 L -40.887405 -20.343415 L -35.757184 -21.084142 L -30.195853 -21.570122 L -24.277875 -21.805274 L -18.069876 -21.777839 L -11.650242 -21.495657 L -5.089517 -20.954809 L 1.529996 -20.163133 L 8.129914 -19.136305 L 14.639689 -17.878244 L 20.969182 -16.408548 L 27.051766 -14.746811 L 32.812977 -12.904791 L 38.186187 -10.913843 " transform="matrix(0.996698,0,0,-0.996698,76.494587,132.547975)"/>
<path style="fill:none;stroke-width:0.3985;stroke-linecap:butt;stroke-linejoin:miter;stroke:rgb(0%,0%,0%);stroke-opacity:1;stroke-dasharray:2.98883,2.98883;stroke-miterlimit:10;" d="M 56.692606 0.00110364 L 56.202707 -0.477038 L 55.685374 -0.95126 L 55.140606 -1.425482 L 54.576243 -1.903623 L 53.980526 -2.373926 L 53.357374 -2.848148 L 52.710708 -3.318451 L 52.044446 -3.788754 L 51.34683 -4.259057 L 50.621779 -4.72544 L 49.881052 -5.187905 L 49.112891 -5.650369 L 48.317295 -6.108915 L 47.506023 -6.563541 L 46.667316 -7.014248 L 45.809013 -7.464955 L 44.927195 -7.911742 L 44.021862 -8.350692 L 43.100852 -8.789641 L 42.156327 -9.224671 L 41.192206 -9.651863 L 40.20849 -10.079055 L 39.205177 -10.498408 L 38.186187 -10.913843 " transform="matrix(0.996698,0,0,-0.996698,76.494587,132.547975)"/>
<path style="fill:none;stroke-width:0.3985;stroke-linecap:butt;stroke-linejoin:miter;stroke:rgb(0%,0%,0%);stroke-opacity:1;stroke-miterlimit:10;" d="M 0.00151195 0.00110364 L 113.387619 0.00110364 " transform="matrix(0.996698,0,0,-0.996698,76.494587,132.547975)"/>
</g>
</svg>
