<?xml version="1.0" encoding="UTF-8"?>
<svg xmlns="http://www.w3.org/2000/svg" xmlns:xlink="http://www.w3.org/1999/xlink" width="120.71pt" height="95.2pt" viewBox="0 0 120.71 95.2" version="1.2">
<g id="surface1">
<path style="fill:none;stroke-width:0.19925;stroke-linecap:butt;stroke-linejoin:miter;stroke:rgb(79.998779%,79.998779%,79.998779%);stroke-opacity:1;stroke-miterlimit:10;" d="M -85.039382 -42.519172 L 25.510775 -42.519172 M -85.039382 -34.014708 L 25.510775 -34.014708 M -85.039382 -25.514183 L 25.510775 -25.514183 M -85.039382 -17.009718 L 25.510775 -17.009718 M -85.039382 -8.505254 L 25.510775 -8.505254 M -85.039382 -0.000789916 L 25.510775 -0.000789916 M -85.039382 8.503674 L 25.510775 8.503674 M -85.039382 17.008139 L 25.510775 17.008139 M -85.039382 25.512603 L 25.510775 25.512603 M -85.039382 34.017067 L 25.510775 34.017067 M -85.039382 42.517592 L 25.510775 42.517592 M -85.039382 -42.519172 L -85.039382 42.521532 M -76.538857 -42.519172 L -76.538857 42.521532 M -68.034393 -42.519172 L -68.034393 42.521532 M -59.529929 -42.519172 L -59.529929 42.521532 M -51.025464 -42.519172 L -51.025464 42.521532 M -42.521 -42.519172 L -42.521 42.521532 M -34.016536 -42.519172 L -34.016536 42.521532 M -25.512071 -42.519172 L -25.512071 42.521532 M -17.007607 -42.519172 L -17.007607 42.521532 M -8.503143 -42.519172 L -8.503143 42.521532 M 0.00132143 -42.519172 L 0.00132143 42.521532 M 8.505786 -42.519172 L 8.505786 42.521532 M 17.006311 -42.519172 L 17.006311 42.521532 M 25.510775 -42.519172 L 25.510775 42.521532 " transform="matrix(0.991667,0,0,-0.991667,89.729158,47.202342)"/>
<path style="fill:none;stroke-width:0.3985;stroke-linecap:butt;stroke-linejoin:miter;stroke:rgb(0%,0%,0%);stroke-opacity:1;stroke-miterlimit:10;" d="M -76.538857 8.503674 L -25.512071 8.503674 L -51.025464 34.017067 Z M -76.538857 8.503674 " transform="matrix(0.991667,0,0,-0.991667,89.729158,47.202342)"/>
<path style="fill:none;stroke-width:0.3985;stroke-linecap:butt;stroke-linejoin:miter;stroke:rgb(0%,0%,0%);stroke-opacity:1;stroke-miterlimit:10;" d="M -76.538857 -8.505254 L -25.512071 -8.505254 L -51.025464 -34.014708 Z M -76.538857 -8.505254 " transform="matrix(0.991667,0,0,-0.991667,89.729158,47.202342)"/>
<path style="fill:none;stroke-width:0.3985;stroke-linecap:butt;stroke-linejoin:miter;stroke:rgb(0%,0%,0%);stroke-opacity:1;stroke-miterlimit:10;" d="M -8.503143 8.503674 L 17.006311 8.503674 L 17.006311 34.017067 Z M -8.503143 8.503674 " transform="matrix(0.991667,0,0,-0.991667,89.729158,47.202342)"/>
</g>
</svg>
