<?xml version="1.0" encoding="UTF-8"?>
<svg xmlns="http://www.w3.org/2000/svg" xmlns:xlink="http://www.w3.org/1999/xlink" width="123.75pt" height="125.56pt" viewBox="0 0 123.75 125.56" version="1.2">
<defs>
<clipPath id="clip1">
  <path d="M 0.0898438 97 L 123.410156 97 L 123.410156 125.121094 L 0.0898438 125.121094 Z M 0.0898438 97 "/>
</clipPath>
<clipPath id="clip2">
  <path d="M 0.0898438 80 L 123.410156 80 L 123.410156 109 L 0.0898438 109 Z M 0.0898438 80 "/>
</clipPath>
<clipPath id="clip3">
  <path d="M 0.0898438 0 L 123.410156 0 L 123.410156 109 L 0.0898438 109 Z M 0.0898438 0 "/>
</clipPath>
</defs>
<g id="surface1">
<g clip-path="url(#clip1)" clip-rule="nonzero">
<path style="fill:none;stroke-width:0.3985;stroke-linecap:butt;stroke-linejoin:miter;stroke:rgb(0%,0%,0%);stroke-opacity:1;stroke-miterlimit:10;" d="M -56.692511 -0.000702791 C -56.692511 -9.392876 -31.310908 -17.009317 0.00156196 -17.009317 C 31.310112 -17.009317 56.691715 -9.392876 56.691715 -0.000702791 " transform="matrix(0.996508,0,0,-0.996508,61.748443,103.011018)"/>
</g>
<g clip-path="url(#clip2)" clip-rule="nonzero">
<path style="fill:none;stroke-width:0.3985;stroke-linecap:butt;stroke-linejoin:miter;stroke:rgb(0%,0%,0%);stroke-opacity:1;stroke-dasharray:2.98883,2.98883;stroke-miterlimit:10;" d="M -56.692511 -0.000702791 C -56.692511 9.39539 -31.310908 17.007911 0.00156196 17.007911 C 31.310112 17.007911 56.691715 9.39539 56.691715 -0.000702791 " transform="matrix(0.996508,0,0,-0.996508,61.748443,103.011018)"/>
</g>
<g clip-path="url(#clip3)" clip-rule="nonzero">
<path style="fill:none;stroke-width:0.3985;stroke-linecap:butt;stroke-linejoin:miter;stroke:rgb(0%,0%,0%);stroke-opacity:1;stroke-miterlimit:10;" d="M -56.692511 -0.000702791 L 0.00156196 98.193761 L 56.691715 -0.000702791 " transform="matrix(0.996508,0,0,-0.996508,61.748443,103.011018)"/>
</g>
<path style="fill:none;stroke-width:0.3985;stroke-linecap:butt;stroke-linejoin:miter;stroke:rgb(0%,0%,0%);stroke-opacity:1;stroke-dasharray:2.98883,2.98883;stroke-miterlimit:10;" d="M 22.678407 -0.000702791 C 22.678407 3.758518 12.525766 6.804311 0.00156196 6.804311 C -12.522642 6.804311 -22.679203 3.758518 -22.679203 -0.000702791 C -22.679203 -3.756004 -12.522642 -6.801796 0.00156196 -6.801796 C 12.525766 -6.801796 22.678407 -3.756004 22.678407 -0.000702791 Z M 22.678407 -0.000702791 " transform="matrix(0.996508,0,0,-0.996508,61.748443,103.011018)"/>
<path style="fill:none;stroke-width:0.3985;stroke-linecap:butt;stroke-linejoin:miter;stroke:rgb(0%,0%,0%);stroke-opacity:1;stroke-dasharray:2.98883,2.98883;stroke-miterlimit:10;" d="M -22.679203 -0.000702791 L -22.679203 58.915975 C -22.679203 62.675197 -12.522642 65.720989 0.00156196 65.720989 C 12.525766 65.720989 22.678407 62.675197 22.678407 58.915975 L 22.678407 -0.000702791 " transform="matrix(0.996508,0,0,-0.996508,61.748443,103.011018)"/>
<path style="fill:none;stroke-width:0.3985;stroke-linecap:butt;stroke-linejoin:miter;stroke:rgb(0%,0%,0%);stroke-opacity:1;stroke-miterlimit:10;" d="M -22.679203 58.915975 C -22.679203 55.160674 -12.522642 52.114882 0.00156196 52.114882 C 12.525766 52.114882 22.678407 55.160674 22.678407 58.915975 " transform="matrix(0.996508,0,0,-0.996508,61.748443,103.011018)"/>
</g>
</svg>
