<?xml version="1.0" encoding="UTF-8"?>
<svg xmlns="http://www.w3.org/2000/svg" xmlns:xlink="http://www.w3.org/1999/xlink" width="123.75pt" height="123.75pt" viewBox="0 0 123.75 123.75" version="1.2">
<defs>
<clipPath id="clip1">
  <path d="M 0 0 L 123.5 0 L 123.5 123.5 L 0 123.5 Z M 0 0 "/>
</clipPath>
<clipPath id="clip2">
  <path d="M 27 56 L 96 56 L 96 123.5 L 27 123.5 Z M 27 56 "/>
</clipPath>
<clipPath id="clip3">
  <path d="M 56 27 L 123.5 27 L 123.5 96 L 56 96 Z M 56 27 "/>
</clipPath>
<clipPath id="clip4">
  <path d="M 61 33 L 91 33 L 91 91 L 61 91 Z M 61 33 "/>
</clipPath>
<clipPath id="clip5">
  <path d="M 90.039062 33.460938 C 90.039062 17.835938 77.371094 5.171875 61.75 5.171875 C 46.125 5.171875 33.457031 17.835938 33.457031 33.460938 C 33.457031 49.085938 46.125 61.75 61.75 61.75 C 77.371094 61.75 90.039062 49.085938 90.039062 33.460938 Z M 33.457031 90.039062 C 33.457031 105.664062 46.125 118.332031 61.75 118.332031 C 77.371094 118.332031 90.039062 105.664062 90.039062 90.039062 C 90.039062 74.417969 77.371094 61.75 61.75 61.75 C 46.125 61.75 33.457031 74.417969 33.457031 90.039062 Z M 33.457031 90.039062 "/>
</clipPath>
<clipPath id="clip6">
  <path d="M 33 33 L 62 33 L 62 91 L 33 91 Z M 33 33 "/>
</clipPath>
<clipPath id="clip7">
  <path d="M 90.039062 33.460938 C 90.039062 17.835938 77.371094 5.171875 61.75 5.171875 C 46.125 5.171875 33.457031 17.835938 33.457031 33.460938 C 33.457031 49.085938 46.125 61.75 61.75 61.75 C 77.371094 61.75 90.039062 49.085938 90.039062 33.460938 Z M 33.457031 90.039062 C 33.457031 105.664062 46.125 118.332031 61.75 118.332031 C 77.371094 118.332031 90.039062 105.664062 90.039062 90.039062 C 90.039062 74.417969 77.371094 61.75 61.75 61.75 C 46.125 61.75 33.457031 74.417969 33.457031 90.039062 Z M 33.457031 90.039062 "/>
</clipPath>
<clipPath id="clip8">
  <path d="M 0 39 L 123.5 39 L 123.5 68 L 0 68 Z M 0 39 "/>
</clipPath>
<clipPath id="clip9">
  <path d="M 0 56 L 123.5 56 L 123.5 85 L 0 85 Z M 0 56 "/>
</clipPath>
<clipPath id="clip10">
  <path d="M 56 47 L 123.5 47 L 123.5 76 L 56 76 Z M 56 47 "/>
</clipPath>
</defs>
<g id="surface1">
<path style=" stroke:none;fill-rule:nonzero;fill:rgb(0%,0%,0%);fill-opacity:1;" d="M 118.328125 61.75 C 118.328125 30.503906 92.996094 5.171875 61.75 5.171875 C 30.5 5.171875 5.167969 30.503906 5.167969 61.75 C 5.167969 93 30.5 118.332031 61.75 118.332031 C 92.996094 118.332031 118.328125 93 118.328125 61.75 Z M 118.328125 61.75 "/>
<g clip-path="url(#clip1)" clip-rule="nonzero">
<path style="fill:none;stroke-width:0.3985;stroke-linecap:butt;stroke-linejoin:miter;stroke:rgb(0%,0%,0%);stroke-opacity:1;stroke-miterlimit:10;" d="M 56.694172 0.00125253 C 56.694172 31.31047 31.310965 56.693677 0.00174747 56.693677 C -31.311384 56.693677 -56.694591 31.31047 -56.694591 0.00125253 C -56.694591 -31.311879 -31.311384 -56.695086 0.00174747 -56.695086 C 31.310965 -56.695086 56.694172 -31.311879 56.694172 0.00125253 Z M 56.694172 0.00125253 " transform="matrix(0.997984,0,0,-0.997984,61.748256,61.75125)"/>
</g>
<path style="fill-rule:nonzero;fill:rgb(100%,100%,100%);fill-opacity:1;stroke-width:0.3985;stroke-linecap:butt;stroke-linejoin:miter;stroke:rgb(0%,0%,0%);stroke-opacity:1;stroke-miterlimit:10;" d="M 28.34796 28.347465 C 28.34796 44.00403 15.654399 56.693677 0.00174747 56.693677 C -15.654818 56.693677 -28.348379 44.00403 -28.348379 28.347465 C -28.348379 12.690899 -15.654818 0.00125253 0.00174747 0.00125253 C 15.654399 0.00125253 28.34796 12.690899 28.34796 28.347465 Z M 28.34796 28.347465 " transform="matrix(0.997984,0,0,-0.997984,61.748256,61.75125)"/>
<path style=" stroke:none;fill-rule:nonzero;fill:rgb(100%,100%,100%);fill-opacity:1;" d="M 90.039062 90.039062 C 90.039062 74.417969 77.371094 61.75 61.75 61.75 C 46.125 61.75 33.457031 74.417969 33.457031 90.039062 C 33.457031 105.664062 46.125 118.332031 61.75 118.332031 C 77.371094 118.332031 90.039062 105.664062 90.039062 90.039062 Z M 90.039062 90.039062 "/>
<g clip-path="url(#clip2)" clip-rule="nonzero">
<path style="fill:none;stroke-width:0.3985;stroke-linecap:butt;stroke-linejoin:miter;stroke:rgb(0%,0%,0%);stroke-opacity:1;stroke-miterlimit:10;" d="M 28.34796 -28.34496 C 28.34796 -12.692308 15.654399 0.00125253 0.00174747 0.00125253 C -15.654818 0.00125253 -28.348379 -12.692308 -28.348379 -28.34496 C -28.348379 -44.001525 -15.654818 -56.695086 0.00174747 -56.695086 C 15.654399 -56.695086 28.34796 -44.001525 28.34796 -28.34496 Z M 28.34796 -28.34496 " transform="matrix(0.997984,0,0,-0.997984,61.748256,61.75125)"/>
</g>
<path style=" stroke:none;fill-rule:nonzero;fill:rgb(100%,100%,100%);fill-opacity:1;" d="M 118.328125 61.75 C 118.328125 46.128906 105.660156 33.460938 90.039062 33.460938 C 74.414062 33.460938 61.75 46.128906 61.75 61.75 C 61.75 77.375 74.414062 90.039062 90.039062 90.039062 C 105.660156 90.039062 118.328125 77.375 118.328125 61.75 Z M 118.328125 61.75 "/>
<g clip-path="url(#clip3)" clip-rule="nonzero">
<path style="fill:none;stroke-width:0.3985;stroke-linecap:butt;stroke-linejoin:miter;stroke:rgb(0%,0%,0%);stroke-opacity:1;stroke-miterlimit:10;" d="M 56.694172 0.00125253 C 56.694172 15.653904 44.000611 28.347465 28.34796 28.347465 C 12.691394 28.347465 0.00174747 15.653904 0.00174747 0.00125253 C 0.00174747 -15.655313 12.691394 -28.34496 28.34796 -28.34496 C 44.000611 -28.34496 56.694172 -15.655313 56.694172 0.00125253 Z M 56.694172 0.00125253 " transform="matrix(0.997984,0,0,-0.997984,61.748256,61.75125)"/>
</g>
<path style="fill-rule:nonzero;fill:rgb(100%,100%,100%);fill-opacity:1;stroke-width:0.3985;stroke-linecap:butt;stroke-linejoin:miter;stroke:rgb(0%,0%,0%);stroke-opacity:1;stroke-miterlimit:10;" d="M 0.00174747 0.00125253 C 0.00174747 15.653904 -12.691813 28.347465 -28.348379 28.347465 C -44.00103 28.347465 -56.694591 15.653904 -56.694591 0.00125253 C -56.694591 -15.655313 -44.00103 -28.34496 -28.348379 -28.34496 C -12.691813 -28.34496 0.00174747 -15.655313 0.00174747 0.00125253 Z M 0.00174747 0.00125253 " transform="matrix(0.997984,0,0,-0.997984,61.748256,61.75125)"/>
<g clip-path="url(#clip4)" clip-rule="nonzero">
<g clip-path="url(#clip5)" clip-rule="nonzero">
<path style=" stroke:none;fill-rule:nonzero;fill:rgb(50%,50%,50%);fill-opacity:1;" d="M 118.328125 61.75 C 118.328125 46.128906 105.660156 33.460938 90.039062 33.460938 C 74.414062 33.460938 61.75 46.128906 61.75 61.75 C 61.75 77.375 74.414062 90.039062 90.039062 90.039062 C 105.660156 90.039062 118.328125 77.375 118.328125 61.75 Z M 118.328125 61.75 "/>
</g>
</g>
<g clip-path="url(#clip6)" clip-rule="nonzero">
<g clip-path="url(#clip7)" clip-rule="nonzero">
<path style=" stroke:none;fill-rule:nonzero;fill:rgb(50%,50%,50%);fill-opacity:1;" d="M 61.75 61.75 C 61.75 46.128906 49.082031 33.460938 33.457031 33.460938 C 17.835938 33.460938 5.167969 46.128906 5.167969 61.75 C 5.167969 77.375 17.835938 90.039062 33.457031 90.039062 C 49.082031 90.039062 61.75 77.375 61.75 61.75 Z M 61.75 61.75 "/>
</g>
</g>
<g clip-path="url(#clip8)" clip-rule="nonzero">
<path style="fill:none;stroke-width:0.3985;stroke-linecap:butt;stroke-linejoin:miter;stroke:rgb(0%,0%,0%);stroke-opacity:1;stroke-dasharray:2.98883,2.98883;stroke-miterlimit:10;" d="M -56.694591 0.00125253 C -56.694591 9.395192 -31.311384 17.008197 0.00174747 17.008197 C 31.310965 17.008197 56.694172 9.395192 56.694172 0.00125253 " transform="matrix(0.997984,0,0,-0.997984,61.748256,61.75125)"/>
</g>
<g clip-path="url(#clip9)" clip-rule="nonzero">
<path style="fill:none;stroke-width:0.3985;stroke-linecap:butt;stroke-linejoin:miter;stroke:rgb(0%,0%,0%);stroke-opacity:1;stroke-miterlimit:10;" d="M -56.694591 0.00125253 C -56.694591 -9.392687 -31.311384 -17.009606 0.00174747 -17.009606 C 31.310965 -17.009606 56.694172 -9.392687 56.694172 0.00125253 " transform="matrix(0.997984,0,0,-0.997984,61.748256,61.75125)"/>
</g>
<path style="fill:none;stroke-width:0.3985;stroke-linecap:butt;stroke-linejoin:miter;stroke:rgb(0%,0%,0%);stroke-opacity:1;stroke-dasharray:2.98883,2.98883;stroke-miterlimit:10;" d="M 0.00174747 0.00125253 C 0.00174747 4.698222 -12.691813 8.502768 -28.348379 8.502768 C -44.00103 8.502768 -56.694591 4.698222 -56.694591 0.00125253 C -56.694591 -4.695717 -44.00103 -8.504177 -28.348379 -8.504177 C -12.691813 -8.504177 0.00174747 -4.695717 0.00174747 0.00125253 Z M 0.00174747 0.00125253 " transform="matrix(0.997984,0,0,-0.997984,61.748256,61.75125)"/>
<g clip-path="url(#clip10)" clip-rule="nonzero">
<path style="fill:none;stroke-width:0.3985;stroke-linecap:butt;stroke-linejoin:miter;stroke:rgb(0%,0%,0%);stroke-opacity:1;stroke-dasharray:2.98883,2.98883;stroke-miterlimit:10;" d="M 56.694172 0.00125253 C 56.694172 4.698222 44.000611 8.502768 28.34796 8.502768 C 12.691394 8.502768 0.00174747 4.698222 0.00174747 0.00125253 C 0.00174747 -4.695717 12.691394 -8.504177 28.34796 -8.504177 C 44.000611 -8.504177 56.694172 -4.695717 56.694172 0.00125253 Z M 56.694172 0.00125253 " transform="matrix(0.997984,0,0,-0.997984,61.748256,61.75125)"/>
</g>
<path style="fill:none;stroke-width:0.3985;stroke-linecap:butt;stroke-linejoin:miter;stroke:rgb(0%,0%,0%);stroke-opacity:1;stroke-dasharray:2.98883,2.98883;stroke-miterlimit:10;" d="M 28.34796 28.347465 C 28.34796 33.044434 15.654399 36.84898 0.00174747 36.84898 C -15.654818 36.84898 -28.348379 33.044434 -28.348379 28.347465 C -28.348379 23.650495 -15.654818 19.842035 0.00174747 19.842035 C 15.654399 19.842035 28.34796 23.650495 28.34796 28.347465 Z M 28.34796 28.347465 " transform="matrix(0.997984,0,0,-0.997984,61.748256,61.75125)"/>
<path style="fill:none;stroke-width:0.3985;stroke-linecap:butt;stroke-linejoin:miter;stroke:rgb(0%,0%,0%);stroke-opacity:1;stroke-dasharray:2.98883,2.98883;stroke-miterlimit:10;" d="M 28.34796 -28.34496 C 28.34796 -23.651904 15.654399 -19.843444 0.00174747 -19.843444 C -15.654818 -19.843444 -28.348379 -23.651904 -28.348379 -28.34496 C -28.348379 -33.041929 -15.654818 -36.850389 0.00174747 -36.850389 C 15.654399 -36.850389 28.34796 -33.041929 28.34796 -28.34496 Z M 28.34796 -28.34496 " transform="matrix(0.997984,0,0,-0.997984,61.748256,61.75125)"/>
</g>
</svg>
