<?xml version="1.0" encoding="UTF-8"?>
<svg xmlns="http://www.w3.org/2000/svg" xmlns:xlink="http://www.w3.org/1999/xlink" width="102.88pt" height="99.18pt" viewBox="0 0 102.88 99.18" version="1.2">
<g id="surface1">
<path style="fill:none;stroke-width:0.3985;stroke-linecap:butt;stroke-linejoin:miter;stroke:rgb(0%,0%,0%);stroke-opacity:1;stroke-miterlimit:10;" d="M -0.00102616 0.00145569 L 56.694345 0.00145569 L 78.521767 21.82494 L 78.521767 78.52031 L 21.826396 78.52031 L -0.00102616 56.692888 Z M -0.00102616 0.00145569 " transform="matrix(0.9918,0,0,-0.9918,12.442424,86.2866)"/>
<path style="fill:none;stroke-width:0.3985;stroke-linecap:butt;stroke-linejoin:miter;stroke:rgb(0%,0%,0%);stroke-opacity:1;stroke-miterlimit:10;" d="M -0.00102616 56.692888 L 56.694345 56.692888 L 78.521767 78.52031 " transform="matrix(0.9918,0,0,-0.9918,12.442424,86.2866)"/>
<path style="fill:none;stroke-width:0.3985;stroke-linecap:butt;stroke-linejoin:miter;stroke:rgb(0%,0%,0%);stroke-opacity:1;stroke-miterlimit:10;" d="M 56.694345 56.692888 L 56.694345 0.00145569 " transform="matrix(0.9918,0,0,-0.9918,12.442424,86.2866)"/>
<path style="fill:none;stroke-width:0.3985;stroke-linecap:butt;stroke-linejoin:miter;stroke:rgb(0%,0%,0%);stroke-opacity:1;stroke-dasharray:2.98883,2.98883;stroke-miterlimit:10;" d="M -0.00102616 0.00145569 L 21.826396 21.82494 L 78.521767 21.82494 " transform="matrix(0.9918,0,0,-0.9918,12.442424,86.2866)"/>
<path style="fill:none;stroke-width:0.3985;stroke-linecap:butt;stroke-linejoin:miter;stroke:rgb(0%,0%,0%);stroke-opacity:1;stroke-dasharray:2.98883,2.98883;stroke-miterlimit:10;" d="M 21.826396 21.82494 L 21.826396 78.52031 " transform="matrix(0.9918,0,0,-0.9918,12.442424,86.2866)"/>
<path style="fill:none;stroke-width:0.3985;stroke-linecap:butt;stroke-linejoin:miter;stroke:rgb(0%,0%,0%);stroke-opacity:1;stroke-miterlimit:10;" d="M 58.876299 30.529126 C 58.876299 30.529126 59.439511 39.705939 60.046047 43.037949 C 60.652583 46.36602 62.192555 51.911493 63.240208 54.534565 C 64.2918 57.157636 66.394984 60.725959 67.608056 61.939031 C 68.817189 63.148165 70.924312 63.786209 71.971965 63.262383 C 73.019618 62.738556 74.563528 60.276965 75.166126 58.158027 C 75.772662 56.039089 76.335874 51.135599 76.335874 47.99264 C 76.335874 44.845741 75.772662 38.815827 75.166126 35.483817 C 74.563528 32.151807 73.023557 26.610273 71.971965 23.987201 C 70.924312 21.36413 68.817189 17.795807 67.608056 16.582735 C 66.394984 15.373601 64.2918 14.731618 63.244147 15.255445 C 62.192555 15.779271 60.652583 18.240863 60.046047 20.3598 C 59.439511 22.478738 58.876299 27.382228 58.876299 30.529126 C 58.876299 33.672086 59.439511 39.705939 60.046047 43.03401 C 60.652583 46.36602 62.192555 51.907554 63.240208 54.530626 C 64.2918 57.153698 66.394984 60.725959 67.608056 61.935093 C 68.817189 63.148165 70.920373 63.790148 71.971965 63.266321 C 73.019618 62.742495 74.55959 60.280903 75.166126 58.161966 C 75.772662 56.043028 76.335874 51.139538 76.335874 47.99264 C 76.335874 44.845741 75.772662 38.815827 75.170064 35.487756 C 74.563528 32.155746 73.023557 26.610273 71.971965 23.99114 C 70.924312 21.368068 68.821128 17.795807 67.608056 16.582735 C 66.398922 15.373601 64.2918 14.731618 63.244147 15.255445 C 62.192555 15.779271 60.652583 18.240863 60.046047 20.3598 C 59.439511 22.478738 58.876299 30.525188 58.876299 30.525188 " transform="matrix(0.9918,0,0,-0.9918,12.442424,86.2866)"/>
<path style="fill:none;stroke-width:0.3985;stroke-linecap:butt;stroke-linejoin:miter;stroke:rgb(0%,0%,0%);stroke-opacity:1;stroke-miterlimit:10;" d="M 51.022838 28.347172 C 51.022838 28.347172 49.557699 36.960772 47.986219 39.686246 C 46.410801 42.41172 42.409238 46.413283 39.683764 47.984763 C 36.962229 49.560181 31.491588 51.02532 28.348629 51.02532 C 25.20173 51.02532 19.735028 49.560181 17.009554 47.984763 C 14.28408 46.413283 10.282518 42.41172 8.707099 39.686246 C 7.135619 36.960772 5.67048 31.49407 5.67048 28.347172 C 5.67048 25.200273 7.135619 19.733572 8.707099 17.008098 C 10.278579 14.282624 14.28408 10.281061 17.005616 8.709581 C 19.73109 7.134163 25.197792 5.669023 28.34469 5.669023 C 31.491588 5.669023 36.95829 7.134163 39.683764 8.705643 C 42.409238 10.281061 46.410801 14.282624 47.986219 17.008098 C 49.557699 19.733572 51.022838 25.200273 51.022838 28.343233 C 51.022838 31.490132 49.557699 36.956834 47.986219 39.682307 C 46.414739 42.407781 42.413177 46.409344 39.687703 47.984763 C 36.962229 49.556242 31.495527 51.02532 28.348629 51.02532 C 25.20173 51.02532 19.735028 49.560181 17.009554 47.988701 C 14.28408 46.413283 10.282518 42.41172 8.711038 39.686246 C 7.135619 36.964711 5.67048 31.498009 5.67048 28.35111 C 5.67048 25.204212 7.131681 19.73751 8.707099 17.012036 C 10.278579 14.286562 14.280142 10.284999 17.005616 8.709581 C 19.73109 7.134163 25.197792 5.669023 28.34469 5.669023 C 31.48765 5.669023 36.95829 7.134163 39.679826 8.705643 C 42.405299 10.277122 46.410801 14.278685 47.982281 17.004159 C 49.557699 19.729633 51.022838 28.343233 51.022838 28.343233 " transform="matrix(0.9918,0,0,-0.9918,12.442424,86.2866)"/>
<path style="fill:none;stroke-width:0.3985;stroke-linecap:butt;stroke-linejoin:miter;stroke:rgb(0%,0%,0%);stroke-opacity:1;stroke-miterlimit:10;" d="M 11.338048 28.347172 L 28.348629 28.347172 L 38.36829 38.366833 " transform="matrix(0.9918,0,0,-0.9918,12.442424,86.2866)"/>
<path style="fill:none;stroke-width:0.3985;stroke-linecap:butt;stroke-linejoin:miter;stroke:rgb(0%,0%,0%);stroke-opacity:1;stroke-miterlimit:10;" d="M 61.058254 32.711081 L 67.608056 39.260883 L 71.463892 53.140319 " transform="matrix(0.9918,0,0,-0.9918,12.442424,86.2866)"/>
</g>
</svg>
