<?xml version="1.0" encoding="UTF-8"?>
<svg xmlns="http://www.w3.org/2000/svg" xmlns:xlink="http://www.w3.org/1999/xlink" width="149.26pt" height="109.58pt" viewBox="0 0 149.26 109.58" version="1.2">
<g id="surface1">
<path style="fill:none;stroke-width:0.3985;stroke-linecap:butt;stroke-linejoin:miter;stroke:rgb(50%,50%,50%);stroke-opacity:1;stroke-dasharray:2.98883,2.98883;stroke-miterlimit:10;" d="M 0.000813614 0.0000323931 L 59.52886 0.0000323931 M 0.000813614 9.920065 L 59.52886 9.920065 M 0.000813614 19.844023 L 59.52886 19.844023 M 0.000813614 29.764056 L 59.52886 29.764056 M 0.000813614 39.684088 L 59.52886 39.684088 M 0.000813614 0.0000323931 L 0.000813614 39.688014 M 9.920846 0.0000323931 L 9.920846 39.688014 M 19.844804 0.0000323931 L 19.844804 39.688014 M 29.764837 0.0000323931 L 29.764837 39.688014 M 39.68487 0.0000323931 L 39.68487 39.688014 M 49.608828 0.0000323931 L 49.608828 39.688014 M 59.524935 0.0000323931 L 59.524935 39.688014 " transform="matrix(0.995067,0,0,-0.995067,5.15544,44.71097)"/>
<path style="fill:none;stroke-width:0.3985;stroke-linecap:butt;stroke-linejoin:miter;stroke:rgb(0%,0%,0%);stroke-opacity:1;stroke-miterlimit:10;" d="M 9.920846 9.920065 L 9.920846 29.764056 L 29.764837 29.764056 L 49.608828 9.920065 Z M 9.920846 9.920065 " transform="matrix(0.995067,0,0,-0.995067,5.15544,44.71097)"/>
<path style="fill:none;stroke-width:0.3985;stroke-linecap:butt;stroke-linejoin:miter;stroke:rgb(50%,50%,50%);stroke-opacity:1;stroke-dasharray:2.98883,2.98883;stroke-miterlimit:10;" d="M 79.372851 0.0000323931 L 138.900898 0.0000323931 M 79.372851 9.920065 L 138.900898 9.920065 M 79.372851 19.844023 L 138.900898 19.844023 M 79.372851 29.764056 L 138.900898 29.764056 M 79.372851 39.684088 L 138.900898 39.684088 M 79.372851 0.0000323931 L 79.372851 39.688014 M 89.292884 0.0000323931 L 89.292884 39.688014 M 99.216842 0.0000323931 L 99.216842 39.688014 M 109.136874 0.0000323931 L 109.136874 39.688014 M 119.056907 0.0000323931 L 119.056907 39.688014 M 128.980865 0.0000323931 L 128.980865 39.688014 M 138.896972 0.0000323931 L 138.896972 39.688014 " transform="matrix(0.995067,0,0,-0.995067,5.15544,44.71097)"/>
<path style="fill:none;stroke-width:0.3985;stroke-linecap:butt;stroke-linejoin:miter;stroke:rgb(0%,0%,0%);stroke-opacity:1;stroke-miterlimit:10;" d="M 99.216842 9.920065 L 119.056907 9.920065 L 119.056907 29.764056 L 99.216842 29.764056 Z M 99.216842 9.920065 " transform="matrix(0.995067,0,0,-0.995067,5.15544,44.71097)"/>
<path style="fill:none;stroke-width:0.3985;stroke-linecap:butt;stroke-linejoin:miter;stroke:rgb(50%,50%,50%);stroke-opacity:1;stroke-dasharray:2.98883,2.98883;stroke-miterlimit:10;" d="M 0.000813614 -59.528014 L 59.52886 -59.528014 M 0.000813614 -49.607982 L 59.52886 -49.607982 M 0.000813614 -39.687949 L 59.52886 -39.687949 M 0.000813614 -29.763991 L 59.52886 -29.763991 M 0.000813614 -19.847884 L 59.52886 -19.847884 M 0.000813614 -59.528014 L 0.000813614 -19.843958 M 9.920846 -59.528014 L 9.920846 -19.843958 M 19.844804 -59.528014 L 19.844804 -19.843958 M 29.764837 -59.528014 L 29.764837 -19.843958 M 39.68487 -59.528014 L 39.68487 -19.843958 M 49.608828 -59.528014 L 49.608828 -19.843958 M 59.524935 -59.528014 L 59.524935 -19.843958 " transform="matrix(0.995067,0,0,-0.995067,5.15544,44.71097)"/>
<path style="fill:none;stroke-width:0.3985;stroke-linecap:butt;stroke-linejoin:miter;stroke:rgb(0%,0%,0%);stroke-opacity:1;stroke-miterlimit:10;" d="M 9.920846 -49.607982 L 49.608828 -49.607982 L 49.608828 -29.763991 L 9.920846 -29.763991 Z M 9.920846 -49.607982 " transform="matrix(0.995067,0,0,-0.995067,5.15544,44.71097)"/>
<path style="fill:none;stroke-width:0.3985;stroke-linecap:butt;stroke-linejoin:miter;stroke:rgb(0%,0%,0%);stroke-opacity:1;stroke-miterlimit:10;" d="M 29.764837 -49.607982 L 29.764837 -29.763991 " transform="matrix(0.995067,0,0,-0.995067,5.15544,44.71097)"/>
</g>
</svg>
