<?xml version="1.0" encoding="UTF-8"?>
<svg xmlns="http://www.w3.org/2000/svg" xmlns:xlink="http://www.w3.org/1999/xlink" width="166.27pt" height="61.36pt" viewBox="0 0 166.27 61.36" version="1.2">
<defs>
<clipPath id="clip1">
  <path d="M 0.496094 35 L 26 35 L 26 60.726562 L 0.496094 60.726562 Z M 0.496094 35 "/>
</clipPath>
<clipPath id="clip2">
  <path d="M 14 35 L 40 35 L 40 60.726562 L 14 60.726562 Z M 14 35 "/>
</clipPath>
<clipPath id="clip3">
  <path d="M 42 35 L 68 35 L 68 60.726562 L 42 60.726562 Z M 42 35 "/>
</clipPath>
<clipPath id="clip4">
  <path d="M 56 35 L 82 35 L 82 60.726562 L 56 60.726562 Z M 56 35 "/>
</clipPath>
<clipPath id="clip5">
  <path d="M 70 35 L 96 35 L 96 60.726562 L 70 60.726562 Z M 70 35 "/>
</clipPath>
<clipPath id="clip6">
  <path d="M 98 35 L 124 35 L 124 60.726562 L 98 60.726562 Z M 98 35 "/>
</clipPath>
<clipPath id="clip7">
  <path d="M 112 35 L 138 35 L 138 60.726562 L 112 60.726562 Z M 112 35 "/>
</clipPath>
<clipPath id="clip8">
  <path d="M 126 35 L 152 35 L 152 60.726562 L 126 60.726562 Z M 126 35 "/>
</clipPath>
<clipPath id="clip9">
  <path d="M 140 35 L 165.050781 35 L 165.050781 60.726562 L 140 60.726562 Z M 140 35 "/>
</clipPath>
</defs>
<g id="surface1">
<g clip-path="url(#clip1)" clip-rule="nonzero">
<path style="fill:none;stroke-width:0.3985;stroke-linecap:butt;stroke-linejoin:miter;stroke:rgb(0%,0%,0%);stroke-opacity:1;stroke-miterlimit:10;" d="M 0.00120392 0.000299136 C 0.00120392 3.915716 -3.172179 7.085152 -7.087596 7.085152 C -10.999066 7.085152 -14.172449 3.915716 -14.172449 0.000299136 C -14.172449 -3.915118 -10.999066 -7.088501 -7.087596 -7.088501 C -3.172179 -7.088501 0.00120392 -3.915118 0.00120392 0.000299136 Z M 0.00120392 0.000299136 " transform="matrix(0.989677,0,0,-0.989677,19.651152,48.586234)"/>
</g>
<g clip-path="url(#clip2)" clip-rule="nonzero">
<path style="fill:none;stroke-width:0.3985;stroke-linecap:butt;stroke-linejoin:miter;stroke:rgb(0%,0%,0%);stroke-opacity:1;stroke-miterlimit:10;" d="M 14.174856 0.000299136 C 14.174856 3.915716 11.001474 7.085152 7.086057 7.085152 C 3.174586 7.085152 0.00120392 3.915716 0.00120392 0.000299136 C 0.00120392 -3.915118 3.174586 -7.088501 7.086057 -7.088501 C 11.001474 -7.088501 14.174856 -3.915118 14.174856 0.000299136 Z M 14.174856 0.000299136 " transform="matrix(0.989677,0,0,-0.989677,19.651152,48.586234)"/>
</g>
<path style="fill:none;stroke-width:0.3985;stroke-linecap:butt;stroke-linejoin:miter;stroke:rgb(0%,0%,0%);stroke-opacity:1;stroke-miterlimit:10;" d="M 7.086057 12.275448 C 7.086057 16.186918 3.912674 19.360301 0.00120392 19.360301 C -3.914213 19.360301 -7.087596 16.186918 -7.087596 12.275448 C -7.087596 8.360031 -3.914213 5.186648 0.00120392 5.186648 C 3.912674 5.186648 7.086057 8.360031 7.086057 12.275448 Z M 7.086057 12.275448 " transform="matrix(0.989677,0,0,-0.989677,19.651152,48.586234)"/>
<g clip-path="url(#clip3)" clip-rule="nonzero">
<path style="fill:none;stroke-width:0.3985;stroke-linecap:butt;stroke-linejoin:miter;stroke:rgb(0%,0%,0%);stroke-opacity:1;stroke-miterlimit:10;" d="M 42.522161 0.000299136 C 42.522161 3.915716 39.348779 7.085152 35.433361 7.085152 C 31.517944 7.085152 28.348509 3.915716 28.348509 0.000299136 C 28.348509 -3.915118 31.517944 -7.088501 35.433361 -7.088501 C 39.348779 -7.088501 42.522161 -3.915118 42.522161 0.000299136 Z M 42.522161 0.000299136 " transform="matrix(0.989677,0,0,-0.989677,19.651152,48.586234)"/>
</g>
<g clip-path="url(#clip4)" clip-rule="nonzero">
<path style="fill:none;stroke-width:0.3985;stroke-linecap:butt;stroke-linejoin:miter;stroke:rgb(0%,0%,0%);stroke-opacity:1;stroke-miterlimit:10;" d="M 56.691867 0.000299136 C 56.691867 3.915716 53.522431 7.085152 49.607014 7.085152 C 45.691597 7.085152 42.522161 3.915716 42.522161 0.000299136 C 42.522161 -3.915118 45.691597 -7.088501 49.607014 -7.088501 C 53.522431 -7.088501 56.691867 -3.915118 56.691867 0.000299136 Z M 56.691867 0.000299136 " transform="matrix(0.989677,0,0,-0.989677,19.651152,48.586234)"/>
</g>
<g clip-path="url(#clip5)" clip-rule="nonzero">
<path style="fill:none;stroke-width:0.3985;stroke-linecap:butt;stroke-linejoin:miter;stroke:rgb(0%,0%,0%);stroke-opacity:1;stroke-miterlimit:10;" d="M 70.865519 0.000299136 C 70.865519 3.915716 67.696084 7.085152 63.780666 7.085152 C 59.865249 7.085152 56.691867 3.915716 56.691867 0.000299136 C 56.691867 -3.915118 59.865249 -7.088501 63.780666 -7.088501 C 67.696084 -7.088501 70.865519 -3.915118 70.865519 0.000299136 Z M 70.865519 0.000299136 " transform="matrix(0.989677,0,0,-0.989677,19.651152,48.586234)"/>
</g>
<path style="fill:none;stroke-width:0.3985;stroke-linecap:butt;stroke-linejoin:miter;stroke:rgb(0%,0%,0%);stroke-opacity:1;stroke-miterlimit:10;" d="M 49.607014 12.275448 C 49.607014 16.186918 46.433631 19.360301 42.522161 19.360301 C 38.606744 19.360301 35.433361 16.186918 35.433361 12.275448 C 35.433361 8.360031 38.606744 5.186648 42.522161 5.186648 C 46.433631 5.186648 49.607014 8.360031 49.607014 12.275448 Z M 49.607014 12.275448 " transform="matrix(0.989677,0,0,-0.989677,19.651152,48.586234)"/>
<path style="fill:none;stroke-width:0.3985;stroke-linecap:butt;stroke-linejoin:miter;stroke:rgb(0%,0%,0%);stroke-opacity:1;stroke-miterlimit:10;" d="M 63.780666 12.275448 C 63.780666 16.186918 60.607284 19.360301 56.691867 19.360301 C 52.780396 19.360301 49.607014 16.186918 49.607014 12.275448 C 49.607014 8.360031 52.780396 5.186648 56.691867 5.186648 C 60.607284 5.186648 63.780666 8.360031 63.780666 12.275448 Z M 63.780666 12.275448 " transform="matrix(0.989677,0,0,-0.989677,19.651152,48.586234)"/>
<path style="fill:none;stroke-width:0.3985;stroke-linecap:butt;stroke-linejoin:miter;stroke:rgb(0%,0%,0%);stroke-opacity:1;stroke-miterlimit:10;" d="M 56.691867 24.54665 C 56.691867 28.462067 53.522431 31.635449 49.607014 31.635449 C 45.691597 31.635449 42.522161 28.462067 42.522161 24.54665 C 42.522161 20.635179 45.691597 17.461797 49.607014 17.461797 C 53.522431 17.461797 56.691867 20.635179 56.691867 24.54665 Z M 56.691867 24.54665 " transform="matrix(0.989677,0,0,-0.989677,19.651152,48.586234)"/>
<g clip-path="url(#clip6)" clip-rule="nonzero">
<path style="fill:none;stroke-width:0.3985;stroke-linecap:butt;stroke-linejoin:miter;stroke:rgb(0%,0%,0%);stroke-opacity:1;stroke-miterlimit:10;" d="M 99.212824 0.000299136 C 99.212824 3.915716 96.039441 7.085152 92.127971 7.085152 C 88.212554 7.085152 85.039171 3.915716 85.039171 0.000299136 C 85.039171 -3.915118 88.212554 -7.088501 92.127971 -7.088501 C 96.039441 -7.088501 99.212824 -3.915118 99.212824 0.000299136 Z M 99.212824 0.000299136 " transform="matrix(0.989677,0,0,-0.989677,19.651152,48.586234)"/>
</g>
<g clip-path="url(#clip7)" clip-rule="nonzero">
<path style="fill:none;stroke-width:0.3985;stroke-linecap:butt;stroke-linejoin:miter;stroke:rgb(0%,0%,0%);stroke-opacity:1;stroke-miterlimit:10;" d="M 113.386476 0.000299136 C 113.386476 3.915716 110.213094 7.085152 106.301624 7.085152 C 102.386206 7.085152 99.212824 3.915716 99.212824 0.000299136 C 99.212824 -3.915118 102.386206 -7.088501 106.301624 -7.088501 C 110.213094 -7.088501 113.386476 -3.915118 113.386476 0.000299136 Z M 113.386476 0.000299136 " transform="matrix(0.989677,0,0,-0.989677,19.651152,48.586234)"/>
</g>
<g clip-path="url(#clip8)" clip-rule="nonzero">
<path style="fill:none;stroke-width:0.3985;stroke-linecap:butt;stroke-linejoin:miter;stroke:rgb(0%,0%,0%);stroke-opacity:1;stroke-miterlimit:10;" d="M 127.560129 0.000299136 C 127.560129 3.915716 124.386746 7.085152 120.475276 7.085152 C 116.559859 7.085152 113.386476 3.915716 113.386476 0.000299136 C 113.386476 -3.915118 116.559859 -7.088501 120.475276 -7.088501 C 124.386746 -7.088501 127.560129 -3.915118 127.560129 0.000299136 Z M 127.560129 0.000299136 " transform="matrix(0.989677,0,0,-0.989677,19.651152,48.586234)"/>
</g>
<g clip-path="url(#clip9)" clip-rule="nonzero">
<path style="fill:none;stroke-width:0.3985;stroke-linecap:butt;stroke-linejoin:miter;stroke:rgb(0%,0%,0%);stroke-opacity:1;stroke-miterlimit:10;" d="M 141.733781 0.000299136 C 141.733781 3.915716 138.560399 7.085152 134.648928 7.085152 C 130.733511 7.085152 127.560129 3.915716 127.560129 0.000299136 C 127.560129 -3.915118 130.733511 -7.088501 134.648928 -7.088501 C 138.560399 -7.088501 141.733781 -3.915118 141.733781 0.000299136 Z M 141.733781 0.000299136 " transform="matrix(0.989677,0,0,-0.989677,19.651152,48.586234)"/>
</g>
<path style="fill:none;stroke-width:0.3985;stroke-linecap:butt;stroke-linejoin:miter;stroke:rgb(0%,0%,0%);stroke-opacity:1;stroke-miterlimit:10;" d="M 106.301624 12.275448 C 106.301624 16.186918 103.128241 19.360301 99.212824 19.360301 C 95.301354 19.360301 92.127971 16.186918 92.127971 12.275448 C 92.127971 8.360031 95.301354 5.186648 99.212824 5.186648 C 103.128241 5.186648 106.301624 8.360031 106.301624 12.275448 Z M 106.301624 12.275448 " transform="matrix(0.989677,0,0,-0.989677,19.651152,48.586234)"/>
<path style="fill:none;stroke-width:0.3985;stroke-linecap:butt;stroke-linejoin:miter;stroke:rgb(0%,0%,0%);stroke-opacity:1;stroke-miterlimit:10;" d="M 120.475276 12.275448 C 120.475276 16.186918 117.301893 19.360301 113.386476 19.360301 C 109.475006 19.360301 106.301624 16.186918 106.301624 12.275448 C 106.301624 8.360031 109.475006 5.186648 113.386476 5.186648 C 117.301893 5.186648 120.475276 8.360031 120.475276 12.275448 Z M 120.475276 12.275448 " transform="matrix(0.989677,0,0,-0.989677,19.651152,48.586234)"/>
<path style="fill:none;stroke-width:0.3985;stroke-linecap:butt;stroke-linejoin:miter;stroke:rgb(0%,0%,0%);stroke-opacity:1;stroke-miterlimit:10;" d="M 134.648928 12.275448 C 134.648928 16.186918 131.475546 19.360301 127.560129 19.360301 C 123.648658 19.360301 120.475276 16.186918 120.475276 12.275448 C 120.475276 8.360031 123.648658 5.186648 127.560129 5.186648 C 131.475546 5.186648 134.648928 8.360031 134.648928 12.275448 Z M 134.648928 12.275448 " transform="matrix(0.989677,0,0,-0.989677,19.651152,48.586234)"/>
<path style="fill:none;stroke-width:0.3985;stroke-linecap:butt;stroke-linejoin:miter;stroke:rgb(0%,0%,0%);stroke-opacity:1;stroke-miterlimit:10;" d="M 113.386476 24.54665 C 113.386476 28.462067 110.213094 31.635449 106.301624 31.635449 C 102.386206 31.635449 99.212824 28.462067 99.212824 24.54665 C 99.212824 20.635179 102.386206 17.461797 106.301624 17.461797 C 110.213094 17.461797 113.386476 20.635179 113.386476 24.54665 Z M 113.386476 24.54665 " transform="matrix(0.989677,0,0,-0.989677,19.651152,48.586234)"/>
<path style="fill:none;stroke-width:0.3985;stroke-linecap:butt;stroke-linejoin:miter;stroke:rgb(0%,0%,0%);stroke-opacity:1;stroke-miterlimit:10;" d="M 127.560129 24.54665 C 127.560129 28.462067 124.386746 31.635449 120.475276 31.635449 C 116.559859 31.635449 113.386476 28.462067 113.386476 24.54665 C 113.386476 20.635179 116.559859 17.461797 120.475276 17.461797 C 124.386746 17.461797 127.560129 20.635179 127.560129 24.54665 Z M 127.560129 24.54665 " transform="matrix(0.989677,0,0,-0.989677,19.651152,48.586234)"/>
<path style="fill:none;stroke-width:0.3985;stroke-linecap:butt;stroke-linejoin:miter;stroke:rgb(0%,0%,0%);stroke-opacity:1;stroke-miterlimit:10;" d="M 120.475276 36.821798 C 120.475276 40.737215 117.301893 43.910598 113.386476 43.910598 C 109.475006 43.910598 106.301624 40.737215 106.301624 36.821798 C 106.301624 32.910328 109.475006 29.736946 113.386476 29.736946 C 117.301893 29.736946 120.475276 32.910328 120.475276 36.821798 Z M 120.475276 36.821798 " transform="matrix(0.989677,0,0,-0.989677,19.651152,48.586234)"/>
</g>
</svg>
