<?xml version="1.0" encoding="UTF-8"?>
<svg xmlns="http://www.w3.org/2000/svg" xmlns:xlink="http://www.w3.org/1999/xlink" width="118.16pt" height="74.11pt" viewBox="0 0 118.16 74.11" version="1.2">
<defs>
<g>
<symbol overflow="visible" id="glyph0-0">
<path style="stroke:none;" d=""/>
</symbol>
<symbol overflow="visible" id="glyph0-1">
<path style="stroke:none;" d="M 7.4375 0 L 7.4375 -0.328125 L 7.25 -0.328125 C 6.625 -0.328125 6.484375 -0.390625 6.375 -0.734375 L 4.125 -7.21875 C 4.078125 -7.359375 4.0625 -7.421875 3.890625 -7.421875 C 3.71875 -7.421875 3.6875 -7.359375 3.640625 -7.21875 L 1.5 -1.015625 C 1.3125 -0.484375 0.890625 -0.328125 0.328125 -0.328125 L 0.328125 0 L 1.390625 -0.03125 L 2.578125 0 L 2.578125 -0.328125 C 2.0625 -0.328125 1.8125 -0.578125 1.8125 -0.84375 C 1.8125 -0.875 1.8125 -0.984375 1.828125 -1 L 2.296875 -2.359375 L 4.859375 -2.359375 L 5.421875 -0.78125 C 5.421875 -0.734375 5.453125 -0.671875 5.453125 -0.640625 C 5.453125 -0.328125 4.859375 -0.328125 4.578125 -0.328125 L 4.578125 0 C 4.953125 -0.03125 5.6875 -0.03125 6.078125 -0.03125 Z M 4.75 -2.6875 L 2.421875 -2.6875 L 3.578125 -6.0625 Z M 4.75 -2.6875 "/>
</symbol>
<symbol overflow="visible" id="glyph0-2">
<path style="stroke:none;" d="M 6.75 -1.90625 C 6.75 -2.796875 5.90625 -3.578125 4.75 -3.703125 C 5.765625 -3.90625 6.46875 -4.5625 6.46875 -5.328125 C 6.46875 -6.234375 5.515625 -7.09375 4.171875 -7.09375 L 0.375 -7.09375 L 0.375 -6.765625 L 0.625 -6.765625 C 1.421875 -6.765625 1.4375 -6.65625 1.4375 -6.28125 L 1.4375 -0.8125 C 1.4375 -0.4375 1.421875 -0.328125 0.625 -0.328125 L 0.375 -0.328125 L 0.375 0 L 4.4375 0 C 5.828125 0 6.75 -0.921875 6.75 -1.90625 Z M 5.46875 -5.328125 C 5.46875 -4.671875 4.953125 -3.796875 3.8125 -3.796875 L 2.296875 -3.796875 L 2.296875 -6.34375 C 2.296875 -6.6875 2.328125 -6.765625 2.8125 -6.765625 L 4.09375 -6.765625 C 5.109375 -6.765625 5.46875 -5.875 5.46875 -5.328125 Z M 5.71875 -1.90625 C 5.71875 -1.171875 5.171875 -0.328125 4.109375 -0.328125 L 2.8125 -0.328125 C 2.328125 -0.328125 2.296875 -0.390625 2.296875 -0.734375 L 2.296875 -3.5625 L 4.25 -3.5625 C 5.28125 -3.5625 5.71875 -2.609375 5.71875 -1.90625 Z M 5.71875 -1.90625 "/>
</symbol>
</g>
<clipPath id="clip1">
  <path d="M 11 27 L 58 27 L 58 73.230469 L 11 73.230469 Z M 11 27 "/>
</clipPath>
</defs>
<g id="surface1">
<path style="fill:none;stroke-width:0.3985;stroke-linecap:butt;stroke-linejoin:miter;stroke:rgb(0%,0%,0%);stroke-opacity:1;stroke-miterlimit:10;" d="M -0.000442079 -0.00106759 L -0.000442079 14.174967 L 35.431739 14.174967 L 35.431739 -0.00106759 Z M -0.000442079 -0.00106759 " transform="matrix(0.988133,0,0,-0.988133,16.758249,26.096601)"/>
<path style="fill:none;stroke-width:0.3985;stroke-linecap:butt;stroke-linejoin:miter;stroke:rgb(0%,0%,0%);stroke-opacity:1;stroke-miterlimit:10;" d="M 49.607773 -0.00106759 L 49.607773 14.174967 L 85.039954 14.174967 L 85.039954 -0.00106759 Z M 49.607773 -0.00106759 " transform="matrix(0.988133,0,0,-0.988133,16.758249,26.096601)"/>
<g clip-path="url(#clip1)" clip-rule="nonzero">
<path style="fill:none;stroke-width:0.3985;stroke-linecap:butt;stroke-linejoin:miter;stroke:rgb(0%,0%,0%);stroke-opacity:1;stroke-miterlimit:10;" d="M 35.431739 -24.803199 C 35.431739 -15.019126 27.501698 -7.085132 17.717625 -7.085132 C 7.933552 -7.085132 -0.000442079 -15.019126 -0.000442079 -24.803199 C -0.000442079 -34.587272 7.933552 -42.521266 17.717625 -42.521266 C 27.501698 -42.521266 35.431739 -34.587272 35.431739 -24.803199 Z M 35.431739 -24.803199 " transform="matrix(0.988133,0,0,-0.988133,16.758249,26.096601)"/>
</g>
<g style="fill:rgb(0%,0%,0%);fill-opacity:1;">
  <use xlink:href="#glyph0-1" x="8.665437" y="15.806181"/>
</g>
<g style="fill:rgb(0%,0%,0%);fill-opacity:1;">
  <use xlink:href="#glyph0-2" x="101.317759" y="29.640047"/>
</g>
</g>
</svg>
