<?xml version="1.0" encoding="UTF-8"?>
<svg xmlns="http://www.w3.org/2000/svg" xmlns:xlink="http://www.w3.org/1999/xlink" width="112.41pt" height="95.4pt" viewBox="0 0 112.41 95.4" version="1.2">
<g id="surface1">
<path style="fill:none;stroke-width:0.3985;stroke-linecap:butt;stroke-linejoin:miter;stroke:rgb(75%,75%,75%);stroke-opacity:1;stroke-miterlimit:10;" d="M 0.000289308 -0.000125786 L 102.048245 -0.000125786 M 0.000289308 8.502233 L 102.048245 8.502233 M 0.000289308 17.008522 L 102.048245 17.008522 M 0.000289308 25.510881 L 102.048245 25.510881 M 0.000289308 34.01717 L 102.048245 34.01717 M 0.000289308 42.519528 L 102.048245 42.519528 M 0.000289308 51.025818 L 102.048245 51.025818 M 0.000289308 59.528176 L 102.048245 59.528176 M 0.000289308 68.034465 L 102.048245 68.034465 M 0.000289308 76.536824 L 102.048245 76.536824 M 0.000289308 85.039182 L 102.048245 85.039182 M 0.000289308 -0.000125786 L 0.000289308 85.043113 M 8.502648 -0.000125786 L 8.502648 85.043113 M 17.008937 -0.000125786 L 17.008937 85.043113 M 25.511296 -0.000125786 L 25.511296 85.043113 M 34.017585 -0.000125786 L 34.017585 85.043113 M 42.519943 -0.000125786 L 42.519943 85.043113 M 51.026233 -0.000125786 L 51.026233 85.043113 M 59.528591 -0.000125786 L 59.528591 85.043113 M 68.034881 -0.000125786 L 68.034881 85.043113 M 76.537239 -0.000125786 L 76.537239 85.043113 M 85.039597 -0.000125786 L 85.039597 85.043113 M 93.545887 -0.000125786 L 93.545887 85.043113 M 102.048245 -0.000125786 L 102.048245 85.043113 " transform="matrix(0.99375,0,0,-0.99375,5.206744,89.656125)"/>
<path style="fill:none;stroke-width:0.3985;stroke-linecap:butt;stroke-linejoin:miter;stroke:rgb(0%,0%,0%);stroke-opacity:1;stroke-miterlimit:10;" d="M 8.502648 8.502233 L 8.502648 34.01717 L 59.528591 34.01717 L 59.528591 8.502233 Z M 8.502648 8.502233 " transform="matrix(0.99375,0,0,-0.99375,5.206744,89.656125)"/>
<path style="fill:none;stroke-width:0.3985;stroke-linecap:butt;stroke-linejoin:miter;stroke:rgb(0%,0%,0%);stroke-opacity:1;stroke-miterlimit:10;" d="M 8.502648 42.519528 L 59.528591 42.519528 L 8.502648 76.536824 Z M 8.502648 42.519528 " transform="matrix(0.99375,0,0,-0.99375,5.206744,89.656125)"/>
<path style="fill:none;stroke-width:0.3985;stroke-linecap:butt;stroke-linejoin:miter;stroke:rgb(0%,0%,0%);stroke-opacity:1;stroke-miterlimit:10;" d="M 68.034881 42.519528 L 68.034881 76.536824 L 93.545887 76.536824 L 93.545887 42.519528 Z M 68.034881 42.519528 " transform="matrix(0.99375,0,0,-0.99375,5.206744,89.656125)"/>
</g>
</svg>
