<?xml version="1.0" encoding="UTF-8"?>
<svg xmlns="http://www.w3.org/2000/svg" xmlns:xlink="http://www.w3.org/1999/xlink" width="248.47pt" height="112.41pt" viewBox="0 0 248.47 112.41" version="1.2">
<defs>
<g>
<symbol overflow="visible" id="glyph0-0">
<path style="stroke:none;" d=""/>
</symbol>
<symbol overflow="visible" id="glyph0-1">
<path style="stroke:none;" d="M 5.578125 -3.015625 L 5.578125 -1.0625 C 5.578125 -0.40625 5.59375 0.148438 5.625 0.609375 L 4.96875 0.890625 L 5.015625 0.125 C 5.015625 -0.550781 5.015625 -1.597656 5.015625 -3.015625 L 2.359375 -3.015625 L 2.359375 -2.359375 L 1.75 -2.03125 C 1.78125 -3.039062 1.796875 -4.046875 1.796875 -5.046875 C 1.796875 -6.054688 1.78125 -7.050781 1.75 -8.03125 L 2.40625 -7.625 L 8.15625 -7.625 L 8.5625 -8.03125 L 9.140625 -7.46875 L 8.765625 -7.21875 L 8.765625 -4.234375 C 8.765625 -3.554688 8.78125 -3.015625 8.8125 -2.609375 L 8.1875 -2.359375 L 8.1875 -3.015625 Z M 2.359375 -7.375 L 2.359375 -5.375 L 5.015625 -5.375 L 5.015625 -7.375 Z M 5.578125 -7.375 L 5.578125 -5.375 L 8.1875 -5.375 L 8.1875 -7.375 Z M 2.359375 -5.140625 L 2.359375 -3.265625 L 5.015625 -3.265625 L 5.015625 -5.140625 Z M 5.578125 -5.140625 L 5.578125 -3.265625 L 8.1875 -3.265625 L 8.1875 -5.140625 Z M 5.578125 -5.140625 "/>
</symbol>
<symbol overflow="visible" id="glyph0-2">
<path style="stroke:none;" d="M 1.421875 -7.25 L 6.15625 -7.25 L 6.640625 -7.703125 L 7.421875 -6.9375 C 7.035156 -6.9375 6.25 -6.28125 5.0625 -4.96875 C 3.882812 -3.664062 3.101562 -2.722656 2.71875 -2.140625 C 2.34375 -1.554688 2.15625 -1.128906 2.15625 -0.859375 C 2.15625 -0.742188 2.1875 -0.617188 2.25 -0.484375 C 2.320312 -0.347656 2.578125 -0.28125 3.015625 -0.28125 L 8.078125 -0.28125 C 8.367188 -0.363281 8.539062 -0.554688 8.59375 -0.859375 C 8.65625 -1.160156 8.695312 -1.8125 8.71875 -2.8125 L 8.921875 -2.8125 C 8.953125 -2.101562 9 -1.554688 9.0625 -1.171875 C 9.132812 -0.796875 9.332031 -0.582031 9.65625 -0.53125 C 9.46875 -0.0703125 9.007812 0.171875 8.28125 0.203125 L 2.765625 0.203125 C 2.253906 0.203125 1.910156 0.0820312 1.734375 -0.15625 C 1.554688 -0.40625 1.46875 -0.625 1.46875 -0.8125 C 1.46875 -1.082031 1.625 -1.515625 1.9375 -2.109375 C 2.25 -2.710938 3.671875 -4.347656 6.203125 -7.015625 L 2.765625 -7.015625 C 2.421875 -7.015625 2.097656 -6.972656 1.796875 -6.890625 Z M 1.421875 -7.25 "/>
</symbol>
<symbol overflow="visible" id="glyph1-0">
<path style="stroke:none;" d=""/>
</symbol>
<symbol overflow="visible" id="glyph1-1">
<path style="stroke:none;" d="M 4.765625 -3.4375 C 4.765625 -6.234375 3.5625 -6.953125 2.640625 -6.953125 C 2.0625 -6.953125 1.5625 -6.765625 1.109375 -6.296875 C 0.671875 -5.828125 0.4375 -5.390625 0.4375 -4.609375 C 0.4375 -3.296875 1.359375 -2.28125 2.53125 -2.28125 C 3.15625 -2.28125 3.59375 -2.71875 3.828125 -3.3125 L 3.828125 -2.984375 C 3.828125 -0.546875 2.75 -0.0625 2.140625 -0.0625 C 1.96875 -0.0625 1.40625 -0.078125 1.109375 -0.4375 C 1.578125 -0.4375 1.65625 -0.734375 1.65625 -0.921875 C 1.65625 -1.234375 1.40625 -1.40625 1.171875 -1.40625 C 1.015625 -1.40625 0.703125 -1.296875 0.703125 -0.890625 C 0.703125 -0.203125 1.265625 0.234375 2.15625 0.234375 C 3.5 0.234375 4.765625 -1.1875 4.765625 -3.4375 Z M 3.8125 -4.390625 C 3.8125 -3.53125 3.453125 -2.515625 2.53125 -2.515625 C 2.375 -2.515625 1.890625 -2.515625 1.5625 -3.171875 C 1.375 -3.5625 1.375 -4.078125 1.375 -4.59375 C 1.375 -5.15625 1.375 -5.640625 1.59375 -6.03125 C 1.875 -6.5625 2.28125 -6.6875 2.640625 -6.6875 C 3.125 -6.6875 3.46875 -6.328125 3.640625 -5.859375 C 3.765625 -5.53125 3.8125 -4.875 3.8125 -4.390625 Z M 3.8125 -4.390625 "/>
</symbol>
<symbol overflow="visible" id="glyph1-2">
<path style="stroke:none;" d="M 4.796875 -3.34375 C 4.796875 -4.171875 4.75 -5.015625 4.390625 -5.78125 C 3.90625 -6.78125 3.046875 -6.953125 2.609375 -6.953125 C 1.984375 -6.953125 1.21875 -6.6875 0.796875 -5.703125 C 0.453125 -4.984375 0.40625 -4.171875 0.40625 -3.34375 C 0.40625 -2.5625 0.453125 -1.625 0.875 -0.828125 C 1.328125 0.015625 2.09375 0.234375 2.59375 0.234375 C 3.15625 0.234375 3.953125 0.015625 4.421875 -0.984375 C 4.75 -1.703125 4.796875 -2.515625 4.796875 -3.34375 Z M 3.9375 -3.46875 C 3.9375 -2.6875 3.9375 -1.96875 3.8125 -1.296875 C 3.65625 -0.3125 3.0625 0 2.59375 0 C 2.1875 0 1.578125 -0.265625 1.390625 -1.265625 C 1.265625 -1.890625 1.265625 -2.84375 1.265625 -3.46875 C 1.265625 -4.140625 1.265625 -4.828125 1.359375 -5.390625 C 1.5625 -6.625 2.34375 -6.71875 2.59375 -6.71875 C 2.9375 -6.71875 3.625 -6.53125 3.828125 -5.5 C 3.9375 -4.921875 3.9375 -4.125 3.9375 -3.46875 Z M 3.9375 -3.46875 "/>
</symbol>
<symbol overflow="visible" id="glyph1-3">
<path style="stroke:none;" d="M 4.6875 -1.8125 L 4.421875 -1.8125 C 4.375 -1.5 4.296875 -1.046875 4.203125 -0.890625 C 4.125 -0.796875 3.4375 -0.796875 3.203125 -0.796875 L 1.328125 -0.796875 L 2.4375 -1.875 C 4.0625 -3.3125 4.6875 -3.875 4.6875 -4.921875 C 4.6875 -6.109375 3.75 -6.953125 2.46875 -6.953125 C 1.296875 -6.953125 0.515625 -5.984375 0.515625 -5.0625 C 0.515625 -4.484375 1.046875 -4.484375 1.078125 -4.484375 C 1.25 -4.484375 1.625 -4.609375 1.625 -5.03125 C 1.625 -5.296875 1.4375 -5.578125 1.0625 -5.578125 C 0.984375 -5.578125 0.953125 -5.578125 0.921875 -5.5625 C 1.171875 -6.234375 1.734375 -6.625 2.34375 -6.625 C 3.28125 -6.625 3.734375 -5.78125 3.734375 -4.921875 C 3.734375 -4.09375 3.21875 -3.265625 2.640625 -2.625 L 0.640625 -0.390625 C 0.515625 -0.265625 0.515625 -0.25 0.515625 0 L 4.390625 0 Z M 4.6875 -1.8125 "/>
</symbol>
<symbol overflow="visible" id="glyph1-4">
<path style="stroke:none;" d="M 4.765625 -1.75 C 4.765625 -2.125 4.65625 -2.59375 4.265625 -3.03125 C 4.0625 -3.25 3.890625 -3.359375 3.21875 -3.78125 C 3.984375 -4.171875 4.484375 -4.703125 4.484375 -5.390625 C 4.484375 -6.359375 3.5625 -6.953125 2.609375 -6.953125 C 1.5625 -6.953125 0.71875 -6.171875 0.71875 -5.203125 C 0.71875 -5.015625 0.734375 -4.546875 1.171875 -4.0625 C 1.296875 -3.9375 1.6875 -3.671875 1.9375 -3.5 C 1.34375 -3.1875 0.4375 -2.609375 0.4375 -1.578125 C 0.4375 -0.46875 1.5 0.234375 2.59375 0.234375 C 3.78125 0.234375 4.765625 -0.640625 4.765625 -1.75 Z M 4.03125 -5.390625 C 4.03125 -4.796875 3.625 -4.296875 3 -3.9375 L 1.703125 -4.765625 C 1.21875 -5.078125 1.171875 -5.4375 1.171875 -5.609375 C 1.171875 -6.25 1.859375 -6.6875 2.59375 -6.6875 C 3.359375 -6.6875 4.03125 -6.140625 4.03125 -5.390625 Z M 4.25 -1.375 C 4.25 -0.609375 3.46875 -0.0625 2.609375 -0.0625 C 1.71875 -0.0625 0.953125 -0.703125 0.953125 -1.578125 C 0.953125 -2.1875 1.296875 -2.84375 2.1875 -3.34375 L 3.46875 -2.53125 C 3.75 -2.328125 4.25 -2.015625 4.25 -1.375 Z M 4.25 -1.375 "/>
</symbol>
<symbol overflow="visible" id="glyph1-5">
<path style="stroke:none;" d="M 4.921875 -1.71875 L 4.921875 -2.046875 L 3.875 -2.046875 L 3.875 -6.796875 C 3.875 -7 3.875 -7.0625 3.703125 -7.0625 C 3.609375 -7.0625 3.578125 -7.0625 3.5 -6.9375 L 0.296875 -2.046875 L 0.296875 -1.71875 L 3.0625 -1.71875 L 3.0625 -0.8125 C 3.0625 -0.4375 3.046875 -0.328125 2.28125 -0.328125 L 2.0625 -0.328125 L 2.0625 0 C 2.484375 -0.03125 3.03125 -0.03125 3.46875 -0.03125 C 3.90625 -0.03125 4.453125 -0.03125 4.890625 0 L 4.890625 -0.328125 L 4.671875 -0.328125 C 3.890625 -0.328125 3.875 -0.4375 3.875 -0.8125 L 3.875 -1.71875 Z M 3.125 -2.046875 L 0.578125 -2.046875 L 3.125 -5.9375 Z M 3.125 -2.046875 "/>
</symbol>
<symbol overflow="visible" id="glyph1-6">
<path style="stroke:none;" d="M 4.6875 -2.09375 C 4.6875 -3.34375 3.828125 -4.390625 2.703125 -4.390625 C 2.203125 -4.390625 1.75 -4.21875 1.375 -3.84375 L 1.375 -5.890625 C 1.59375 -5.828125 1.9375 -5.75 2.265625 -5.75 C 3.546875 -5.75 4.28125 -6.703125 4.28125 -6.84375 C 4.28125 -6.90625 4.25 -6.953125 4.171875 -6.953125 C 4.171875 -6.953125 4.140625 -6.953125 4.09375 -6.921875 C 3.875 -6.828125 3.375 -6.625 2.671875 -6.625 C 2.25 -6.625 1.78125 -6.6875 1.28125 -6.90625 C 1.203125 -6.9375 1.15625 -6.9375 1.15625 -6.9375 C 1.046875 -6.9375 1.046875 -6.859375 1.046875 -6.6875 L 1.046875 -3.59375 C 1.046875 -3.40625 1.046875 -3.328125 1.203125 -3.328125 C 1.265625 -3.328125 1.296875 -3.359375 1.34375 -3.421875 C 1.453125 -3.59375 1.84375 -4.15625 2.6875 -4.15625 C 3.21875 -4.15625 3.484375 -3.671875 3.5625 -3.484375 C 3.734375 -3.09375 3.75 -2.6875 3.75 -2.171875 C 3.75 -1.8125 3.75 -1.171875 3.5 -0.734375 C 3.25 -0.328125 2.875 -0.0625 2.390625 -0.0625 C 1.625 -0.0625 1.03125 -0.609375 0.859375 -1.234375 C 0.890625 -1.21875 0.921875 -1.203125 1.03125 -1.203125 C 1.375 -1.203125 1.5625 -1.46875 1.5625 -1.71875 C 1.5625 -1.96875 1.375 -2.234375 1.03125 -2.234375 C 0.890625 -2.234375 0.515625 -2.15625 0.515625 -1.6875 C 0.515625 -0.78125 1.234375 0.234375 2.40625 0.234375 C 3.625 0.234375 4.6875 -0.765625 4.6875 -2.09375 Z M 4.6875 -2.09375 "/>
</symbol>
<symbol overflow="visible" id="glyph1-7">
<path style="stroke:none;" d="M 5.0625 -6.71875 L 2.53125 -6.71875 C 1.25 -6.71875 1.234375 -6.859375 1.1875 -7.0625 L 0.921875 -7.0625 L 0.578125 -4.90625 L 0.84375 -4.90625 C 0.875 -5.078125 0.96875 -5.734375 1.109375 -5.859375 C 1.171875 -5.921875 2 -5.921875 2.125 -5.921875 L 4.296875 -5.921875 L 3.125 -4.265625 C 2.1875 -2.859375 1.84375 -1.40625 1.84375 -0.34375 C 1.84375 -0.234375 1.84375 0.234375 2.3125 0.234375 C 2.796875 0.234375 2.796875 -0.234375 2.796875 -0.34375 L 2.796875 -0.875 C 2.796875 -1.453125 2.828125 -2.03125 2.90625 -2.59375 C 2.953125 -2.828125 3.09375 -3.71875 3.5625 -4.375 L 4.96875 -6.359375 C 5.0625 -6.484375 5.0625 -6.5 5.0625 -6.71875 Z M 5.0625 -6.71875 "/>
</symbol>
<symbol overflow="visible" id="glyph1-8">
<path style="stroke:none;" d="M 4.375 0 L 4.375 -0.328125 L 4.046875 -0.328125 C 3.09375 -0.328125 3.0625 -0.4375 3.0625 -0.828125 L 3.0625 -6.6875 C 3.0625 -6.9375 3.0625 -6.953125 2.828125 -6.953125 C 2.1875 -6.28125 1.265625 -6.28125 0.921875 -6.28125 L 0.921875 -5.953125 C 1.140625 -5.953125 1.75 -5.953125 2.296875 -6.234375 L 2.296875 -0.828125 C 2.296875 -0.453125 2.265625 -0.328125 1.328125 -0.328125 L 0.984375 -0.328125 L 0.984375 0 C 1.359375 -0.03125 2.265625 -0.03125 2.6875 -0.03125 C 3.09375 -0.03125 4.015625 -0.03125 4.375 0 Z M 4.375 0 "/>
</symbol>
<symbol overflow="visible" id="glyph1-9">
<path style="stroke:none;" d="M 4.765625 -2.125 C 4.765625 -3.453125 3.84375 -4.453125 2.6875 -4.453125 C 1.96875 -4.453125 1.59375 -3.921875 1.375 -3.421875 L 1.375 -3.671875 C 1.375 -6.3125 2.671875 -6.6875 3.203125 -6.6875 C 3.453125 -6.6875 3.890625 -6.625 4.125 -6.265625 C 3.96875 -6.265625 3.546875 -6.265625 3.546875 -5.796875 C 3.546875 -5.484375 3.796875 -5.328125 4.03125 -5.328125 C 4.203125 -5.328125 4.515625 -5.421875 4.515625 -5.828125 C 4.515625 -6.453125 4.046875 -6.953125 3.1875 -6.953125 C 1.84375 -6.953125 0.4375 -5.609375 0.4375 -3.296875 C 0.4375 -0.515625 1.65625 0.234375 2.625 0.234375 C 3.78125 0.234375 4.765625 -0.75 4.765625 -2.125 Z M 3.828125 -2.140625 C 3.828125 -1.640625 3.828125 -1.109375 3.65625 -0.734375 C 3.34375 -0.109375 2.859375 -0.0625 2.625 -0.0625 C 1.96875 -0.0625 1.65625 -0.6875 1.59375 -0.84375 C 1.40625 -1.34375 1.40625 -2.171875 1.40625 -2.359375 C 1.40625 -3.171875 1.734375 -4.21875 2.671875 -4.21875 C 2.84375 -4.21875 3.3125 -4.21875 3.640625 -3.5625 C 3.828125 -3.1875 3.828125 -2.65625 3.828125 -2.140625 Z M 3.828125 -2.140625 "/>
</symbol>
<symbol overflow="visible" id="glyph1-10">
<path style="stroke:none;" d="M 4.765625 -1.78125 C 4.765625 -2.640625 4.109375 -3.453125 3.03125 -3.671875 C 3.875 -3.953125 4.484375 -4.6875 4.484375 -5.515625 C 4.484375 -6.359375 3.5625 -6.953125 2.5625 -6.953125 C 1.515625 -6.953125 0.71875 -6.328125 0.71875 -5.53125 C 0.71875 -5.1875 0.953125 -4.984375 1.25 -4.984375 C 1.578125 -4.984375 1.78125 -5.21875 1.78125 -5.515625 C 1.78125 -6.046875 1.296875 -6.046875 1.140625 -6.046875 C 1.46875 -6.5625 2.15625 -6.6875 2.53125 -6.6875 C 2.953125 -6.6875 3.53125 -6.453125 3.53125 -5.515625 C 3.53125 -5.390625 3.5 -4.796875 3.234375 -4.328125 C 2.921875 -3.828125 2.5625 -3.796875 2.3125 -3.78125 C 2.21875 -3.78125 1.96875 -3.75 1.90625 -3.75 C 1.8125 -3.75 1.75 -3.734375 1.75 -3.625 C 1.75 -3.515625 1.8125 -3.515625 2 -3.515625 L 2.453125 -3.515625 C 3.3125 -3.515625 3.6875 -2.8125 3.6875 -1.78125 C 3.6875 -0.359375 2.96875 -0.0625 2.515625 -0.0625 C 2.0625 -0.0625 1.28125 -0.234375 0.921875 -0.859375 C 1.28125 -0.796875 1.609375 -1.03125 1.609375 -1.4375 C 1.609375 -1.8125 1.328125 -2.015625 1.015625 -2.015625 C 0.765625 -2.015625 0.4375 -1.875 0.4375 -1.40625 C 0.4375 -0.453125 1.40625 0.234375 2.546875 0.234375 C 3.8125 0.234375 4.765625 -0.71875 4.765625 -1.78125 Z M 4.765625 -1.78125 "/>
</symbol>
</g>
</defs>
<g id="surface1">
<path style="fill:none;stroke-width:0.3985;stroke-linecap:butt;stroke-linejoin:miter;stroke:rgb(0%,0%,0%);stroke-opacity:1;stroke-miterlimit:10;" d="M -5.669182 0.00116912 L -5.669182 102.045687 " transform="matrix(0.994779,0,0,-0.994779,118.330988,106.669132)"/>
<path style="fill:none;stroke-width:0.3985;stroke-linecap:butt;stroke-linejoin:miter;stroke:rgb(0%,0%,0%);stroke-opacity:1;stroke-miterlimit:10;" d="M 6.802184 0.00116912 L 6.802184 102.045687 " transform="matrix(0.994779,0,0,-0.994779,118.330988,106.669132)"/>
<path style="fill:none;stroke-width:0.3985;stroke-linecap:butt;stroke-linejoin:miter;stroke:rgb(0%,0%,0%);stroke-opacity:1;stroke-miterlimit:10;" d="M -113.38393 79.368691 L 124.722562 79.368691 " transform="matrix(0.994779,0,0,-0.994779,118.330988,106.669132)"/>
<path style="fill:none;stroke-width:0.3985;stroke-linecap:butt;stroke-linejoin:miter;stroke:rgb(0%,0%,0%);stroke-opacity:1;stroke-miterlimit:10;" d="M -113.38393 102.045687 L 124.722562 102.045687 " transform="matrix(0.994779,0,0,-0.994779,118.330988,106.669132)"/>
<path style="fill:none;stroke-width:0.3985;stroke-linecap:butt;stroke-linejoin:miter;stroke:rgb(0%,0%,0%);stroke-opacity:1;stroke-miterlimit:10;" d="M -113.38393 0.00116912 L 124.722562 0.00116912 " transform="matrix(0.994779,0,0,-0.994779,118.330988,106.669132)"/>
<g style="fill:rgb(0%,0%,0%);fill-opacity:1;">
  <use xlink:href="#glyph0-1" x="56.711407" y="20.005001"/>
</g>
<g style="fill:rgb(0%,0%,0%);fill-opacity:1;">
  <use xlink:href="#glyph0-2" x="175.144793" y="20.18804"/>
</g>
<g style="fill:rgb(0%,0%,0%);fill-opacity:1;">
  <use xlink:href="#glyph1-1" x="115.719694" y="98.753677"/>
</g>
<g style="fill:rgb(0%,0%,0%);fill-opacity:1;">
  <use xlink:href="#glyph1-2" x="104.439897" y="98.753677"/>
</g>
<g style="fill:rgb(0%,0%,0%);fill-opacity:1;">
  <use xlink:href="#glyph1-3" x="93.161096" y="98.868077"/>
</g>
<g style="fill:rgb(0%,0%,0%);fill-opacity:1;">
  <use xlink:href="#glyph1-2" x="126.998495" y="98.753677"/>
</g>
<g style="fill:rgb(0%,0%,0%);fill-opacity:1;">
  <use xlink:href="#glyph1-4" x="115.719694" y="87.473881"/>
</g>
<g style="fill:rgb(0%,0%,0%);fill-opacity:1;">
  <use xlink:href="#glyph1-3" x="104.439897" y="87.58828"/>
</g>
<g style="fill:rgb(0%,0%,0%);fill-opacity:1;">
  <use xlink:href="#glyph1-5" x="93.161096" y="87.645978"/>
</g>
<g style="fill:rgb(0%,0%,0%);fill-opacity:1;">
  <use xlink:href="#glyph1-5" x="81.881299" y="87.645978"/>
</g>
<g style="fill:rgb(0%,0%,0%);fill-opacity:1;">
  <use xlink:href="#glyph1-6" x="70.602498" y="87.473881"/>
</g>
<g style="fill:rgb(0%,0%,0%);fill-opacity:1;">
  <use xlink:href="#glyph1-7" x="59.322702" y="87.525609"/>
</g>
<g style="fill:rgb(0%,0%,0%);fill-opacity:1;">
  <use xlink:href="#glyph1-8" x="126.998495" y="87.58828"/>
</g>
<g style="fill:rgb(0%,0%,0%);fill-opacity:1;">
  <use xlink:href="#glyph1-8" x="138.278292" y="87.58828"/>
</g>
<g style="fill:rgb(0%,0%,0%);fill-opacity:1;">
  <use xlink:href="#glyph1-6" x="149.558088" y="87.473881"/>
</g>
<g style="fill:rgb(0%,0%,0%);fill-opacity:1;">
  <use xlink:href="#glyph1-6" x="160.83689" y="87.473881"/>
</g>
<g style="fill:rgb(0%,0%,0%);fill-opacity:1;">
  <use xlink:href="#glyph1-4" x="172.116686" y="87.473881"/>
</g>
<g style="fill:rgb(0%,0%,0%);fill-opacity:1;">
  <use xlink:href="#glyph1-7" x="115.719694" y="76.246808"/>
</g>
<g style="fill:rgb(0%,0%,0%);fill-opacity:1;">
  <use xlink:href="#glyph1-2" x="104.439897" y="76.194084"/>
</g>
<g style="fill:rgb(0%,0%,0%);fill-opacity:1;">
  <use xlink:href="#glyph1-2" x="93.161096" y="76.194084"/>
</g>
<g style="fill:rgb(0%,0%,0%);fill-opacity:1;">
  <use xlink:href="#glyph1-8" x="81.881299" y="76.309479"/>
</g>
<g style="fill:rgb(0%,0%,0%);fill-opacity:1;">
  <use xlink:href="#glyph1-8" x="70.602498" y="76.309479"/>
</g>
<g style="fill:rgb(0%,0%,0%);fill-opacity:1;">
  <use xlink:href="#glyph1-3" x="59.322702" y="76.309479"/>
</g>
<g style="fill:rgb(0%,0%,0%);fill-opacity:1;">
  <use xlink:href="#glyph1-3" x="48.0439" y="76.309479"/>
</g>
<g style="fill:rgb(0%,0%,0%);fill-opacity:1;">
  <use xlink:href="#glyph1-9" x="36.764104" y="76.194084"/>
</g>
<g style="fill:rgb(0%,0%,0%);fill-opacity:1;">
  <use xlink:href="#glyph1-9" x="25.485302" y="76.194084"/>
</g>
<g style="fill:rgb(0%,0%,0%);fill-opacity:1;">
  <use xlink:href="#glyph1-4" x="14.205506" y="76.194084"/>
</g>
<g style="fill:rgb(0%,0%,0%);fill-opacity:1;">
  <use xlink:href="#glyph1-2" x="126.998495" y="76.194084"/>
</g>
<g style="fill:rgb(0%,0%,0%);fill-opacity:1;">
  <use xlink:href="#glyph1-2" x="138.278292" y="76.194084"/>
</g>
<g style="fill:rgb(0%,0%,0%);fill-opacity:1;">
  <use xlink:href="#glyph1-3" x="149.558088" y="76.309479"/>
</g>
<g style="fill:rgb(0%,0%,0%);fill-opacity:1;">
  <use xlink:href="#glyph1-3" x="160.83689" y="76.309479"/>
</g>
<g style="fill:rgb(0%,0%,0%);fill-opacity:1;">
  <use xlink:href="#glyph1-3" x="172.116686" y="76.309479"/>
</g>
<g style="fill:rgb(0%,0%,0%);fill-opacity:1;">
  <use xlink:href="#glyph1-10" x="183.395488" y="76.194084"/>
</g>
<g style="fill:rgb(0%,0%,0%);fill-opacity:1;">
  <use xlink:href="#glyph1-10" x="194.675284" y="76.194084"/>
</g>
<g style="fill:rgb(0%,0%,0%);fill-opacity:1;">
  <use xlink:href="#glyph1-9" x="205.954086" y="76.194084"/>
</g>
<g style="fill:rgb(0%,0%,0%);fill-opacity:1;">
  <use xlink:href="#glyph1-9" x="217.233882" y="76.194084"/>
</g>
<g style="fill:rgb(0%,0%,0%);fill-opacity:1;">
  <use xlink:href="#glyph1-1" x="228.512684" y="76.194084"/>
</g>
<g style="fill:rgb(0%,0%,0%);fill-opacity:1;">
  <use xlink:href="#glyph1-9" x="115.719694" y="64.915283"/>
</g>
<g style="fill:rgb(0%,0%,0%);fill-opacity:1;">
  <use xlink:href="#glyph1-2" x="104.439897" y="64.915283"/>
</g>
<g style="fill:rgb(0%,0%,0%);fill-opacity:1;">
  <use xlink:href="#glyph1-2" x="93.161096" y="64.915283"/>
</g>
<g style="fill:rgb(0%,0%,0%);fill-opacity:1;">
  <use xlink:href="#glyph1-8" x="81.881299" y="65.029682"/>
</g>
<g style="fill:rgb(0%,0%,0%);fill-opacity:1;">
  <use xlink:href="#glyph1-10" x="70.602498" y="64.915283"/>
</g>
<g style="fill:rgb(0%,0%,0%);fill-opacity:1;">
  <use xlink:href="#glyph1-10" x="59.322702" y="64.915283"/>
</g>
<g style="fill:rgb(0%,0%,0%);fill-opacity:1;">
  <use xlink:href="#glyph1-10" x="48.0439" y="64.915283"/>
</g>
<g style="fill:rgb(0%,0%,0%);fill-opacity:1;">
  <use xlink:href="#glyph1-5" x="36.764104" y="65.08738"/>
</g>
<g style="fill:rgb(0%,0%,0%);fill-opacity:1;">
  <use xlink:href="#glyph1-6" x="25.485302" y="64.915283"/>
</g>
<g style="fill:rgb(0%,0%,0%);fill-opacity:1;">
  <use xlink:href="#glyph1-6" x="14.205506" y="64.915283"/>
</g>
<g style="fill:rgb(0%,0%,0%);fill-opacity:1;">
  <use xlink:href="#glyph1-2" x="126.998495" y="64.915283"/>
</g>
<g style="fill:rgb(0%,0%,0%);fill-opacity:1;">
  <use xlink:href="#glyph1-9" x="138.278292" y="64.915283"/>
</g>
<g style="fill:rgb(0%,0%,0%);fill-opacity:1;">
  <use xlink:href="#glyph1-1" x="149.558088" y="64.915283"/>
</g>
<g style="fill:rgb(0%,0%,0%);fill-opacity:1;">
  <use xlink:href="#glyph1-8" x="160.83689" y="65.029682"/>
</g>
<g style="fill:rgb(0%,0%,0%);fill-opacity:1;">
  <use xlink:href="#glyph1-8" x="172.116686" y="65.029682"/>
</g>
<g style="fill:rgb(0%,0%,0%);fill-opacity:1;">
  <use xlink:href="#glyph1-3" x="183.395488" y="65.029682"/>
</g>
<g style="fill:rgb(0%,0%,0%);fill-opacity:1;">
  <use xlink:href="#glyph1-3" x="194.675284" y="65.029682"/>
</g>
<g style="fill:rgb(0%,0%,0%);fill-opacity:1;">
  <use xlink:href="#glyph1-10" x="205.954086" y="64.915283"/>
</g>
<g style="fill:rgb(0%,0%,0%);fill-opacity:1;">
  <use xlink:href="#glyph1-10" x="217.233882" y="64.915283"/>
</g>
<g style="fill:rgb(0%,0%,0%);fill-opacity:1;">
  <use xlink:href="#glyph1-6" x="228.512684" y="64.915283"/>
</g>
<g style="fill:rgb(0%,0%,0%);fill-opacity:1;">
  <use xlink:href="#glyph1-6" x="115.719694" y="53.635486"/>
</g>
<g style="fill:rgb(0%,0%,0%);fill-opacity:1;">
  <use xlink:href="#glyph1-3" x="104.439897" y="53.750881"/>
</g>
<g style="fill:rgb(0%,0%,0%);fill-opacity:1;">
  <use xlink:href="#glyph1-10" x="93.161096" y="53.635486"/>
</g>
<g style="fill:rgb(0%,0%,0%);fill-opacity:1;">
  <use xlink:href="#glyph1-10" x="81.881299" y="53.635486"/>
</g>
<g style="fill:rgb(0%,0%,0%);fill-opacity:1;">
  <use xlink:href="#glyph1-6" x="70.602498" y="53.635486"/>
</g>
<g style="fill:rgb(0%,0%,0%);fill-opacity:1;">
  <use xlink:href="#glyph1-10" x="126.998495" y="53.635486"/>
</g>
<g style="fill:rgb(0%,0%,0%);fill-opacity:1;">
  <use xlink:href="#glyph1-10" x="138.278292" y="53.635486"/>
</g>
<g style="fill:rgb(0%,0%,0%);fill-opacity:1;">
  <use xlink:href="#glyph1-4" x="149.558088" y="53.635486"/>
</g>
<g style="fill:rgb(0%,0%,0%);fill-opacity:1;">
  <use xlink:href="#glyph1-5" x="115.719694" y="42.528782"/>
</g>
<g style="fill:rgb(0%,0%,0%);fill-opacity:1;">
  <use xlink:href="#glyph1-7" x="104.439897" y="42.408413"/>
</g>
<g style="fill:rgb(0%,0%,0%);fill-opacity:1;">
  <use xlink:href="#glyph1-6" x="126.998495" y="42.356685"/>
</g>
</g>
</svg>
